<svg width="138" height="73" viewBox="0 0 138 73" fill="none" xmlns="http://www.w3.org/2000/svg">
<path d="M53.692 29.422L55.966 31.825C55.966 31.825 53.692 35.386 48.372 35.386C47.257 35.386 46.1841 35.257 45.2401 34.957C43.3091 37.789 40.263 39.677 36.488 39.677C33.527 39.677 31.21 38.347 29.752 36.201L28.679 39.033H24.389L34.471 9H39.2761L35.6721 19.1683C36.6591 18.8251 37.732 18.6535 38.89 18.6535C43.953 18.6535 47.385 22.6436 47.385 27.878C47.385 28.993 47.2571 30.066 46.9561 31.139C47.6001 31.267 48.2861 31.353 49.0161 31.353C52.3191 31.353 53.692 29.422 53.692 29.422ZM37.303 35.429C39.062 35.429 40.606 34.571 41.765 33.284C38.761 30.967 37.2601 27.106 37.7751 22.9868C34.6001 23.4588 32.54 26.762 32.54 30.023C32.54 33.155 34.428 35.429 37.303 35.429ZM43.738 28.307C43.738 26.248 43.009 24.574 41.55 23.6304C41.464 25.818 42.151 27.921 43.653 29.38C43.695 29.036 43.738 28.65 43.738 28.307Z" fill="url(#paint0_linear_41_1544)"/>
<path d="M78.1331 29.422L80.407 31.825C80.407 31.825 78.176 35.386 72.813 35.386C71.697 35.386 70.6251 35.257 69.6811 34.957C67.7501 37.789 64.704 39.677 60.971 39.677C55.908 39.677 52.519 35.686 52.519 30.409C52.519 24.317 56.8521 18.6535 63.3741 18.6535C68.4371 18.6535 71.826 22.6007 71.826 27.878C71.826 28.993 71.697 30.066 71.397 31.139C72.041 31.267 72.7271 31.353 73.4991 31.353C76.7601 31.353 78.1331 29.422 78.1331 29.422ZM61.743 35.429C63.503 35.429 65.09 34.571 66.248 33.284C63.245 30.967 61.7011 27.106 62.2151 22.9868C59.0401 23.4588 57.024 26.762 57.024 29.98C57.024 33.155 58.869 35.429 61.743 35.429ZM68.179 28.307C68.179 26.248 67.4501 24.574 65.9911 23.6733C65.9051 25.818 66.592 27.878 68.093 29.337C68.136 28.993 68.179 28.65 68.179 28.307Z" fill="url(#paint1_linear_41_1544)"/>
<path d="M102.602 29.422L104.876 31.825C104.876 31.825 102.645 35.386 97.282 35.386C96.166 35.386 95.0941 35.257 94.1501 34.957C92.2191 37.789 89.1731 39.677 85.4401 39.677C80.3771 39.677 76.988 35.686 76.988 30.409C76.988 24.317 81.321 18.6535 87.843 18.6535C92.905 18.6535 96.295 22.6007 96.295 27.878C96.295 28.993 96.1661 30.066 95.8661 31.139C96.5091 31.267 97.196 31.353 97.968 31.353C101.229 31.353 102.602 29.422 102.602 29.422ZM86.212 35.429C87.971 35.429 89.559 34.571 90.717 33.284C87.714 30.967 86.1691 27.106 86.6841 22.9868C83.5091 23.4588 81.493 26.762 81.493 29.98C81.493 33.155 83.338 35.429 86.212 35.429ZM92.648 28.307C92.648 26.248 91.9191 24.574 90.4601 23.6733C90.3741 25.818 91.061 27.878 92.562 29.337C92.605 28.993 92.648 28.65 92.648 28.307Z" fill="url(#paint2_linear_41_1544)"/>
<path d="M126.642 30.881L129.387 33.026C129.387 33.026 125.912 39.677 119.219 39.677C115.1 39.677 113.556 36.888 113.041 33.455C112.655 31.353 111.883 30.023 109.995 29.852C109.995 29.894 109.952 29.894 109.952 29.894L109.78 29.852H109.566C107.506 29.852 106.348 30.881 105.576 33.284L103.688 39.033H99.011L108.922 9H113.642L107.335 27.363C111.711 24.96 115.358 23.33 118.79 19.297H124.754C121.536 23.2013 118.318 25.089 114.242 27.406C116.044 28.05 117.374 29.508 117.932 32.168C118.447 34.485 119.09 35.429 120.892 35.429C124.368 35.429 126.642 30.881 126.642 30.881Z" fill="url(#paint3_linear_41_1544)"/>
<path d="M15.307 63.512C11.574 63.512 9 61.153 9 57.205C9 55.275 9.601 53.129 10.673 49.869L16.251 32.836H20.971L15.007 51.07C14.063 53.859 13.677 55.232 13.677 56.562C13.677 58.235 14.835 59.265 16.508 59.265C19.855 59.265 22.172 54.717 22.172 54.717L24.918 56.862C24.918 56.862 21.271 63.512 15.307 63.512Z" fill="url(#paint4_linear_41_1544)"/>
<path d="M47.3091 53.258L49.583 55.661C49.583 55.661 47.352 59.222 41.989 59.222C40.874 59.222 39.8011 59.093 38.8571 58.793C36.9271 61.625 33.88 63.512 30.148 63.512C25.085 63.512 21.696 59.522 21.696 54.245C21.696 48.153 26.029 42.489 32.55 42.489C37.613 42.489 41.002 46.436 41.002 51.714C41.002 52.829 40.8741 53.902 40.5731 54.974C41.2171 55.103 41.9031 55.189 42.6761 55.189C45.9361 55.189 47.3091 53.258 47.3091 53.258ZM30.92 59.265C32.679 59.265 34.266 58.407 35.425 57.12C32.422 54.803 30.8771 50.941 31.3921 46.823C28.2171 47.294 26.2 50.598 26.2 53.816C26.2 56.991 28.045 59.265 30.92 59.265ZM37.356 52.143C37.356 50.083 36.6261 48.41 35.1671 47.509C35.0821 49.654 35.7681 51.714 37.2701 53.172C37.3131 52.829 37.356 52.486 37.356 52.143Z" fill="url(#paint5_linear_41_1544)"/>
<path d="M72.7221 53.258L74.9961 55.661C74.9961 55.661 72.7221 59.222 67.4021 59.222C65.7721 59.222 64.1411 58.836 62.7251 58.021C59.8511 61.281 55.9041 63.512 52.2141 63.512C48.1381 63.512 46.0791 59.994 46.0791 55.232C46.0791 51.542 47.3661 47.123 49.4681 43.133H54.2731C52.0851 47.337 50.7981 51.714 50.7551 54.76C50.7121 57.42 51.5701 59.222 53.6301 59.222C55.5601 59.222 58.0921 57.806 60.0221 55.661C58.8211 54.03 58.0491 51.799 58.0491 49.011C58.0491 44.377 60.2371 42.489 62.7251 42.489C64.8711 42.489 66.8871 44.42 66.8871 47.895C66.8871 50.212 66.2011 52.572 65.0421 54.674C65.9001 55.017 66.9301 55.189 68.0461 55.189C71.3491 55.189 72.7221 53.258 72.7221 53.258ZM61.6531 48.796C61.6531 50.212 61.9101 51.328 62.3391 52.271C62.9401 51.027 63.2831 49.74 63.2831 48.41C63.2831 47.38 63.0261 46.394 62.5111 46.394C61.9531 46.394 61.6531 47.38 61.6531 48.796Z" fill="url(#paint6_linear_41_1544)"/>
<path d="M95.4121 54.202L97.8571 56.862C97.8571 56.862 93.3521 63.512 83.5271 63.512C75.8901 63.512 71.4711 59.05 71.4711 53.258C71.4711 47.681 75.8901 42.489 82.6261 42.489C87.2171 42.489 90.4781 44.935 90.4781 48.367C90.4781 53.687 84.6861 56.39 77.9071 57.334C79.2371 58.621 81.2111 59.351 83.7421 59.351C91.3361 59.394 95.4121 54.202 95.4121 54.202ZM82.3261 46.136C78.7651 46.136 75.9761 49.054 75.9761 52.529C75.9761 53.258 76.0621 53.945 76.2341 54.588C82.1541 53.644 86.1871 51.799 86.1871 48.925C86.1871 47.337 84.7721 46.136 82.3261 46.136Z" fill="url(#paint7_linear_41_1544)"/>
<path d="M118.796 54.717L121.542 56.862C121.542 56.862 118.024 63.512 111.631 63.512C107.513 63.512 105.282 60.466 106.612 55.918L107.083 54.202C107.47 52.958 107.684 51.799 107.684 50.813C107.684 49.139 106.783 48.281 104.552 47.981C103.522 47.852 102.664 47.681 102.021 47.423C100.862 51.413 99.146 55.618 96.4 58.836L94.041 56.347C96.701 52.7 98.331 47.123 98.889 41.417H103.308C103.308 43.347 104.08 43.905 106.869 44.248C110.687 44.72 112.447 46.737 112.447 49.654C112.447 51.113 112.06 52.829 111.331 55.446C110.645 58.063 111.417 59.265 113.219 59.265C116.48 59.265 118.796 54.717 118.796 54.717Z" fill="url(#paint8_linear_41_1544)"/>
<mask id="mask0_41_1544" style="mask-type:luminance" maskUnits="userSpaceOnUse" x="0" y="0" width="138" height="73">
<path d="M138 0H0V73H138V0Z" fill="white"/>
<path d="M53.692 29.422L55.966 31.825C55.966 31.825 53.692 35.386 48.372 35.386C47.257 35.386 46.1841 35.257 45.2401 34.957C43.3091 37.789 40.263 39.677 36.488 39.677C33.527 39.677 31.21 38.347 29.752 36.201L28.679 39.033H24.389L34.471 9H39.2761L35.6721 19.1683C36.6591 18.8251 37.732 18.6535 38.89 18.6535C43.953 18.6535 47.385 22.6436 47.385 27.878C47.385 28.993 47.2571 30.066 46.9561 31.139C47.6001 31.267 48.2861 31.353 49.0161 31.353C52.3191 31.353 53.692 29.422 53.692 29.422ZM37.303 35.429C39.062 35.429 40.606 34.571 41.765 33.284C38.761 30.967 37.2601 27.106 37.7751 22.9868C34.6001 23.4588 32.54 26.762 32.54 30.023C32.54 33.155 34.428 35.429 37.303 35.429ZM43.738 28.307C43.738 26.248 43.009 24.574 41.55 23.6304C41.464 25.818 42.151 27.921 43.653 29.38C43.695 29.036 43.738 28.65 43.738 28.307Z" fill="black"/>
<path d="M78.1331 29.422L80.407 31.825C80.407 31.825 78.176 35.386 72.813 35.386C71.697 35.386 70.6251 35.257 69.6811 34.957C67.7501 37.789 64.704 39.677 60.971 39.677C55.908 39.677 52.519 35.686 52.519 30.409C52.519 24.317 56.8521 18.6535 63.3741 18.6535C68.4371 18.6535 71.826 22.6007 71.826 27.878C71.826 28.993 71.697 30.066 71.397 31.139C72.041 31.267 72.7271 31.353 73.4991 31.353C76.7601 31.353 78.1331 29.422 78.1331 29.422ZM61.743 35.429C63.503 35.429 65.09 34.571 66.248 33.284C63.245 30.967 61.7011 27.106 62.2151 22.9868C59.0401 23.4588 57.024 26.762 57.024 29.98C57.024 33.155 58.869 35.429 61.743 35.429ZM68.179 28.307C68.179 26.248 67.4501 24.574 65.9911 23.6733C65.9051 25.818 66.592 27.878 68.093 29.337C68.136 28.993 68.179 28.65 68.179 28.307Z" fill="black"/>
<path d="M102.602 29.422L104.876 31.825C104.876 31.825 102.645 35.386 97.282 35.386C96.166 35.386 95.0941 35.257 94.1501 34.957C92.2191 37.789 89.1731 39.677 85.4401 39.677C80.3771 39.677 76.988 35.686 76.988 30.409C76.988 24.317 81.321 18.6535 87.843 18.6535C92.905 18.6535 96.295 22.6007 96.295 27.878C96.295 28.993 96.1661 30.066 95.8661 31.139C96.5091 31.267 97.196 31.353 97.968 31.353C101.229 31.353 102.602 29.422 102.602 29.422ZM86.212 35.429C87.971 35.429 89.559 34.571 90.717 33.284C87.714 30.967 86.1691 27.106 86.6841 22.9868C83.5091 23.4588 81.493 26.762 81.493 29.98C81.493 33.155 83.338 35.429 86.212 35.429ZM92.648 28.307C92.648 26.248 91.9191 24.574 90.4601 23.6733C90.3741 25.818 91.061 27.878 92.562 29.337C92.605 28.993 92.648 28.65 92.648 28.307Z" fill="black"/>
<path d="M126.642 30.881L129.387 33.026C129.387 33.026 125.912 39.677 119.219 39.677C115.1 39.677 113.556 36.888 113.041 33.455C112.655 31.353 111.883 30.023 109.995 29.852C109.995 29.894 109.952 29.894 109.952 29.894L109.78 29.852H109.566C107.506 29.852 106.348 30.881 105.576 33.284L103.688 39.033H99.011L108.922 9H113.642L107.335 27.363C111.711 24.96 115.358 23.33 118.79 19.297H124.754C121.536 23.2013 118.318 25.089 114.242 27.406C116.044 28.05 117.374 29.508 117.932 32.168C118.447 34.485 119.09 35.429 120.892 35.429C124.368 35.429 126.642 30.881 126.642 30.881Z" fill="black"/>
<path d="M15.307 63.512C11.574 63.512 9 61.153 9 57.205C9 55.275 9.601 53.129 10.673 49.869L16.251 32.836H20.971L15.007 51.07C14.063 53.859 13.677 55.232 13.677 56.562C13.677 58.235 14.835 59.265 16.508 59.265C19.855 59.265 22.172 54.717 22.172 54.717L24.918 56.862C24.918 56.862 21.271 63.512 15.307 63.512Z" fill="black"/>
<path d="M47.3091 53.258L49.583 55.661C49.583 55.661 47.352 59.222 41.989 59.222C40.874 59.222 39.8011 59.093 38.8571 58.793C36.9271 61.625 33.88 63.512 30.148 63.512C25.085 63.512 21.696 59.522 21.696 54.245C21.696 48.153 26.029 42.489 32.55 42.489C37.613 42.489 41.002 46.436 41.002 51.714C41.002 52.829 40.8741 53.902 40.5731 54.974C41.2171 55.103 41.9031 55.189 42.6761 55.189C45.9361 55.189 47.3091 53.258 47.3091 53.258ZM30.92 59.265C32.679 59.265 34.266 58.407 35.425 57.12C32.422 54.803 30.8771 50.941 31.3921 46.823C28.2171 47.294 26.2 50.598 26.2 53.816C26.2 56.991 28.045 59.265 30.92 59.265ZM37.356 52.143C37.356 50.083 36.6261 48.41 35.1671 47.509C35.0821 49.654 35.7681 51.714 37.2701 53.172C37.3131 52.829 37.356 52.486 37.356 52.143Z" fill="black"/>
<path d="M72.722 53.258L74.996 55.661C74.996 55.661 72.722 59.222 67.402 59.222C65.772 59.222 64.141 58.836 62.725 58.021C59.851 61.281 55.904 63.512 52.214 63.512C48.138 63.512 46.079 59.994 46.079 55.232C46.079 51.542 47.366 47.123 49.468 43.133H54.273C52.085 47.337 50.798 51.714 50.755 54.76C50.712 57.42 51.57 59.222 53.63 59.222C55.56 59.222 58.092 57.806 60.022 55.661C58.821 54.03 58.049 51.799 58.049 49.011C58.049 44.377 60.237 42.489 62.725 42.489C64.871 42.489 66.887 44.42 66.887 47.895C66.887 50.212 66.201 52.572 65.042 54.674C65.9 55.017 66.93 55.189 68.046 55.189C71.349 55.189 72.722 53.258 72.722 53.258ZM61.653 48.796C61.653 50.212 61.91 51.328 62.339 52.271C62.94 51.027 63.283 49.74 63.283 48.41C63.283 47.38 63.026 46.394 62.511 46.394C61.953 46.394 61.653 47.38 61.653 48.796Z" fill="black"/>
<path d="M95.412 54.202L97.857 56.862C97.857 56.862 93.3519 63.512 83.5269 63.512C75.8899 63.512 71.4709 59.05 71.4709 53.258C71.4709 47.681 75.8899 42.489 82.6259 42.489C87.2169 42.489 90.478 44.935 90.478 48.367C90.478 53.687 84.686 56.39 77.907 57.334C79.237 58.621 81.2109 59.351 83.7419 59.351C91.3359 59.394 95.412 54.202 95.412 54.202ZM82.326 46.136C78.765 46.136 75.976 49.054 75.976 52.529C75.976 53.258 76.0619 53.945 76.2339 54.588C82.1539 53.644 86.187 51.799 86.187 48.925C86.187 47.337 84.772 46.136 82.326 46.136Z" fill="black"/>
<path d="M118.796 54.717L121.542 56.862C121.542 56.862 118.024 63.512 111.631 63.512C107.513 63.512 105.282 60.466 106.612 55.918L107.083 54.202C107.47 52.958 107.684 51.799 107.684 50.813C107.684 49.139 106.783 48.281 104.552 47.981C103.522 47.852 102.664 47.681 102.021 47.423C100.862 51.413 99.146 55.618 96.4 58.836L94.041 56.347C96.701 52.7 98.331 47.123 98.889 41.417H103.308C103.308 43.347 104.08 43.905 106.869 44.248C110.687 44.72 112.447 46.737 112.447 49.654C112.447 51.113 112.06 52.829 111.331 55.446C110.645 58.063 111.417 59.265 113.219 59.265C116.48 59.265 118.796 54.717 118.796 54.717Z" fill="black"/>
</mask>
<g mask="url(#mask0_41_1544)">
<path d="M53.692 29.422L55.966 31.825C55.966 31.825 53.692 35.386 48.372 35.386C47.257 35.386 46.1841 35.257 45.2401 34.957C43.3091 37.789 40.263 39.677 36.488 39.677C33.527 39.677 31.21 38.347 29.752 36.201L28.679 39.033H24.389L34.471 9H39.2761L35.6721 19.1683C36.6591 18.8251 37.732 18.6535 38.89 18.6535C43.953 18.6535 47.385 22.6436 47.385 27.878C47.385 28.993 47.2571 30.066 46.9561 31.139C47.6001 31.267 48.2861 31.353 49.0161 31.353C52.3191 31.353 53.692 29.422 53.692 29.422ZM37.303 35.429C39.062 35.429 40.606 34.571 41.765 33.284C38.761 30.967 37.2601 27.106 37.7751 22.9868C34.6001 23.4588 32.54 26.762 32.54 30.023C32.54 33.155 34.428 35.429 37.303 35.429ZM43.738 28.307C43.738 26.248 43.009 24.574 41.55 23.6304C41.464 25.818 42.151 27.921 43.653 29.38C43.695 29.036 43.738 28.65 43.738 28.307Z" stroke="white" stroke-width="17.0159" stroke-linejoin="round"/>
</g>
<mask id="mask1_41_1544" style="mask-type:luminance" maskUnits="userSpaceOnUse" x="0" y="0" width="138" height="73">
<path d="M138 0H0V73H138V0Z" fill="white"/>
<path d="M53.692 29.422L55.966 31.825C55.966 31.825 53.692 35.386 48.372 35.386C47.257 35.386 46.1841 35.257 45.2401 34.957C43.3091 37.789 40.263 39.677 36.488 39.677C33.527 39.677 31.21 38.347 29.752 36.201L28.679 39.033H24.389L34.471 9H39.2761L35.6721 19.1683C36.6591 18.8251 37.732 18.6535 38.89 18.6535C43.953 18.6535 47.385 22.6436 47.385 27.878C47.385 28.993 47.2571 30.066 46.9561 31.139C47.6001 31.267 48.2861 31.353 49.0161 31.353C52.3191 31.353 53.692 29.422 53.692 29.422ZM37.303 35.429C39.062 35.429 40.606 34.571 41.765 33.284C38.761 30.967 37.2601 27.106 37.7751 22.9868C34.6001 23.4588 32.54 26.762 32.54 30.023C32.54 33.155 34.428 35.429 37.303 35.429ZM43.738 28.307C43.738 26.248 43.009 24.574 41.55 23.6304C41.464 25.818 42.151 27.921 43.653 29.38C43.695 29.036 43.738 28.65 43.738 28.307Z" fill="black"/>
<path d="M78.1331 29.422L80.407 31.825C80.407 31.825 78.176 35.386 72.813 35.386C71.697 35.386 70.6251 35.257 69.6811 34.957C67.7501 37.789 64.704 39.677 60.971 39.677C55.908 39.677 52.519 35.686 52.519 30.409C52.519 24.317 56.8521 18.6535 63.3741 18.6535C68.4371 18.6535 71.826 22.6007 71.826 27.878C71.826 28.993 71.697 30.066 71.397 31.139C72.041 31.267 72.7271 31.353 73.4991 31.353C76.7601 31.353 78.1331 29.422 78.1331 29.422ZM61.743 35.429C63.503 35.429 65.09 34.571 66.248 33.284C63.245 30.967 61.7011 27.106 62.2151 22.9868C59.0401 23.4588 57.024 26.762 57.024 29.98C57.024 33.155 58.869 35.429 61.743 35.429ZM68.179 28.307C68.179 26.248 67.4501 24.574 65.9911 23.6733C65.9051 25.818 66.592 27.878 68.093 29.337C68.136 28.993 68.179 28.65 68.179 28.307Z" fill="black"/>
<path d="M102.602 29.422L104.876 31.825C104.876 31.825 102.645 35.386 97.282 35.386C96.166 35.386 95.0941 35.257 94.1501 34.957C92.2191 37.789 89.1731 39.677 85.4401 39.677C80.3771 39.677 76.988 35.686 76.988 30.409C76.988 24.317 81.321 18.6535 87.843 18.6535C92.905 18.6535 96.295 22.6007 96.295 27.878C96.295 28.993 96.1661 30.066 95.8661 31.139C96.5091 31.267 97.196 31.353 97.968 31.353C101.229 31.353 102.602 29.422 102.602 29.422ZM86.212 35.429C87.971 35.429 89.559 34.571 90.717 33.284C87.714 30.967 86.1691 27.106 86.6841 22.9868C83.5091 23.4588 81.493 26.762 81.493 29.98C81.493 33.155 83.338 35.429 86.212 35.429ZM92.648 28.307C92.648 26.248 91.9191 24.574 90.4601 23.6733C90.3741 25.818 91.061 27.878 92.562 29.337C92.605 28.993 92.648 28.65 92.648 28.307Z" fill="black"/>
<path d="M126.642 30.881L129.387 33.026C129.387 33.026 125.912 39.677 119.219 39.677C115.1 39.677 113.556 36.888 113.041 33.455C112.655 31.353 111.883 30.023 109.995 29.852C109.995 29.894 109.952 29.894 109.952 29.894L109.78 29.852H109.566C107.506 29.852 106.348 30.881 105.576 33.284L103.688 39.033H99.011L108.922 9H113.642L107.335 27.363C111.711 24.96 115.358 23.33 118.79 19.297H124.754C121.536 23.2013 118.318 25.089 114.242 27.406C116.044 28.05 117.374 29.508 117.932 32.168C118.447 34.485 119.09 35.429 120.892 35.429C124.368 35.429 126.642 30.881 126.642 30.881Z" fill="black"/>
<path d="M15.307 63.512C11.574 63.512 9 61.153 9 57.205C9 55.275 9.601 53.129 10.673 49.869L16.251 32.836H20.971L15.007 51.07C14.063 53.859 13.677 55.232 13.677 56.562C13.677 58.235 14.835 59.265 16.508 59.265C19.855 59.265 22.172 54.717 22.172 54.717L24.918 56.862C24.918 56.862 21.271 63.512 15.307 63.512Z" fill="black"/>
<path d="M47.3091 53.258L49.583 55.661C49.583 55.661 47.352 59.222 41.989 59.222C40.874 59.222 39.8011 59.093 38.8571 58.793C36.9271 61.625 33.88 63.512 30.148 63.512C25.085 63.512 21.696 59.522 21.696 54.245C21.696 48.153 26.029 42.489 32.55 42.489C37.613 42.489 41.002 46.436 41.002 51.714C41.002 52.829 40.8741 53.902 40.5731 54.974C41.2171 55.103 41.9031 55.189 42.6761 55.189C45.9361 55.189 47.3091 53.258 47.3091 53.258ZM30.92 59.265C32.679 59.265 34.266 58.407 35.425 57.12C32.422 54.803 30.8771 50.941 31.3921 46.823C28.2171 47.294 26.2 50.598 26.2 53.816C26.2 56.991 28.045 59.265 30.92 59.265ZM37.356 52.143C37.356 50.083 36.6261 48.41 35.1671 47.509C35.0821 49.654 35.7681 51.714 37.2701 53.172C37.3131 52.829 37.356 52.486 37.356 52.143Z" fill="black"/>
<path d="M72.722 53.258L74.996 55.661C74.996 55.661 72.722 59.222 67.402 59.222C65.772 59.222 64.141 58.836 62.725 58.021C59.851 61.281 55.904 63.512 52.214 63.512C48.138 63.512 46.079 59.994 46.079 55.232C46.079 51.542 47.366 47.123 49.468 43.133H54.273C52.085 47.337 50.798 51.714 50.755 54.76C50.712 57.42 51.57 59.222 53.63 59.222C55.56 59.222 58.092 57.806 60.022 55.661C58.821 54.03 58.049 51.799 58.049 49.011C58.049 44.377 60.237 42.489 62.725 42.489C64.871 42.489 66.887 44.42 66.887 47.895C66.887 50.212 66.201 52.572 65.042 54.674C65.9 55.017 66.93 55.189 68.046 55.189C71.349 55.189 72.722 53.258 72.722 53.258ZM61.653 48.796C61.653 50.212 61.91 51.328 62.339 52.271C62.94 51.027 63.283 49.74 63.283 48.41C63.283 47.38 63.026 46.394 62.511 46.394C61.953 46.394 61.653 47.38 61.653 48.796Z" fill="black"/>
<path d="M95.412 54.202L97.857 56.862C97.857 56.862 93.3519 63.512 83.5269 63.512C75.8899 63.512 71.4709 59.05 71.4709 53.258C71.4709 47.681 75.8899 42.489 82.6259 42.489C87.2169 42.489 90.478 44.935 90.478 48.367C90.478 53.687 84.686 56.39 77.907 57.334C79.237 58.621 81.2109 59.351 83.7419 59.351C91.3359 59.394 95.412 54.202 95.412 54.202ZM82.326 46.136C78.765 46.136 75.976 49.054 75.976 52.529C75.976 53.258 76.0619 53.945 76.2339 54.588C82.1539 53.644 86.187 51.799 86.187 48.925C86.187 47.337 84.772 46.136 82.326 46.136Z" fill="black"/>
<path d="M118.796 54.717L121.542 56.862C121.542 56.862 118.024 63.512 111.631 63.512C107.513 63.512 105.282 60.466 106.612 55.918L107.083 54.202C107.47 52.958 107.684 51.799 107.684 50.813C107.684 49.139 106.783 48.281 104.552 47.981C103.522 47.852 102.664 47.681 102.021 47.423C100.862 51.413 99.146 55.618 96.4 58.836L94.041 56.347C96.701 52.7 98.331 47.123 98.889 41.417H103.308C103.308 43.347 104.08 43.905 106.869 44.248C110.687 44.72 112.447 46.737 112.447 49.654C112.447 51.113 112.06 52.829 111.331 55.446C110.645 58.063 111.417 59.265 113.219 59.265C116.48 59.265 118.796 54.717 118.796 54.717Z" fill="black"/>
</mask>
<g mask="url(#mask1_41_1544)">
<path d="M78.1331 29.422L80.407 31.825C80.407 31.825 78.176 35.386 72.813 35.386C71.697 35.386 70.6251 35.257 69.6811 34.957C67.7501 37.789 64.704 39.677 60.971 39.677C55.908 39.677 52.519 35.686 52.519 30.409C52.519 24.317 56.8521 18.6535 63.3741 18.6535C68.4371 18.6535 71.826 22.6007 71.826 27.878C71.826 28.993 71.697 30.066 71.397 31.139C72.041 31.267 72.7271 31.353 73.4991 31.353C76.7601 31.353 78.1331 29.422 78.1331 29.422ZM61.743 35.429C63.503 35.429 65.09 34.571 66.248 33.284C63.245 30.967 61.7011 27.106 62.2151 22.9868C59.0401 23.4588 57.024 26.762 57.024 29.98C57.024 33.155 58.869 35.429 61.743 35.429ZM68.179 28.307C68.179 26.248 67.4501 24.574 65.9911 23.6733C65.9051 25.818 66.592 27.878 68.093 29.337C68.136 28.993 68.179 28.65 68.179 28.307Z" stroke="white" stroke-width="17.0159" stroke-linejoin="round"/>
</g>
<mask id="mask2_41_1544" style="mask-type:luminance" maskUnits="userSpaceOnUse" x="0" y="0" width="138" height="73">
<path d="M138 0H0V73H138V0Z" fill="white"/>
<path d="M53.692 29.422L55.966 31.825C55.966 31.825 53.692 35.386 48.372 35.386C47.257 35.386 46.1841 35.257 45.2401 34.957C43.3091 37.789 40.263 39.677 36.488 39.677C33.527 39.677 31.21 38.347 29.752 36.201L28.679 39.033H24.389L34.471 9H39.2761L35.6721 19.1683C36.6591 18.8251 37.732 18.6535 38.89 18.6535C43.953 18.6535 47.385 22.6436 47.385 27.878C47.385 28.993 47.2571 30.066 46.9561 31.139C47.6001 31.267 48.2861 31.353 49.0161 31.353C52.3191 31.353 53.692 29.422 53.692 29.422ZM37.303 35.429C39.062 35.429 40.606 34.571 41.765 33.284C38.761 30.967 37.2601 27.106 37.7751 22.9868C34.6001 23.4588 32.54 26.762 32.54 30.023C32.54 33.155 34.428 35.429 37.303 35.429ZM43.738 28.307C43.738 26.248 43.009 24.574 41.55 23.6304C41.464 25.818 42.151 27.921 43.653 29.38C43.695 29.036 43.738 28.65 43.738 28.307Z" fill="black"/>
<path d="M78.1331 29.422L80.407 31.825C80.407 31.825 78.176 35.386 72.813 35.386C71.697 35.386 70.6251 35.257 69.6811 34.957C67.7501 37.789 64.704 39.677 60.971 39.677C55.908 39.677 52.519 35.686 52.519 30.409C52.519 24.317 56.8521 18.6535 63.3741 18.6535C68.4371 18.6535 71.826 22.6007 71.826 27.878C71.826 28.993 71.697 30.066 71.397 31.139C72.041 31.267 72.7271 31.353 73.4991 31.353C76.7601 31.353 78.1331 29.422 78.1331 29.422ZM61.743 35.429C63.503 35.429 65.09 34.571 66.248 33.284C63.245 30.967 61.7011 27.106 62.2151 22.9868C59.0401 23.4588 57.024 26.762 57.024 29.98C57.024 33.155 58.869 35.429 61.743 35.429ZM68.179 28.307C68.179 26.248 67.4501 24.574 65.9911 23.6733C65.9051 25.818 66.592 27.878 68.093 29.337C68.136 28.993 68.179 28.65 68.179 28.307Z" fill="black"/>
<path d="M102.602 29.422L104.876 31.825C104.876 31.825 102.645 35.386 97.282 35.386C96.166 35.386 95.0941 35.257 94.1501 34.957C92.2191 37.789 89.1731 39.677 85.4401 39.677C80.3771 39.677 76.988 35.686 76.988 30.409C76.988 24.317 81.321 18.6535 87.843 18.6535C92.905 18.6535 96.295 22.6007 96.295 27.878C96.295 28.993 96.1661 30.066 95.8661 31.139C96.5091 31.267 97.196 31.353 97.968 31.353C101.229 31.353 102.602 29.422 102.602 29.422ZM86.212 35.429C87.971 35.429 89.559 34.571 90.717 33.284C87.714 30.967 86.1691 27.106 86.6841 22.9868C83.5091 23.4588 81.493 26.762 81.493 29.98C81.493 33.155 83.338 35.429 86.212 35.429ZM92.648 28.307C92.648 26.248 91.9191 24.574 90.4601 23.6733C90.3741 25.818 91.061 27.878 92.562 29.337C92.605 28.993 92.648 28.65 92.648 28.307Z" fill="black"/>
<path d="M126.642 30.881L129.387 33.026C129.387 33.026 125.912 39.677 119.219 39.677C115.1 39.677 113.556 36.888 113.041 33.455C112.655 31.353 111.883 30.023 109.995 29.852C109.995 29.894 109.952 29.894 109.952 29.894L109.78 29.852H109.566C107.506 29.852 106.348 30.881 105.576 33.284L103.688 39.033H99.011L108.922 9H113.642L107.335 27.363C111.711 24.96 115.358 23.33 118.79 19.297H124.754C121.536 23.2013 118.318 25.089 114.242 27.406C116.044 28.05 117.374 29.508 117.932 32.168C118.447 34.485 119.09 35.429 120.892 35.429C124.368 35.429 126.642 30.881 126.642 30.881Z" fill="black"/>
<path d="M15.307 63.512C11.574 63.512 9 61.153 9 57.205C9 55.275 9.601 53.129 10.673 49.869L16.251 32.836H20.971L15.007 51.07C14.063 53.859 13.677 55.232 13.677 56.562C13.677 58.235 14.835 59.265 16.508 59.265C19.855 59.265 22.172 54.717 22.172 54.717L24.918 56.862C24.918 56.862 21.271 63.512 15.307 63.512Z" fill="black"/>
<path d="M47.3091 53.258L49.583 55.661C49.583 55.661 47.352 59.222 41.989 59.222C40.874 59.222 39.8011 59.093 38.8571 58.793C36.9271 61.625 33.88 63.512 30.148 63.512C25.085 63.512 21.696 59.522 21.696 54.245C21.696 48.153 26.029 42.489 32.55 42.489C37.613 42.489 41.002 46.436 41.002 51.714C41.002 52.829 40.8741 53.902 40.5731 54.974C41.2171 55.103 41.9031 55.189 42.6761 55.189C45.9361 55.189 47.3091 53.258 47.3091 53.258ZM30.92 59.265C32.679 59.265 34.266 58.407 35.425 57.12C32.422 54.803 30.8771 50.941 31.3921 46.823C28.2171 47.294 26.2 50.598 26.2 53.816C26.2 56.991 28.045 59.265 30.92 59.265ZM37.356 52.143C37.356 50.083 36.6261 48.41 35.1671 47.509C35.0821 49.654 35.7681 51.714 37.2701 53.172C37.3131 52.829 37.356 52.486 37.356 52.143Z" fill="black"/>
<path d="M72.722 53.258L74.996 55.661C74.996 55.661 72.722 59.222 67.402 59.222C65.772 59.222 64.141 58.836 62.725 58.021C59.851 61.281 55.904 63.512 52.214 63.512C48.138 63.512 46.079 59.994 46.079 55.232C46.079 51.542 47.366 47.123 49.468 43.133H54.273C52.085 47.337 50.798 51.714 50.755 54.76C50.712 57.42 51.57 59.222 53.63 59.222C55.56 59.222 58.092 57.806 60.022 55.661C58.821 54.03 58.049 51.799 58.049 49.011C58.049 44.377 60.237 42.489 62.725 42.489C64.871 42.489 66.887 44.42 66.887 47.895C66.887 50.212 66.201 52.572 65.042 54.674C65.9 55.017 66.93 55.189 68.046 55.189C71.349 55.189 72.722 53.258 72.722 53.258ZM61.653 48.796C61.653 50.212 61.91 51.328 62.339 52.271C62.94 51.027 63.283 49.74 63.283 48.41C63.283 47.38 63.026 46.394 62.511 46.394C61.953 46.394 61.653 47.38 61.653 48.796Z" fill="black"/>
<path d="M95.412 54.202L97.857 56.862C97.857 56.862 93.3519 63.512 83.5269 63.512C75.8899 63.512 71.4709 59.05 71.4709 53.258C71.4709 47.681 75.8899 42.489 82.6259 42.489C87.2169 42.489 90.478 44.935 90.478 48.367C90.478 53.687 84.686 56.39 77.907 57.334C79.237 58.621 81.2109 59.351 83.7419 59.351C91.3359 59.394 95.412 54.202 95.412 54.202ZM82.326 46.136C78.765 46.136 75.976 49.054 75.976 52.529C75.976 53.258 76.0619 53.945 76.2339 54.588C82.1539 53.644 86.187 51.799 86.187 48.925C86.187 47.337 84.772 46.136 82.326 46.136Z" fill="black"/>
<path d="M118.796 54.717L121.542 56.862C121.542 56.862 118.024 63.512 111.631 63.512C107.513 63.512 105.282 60.466 106.612 55.918L107.083 54.202C107.47 52.958 107.684 51.799 107.684 50.813C107.684 49.139 106.783 48.281 104.552 47.981C103.522 47.852 102.664 47.681 102.021 47.423C100.862 51.413 99.146 55.618 96.4 58.836L94.041 56.347C96.701 52.7 98.331 47.123 98.889 41.417H103.308C103.308 43.347 104.08 43.905 106.869 44.248C110.687 44.72 112.447 46.737 112.447 49.654C112.447 51.113 112.06 52.829 111.331 55.446C110.645 58.063 111.417 59.265 113.219 59.265C116.48 59.265 118.796 54.717 118.796 54.717Z" fill="black"/>
</mask>
<g mask="url(#mask2_41_1544)">
<path d="M102.602 29.422L104.876 31.825C104.876 31.825 102.645 35.386 97.282 35.386C96.166 35.386 95.0941 35.257 94.1501 34.957C92.2191 37.789 89.1731 39.677 85.4401 39.677C80.3771 39.677 76.988 35.686 76.988 30.409C76.988 24.317 81.321 18.6535 87.843 18.6535C92.905 18.6535 96.295 22.6007 96.295 27.878C96.295 28.993 96.1661 30.066 95.8661 31.139C96.5091 31.267 97.196 31.353 97.968 31.353C101.229 31.353 102.602 29.422 102.602 29.422ZM86.212 35.429C87.971 35.429 89.559 34.571 90.717 33.284C87.714 30.967 86.1691 27.106 86.6841 22.9868C83.5091 23.4588 81.493 26.762 81.493 29.98C81.493 33.155 83.338 35.429 86.212 35.429ZM92.648 28.307C92.648 26.248 91.9191 24.574 90.4601 23.6733C90.3741 25.818 91.061 27.878 92.562 29.337C92.605 28.993 92.648 28.65 92.648 28.307Z" stroke="white" stroke-width="17.0159" stroke-linejoin="round"/>
</g>
<mask id="mask3_41_1544" style="mask-type:luminance" maskUnits="userSpaceOnUse" x="0" y="0" width="138" height="73">
<path d="M138 0H0V73H138V0Z" fill="white"/>
<path d="M53.692 29.422L55.966 31.825C55.966 31.825 53.692 35.386 48.372 35.386C47.257 35.386 46.1841 35.257 45.2401 34.957C43.3091 37.789 40.263 39.677 36.488 39.677C33.527 39.677 31.21 38.347 29.752 36.201L28.679 39.033H24.389L34.471 9H39.2761L35.6721 19.1683C36.6591 18.8251 37.732 18.6535 38.89 18.6535C43.953 18.6535 47.385 22.6436 47.385 27.878C47.385 28.993 47.2571 30.066 46.9561 31.139C47.6001 31.267 48.2861 31.353 49.0161 31.353C52.3191 31.353 53.692 29.422 53.692 29.422ZM37.303 35.429C39.062 35.429 40.606 34.571 41.765 33.284C38.761 30.967 37.2601 27.106 37.7751 22.9868C34.6001 23.4588 32.54 26.762 32.54 30.023C32.54 33.155 34.428 35.429 37.303 35.429ZM43.738 28.307C43.738 26.248 43.009 24.574 41.55 23.6304C41.464 25.818 42.151 27.921 43.653 29.38C43.695 29.036 43.738 28.65 43.738 28.307Z" fill="black"/>
<path d="M78.1331 29.422L80.407 31.825C80.407 31.825 78.176 35.386 72.813 35.386C71.697 35.386 70.6251 35.257 69.6811 34.957C67.7501 37.789 64.704 39.677 60.971 39.677C55.908 39.677 52.519 35.686 52.519 30.409C52.519 24.317 56.8521 18.6535 63.3741 18.6535C68.4371 18.6535 71.826 22.6007 71.826 27.878C71.826 28.993 71.697 30.066 71.397 31.139C72.041 31.267 72.7271 31.353 73.4991 31.353C76.7601 31.353 78.1331 29.422 78.1331 29.422ZM61.743 35.429C63.503 35.429 65.09 34.571 66.248 33.284C63.245 30.967 61.7011 27.106 62.2151 22.9868C59.0401 23.4588 57.024 26.762 57.024 29.98C57.024 33.155 58.869 35.429 61.743 35.429ZM68.179 28.307C68.179 26.248 67.4501 24.574 65.9911 23.6733C65.9051 25.818 66.592 27.878 68.093 29.337C68.136 28.993 68.179 28.65 68.179 28.307Z" fill="black"/>
<path d="M102.602 29.422L104.876 31.825C104.876 31.825 102.645 35.386 97.282 35.386C96.166 35.386 95.0941 35.257 94.1501 34.957C92.2191 37.789 89.1731 39.677 85.4401 39.677C80.3771 39.677 76.988 35.686 76.988 30.409C76.988 24.317 81.321 18.6535 87.843 18.6535C92.905 18.6535 96.295 22.6007 96.295 27.878C96.295 28.993 96.1661 30.066 95.8661 31.139C96.5091 31.267 97.196 31.353 97.968 31.353C101.229 31.353 102.602 29.422 102.602 29.422ZM86.212 35.429C87.971 35.429 89.559 34.571 90.717 33.284C87.714 30.967 86.1691 27.106 86.6841 22.9868C83.5091 23.4588 81.493 26.762 81.493 29.98C81.493 33.155 83.338 35.429 86.212 35.429ZM92.648 28.307C92.648 26.248 91.9191 24.574 90.4601 23.6733C90.3741 25.818 91.061 27.878 92.562 29.337C92.605 28.993 92.648 28.65 92.648 28.307Z" fill="black"/>
<path d="M126.642 30.881L129.387 33.026C129.387 33.026 125.912 39.677 119.219 39.677C115.1 39.677 113.556 36.888 113.041 33.455C112.655 31.353 111.883 30.023 109.995 29.852C109.995 29.894 109.952 29.894 109.952 29.894L109.78 29.852H109.566C107.506 29.852 106.348 30.881 105.576 33.284L103.688 39.033H99.011L108.922 9H113.642L107.335 27.363C111.711 24.96 115.358 23.33 118.79 19.297H124.754C121.536 23.2013 118.318 25.089 114.242 27.406C116.044 28.05 117.374 29.508 117.932 32.168C118.447 34.485 119.09 35.429 120.892 35.429C124.368 35.429 126.642 30.881 126.642 30.881Z" fill="black"/>
<path d="M15.307 63.512C11.574 63.512 9 61.153 9 57.205C9 55.275 9.601 53.129 10.673 49.869L16.251 32.836H20.971L15.007 51.07C14.063 53.859 13.677 55.232 13.677 56.562C13.677 58.235 14.835 59.265 16.508 59.265C19.855 59.265 22.172 54.717 22.172 54.717L24.918 56.862C24.918 56.862 21.271 63.512 15.307 63.512Z" fill="black"/>
<path d="M47.3091 53.258L49.583 55.661C49.583 55.661 47.352 59.222 41.989 59.222C40.874 59.222 39.8011 59.093 38.8571 58.793C36.9271 61.625 33.88 63.512 30.148 63.512C25.085 63.512 21.696 59.522 21.696 54.245C21.696 48.153 26.029 42.489 32.55 42.489C37.613 42.489 41.002 46.436 41.002 51.714C41.002 52.829 40.8741 53.902 40.5731 54.974C41.2171 55.103 41.9031 55.189 42.6761 55.189C45.9361 55.189 47.3091 53.258 47.3091 53.258ZM30.92 59.265C32.679 59.265 34.266 58.407 35.425 57.12C32.422 54.803 30.8771 50.941 31.3921 46.823C28.2171 47.294 26.2 50.598 26.2 53.816C26.2 56.991 28.045 59.265 30.92 59.265ZM37.356 52.143C37.356 50.083 36.6261 48.41 35.1671 47.509C35.0821 49.654 35.7681 51.714 37.2701 53.172C37.3131 52.829 37.356 52.486 37.356 52.143Z" fill="black"/>
<path d="M72.722 53.258L74.996 55.661C74.996 55.661 72.722 59.222 67.402 59.222C65.772 59.222 64.141 58.836 62.725 58.021C59.851 61.281 55.904 63.512 52.214 63.512C48.138 63.512 46.079 59.994 46.079 55.232C46.079 51.542 47.366 47.123 49.468 43.133H54.273C52.085 47.337 50.798 51.714 50.755 54.76C50.712 57.42 51.57 59.222 53.63 59.222C55.56 59.222 58.092 57.806 60.022 55.661C58.821 54.03 58.049 51.799 58.049 49.011C58.049 44.377 60.237 42.489 62.725 42.489C64.871 42.489 66.887 44.42 66.887 47.895C66.887 50.212 66.201 52.572 65.042 54.674C65.9 55.017 66.93 55.189 68.046 55.189C71.349 55.189 72.722 53.258 72.722 53.258ZM61.653 48.796C61.653 50.212 61.91 51.328 62.339 52.271C62.94 51.027 63.283 49.74 63.283 48.41C63.283 47.38 63.026 46.394 62.511 46.394C61.953 46.394 61.653 47.38 61.653 48.796Z" fill="black"/>
<path d="M95.412 54.202L97.857 56.862C97.857 56.862 93.3519 63.512 83.5269 63.512C75.8899 63.512 71.4709 59.05 71.4709 53.258C71.4709 47.681 75.8899 42.489 82.6259 42.489C87.2169 42.489 90.478 44.935 90.478 48.367C90.478 53.687 84.686 56.39 77.907 57.334C79.237 58.621 81.2109 59.351 83.7419 59.351C91.3359 59.394 95.412 54.202 95.412 54.202ZM82.326 46.136C78.765 46.136 75.976 49.054 75.976 52.529C75.976 53.258 76.0619 53.945 76.2339 54.588C82.1539 53.644 86.187 51.799 86.187 48.925C86.187 47.337 84.772 46.136 82.326 46.136Z" fill="black"/>
<path d="M118.796 54.717L121.542 56.862C121.542 56.862 118.024 63.512 111.631 63.512C107.513 63.512 105.282 60.466 106.612 55.918L107.083 54.202C107.47 52.958 107.684 51.799 107.684 50.813C107.684 49.139 106.783 48.281 104.552 47.981C103.522 47.852 102.664 47.681 102.021 47.423C100.862 51.413 99.146 55.618 96.4 58.836L94.041 56.347C96.701 52.7 98.331 47.123 98.889 41.417H103.308C103.308 43.347 104.08 43.905 106.869 44.248C110.687 44.72 112.447 46.737 112.447 49.654C112.447 51.113 112.06 52.829 111.331 55.446C110.645 58.063 111.417 59.265 113.219 59.265C116.48 59.265 118.796 54.717 118.796 54.717Z" fill="black"/>
</mask>
<g mask="url(#mask3_41_1544)">
<path d="M126.642 30.881L129.387 33.026C129.387 33.026 125.912 39.677 119.219 39.677C115.1 39.677 113.556 36.888 113.041 33.455C112.655 31.353 111.883 30.023 109.995 29.852C109.995 29.894 109.952 29.894 109.952 29.894L109.78 29.852H109.566C107.506 29.852 106.348 30.881 105.576 33.284L103.688 39.033H99.011L108.922 9H113.642L107.335 27.363C111.711 24.96 115.358 23.33 118.79 19.297H124.754C121.536 23.2013 118.318 25.089 114.242 27.406C116.044 28.05 117.374 29.508 117.932 32.168C118.447 34.485 119.09 35.429 120.892 35.429C124.368 35.429 126.642 30.881 126.642 30.881Z" stroke="white" stroke-width="17.0159" stroke-linejoin="round"/>
</g>
<mask id="mask4_41_1544" style="mask-type:luminance" maskUnits="userSpaceOnUse" x="0" y="0" width="138" height="73">
<path d="M138 0H0V73H138V0Z" fill="white"/>
<path d="M53.692 29.422L55.966 31.825C55.966 31.825 53.692 35.386 48.372 35.386C47.257 35.386 46.1841 35.257 45.2401 34.957C43.3091 37.789 40.263 39.677 36.488 39.677C33.527 39.677 31.21 38.347 29.752 36.201L28.679 39.033H24.389L34.471 9H39.2761L35.6721 19.1683C36.6591 18.8251 37.732 18.6535 38.89 18.6535C43.953 18.6535 47.385 22.6436 47.385 27.878C47.385 28.993 47.2571 30.066 46.9561 31.139C47.6001 31.267 48.2861 31.353 49.0161 31.353C52.3191 31.353 53.692 29.422 53.692 29.422ZM37.303 35.429C39.062 35.429 40.606 34.571 41.765 33.284C38.761 30.967 37.2601 27.106 37.7751 22.9868C34.6001 23.4588 32.54 26.762 32.54 30.023C32.54 33.155 34.428 35.429 37.303 35.429ZM43.738 28.307C43.738 26.248 43.009 24.574 41.55 23.6304C41.464 25.818 42.151 27.921 43.653 29.38C43.695 29.036 43.738 28.65 43.738 28.307Z" fill="black"/>
<path d="M78.1331 29.422L80.407 31.825C80.407 31.825 78.176 35.386 72.813 35.386C71.697 35.386 70.6251 35.257 69.6811 34.957C67.7501 37.789 64.704 39.677 60.971 39.677C55.908 39.677 52.519 35.686 52.519 30.409C52.519 24.317 56.8521 18.6535 63.3741 18.6535C68.4371 18.6535 71.826 22.6007 71.826 27.878C71.826 28.993 71.697 30.066 71.397 31.139C72.041 31.267 72.7271 31.353 73.4991 31.353C76.7601 31.353 78.1331 29.422 78.1331 29.422ZM61.743 35.429C63.503 35.429 65.09 34.571 66.248 33.284C63.245 30.967 61.7011 27.106 62.2151 22.9868C59.0401 23.4588 57.024 26.762 57.024 29.98C57.024 33.155 58.869 35.429 61.743 35.429ZM68.179 28.307C68.179 26.248 67.4501 24.574 65.9911 23.6733C65.9051 25.818 66.592 27.878 68.093 29.337C68.136 28.993 68.179 28.65 68.179 28.307Z" fill="black"/>
<path d="M102.602 29.422L104.876 31.825C104.876 31.825 102.645 35.386 97.282 35.386C96.166 35.386 95.0941 35.257 94.1501 34.957C92.2191 37.789 89.1731 39.677 85.4401 39.677C80.3771 39.677 76.988 35.686 76.988 30.409C76.988 24.317 81.321 18.6535 87.843 18.6535C92.905 18.6535 96.295 22.6007 96.295 27.878C96.295 28.993 96.1661 30.066 95.8661 31.139C96.5091 31.267 97.196 31.353 97.968 31.353C101.229 31.353 102.602 29.422 102.602 29.422ZM86.212 35.429C87.971 35.429 89.559 34.571 90.717 33.284C87.714 30.967 86.1691 27.106 86.6841 22.9868C83.5091 23.4588 81.493 26.762 81.493 29.98C81.493 33.155 83.338 35.429 86.212 35.429ZM92.648 28.307C92.648 26.248 91.9191 24.574 90.4601 23.6733C90.3741 25.818 91.061 27.878 92.562 29.337C92.605 28.993 92.648 28.65 92.648 28.307Z" fill="black"/>
<path d="M126.642 30.881L129.387 33.026C129.387 33.026 125.912 39.677 119.219 39.677C115.1 39.677 113.556 36.888 113.041 33.455C112.655 31.353 111.883 30.023 109.995 29.852C109.995 29.894 109.952 29.894 109.952 29.894L109.78 29.852H109.566C107.506 29.852 106.348 30.881 105.576 33.284L103.688 39.033H99.011L108.922 9H113.642L107.335 27.363C111.711 24.96 115.358 23.33 118.79 19.297H124.754C121.536 23.2013 118.318 25.089 114.242 27.406C116.044 28.05 117.374 29.508 117.932 32.168C118.447 34.485 119.09 35.429 120.892 35.429C124.368 35.429 126.642 30.881 126.642 30.881Z" fill="black"/>
<path d="M15.307 63.512C11.574 63.512 9 61.153 9 57.205C9 55.275 9.601 53.129 10.673 49.869L16.251 32.836H20.971L15.007 51.07C14.063 53.859 13.677 55.232 13.677 56.562C13.677 58.235 14.835 59.265 16.508 59.265C19.855 59.265 22.172 54.717 22.172 54.717L24.918 56.862C24.918 56.862 21.271 63.512 15.307 63.512Z" fill="black"/>
<path d="M47.3091 53.258L49.583 55.661C49.583 55.661 47.352 59.222 41.989 59.222C40.874 59.222 39.8011 59.093 38.8571 58.793C36.9271 61.625 33.88 63.512 30.148 63.512C25.085 63.512 21.696 59.522 21.696 54.245C21.696 48.153 26.029 42.489 32.55 42.489C37.613 42.489 41.002 46.436 41.002 51.714C41.002 52.829 40.8741 53.902 40.5731 54.974C41.2171 55.103 41.9031 55.189 42.6761 55.189C45.9361 55.189 47.3091 53.258 47.3091 53.258ZM30.92 59.265C32.679 59.265 34.266 58.407 35.425 57.12C32.422 54.803 30.8771 50.941 31.3921 46.823C28.2171 47.294 26.2 50.598 26.2 53.816C26.2 56.991 28.045 59.265 30.92 59.265ZM37.356 52.143C37.356 50.083 36.6261 48.41 35.1671 47.509C35.0821 49.654 35.7681 51.714 37.2701 53.172C37.3131 52.829 37.356 52.486 37.356 52.143Z" fill="black"/>
<path d="M72.722 53.258L74.996 55.661C74.996 55.661 72.722 59.222 67.402 59.222C65.772 59.222 64.141 58.836 62.725 58.021C59.851 61.281 55.904 63.512 52.214 63.512C48.138 63.512 46.079 59.994 46.079 55.232C46.079 51.542 47.366 47.123 49.468 43.133H54.273C52.085 47.337 50.798 51.714 50.755 54.76C50.712 57.42 51.57 59.222 53.63 59.222C55.56 59.222 58.092 57.806 60.022 55.661C58.821 54.03 58.049 51.799 58.049 49.011C58.049 44.377 60.237 42.489 62.725 42.489C64.871 42.489 66.887 44.42 66.887 47.895C66.887 50.212 66.201 52.572 65.042 54.674C65.9 55.017 66.93 55.189 68.046 55.189C71.349 55.189 72.722 53.258 72.722 53.258ZM61.653 48.796C61.653 50.212 61.91 51.328 62.339 52.271C62.94 51.027 63.283 49.74 63.283 48.41C63.283 47.38 63.026 46.394 62.511 46.394C61.953 46.394 61.653 47.38 61.653 48.796Z" fill="black"/>
<path d="M95.412 54.202L97.857 56.862C97.857 56.862 93.3519 63.512 83.5269 63.512C75.8899 63.512 71.4709 59.05 71.4709 53.258C71.4709 47.681 75.8899 42.489 82.6259 42.489C87.2169 42.489 90.478 44.935 90.478 48.367C90.478 53.687 84.686 56.39 77.907 57.334C79.237 58.621 81.2109 59.351 83.7419 59.351C91.3359 59.394 95.412 54.202 95.412 54.202ZM82.326 46.136C78.765 46.136 75.976 49.054 75.976 52.529C75.976 53.258 76.0619 53.945 76.2339 54.588C82.1539 53.644 86.187 51.799 86.187 48.925C86.187 47.337 84.772 46.136 82.326 46.136Z" fill="black"/>
<path d="M118.796 54.717L121.542 56.862C121.542 56.862 118.024 63.512 111.631 63.512C107.513 63.512 105.282 60.466 106.612 55.918L107.083 54.202C107.47 52.958 107.684 51.799 107.684 50.813C107.684 49.139 106.783 48.281 104.552 47.981C103.522 47.852 102.664 47.681 102.021 47.423C100.862 51.413 99.146 55.618 96.4 58.836L94.041 56.347C96.701 52.7 98.331 47.123 98.889 41.417H103.308C103.308 43.347 104.08 43.905 106.869 44.248C110.687 44.72 112.447 46.737 112.447 49.654C112.447 51.113 112.06 52.829 111.331 55.446C110.645 58.063 111.417 59.265 113.219 59.265C116.48 59.265 118.796 54.717 118.796 54.717Z" fill="black"/>
</mask>
<g mask="url(#mask4_41_1544)">
<path d="M15.307 63.512C11.574 63.512 9 61.153 9 57.205C9 55.275 9.601 53.129 10.673 49.869L16.251 32.836H20.971L15.007 51.07C14.063 53.859 13.677 55.232 13.677 56.562C13.677 58.235 14.835 59.265 16.508 59.265C19.855 59.265 22.172 54.717 22.172 54.717L24.918 56.862C24.918 56.862 21.271 63.512 15.307 63.512Z" stroke="white" stroke-width="17.0159" stroke-linejoin="round"/>
</g>
<mask id="mask5_41_1544" style="mask-type:luminance" maskUnits="userSpaceOnUse" x="0" y="0" width="138" height="73">
<path d="M138 0H0V73H138V0Z" fill="white"/>
<path d="M53.692 29.422L55.966 31.825C55.966 31.825 53.692 35.386 48.372 35.386C47.257 35.386 46.1841 35.257 45.2401 34.957C43.3091 37.789 40.263 39.677 36.488 39.677C33.527 39.677 31.21 38.347 29.752 36.201L28.679 39.033H24.389L34.471 9H39.2761L35.6721 19.1683C36.6591 18.8251 37.732 18.6535 38.89 18.6535C43.953 18.6535 47.385 22.6436 47.385 27.878C47.385 28.993 47.2571 30.066 46.9561 31.139C47.6001 31.267 48.2861 31.353 49.0161 31.353C52.3191 31.353 53.692 29.422 53.692 29.422ZM37.303 35.429C39.062 35.429 40.606 34.571 41.765 33.284C38.761 30.967 37.2601 27.106 37.7751 22.9868C34.6001 23.4588 32.54 26.762 32.54 30.023C32.54 33.155 34.428 35.429 37.303 35.429ZM43.738 28.307C43.738 26.248 43.009 24.574 41.55 23.6304C41.464 25.818 42.151 27.921 43.653 29.38C43.695 29.036 43.738 28.65 43.738 28.307Z" fill="black"/>
<path d="M78.1331 29.422L80.407 31.825C80.407 31.825 78.176 35.386 72.813 35.386C71.697 35.386 70.6251 35.257 69.6811 34.957C67.7501 37.789 64.704 39.677 60.971 39.677C55.908 39.677 52.519 35.686 52.519 30.409C52.519 24.317 56.8521 18.6535 63.3741 18.6535C68.4371 18.6535 71.826 22.6007 71.826 27.878C71.826 28.993 71.697 30.066 71.397 31.139C72.041 31.267 72.7271 31.353 73.4991 31.353C76.7601 31.353 78.1331 29.422 78.1331 29.422ZM61.743 35.429C63.503 35.429 65.09 34.571 66.248 33.284C63.245 30.967 61.7011 27.106 62.2151 22.9868C59.0401 23.4588 57.024 26.762 57.024 29.98C57.024 33.155 58.869 35.429 61.743 35.429ZM68.179 28.307C68.179 26.248 67.4501 24.574 65.9911 23.6733C65.9051 25.818 66.592 27.878 68.093 29.337C68.136 28.993 68.179 28.65 68.179 28.307Z" fill="black"/>
<path d="M102.602 29.422L104.876 31.825C104.876 31.825 102.645 35.386 97.282 35.386C96.166 35.386 95.0941 35.257 94.1501 34.957C92.2191 37.789 89.1731 39.677 85.4401 39.677C80.3771 39.677 76.988 35.686 76.988 30.409C76.988 24.317 81.321 18.6535 87.843 18.6535C92.905 18.6535 96.295 22.6007 96.295 27.878C96.295 28.993 96.1661 30.066 95.8661 31.139C96.5091 31.267 97.196 31.353 97.968 31.353C101.229 31.353 102.602 29.422 102.602 29.422ZM86.212 35.429C87.971 35.429 89.559 34.571 90.717 33.284C87.714 30.967 86.1691 27.106 86.6841 22.9868C83.5091 23.4588 81.493 26.762 81.493 29.98C81.493 33.155 83.338 35.429 86.212 35.429ZM92.648 28.307C92.648 26.248 91.9191 24.574 90.4601 23.6733C90.3741 25.818 91.061 27.878 92.562 29.337C92.605 28.993 92.648 28.65 92.648 28.307Z" fill="black"/>
<path d="M126.642 30.881L129.387 33.026C129.387 33.026 125.912 39.677 119.219 39.677C115.1 39.677 113.556 36.888 113.041 33.455C112.655 31.353 111.883 30.023 109.995 29.852C109.995 29.894 109.952 29.894 109.952 29.894L109.78 29.852H109.566C107.506 29.852 106.348 30.881 105.576 33.284L103.688 39.033H99.011L108.922 9H113.642L107.335 27.363C111.711 24.96 115.358 23.33 118.79 19.297H124.754C121.536 23.2013 118.318 25.089 114.242 27.406C116.044 28.05 117.374 29.508 117.932 32.168C118.447 34.485 119.09 35.429 120.892 35.429C124.368 35.429 126.642 30.881 126.642 30.881Z" fill="black"/>
<path d="M15.307 63.512C11.574 63.512 9 61.153 9 57.205C9 55.275 9.601 53.129 10.673 49.869L16.251 32.836H20.971L15.007 51.07C14.063 53.859 13.677 55.232 13.677 56.562C13.677 58.235 14.835 59.265 16.508 59.265C19.855 59.265 22.172 54.717 22.172 54.717L24.918 56.862C24.918 56.862 21.271 63.512 15.307 63.512Z" fill="black"/>
<path d="M47.3091 53.258L49.583 55.661C49.583 55.661 47.352 59.222 41.989 59.222C40.874 59.222 39.8011 59.093 38.8571 58.793C36.9271 61.625 33.88 63.512 30.148 63.512C25.085 63.512 21.696 59.522 21.696 54.245C21.696 48.153 26.029 42.489 32.55 42.489C37.613 42.489 41.002 46.436 41.002 51.714C41.002 52.829 40.8741 53.902 40.5731 54.974C41.2171 55.103 41.9031 55.189 42.6761 55.189C45.9361 55.189 47.3091 53.258 47.3091 53.258ZM30.92 59.265C32.679 59.265 34.266 58.407 35.425 57.12C32.422 54.803 30.8771 50.941 31.3921 46.823C28.2171 47.294 26.2 50.598 26.2 53.816C26.2 56.991 28.045 59.265 30.92 59.265ZM37.356 52.143C37.356 50.083 36.6261 48.41 35.1671 47.509C35.0821 49.654 35.7681 51.714 37.2701 53.172C37.3131 52.829 37.356 52.486 37.356 52.143Z" fill="black"/>
<path d="M72.722 53.258L74.996 55.661C74.996 55.661 72.722 59.222 67.402 59.222C65.772 59.222 64.141 58.836 62.725 58.021C59.851 61.281 55.904 63.512 52.214 63.512C48.138 63.512 46.079 59.994 46.079 55.232C46.079 51.542 47.366 47.123 49.468 43.133H54.273C52.085 47.337 50.798 51.714 50.755 54.76C50.712 57.42 51.57 59.222 53.63 59.222C55.56 59.222 58.092 57.806 60.022 55.661C58.821 54.03 58.049 51.799 58.049 49.011C58.049 44.377 60.237 42.489 62.725 42.489C64.871 42.489 66.887 44.42 66.887 47.895C66.887 50.212 66.201 52.572 65.042 54.674C65.9 55.017 66.93 55.189 68.046 55.189C71.349 55.189 72.722 53.258 72.722 53.258ZM61.653 48.796C61.653 50.212 61.91 51.328 62.339 52.271C62.94 51.027 63.283 49.74 63.283 48.41C63.283 47.38 63.026 46.394 62.511 46.394C61.953 46.394 61.653 47.38 61.653 48.796Z" fill="black"/>
<path d="M95.412 54.202L97.857 56.862C97.857 56.862 93.3519 63.512 83.5269 63.512C75.8899 63.512 71.4709 59.05 71.4709 53.258C71.4709 47.681 75.8899 42.489 82.6259 42.489C87.2169 42.489 90.478 44.935 90.478 48.367C90.478 53.687 84.686 56.39 77.907 57.334C79.237 58.621 81.2109 59.351 83.7419 59.351C91.3359 59.394 95.412 54.202 95.412 54.202ZM82.326 46.136C78.765 46.136 75.976 49.054 75.976 52.529C75.976 53.258 76.0619 53.945 76.2339 54.588C82.1539 53.644 86.187 51.799 86.187 48.925C86.187 47.337 84.772 46.136 82.326 46.136Z" fill="black"/>
<path d="M118.796 54.717L121.542 56.862C121.542 56.862 118.024 63.512 111.631 63.512C107.513 63.512 105.282 60.466 106.612 55.918L107.083 54.202C107.47 52.958 107.684 51.799 107.684 50.813C107.684 49.139 106.783 48.281 104.552 47.981C103.522 47.852 102.664 47.681 102.021 47.423C100.862 51.413 99.146 55.618 96.4 58.836L94.041 56.347C96.701 52.7 98.331 47.123 98.889 41.417H103.308C103.308 43.347 104.08 43.905 106.869 44.248C110.687 44.72 112.447 46.737 112.447 49.654C112.447 51.113 112.06 52.829 111.331 55.446C110.645 58.063 111.417 59.265 113.219 59.265C116.48 59.265 118.796 54.717 118.796 54.717Z" fill="black"/>
</mask>
<g mask="url(#mask5_41_1544)">
<path d="M47.3091 53.258L49.583 55.661C49.583 55.661 47.352 59.222 41.989 59.222C40.874 59.222 39.8011 59.093 38.8571 58.793C36.9271 61.625 33.88 63.512 30.148 63.512C25.085 63.512 21.696 59.522 21.696 54.245C21.696 48.153 26.029 42.489 32.55 42.489C37.613 42.489 41.002 46.436 41.002 51.714C41.002 52.829 40.8741 53.902 40.5731 54.974C41.2171 55.103 41.9031 55.189 42.6761 55.189C45.9361 55.189 47.3091 53.258 47.3091 53.258ZM30.92 59.265C32.679 59.265 34.266 58.407 35.425 57.12C32.422 54.803 30.8771 50.941 31.3921 46.823C28.2171 47.294 26.2 50.598 26.2 53.816C26.2 56.991 28.045 59.265 30.92 59.265ZM37.356 52.143C37.356 50.083 36.6261 48.41 35.1671 47.509C35.0821 49.654 35.7681 51.714 37.2701 53.172C37.3131 52.829 37.356 52.486 37.356 52.143Z" stroke="white" stroke-width="17.0159" stroke-linejoin="round"/>
</g>
<mask id="mask6_41_1544" style="mask-type:luminance" maskUnits="userSpaceOnUse" x="0" y="0" width="138" height="73">
<path d="M138 0H0V73H138V0Z" fill="white"/>
<path d="M53.692 29.422L55.966 31.825C55.966 31.825 53.692 35.386 48.372 35.386C47.257 35.386 46.1841 35.257 45.2401 34.957C43.3091 37.789 40.263 39.677 36.488 39.677C33.527 39.677 31.21 38.347 29.752 36.201L28.679 39.033H24.389L34.471 9H39.2761L35.6721 19.1683C36.6591 18.8251 37.732 18.6535 38.89 18.6535C43.953 18.6535 47.385 22.6436 47.385 27.878C47.385 28.993 47.2571 30.066 46.9561 31.139C47.6001 31.267 48.2861 31.353 49.0161 31.353C52.3191 31.353 53.692 29.422 53.692 29.422ZM37.303 35.429C39.062 35.429 40.606 34.571 41.765 33.284C38.761 30.967 37.2601 27.106 37.7751 22.9868C34.6001 23.4588 32.54 26.762 32.54 30.023C32.54 33.155 34.428 35.429 37.303 35.429ZM43.738 28.307C43.738 26.248 43.009 24.574 41.55 23.6304C41.464 25.818 42.151 27.921 43.653 29.38C43.695 29.036 43.738 28.65 43.738 28.307Z" fill="black"/>
<path d="M78.1331 29.422L80.407 31.825C80.407 31.825 78.176 35.386 72.813 35.386C71.697 35.386 70.6251 35.257 69.6811 34.957C67.7501 37.789 64.704 39.677 60.971 39.677C55.908 39.677 52.519 35.686 52.519 30.409C52.519 24.317 56.8521 18.6535 63.3741 18.6535C68.4371 18.6535 71.826 22.6007 71.826 27.878C71.826 28.993 71.697 30.066 71.397 31.139C72.041 31.267 72.7271 31.353 73.4991 31.353C76.7601 31.353 78.1331 29.422 78.1331 29.422ZM61.743 35.429C63.503 35.429 65.09 34.571 66.248 33.284C63.245 30.967 61.7011 27.106 62.2151 22.9868C59.0401 23.4588 57.024 26.762 57.024 29.98C57.024 33.155 58.869 35.429 61.743 35.429ZM68.179 28.307C68.179 26.248 67.4501 24.574 65.9911 23.6733C65.9051 25.818 66.592 27.878 68.093 29.337C68.136 28.993 68.179 28.65 68.179 28.307Z" fill="black"/>
<path d="M102.602 29.422L104.876 31.825C104.876 31.825 102.645 35.386 97.282 35.386C96.166 35.386 95.0941 35.257 94.1501 34.957C92.2191 37.789 89.1731 39.677 85.4401 39.677C80.3771 39.677 76.988 35.686 76.988 30.409C76.988 24.317 81.321 18.6535 87.843 18.6535C92.905 18.6535 96.295 22.6007 96.295 27.878C96.295 28.993 96.1661 30.066 95.8661 31.139C96.5091 31.267 97.196 31.353 97.968 31.353C101.229 31.353 102.602 29.422 102.602 29.422ZM86.212 35.429C87.971 35.429 89.559 34.571 90.717 33.284C87.714 30.967 86.1691 27.106 86.6841 22.9868C83.5091 23.4588 81.493 26.762 81.493 29.98C81.493 33.155 83.338 35.429 86.212 35.429ZM92.648 28.307C92.648 26.248 91.9191 24.574 90.4601 23.6733C90.3741 25.818 91.061 27.878 92.562 29.337C92.605 28.993 92.648 28.65 92.648 28.307Z" fill="black"/>
<path d="M126.642 30.881L129.387 33.026C129.387 33.026 125.912 39.677 119.219 39.677C115.1 39.677 113.556 36.888 113.041 33.455C112.655 31.353 111.883 30.023 109.995 29.852C109.995 29.894 109.952 29.894 109.952 29.894L109.78 29.852H109.566C107.506 29.852 106.348 30.881 105.576 33.284L103.688 39.033H99.011L108.922 9H113.642L107.335 27.363C111.711 24.96 115.358 23.33 118.79 19.297H124.754C121.536 23.2013 118.318 25.089 114.242 27.406C116.044 28.05 117.374 29.508 117.932 32.168C118.447 34.485 119.09 35.429 120.892 35.429C124.368 35.429 126.642 30.881 126.642 30.881Z" fill="black"/>
<path d="M15.307 63.512C11.574 63.512 9 61.153 9 57.205C9 55.275 9.601 53.129 10.673 49.869L16.251 32.836H20.971L15.007 51.07C14.063 53.859 13.677 55.232 13.677 56.562C13.677 58.235 14.835 59.265 16.508 59.265C19.855 59.265 22.172 54.717 22.172 54.717L24.918 56.862C24.918 56.862 21.271 63.512 15.307 63.512Z" fill="black"/>
<path d="M47.3091 53.258L49.583 55.661C49.583 55.661 47.352 59.222 41.989 59.222C40.874 59.222 39.8011 59.093 38.8571 58.793C36.9271 61.625 33.88 63.512 30.148 63.512C25.085 63.512 21.696 59.522 21.696 54.245C21.696 48.153 26.029 42.489 32.55 42.489C37.613 42.489 41.002 46.436 41.002 51.714C41.002 52.829 40.8741 53.902 40.5731 54.974C41.2171 55.103 41.9031 55.189 42.6761 55.189C45.9361 55.189 47.3091 53.258 47.3091 53.258ZM30.92 59.265C32.679 59.265 34.266 58.407 35.425 57.12C32.422 54.803 30.8771 50.941 31.3921 46.823C28.2171 47.294 26.2 50.598 26.2 53.816C26.2 56.991 28.045 59.265 30.92 59.265ZM37.356 52.143C37.356 50.083 36.6261 48.41 35.1671 47.509C35.0821 49.654 35.7681 51.714 37.2701 53.172C37.3131 52.829 37.356 52.486 37.356 52.143Z" fill="black"/>
<path d="M72.722 53.258L74.996 55.661C74.996 55.661 72.722 59.222 67.402 59.222C65.772 59.222 64.141 58.836 62.725 58.021C59.851 61.281 55.904 63.512 52.214 63.512C48.138 63.512 46.079 59.994 46.079 55.232C46.079 51.542 47.366 47.123 49.468 43.133H54.273C52.085 47.337 50.798 51.714 50.755 54.76C50.712 57.42 51.57 59.222 53.63 59.222C55.56 59.222 58.092 57.806 60.022 55.661C58.821 54.03 58.049 51.799 58.049 49.011C58.049 44.377 60.237 42.489 62.725 42.489C64.871 42.489 66.887 44.42 66.887 47.895C66.887 50.212 66.201 52.572 65.042 54.674C65.9 55.017 66.93 55.189 68.046 55.189C71.349 55.189 72.722 53.258 72.722 53.258ZM61.653 48.796C61.653 50.212 61.91 51.328 62.339 52.271C62.94 51.027 63.283 49.74 63.283 48.41C63.283 47.38 63.026 46.394 62.511 46.394C61.953 46.394 61.653 47.38 61.653 48.796Z" fill="black"/>
<path d="M95.412 54.202L97.857 56.862C97.857 56.862 93.3519 63.512 83.5269 63.512C75.8899 63.512 71.4709 59.05 71.4709 53.258C71.4709 47.681 75.8899 42.489 82.6259 42.489C87.2169 42.489 90.478 44.935 90.478 48.367C90.478 53.687 84.686 56.39 77.907 57.334C79.237 58.621 81.2109 59.351 83.7419 59.351C91.3359 59.394 95.412 54.202 95.412 54.202ZM82.326 46.136C78.765 46.136 75.976 49.054 75.976 52.529C75.976 53.258 76.0619 53.945 76.2339 54.588C82.1539 53.644 86.187 51.799 86.187 48.925C86.187 47.337 84.772 46.136 82.326 46.136Z" fill="black"/>
<path d="M118.796 54.717L121.542 56.862C121.542 56.862 118.024 63.512 111.631 63.512C107.513 63.512 105.282 60.466 106.612 55.918L107.083 54.202C107.47 52.958 107.684 51.799 107.684 50.813C107.684 49.139 106.783 48.281 104.552 47.981C103.522 47.852 102.664 47.681 102.021 47.423C100.862 51.413 99.146 55.618 96.4 58.836L94.041 56.347C96.701 52.7 98.331 47.123 98.889 41.417H103.308C103.308 43.347 104.08 43.905 106.869 44.248C110.687 44.72 112.447 46.737 112.447 49.654C112.447 51.113 112.06 52.829 111.331 55.446C110.645 58.063 111.417 59.265 113.219 59.265C116.48 59.265 118.796 54.717 118.796 54.717Z" fill="black"/>
</mask>
<g mask="url(#mask6_41_1544)">
<path d="M72.722 53.258L74.996 55.661C74.996 55.661 72.722 59.222 67.402 59.222C65.772 59.222 64.141 58.836 62.725 58.021C59.851 61.281 55.904 63.512 52.214 63.512C48.138 63.512 46.079 59.994 46.079 55.232C46.079 51.542 47.366 47.123 49.468 43.133H54.273C52.085 47.337 50.798 51.714 50.755 54.76C50.712 57.42 51.57 59.222 53.63 59.222C55.56 59.222 58.092 57.806 60.022 55.661C58.821 54.03 58.049 51.799 58.049 49.011C58.049 44.377 60.237 42.489 62.725 42.489C64.871 42.489 66.887 44.42 66.887 47.895C66.887 50.212 66.201 52.572 65.042 54.674C65.9 55.017 66.93 55.189 68.046 55.189C71.349 55.189 72.722 53.258 72.722 53.258ZM61.653 48.796C61.653 50.212 61.91 51.328 62.339 52.271C62.94 51.027 63.283 49.74 63.283 48.41C63.283 47.38 63.026 46.394 62.511 46.394C61.953 46.394 61.653 47.38 61.653 48.796Z" stroke="white" stroke-width="17.0159" stroke-linejoin="round"/>
</g>
<mask id="mask7_41_1544" style="mask-type:luminance" maskUnits="userSpaceOnUse" x="0" y="0" width="138" height="73">
<path d="M138 0H0V73H138V0Z" fill="white"/>
<path d="M53.692 29.422L55.966 31.825C55.966 31.825 53.692 35.386 48.372 35.386C47.257 35.386 46.1841 35.257 45.2401 34.957C43.3091 37.789 40.263 39.677 36.488 39.677C33.527 39.677 31.21 38.347 29.752 36.201L28.679 39.033H24.389L34.471 9H39.2761L35.6721 19.1683C36.6591 18.8251 37.732 18.6535 38.89 18.6535C43.953 18.6535 47.385 22.6436 47.385 27.878C47.385 28.993 47.2571 30.066 46.9561 31.139C47.6001 31.267 48.2861 31.353 49.0161 31.353C52.3191 31.353 53.692 29.422 53.692 29.422ZM37.303 35.429C39.062 35.429 40.606 34.571 41.765 33.284C38.761 30.967 37.2601 27.106 37.7751 22.9868C34.6001 23.4588 32.54 26.762 32.54 30.023C32.54 33.155 34.428 35.429 37.303 35.429ZM43.738 28.307C43.738 26.248 43.009 24.574 41.55 23.6304C41.464 25.818 42.151 27.921 43.653 29.38C43.695 29.036 43.738 28.65 43.738 28.307Z" fill="black"/>
<path d="M78.1331 29.422L80.407 31.825C80.407 31.825 78.176 35.386 72.813 35.386C71.697 35.386 70.6251 35.257 69.6811 34.957C67.7501 37.789 64.704 39.677 60.971 39.677C55.908 39.677 52.519 35.686 52.519 30.409C52.519 24.317 56.8521 18.6535 63.3741 18.6535C68.4371 18.6535 71.826 22.6007 71.826 27.878C71.826 28.993 71.697 30.066 71.397 31.139C72.041 31.267 72.7271 31.353 73.4991 31.353C76.7601 31.353 78.1331 29.422 78.1331 29.422ZM61.743 35.429C63.503 35.429 65.09 34.571 66.248 33.284C63.245 30.967 61.7011 27.106 62.2151 22.9868C59.0401 23.4588 57.024 26.762 57.024 29.98C57.024 33.155 58.869 35.429 61.743 35.429ZM68.179 28.307C68.179 26.248 67.4501 24.574 65.9911 23.6733C65.9051 25.818 66.592 27.878 68.093 29.337C68.136 28.993 68.179 28.65 68.179 28.307Z" fill="black"/>
<path d="M102.602 29.422L104.876 31.825C104.876 31.825 102.645 35.386 97.282 35.386C96.166 35.386 95.0941 35.257 94.1501 34.957C92.2191 37.789 89.1731 39.677 85.4401 39.677C80.3771 39.677 76.988 35.686 76.988 30.409C76.988 24.317 81.321 18.6535 87.843 18.6535C92.905 18.6535 96.295 22.6007 96.295 27.878C96.295 28.993 96.1661 30.066 95.8661 31.139C96.5091 31.267 97.196 31.353 97.968 31.353C101.229 31.353 102.602 29.422 102.602 29.422ZM86.212 35.429C87.971 35.429 89.559 34.571 90.717 33.284C87.714 30.967 86.1691 27.106 86.6841 22.9868C83.5091 23.4588 81.493 26.762 81.493 29.98C81.493 33.155 83.338 35.429 86.212 35.429ZM92.648 28.307C92.648 26.248 91.9191 24.574 90.4601 23.6733C90.3741 25.818 91.061 27.878 92.562 29.337C92.605 28.993 92.648 28.65 92.648 28.307Z" fill="black"/>
<path d="M126.642 30.881L129.387 33.026C129.387 33.026 125.912 39.677 119.219 39.677C115.1 39.677 113.556 36.888 113.041 33.455C112.655 31.353 111.883 30.023 109.995 29.852C109.995 29.894 109.952 29.894 109.952 29.894L109.78 29.852H109.566C107.506 29.852 106.348 30.881 105.576 33.284L103.688 39.033H99.011L108.922 9H113.642L107.335 27.363C111.711 24.96 115.358 23.33 118.79 19.297H124.754C121.536 23.2013 118.318 25.089 114.242 27.406C116.044 28.05 117.374 29.508 117.932 32.168C118.447 34.485 119.09 35.429 120.892 35.429C124.368 35.429 126.642 30.881 126.642 30.881Z" fill="black"/>
<path d="M15.307 63.512C11.574 63.512 9 61.153 9 57.205C9 55.275 9.601 53.129 10.673 49.869L16.251 32.836H20.971L15.007 51.07C14.063 53.859 13.677 55.232 13.677 56.562C13.677 58.235 14.835 59.265 16.508 59.265C19.855 59.265 22.172 54.717 22.172 54.717L24.918 56.862C24.918 56.862 21.271 63.512 15.307 63.512Z" fill="black"/>
<path d="M47.3091 53.258L49.583 55.661C49.583 55.661 47.352 59.222 41.989 59.222C40.874 59.222 39.8011 59.093 38.8571 58.793C36.9271 61.625 33.88 63.512 30.148 63.512C25.085 63.512 21.696 59.522 21.696 54.245C21.696 48.153 26.029 42.489 32.55 42.489C37.613 42.489 41.002 46.436 41.002 51.714C41.002 52.829 40.8741 53.902 40.5731 54.974C41.2171 55.103 41.9031 55.189 42.6761 55.189C45.9361 55.189 47.3091 53.258 47.3091 53.258ZM30.92 59.265C32.679 59.265 34.266 58.407 35.425 57.12C32.422 54.803 30.8771 50.941 31.3921 46.823C28.2171 47.294 26.2 50.598 26.2 53.816C26.2 56.991 28.045 59.265 30.92 59.265ZM37.356 52.143C37.356 50.083 36.6261 48.41 35.1671 47.509C35.0821 49.654 35.7681 51.714 37.2701 53.172C37.3131 52.829 37.356 52.486 37.356 52.143Z" fill="black"/>
<path d="M72.722 53.258L74.996 55.661C74.996 55.661 72.722 59.222 67.402 59.222C65.772 59.222 64.141 58.836 62.725 58.021C59.851 61.281 55.904 63.512 52.214 63.512C48.138 63.512 46.079 59.994 46.079 55.232C46.079 51.542 47.366 47.123 49.468 43.133H54.273C52.085 47.337 50.798 51.714 50.755 54.76C50.712 57.42 51.57 59.222 53.63 59.222C55.56 59.222 58.092 57.806 60.022 55.661C58.821 54.03 58.049 51.799 58.049 49.011C58.049 44.377 60.237 42.489 62.725 42.489C64.871 42.489 66.887 44.42 66.887 47.895C66.887 50.212 66.201 52.572 65.042 54.674C65.9 55.017 66.93 55.189 68.046 55.189C71.349 55.189 72.722 53.258 72.722 53.258ZM61.653 48.796C61.653 50.212 61.91 51.328 62.339 52.271C62.94 51.027 63.283 49.74 63.283 48.41C63.283 47.38 63.026 46.394 62.511 46.394C61.953 46.394 61.653 47.38 61.653 48.796Z" fill="black"/>
<path d="M95.412 54.202L97.857 56.862C97.857 56.862 93.3519 63.512 83.5269 63.512C75.8899 63.512 71.4709 59.05 71.4709 53.258C71.4709 47.681 75.8899 42.489 82.6259 42.489C87.2169 42.489 90.478 44.935 90.478 48.367C90.478 53.687 84.686 56.39 77.907 57.334C79.237 58.621 81.2109 59.351 83.7419 59.351C91.3359 59.394 95.412 54.202 95.412 54.202ZM82.326 46.136C78.765 46.136 75.976 49.054 75.976 52.529C75.976 53.258 76.0619 53.945 76.2339 54.588C82.1539 53.644 86.187 51.799 86.187 48.925C86.187 47.337 84.772 46.136 82.326 46.136Z" fill="black"/>
<path d="M118.796 54.717L121.542 56.862C121.542 56.862 118.024 63.512 111.631 63.512C107.513 63.512 105.282 60.466 106.612 55.918L107.083 54.202C107.47 52.958 107.684 51.799 107.684 50.813C107.684 49.139 106.783 48.281 104.552 47.981C103.522 47.852 102.664 47.681 102.021 47.423C100.862 51.413 99.146 55.618 96.4 58.836L94.041 56.347C96.701 52.7 98.331 47.123 98.889 41.417H103.308C103.308 43.347 104.08 43.905 106.869 44.248C110.687 44.72 112.447 46.737 112.447 49.654C112.447 51.113 112.06 52.829 111.331 55.446C110.645 58.063 111.417 59.265 113.219 59.265C116.48 59.265 118.796 54.717 118.796 54.717Z" fill="black"/>
</mask>
<g mask="url(#mask7_41_1544)">
<path d="M95.412 54.202L97.857 56.862C97.857 56.862 93.3519 63.512 83.5269 63.512C75.8899 63.512 71.4709 59.05 71.4709 53.258C71.4709 47.681 75.8899 42.489 82.6259 42.489C87.2169 42.489 90.478 44.935 90.478 48.367C90.478 53.687 84.686 56.39 77.907 57.334C79.237 58.621 81.2109 59.351 83.7419 59.351C91.3359 59.394 95.412 54.202 95.412 54.202ZM82.326 46.136C78.765 46.136 75.976 49.054 75.976 52.529C75.976 53.258 76.0619 53.945 76.2339 54.588C82.1539 53.644 86.187 51.799 86.187 48.925C86.187 47.337 84.772 46.136 82.326 46.136Z" stroke="white" stroke-width="17.0159" stroke-linejoin="round"/>
</g>
<mask id="mask8_41_1544" style="mask-type:luminance" maskUnits="userSpaceOnUse" x="0" y="0" width="138" height="73">
<path d="M138 0H0V73H138V0Z" fill="white"/>
<path d="M53.692 29.422L55.966 31.825C55.966 31.825 53.692 35.386 48.372 35.386C47.257 35.386 46.1841 35.257 45.2401 34.957C43.3091 37.789 40.263 39.677 36.488 39.677C33.527 39.677 31.21 38.347 29.752 36.201L28.679 39.033H24.389L34.471 9H39.2761L35.6721 19.1683C36.6591 18.8251 37.732 18.6535 38.89 18.6535C43.953 18.6535 47.385 22.6436 47.385 27.878C47.385 28.993 47.2571 30.066 46.9561 31.139C47.6001 31.267 48.2861 31.353 49.0161 31.353C52.3191 31.353 53.692 29.422 53.692 29.422ZM37.303 35.429C39.062 35.429 40.606 34.571 41.765 33.284C38.761 30.967 37.2601 27.106 37.7751 22.9868C34.6001 23.4588 32.54 26.762 32.54 30.023C32.54 33.155 34.428 35.429 37.303 35.429ZM43.738 28.307C43.738 26.248 43.009 24.574 41.55 23.6304C41.464 25.818 42.151 27.921 43.653 29.38C43.695 29.036 43.738 28.65 43.738 28.307Z" fill="black"/>
<path d="M78.1331 29.422L80.407 31.825C80.407 31.825 78.176 35.386 72.813 35.386C71.697 35.386 70.6251 35.257 69.6811 34.957C67.7501 37.789 64.704 39.677 60.971 39.677C55.908 39.677 52.519 35.686 52.519 30.409C52.519 24.317 56.8521 18.6535 63.3741 18.6535C68.4371 18.6535 71.826 22.6007 71.826 27.878C71.826 28.993 71.697 30.066 71.397 31.139C72.041 31.267 72.7271 31.353 73.4991 31.353C76.7601 31.353 78.1331 29.422 78.1331 29.422ZM61.743 35.429C63.503 35.429 65.09 34.571 66.248 33.284C63.245 30.967 61.7011 27.106 62.2151 22.9868C59.0401 23.4588 57.024 26.762 57.024 29.98C57.024 33.155 58.869 35.429 61.743 35.429ZM68.179 28.307C68.179 26.248 67.4501 24.574 65.9911 23.6733C65.9051 25.818 66.592 27.878 68.093 29.337C68.136 28.993 68.179 28.65 68.179 28.307Z" fill="black"/>
<path d="M102.602 29.422L104.876 31.825C104.876 31.825 102.645 35.386 97.282 35.386C96.166 35.386 95.0941 35.257 94.1501 34.957C92.2191 37.789 89.1731 39.677 85.4401 39.677C80.3771 39.677 76.988 35.686 76.988 30.409C76.988 24.317 81.321 18.6535 87.843 18.6535C92.905 18.6535 96.295 22.6007 96.295 27.878C96.295 28.993 96.1661 30.066 95.8661 31.139C96.5091 31.267 97.196 31.353 97.968 31.353C101.229 31.353 102.602 29.422 102.602 29.422ZM86.212 35.429C87.971 35.429 89.559 34.571 90.717 33.284C87.714 30.967 86.1691 27.106 86.6841 22.9868C83.5091 23.4588 81.493 26.762 81.493 29.98C81.493 33.155 83.338 35.429 86.212 35.429ZM92.648 28.307C92.648 26.248 91.9191 24.574 90.4601 23.6733C90.3741 25.818 91.061 27.878 92.562 29.337C92.605 28.993 92.648 28.65 92.648 28.307Z" fill="black"/>
<path d="M126.642 30.881L129.387 33.026C129.387 33.026 125.912 39.677 119.219 39.677C115.1 39.677 113.556 36.888 113.041 33.455C112.655 31.353 111.883 30.023 109.995 29.852C109.995 29.894 109.952 29.894 109.952 29.894L109.78 29.852H109.566C107.506 29.852 106.348 30.881 105.576 33.284L103.688 39.033H99.011L108.922 9H113.642L107.335 27.363C111.711 24.96 115.358 23.33 118.79 19.297H124.754C121.536 23.2013 118.318 25.089 114.242 27.406C116.044 28.05 117.374 29.508 117.932 32.168C118.447 34.485 119.09 35.429 120.892 35.429C124.368 35.429 126.642 30.881 126.642 30.881Z" fill="black"/>
<path d="M15.307 63.512C11.574 63.512 9 61.153 9 57.205C9 55.275 9.601 53.129 10.673 49.869L16.251 32.836H20.971L15.007 51.07C14.063 53.859 13.677 55.232 13.677 56.562C13.677 58.235 14.835 59.265 16.508 59.265C19.855 59.265 22.172 54.717 22.172 54.717L24.918 56.862C24.918 56.862 21.271 63.512 15.307 63.512Z" fill="black"/>
<path d="M47.3091 53.258L49.583 55.661C49.583 55.661 47.352 59.222 41.989 59.222C40.874 59.222 39.8011 59.093 38.8571 58.793C36.9271 61.625 33.88 63.512 30.148 63.512C25.085 63.512 21.696 59.522 21.696 54.245C21.696 48.153 26.029 42.489 32.55 42.489C37.613 42.489 41.002 46.436 41.002 51.714C41.002 52.829 40.8741 53.902 40.5731 54.974C41.2171 55.103 41.9031 55.189 42.6761 55.189C45.9361 55.189 47.3091 53.258 47.3091 53.258ZM30.92 59.265C32.679 59.265 34.266 58.407 35.425 57.12C32.422 54.803 30.8771 50.941 31.3921 46.823C28.2171 47.294 26.2 50.598 26.2 53.816C26.2 56.991 28.045 59.265 30.92 59.265ZM37.356 52.143C37.356 50.083 36.6261 48.41 35.1671 47.509C35.0821 49.654 35.7681 51.714 37.2701 53.172C37.3131 52.829 37.356 52.486 37.356 52.143Z" fill="black"/>
<path d="M72.722 53.258L74.996 55.661C74.996 55.661 72.722 59.222 67.402 59.222C65.772 59.222 64.141 58.836 62.725 58.021C59.851 61.281 55.904 63.512 52.214 63.512C48.138 63.512 46.079 59.994 46.079 55.232C46.079 51.542 47.366 47.123 49.468 43.133H54.273C52.085 47.337 50.798 51.714 50.755 54.76C50.712 57.42 51.57 59.222 53.63 59.222C55.56 59.222 58.092 57.806 60.022 55.661C58.821 54.03 58.049 51.799 58.049 49.011C58.049 44.377 60.237 42.489 62.725 42.489C64.871 42.489 66.887 44.42 66.887 47.895C66.887 50.212 66.201 52.572 65.042 54.674C65.9 55.017 66.93 55.189 68.046 55.189C71.349 55.189 72.722 53.258 72.722 53.258ZM61.653 48.796C61.653 50.212 61.91 51.328 62.339 52.271C62.94 51.027 63.283 49.74 63.283 48.41C63.283 47.38 63.026 46.394 62.511 46.394C61.953 46.394 61.653 47.38 61.653 48.796Z" fill="black"/>
<path d="M95.412 54.202L97.857 56.862C97.857 56.862 93.3519 63.512 83.5269 63.512C75.8899 63.512 71.4709 59.05 71.4709 53.258C71.4709 47.681 75.8899 42.489 82.6259 42.489C87.2169 42.489 90.478 44.935 90.478 48.367C90.478 53.687 84.686 56.39 77.907 57.334C79.237 58.621 81.2109 59.351 83.7419 59.351C91.3359 59.394 95.412 54.202 95.412 54.202ZM82.326 46.136C78.765 46.136 75.976 49.054 75.976 52.529C75.976 53.258 76.0619 53.945 76.2339 54.588C82.1539 53.644 86.187 51.799 86.187 48.925C86.187 47.337 84.772 46.136 82.326 46.136Z" fill="black"/>
<path d="M118.796 54.717L121.542 56.862C121.542 56.862 118.024 63.512 111.631 63.512C107.513 63.512 105.282 60.466 106.612 55.918L107.083 54.202C107.47 52.958 107.684 51.799 107.684 50.813C107.684 49.139 106.783 48.281 104.552 47.981C103.522 47.852 102.664 47.681 102.021 47.423C100.862 51.413 99.146 55.618 96.4 58.836L94.041 56.347C96.701 52.7 98.331 47.123 98.889 41.417H103.308C103.308 43.347 104.08 43.905 106.869 44.248C110.687 44.72 112.447 46.737 112.447 49.654C112.447 51.113 112.06 52.829 111.331 55.446C110.645 58.063 111.417 59.265 113.219 59.265C116.48 59.265 118.796 54.717 118.796 54.717Z" fill="black"/>
</mask>
<g mask="url(#mask8_41_1544)">
<path d="M118.796 54.717L121.542 56.862C121.542 56.862 118.024 63.512 111.631 63.512C107.513 63.512 105.282 60.466 106.612 55.918L107.083 54.202C107.47 52.958 107.684 51.799 107.684 50.813C107.684 49.139 106.783 48.281 104.552 47.981C103.522 47.852 102.664 47.681 102.021 47.423C100.862 51.413 99.146 55.618 96.4 58.836L94.041 56.347C96.701 52.7 98.331 47.123 98.889 41.417H103.308C103.308 43.347 104.08 43.905 106.869 44.248C110.687 44.72 112.447 46.737 112.447 49.654C112.447 51.113 112.06 52.829 111.331 55.446C110.645 58.063 111.417 59.265 113.219 59.265C116.48 59.265 118.796 54.717 118.796 54.717Z" stroke="white" stroke-width="17.0159" stroke-linejoin="round"/>
</g>
<defs>
<linearGradient id="paint0_linear_41_1544" x1="49.838" y1="13.4667" x2="94.505" y2="63.451" gradientUnits="userSpaceOnUse">
<stop stop-color="#FC4A1A"/>
<stop offset="1" stop-color="#F7B733"/>
</linearGradient>
<linearGradient id="paint1_linear_41_1544" x1="49.838" y1="13.4667" x2="94.505" y2="63.451" gradientUnits="userSpaceOnUse">
<stop stop-color="#FC4A1A"/>
<stop offset="1" stop-color="#F7B733"/>
</linearGradient>
<linearGradient id="paint2_linear_41_1544" x1="49.838" y1="13.4667" x2="94.505" y2="63.451" gradientUnits="userSpaceOnUse">
<stop stop-color="#FC4A1A"/>
<stop offset="1" stop-color="#F7B733"/>
</linearGradient>
<linearGradient id="paint3_linear_41_1544" x1="49.838" y1="13.4667" x2="94.505" y2="63.451" gradientUnits="userSpaceOnUse">
<stop stop-color="#FC4A1A"/>
<stop offset="1" stop-color="#F7B733"/>
</linearGradient>
<linearGradient id="paint4_linear_41_1544" x1="49.838" y1="13.4667" x2="94.505" y2="63.451" gradientUnits="userSpaceOnUse">
<stop stop-color="#FC4A1A"/>
<stop offset="1" stop-color="#F7B733"/>
</linearGradient>
<linearGradient id="paint5_linear_41_1544" x1="49.838" y1="13.4667" x2="94.505" y2="63.451" gradientUnits="userSpaceOnUse">
<stop stop-color="#FC4A1A"/>
<stop offset="1" stop-color="#F7B733"/>
</linearGradient>
<linearGradient id="paint6_linear_41_1544" x1="49.8381" y1="13.4667" x2="94.5051" y2="63.4511" gradientUnits="userSpaceOnUse">
<stop stop-color="#FC4A1A"/>
<stop offset="1" stop-color="#F7B733"/>
</linearGradient>
<linearGradient id="paint7_linear_41_1544" x1="49.8381" y1="13.4667" x2="94.505" y2="63.451" gradientUnits="userSpaceOnUse">
<stop stop-color="#FC4A1A"/>
<stop offset="1" stop-color="#F7B733"/>
</linearGradient>
<linearGradient id="paint8_linear_41_1544" x1="49.838" y1="13.4667" x2="94.505" y2="63.451" gradientUnits="userSpaceOnUse">
<stop stop-color="#FC4A1A"/>
<stop offset="1" stop-color="#F7B733"/>
</linearGradient>
</defs>
</svg>
