<svg width="202" height="29" viewBox="0 0 202 29" fill="none" xmlns="http://www.w3.org/2000/svg">
<path d="M14.132 20.351L16.544 22.235C16.544 22.235 13.454 28.076 7.46201 28.076C3.69301 28.076 1.43201 25.928 1.43201 22.423C1.43201 20.765 1.99701 18.956 2.90201 16.092L3.88199 13.153H0L0.716003 10.175H4.82401L8.17801 0H12.323L9.00699 10.175H13.906L13.19 13.153H8.02701L6.70801 17.147C5.87901 19.559 5.578 20.765 5.578 21.896C5.578 23.403 6.55699 24.345 8.44199 24.345C12.21 24.345 14.132 20.351 14.132 20.351Z" fill="white"/>
<path d="M37.881 20.351L40.293 22.235C40.293 22.235 37.09 28.076 31.851 28.076C29.628 28.076 27.894 27.134 26.99 25.476C25.558 27.059 23.523 28.076 20.96 28.076C16.513 28.076 13.724 24.572 13.724 19.936C13.724 14.585 17.229 9.60999 22.882 9.60999C25.972 9.60999 27.894 11.08 28.836 13.341L30.08 10.175H33.849L31.587 17.147C30.758 19.597 30.419 20.8029 30.419 21.9709C30.419 23.4409 31.437 24.345 32.906 24.345C35.846 24.345 37.881 20.351 37.881 20.351ZM21.751 24.345C24.879 24.345 26.914 21.18 26.914 18.09C26.914 15.338 25.369 13.341 22.882 13.341C19.716 13.341 17.681 16.469 17.681 19.559C17.681 22.348 19.226 24.345 21.751 24.345Z" fill="white"/>
<path d="M59.584 20.351L61.996 22.235C61.996 22.235 58.943 28.076 53.064 28.076C49.446 28.076 48.09 25.627 47.637 22.612C47.298 20.765 46.62 19.597 44.962 19.446C44.962 19.484 44.924 19.4839 44.924 19.4839L44.773 19.446H44.585C42.776 19.446 41.758 20.351 41.08 22.461L39.422 27.511H35.314L44.019 1.13098H48.165L42.625 17.2599C46.469 15.1499 49.672 13.718 52.687 10.175H57.926C55.099 13.605 52.273 15.263 48.693 17.298C50.275 17.863 51.444 19.145 51.934 21.481C52.386 23.516 52.951 24.345 54.534 24.345C57.587 24.345 59.584 20.351 59.584 20.351Z" fill="white"/>
<path d="M80.205 19.899L82.353 22.235C82.353 22.235 78.396 28.076 69.766 28.076C63.057 28.076 59.176 24.157 59.176 19.069C59.176 14.17 63.057 9.60999 68.974 9.60999C73.007 9.60999 75.871 11.7579 75.871 14.7729C75.871 19.4459 70.783 21.82 64.829 22.65C65.997 23.78 67.731 24.421 69.954 24.421C76.625 24.459 80.205 19.899 80.205 19.899ZM68.71 12.814C65.582 12.814 63.133 15.376 63.133 18.429C63.133 19.069 63.208 19.672 63.359 20.238C68.56 19.409 72.102 17.788 72.102 15.263C72.102 13.869 70.859 12.814 68.71 12.814Z" fill="white"/>
<path d="M113.523 20.351L115.935 22.235C115.935 22.235 112.732 28.076 107.493 28.076C105.27 28.076 103.536 27.134 102.632 25.476C101.2 27.059 99.165 28.076 96.602 28.076C92.155 28.076 89.366 24.572 89.366 19.936C89.366 14.585 92.871 9.60999 98.524 9.60999C101.614 9.60999 103.536 11.08 104.479 13.341L105.722 10.175H109.491L107.23 17.147C106.401 19.597 106.061 20.8029 106.061 21.9709C106.061 23.4409 107.079 24.345 108.549 24.345C111.488 24.345 113.523 20.351 113.523 20.351ZM97.394 24.345C100.522 24.345 102.557 21.18 102.557 18.09C102.557 15.338 101.011 13.341 98.524 13.341C95.359 13.341 93.323 16.469 93.323 19.559C93.323 22.348 94.869 24.345 97.394 24.345Z" fill="#FF000A"/>
<path d="M122.865 28.076C116.873 28.076 113.104 24.27 113.104 18.956C113.104 13.982 116.571 9.60999 121.584 9.60999C125.805 9.60999 127.953 12.361 128.706 15.791L125.089 16.9969C124.712 14.7729 123.581 13.228 121.433 13.228C119.021 13.228 117.061 15.64 117.061 18.466C117.061 21.934 119.398 24.345 123.543 24.345C129.272 24.345 132.626 19.899 132.626 19.899L134.774 22.235C134.774 22.235 131.156 28.076 122.865 28.076Z" fill="#FF000A"/>
<path d="M144.648 20.351L147.06 22.235C147.06 22.235 143.969 28.076 137.977 28.076C134.209 28.076 131.947 25.928 131.947 22.423C131.947 20.765 132.513 18.956 133.417 16.092L134.397 13.153H130.515L131.231 10.175H135.339L138.693 0H142.839L139.522 10.175H144.422L143.705 13.153H138.542L137.223 17.147C136.394 19.559 136.093 20.765 136.093 21.896C136.093 23.403 137.073 24.345 138.957 24.345C142.726 24.345 144.648 20.351 144.648 20.351Z" fill="#FF000A"/>
<path d="M151.513 6.48199C150.006 6.48199 148.95 5.42696 148.95 4.03296C148.95 2.67596 150.006 1.58295 151.513 1.58295C152.983 1.58295 154.038 2.67596 154.038 4.03296C154.038 5.42696 152.983 6.48199 151.513 6.48199ZM149.779 28.076C146.501 28.076 144.24 26.004 144.24 22.537C144.24 20.841 144.805 18.956 145.709 16.092L147.631 10.175H151.777L149.516 17.147C148.687 19.597 148.347 20.8029 148.347 21.9709C148.347 23.4409 149.365 24.345 150.835 24.345C153.774 24.345 155.809 20.351 155.809 20.351L158.221 22.235C158.221 22.235 155.018 28.076 149.779 28.076Z" fill="#FF000A"/>
<path d="M177.889 19.069L179.887 21.18C179.887 21.18 177.927 24.308 173.216 24.308C172.237 24.308 171.294 24.195 170.465 23.931C168.769 26.418 166.094 28.076 162.815 28.076C158.368 28.076 155.391 24.572 155.391 19.936C155.391 14.585 159.197 9.60999 164.925 9.60999C169.372 9.60999 172.35 13.077 172.35 17.713C172.35 18.693 172.237 19.635 171.973 20.577C172.538 20.69 173.141 20.765 173.819 20.765C176.684 20.765 177.889 19.069 177.889 19.069ZM163.493 24.345C165.038 24.345 166.433 23.592 167.45 22.461C164.812 20.426 163.456 17.034 163.908 13.416C161.119 13.831 159.348 16.733 159.348 19.559C159.348 22.348 160.968 24.345 163.493 24.345ZM169.146 18.09C169.146 16.281 168.506 14.811 167.224 14.019C167.149 15.904 167.752 17.713 169.071 18.994C169.109 18.693 169.146 18.391 169.146 18.09Z" fill="#FF000A"/>
<path d="M198.968 20.351L201.38 22.235C201.38 22.235 198.289 28.076 192.561 28.076C188.906 28.076 186.682 25.25 187.926 21.368L188.566 19.409C189.132 17.562 189.433 16.695 189.433 15.527C189.433 14.246 188.604 13.228 187.021 13.228C184.949 13.228 183.027 14.849 181.821 18.466L178.843 27.511H174.736L180.313 10.175H183.78L183.215 12.437C184.685 10.665 186.607 9.60999 188.868 9.60999C192.184 9.60999 193.805 11.645 193.805 14.283C193.805 15.715 193.466 16.846 192.863 18.655L192.109 20.954C191.318 23.253 192.373 24.345 193.956 24.345C196.933 24.345 198.968 20.351 198.968 20.351Z" fill="#FF000A"/>
</svg>
