<svg width="473" height="46" viewBox="0 0 473 46" fill="none" xmlns="http://www.w3.org/2000/svg">
<path d="M303.212 30.875V15.221H307.531V17.457H307.69C308.042 16.978 308.426 16.563 308.874 16.179C309.642 15.54 310.794 14.901 312.329 14.901H312.649V19.534L312.297 19.47C312.041 19.438 311.689 19.374 311.209 19.374C309.13 19.374 307.531 20.971 307.531 23.527V30.875H303.212Z" fill="#12162A"/>
<path d="M326.889 25.604L329.128 28.639C328.648 29.118 328.072 29.533 327.4 29.917C326.249 30.556 324.585 31.195 322.41 31.195C317.771 31.195 314.092 27.521 314.092 23.048C314.092 18.575 317.771 14.901 322.25 14.901C326.569 14.901 330.088 18.416 330.088 22.728C330.088 23.335 330.024 23.751 329.992 24.102L329.928 24.645H318.571C319.051 26.083 320.331 27.361 322.73 27.361C324.105 27.361 325.097 26.977 325.833 26.498C326.249 26.243 326.601 25.955 326.889 25.604ZM318.571 21.451H325.609C325.129 20.013 323.882 18.735 322.09 18.735C320.299 18.735 319.051 20.013 318.571 21.451Z" fill="#12162A"/>
<path d="M342.094 30.875V28.958H341.934C341.582 29.374 341.198 29.757 340.751 30.076C339.983 30.683 338.799 31.195 337.296 31.195C334.416 31.195 332.497 29.278 332.497 26.722C332.497 24.166 334.224 22.217 337.136 21.706L342.094 20.812C341.934 19.693 341.006 18.735 339.375 18.735C338.255 18.735 337.392 19.15 336.784 19.63C336.432 19.885 336.112 20.173 335.856 20.492L333.297 17.936C333.745 17.393 334.288 16.882 334.928 16.435C336.048 15.668 337.615 14.901 339.695 14.901C343.694 14.901 346.413 17.649 346.413 21.131V30.875H342.094ZM342.094 24.166V23.847L338.575 24.486C337.456 24.709 336.816 25.284 336.816 26.083C336.816 27.073 337.456 27.68 338.735 27.68C340.655 27.68 342.094 26.243 342.094 24.166Z" fill="#12162A"/>
<path d="M361.77 30.875V28.639H361.61C361.29 29.118 360.874 29.533 360.394 29.917C359.53 30.556 358.315 31.195 356.651 31.195C352.94 31.195 349.613 27.84 349.613 23.048C349.613 18.288 352.94 14.901 356.651 14.901C358.315 14.901 359.53 15.54 360.394 16.179C360.874 16.563 361.29 16.978 361.61 17.457H361.77V8.51196H366.088V30.875H361.77ZM357.931 27.201C360.17 27.201 361.93 25.444 361.93 23.048C361.93 20.652 360.17 18.895 357.931 18.895C355.691 18.895 353.932 20.652 353.932 23.048C353.932 25.444 355.691 27.201 357.931 27.201Z" fill="#12162A"/>
<path d="M385.925 30.875V28.958H385.765C385.413 29.374 385.029 29.757 384.582 30.076C383.814 30.683 382.63 31.195 381.127 31.195C378.247 31.195 376.328 29.278 376.328 26.722C376.328 24.166 378.055 22.217 380.967 21.706L385.925 20.812C385.765 19.693 384.837 18.735 383.206 18.735C382.086 18.735 381.223 19.15 380.615 19.63C380.263 19.885 379.943 20.173 379.687 20.492L377.128 17.936C377.576 17.393 378.119 16.882 378.759 16.435C379.879 15.668 381.446 14.901 383.526 14.901C387.525 14.901 390.244 17.649 390.244 21.131V30.875H385.925ZM385.925 24.166V23.847L382.406 24.486C381.287 24.709 380.647 25.284 380.647 26.083C380.647 27.073 381.286 27.68 382.566 27.68C384.486 27.68 385.925 26.243 385.925 24.166Z" fill="#12162A"/>
<path d="M401.442 26.562C403.521 26.562 405.121 24.997 405.121 22.728C405.121 20.46 403.521 18.895 401.442 18.895C399.362 18.895 397.763 20.46 397.763 22.728C397.763 24.997 399.362 26.562 401.442 26.562ZM394.084 34.389L396.803 31.674C397.123 32.025 397.507 32.345 397.923 32.632C398.659 33.111 399.682 33.591 400.962 33.591C403.361 33.591 405.121 31.833 405.121 29.278V28H404.961C404.641 28.479 404.257 28.894 403.809 29.278C403.041 29.917 401.826 30.556 400.162 30.556C396.675 30.556 393.444 27.361 393.444 22.728C393.444 18.096 396.675 14.901 400.162 14.901C401.826 14.901 403.041 15.54 403.809 16.179C404.257 16.563 404.641 16.978 404.961 17.457H405.121V15.221H409.44V29.278C409.44 34.07 405.921 37.584 400.962 37.584C398.627 37.584 396.931 36.785 395.78 35.987C395.108 35.507 394.532 34.996 394.084 34.389Z" fill="#12162A"/>
<path d="M422.383 30.875V28.958H422.223C421.871 29.374 421.488 29.757 421.04 30.076C420.272 30.683 419.088 31.195 417.585 31.195C414.706 31.195 412.786 29.278 412.786 26.722C412.786 24.166 414.514 22.217 417.425 21.706L422.383 20.812C422.223 19.693 421.296 18.735 419.664 18.735C418.544 18.735 417.681 19.15 417.073 19.63C416.721 19.885 416.401 20.173 416.145 20.492L413.586 17.936C414.034 17.393 414.578 16.882 415.217 16.435C416.337 15.668 417.905 14.901 419.984 14.901C423.983 14.901 426.702 17.649 426.702 21.131V30.875H422.383ZM422.383 24.166V23.847L418.864 24.486C417.745 24.709 417.105 25.284 417.105 26.083C417.105 27.073 417.745 27.68 419.024 27.68C420.944 27.68 422.383 26.243 422.383 24.166Z" fill="#12162A"/>
<path d="M430.862 30.875V15.221H435.181V30.875H430.862ZM430.542 10.748C430.542 9.46999 431.662 8.35199 433.037 8.35199C434.413 8.35199 435.501 9.46999 435.501 10.748C435.501 12.026 434.381 13.144 433.005 13.144C431.63 13.144 430.542 12.026 430.542 10.748Z" fill="#12162A"/>
<path d="M439.328 30.875V15.221H443.647V17.457H443.807C444.159 16.978 444.543 16.563 444.991 16.179C445.758 15.54 446.91 14.901 448.446 14.901C451.645 14.901 454.204 17.457 454.204 21.451V30.875H449.885V22.089C449.885 20.173 448.798 19.054 447.006 19.054C445.087 19.054 443.647 20.492 443.647 22.569V30.875H439.328Z" fill="#12162A"/>
<path d="M459.634 24.006L458.834 8.51196H463.952L463.153 24.006H459.634ZM458.834 28.639C458.834 27.201 459.954 26.083 461.393 26.083C462.833 26.083 463.952 27.201 463.952 28.639C463.952 30.076 462.833 31.195 461.393 31.195C459.954 31.195 458.834 30.076 458.834 28.639Z" fill="#12162A"/>
<path d="M96.0728 30.875V8.51196H100.871V18.096L109.509 8.51196H115.267L106.95 17.777L115.907 30.875H110.309L103.751 21.291L100.871 24.326V30.875H96.0728Z" fill="url(#paint0_linear_41_1555)"/>
<path d="M126.158 30.875V28.958H125.998C125.646 29.374 125.262 29.757 124.814 30.076C124.046 30.683 122.863 31.195 121.359 31.195C118.48 31.195 116.561 29.278 116.561 26.722C116.561 24.166 118.288 22.217 121.199 21.706L126.158 20.812C125.998 19.693 125.07 18.735 123.439 18.735C122.319 18.735 121.455 19.15 120.847 19.63C120.495 19.885 120.176 20.173 119.92 20.492L117.36 17.936C117.808 17.393 118.352 16.882 118.992 16.435C120.112 15.668 121.679 14.901 123.759 14.901C127.757 14.901 130.477 17.649 130.477 21.131V30.875H126.158ZM126.158 24.166V23.847L122.639 24.486C121.519 24.709 120.879 25.284 120.879 26.083C120.879 27.073 121.519 27.68 122.799 27.68C124.718 27.68 126.158 26.243 126.158 24.166Z" fill="url(#paint1_linear_41_1555)"/>
<path d="M133.677 30.875V26.882L141.355 19.214H133.997V15.221H147.113V19.214L139.435 26.882H147.433V30.875H133.677Z" fill="url(#paint2_linear_41_1555)"/>
<path d="M159.429 30.875V28.958H159.269C158.917 29.374 158.534 29.757 158.086 30.076C157.318 30.683 156.134 31.195 154.631 31.195C151.752 31.195 149.832 29.278 149.832 26.722C149.832 24.166 151.56 22.217 154.471 21.706L159.429 20.812C159.269 19.693 158.342 18.735 156.71 18.735C155.59 18.735 154.727 19.15 154.119 19.63C153.767 19.885 153.447 20.173 153.191 20.492L150.632 17.936C151.08 17.393 151.624 16.882 152.263 16.435C153.383 15.668 154.951 14.901 157.03 14.901C161.029 14.901 163.748 17.649 163.748 21.131V30.875H159.429ZM159.429 24.166V23.847L155.91 24.486C154.791 24.709 154.151 25.284 154.151 26.083C154.151 27.073 154.791 27.68 156.07 27.68C157.99 27.68 159.429 26.243 159.429 24.166Z" fill="url(#paint3_linear_41_1555)"/>
<path d="M168.068 30.875V8.51196H172.387V21.61L177.985 15.221H183.104L177.345 21.77L183.424 30.875H178.465L174.466 24.805L172.387 27.201V30.875H168.068Z" fill="url(#paint4_linear_41_1555)"/>
<path d="M185.5 30.875V8.51196H189.819V17.457H189.979C190.331 16.978 190.715 16.563 191.163 16.179C191.931 15.54 193.082 14.901 194.618 14.901C197.817 14.901 200.376 17.457 200.376 21.451V30.875H196.057V22.089C196.057 20.173 194.97 19.054 193.178 19.054C191.259 19.054 189.819 20.492 189.819 22.569V30.875H185.5Z" fill="url(#paint5_linear_41_1555)"/>
<path d="M202.923 28.319L205.482 25.604C205.802 25.955 206.186 26.243 206.602 26.498C207.338 26.977 208.361 27.361 209.641 27.361C211.081 27.361 211.56 26.882 211.56 26.243C211.56 24.486 203.563 24.805 203.563 19.693C203.563 17.138 205.802 14.901 209.801 14.901C211.816 14.901 213.32 15.508 214.344 16.115C214.951 16.467 215.463 16.882 215.879 17.297L213.32 20.013C213.064 19.789 212.744 19.566 212.392 19.374C211.784 19.023 210.921 18.735 209.801 18.735C208.681 18.735 208.201 19.214 208.201 19.693C208.201 21.451 216.199 21.131 216.199 26.243C216.199 28.926 213.96 31.195 209.641 31.195C207.466 31.195 205.802 30.492 204.65 29.757C203.979 29.342 203.403 28.862 202.923 28.319Z" fill="url(#paint6_linear_41_1555)"/>
<path d="M220.36 25.444V19.534H217.641V15.54H219.081C220.264 15.54 220.84 14.901 220.84 13.623V10.748H224.679V15.54H228.198V19.534H224.679V24.805C224.679 26.243 225.479 27.041 226.758 27.041C227.238 27.041 227.654 26.977 228.006 26.882C228.198 26.85 228.358 26.786 228.518 26.722V30.715C228.262 30.811 227.974 30.875 227.686 30.971C227.174 31.099 226.439 31.195 225.639 31.195C222.44 31.195 220.36 29.15 220.36 25.444Z" fill="url(#paint7_linear_41_1555)"/>
<path d="M240.374 30.875V28.958H240.215C239.863 29.374 239.479 29.757 239.031 30.076C238.263 30.683 237.079 31.195 235.576 31.195C232.697 31.195 230.777 29.278 230.777 26.722C230.777 24.166 232.505 22.217 235.416 21.706L240.374 20.812C240.215 19.693 239.287 18.735 237.655 18.735C236.536 18.735 235.672 19.15 235.064 19.63C234.712 19.885 234.392 20.173 234.136 20.492L231.577 17.936C232.025 17.393 232.569 16.882 233.209 16.435C234.328 15.668 235.896 14.901 237.975 14.901C241.974 14.901 244.693 17.649 244.693 21.131V30.875H240.374ZM240.374 24.166V23.847L236.856 24.486C235.736 24.709 235.096 25.284 235.096 26.083C235.096 27.073 235.736 27.68 237.015 27.68C238.935 27.68 240.374 26.243 240.374 24.166Z" fill="url(#paint8_linear_41_1555)"/>
<path d="M248.853 30.875V15.221H253.172V17.457H253.332C253.684 16.978 254.068 16.563 254.516 16.179C255.283 15.54 256.435 14.901 257.971 14.901C261.17 14.901 263.729 17.457 263.729 21.451V30.875H259.41V22.089C259.41 20.173 258.323 19.054 256.531 19.054C254.612 19.054 253.172 20.492 253.172 22.569V30.875H248.853Z" fill="url(#paint9_linear_41_1555)"/>
<path d="M8.35205 30.875V15.221H12.6708V17.457H12.8307C13.1187 16.978 13.4387 16.563 13.8545 16.179C14.5903 15.54 15.614 14.901 17.1496 14.901C18.8131 14.901 19.9966 15.604 20.7324 16.275C21.1483 16.658 21.5003 17.106 21.7882 17.617H21.9482C22.3001 17.106 22.7479 16.658 23.2598 16.275C24.1235 15.604 25.3712 14.901 27.0667 14.901C30.1378 14.901 32.5051 17.297 32.5051 21.131V30.875H28.1863V21.77C28.1863 19.981 27.2585 19.054 25.627 19.054C23.8355 19.054 22.588 20.332 22.588 22.249V30.875H18.2692V21.77C18.2692 19.981 17.3414 19.054 15.7099 19.054C13.9184 19.054 12.6708 20.332 12.6708 22.249V30.875H8.35205Z" fill="#12162A"/>
<path d="M45.4538 30.875V28.958H45.2939C44.942 29.374 44.5581 29.757 44.1102 30.076C43.3424 30.683 42.1588 31.195 40.6552 31.195C37.7761 31.195 35.8566 29.278 35.8566 26.722C35.8566 24.166 37.5841 22.217 40.4953 21.706L45.4538 20.812C45.2939 19.693 44.3661 18.735 42.7346 18.735C41.6149 18.735 40.7512 19.15 40.1434 19.63C39.7915 19.885 39.4716 20.173 39.2156 20.492L36.6564 17.936C37.1043 17.393 37.6481 16.882 38.2879 16.435C39.4076 15.668 40.9751 14.901 43.0545 14.901C47.0534 14.901 49.7726 17.649 49.7726 21.131V30.875H45.4538ZM45.4538 24.166V23.847L41.9349 24.486C40.8152 24.709 40.1754 25.284 40.1754 26.083C40.1754 27.073 40.8152 27.68 42.0948 27.68C44.0142 27.68 45.4538 26.243 45.4538 24.166Z" fill="#12162A"/>
<path d="M54.0927 30.875V8.51196H58.4114V21.61L64.0098 15.221H69.1278L63.3699 21.77L69.4478 30.875H64.4896L60.4908 24.805L58.4114 27.201V30.875H54.0927Z" fill="#12162A"/>
<path d="M82.8887 25.604L85.1287 28.639C84.6487 29.118 84.0727 29.533 83.4007 29.917C82.2497 30.556 80.5857 31.195 78.4107 31.195C73.7717 31.195 70.0927 27.521 70.0927 23.048C70.0927 18.575 73.7717 14.901 78.2507 14.901C82.5697 14.901 86.0887 18.416 86.0887 22.728C86.0887 23.335 86.0247 23.751 85.9927 24.102L85.9286 24.645H74.5717C75.0517 26.083 76.3307 27.361 78.7307 27.361C80.1057 27.361 81.0977 26.977 81.8337 26.498C82.2497 26.243 82.6017 25.955 82.8887 25.604ZM74.5717 21.451H81.6097C81.1297 20.013 79.8817 18.735 78.0907 18.735C76.2987 18.735 75.0517 20.013 74.5717 21.451Z" fill="#12162A"/>
<path d="M268.3 16.017C268.3 12.825 270.891 10.238 274.086 10.238H286.485C289.681 10.238 292.271 12.825 292.271 16.017V27.573C292.271 30.764 289.681 33.351 286.485 33.351H274.086C270.891 33.351 268.3 30.764 268.3 27.573V16.017Z" fill="#00ABC2"/>
<path d="M280.224 23.227C281.968 23.227 283.381 21.816 283.381 20.075C283.381 18.334 281.968 16.923 280.224 16.923C278.481 16.923 277.068 18.334 277.068 20.075C277.068 21.816 278.481 23.227 280.224 23.227Z" fill="#FFEC2D"/>
<path d="M280.229 16.494C280.417 16.492 280.487 16.375 280.487 16.234C280.487 16.047 280.229 15.154 280.229 15.154C280.229 15.154 279.971 16.047 279.971 16.234C279.971 16.375 280.041 16.494 280.229 16.494Z" fill="#FFEC2D"/>
<path d="M283.813 20.075C283.816 20.263 283.933 20.333 284.074 20.333C284.262 20.333 285.155 20.075 285.155 20.075C285.155 20.075 284.262 19.817 284.074 19.817C283.933 19.817 283.813 19.888 283.813 20.075Z" fill="#FFEC2D"/>
<path d="M280.226 23.658C280.038 23.66 279.968 23.777 279.968 23.918C279.968 24.105 280.226 24.998 280.226 24.998C280.226 24.998 280.484 24.105 280.484 23.918C280.484 23.777 280.414 23.658 280.226 23.658Z" fill="#FFEC2D"/>
<path d="M276.64 20.076C276.637 19.888 276.52 19.818 276.379 19.818C276.191 19.818 275.298 20.076 275.298 20.076C275.298 20.076 276.191 20.333 276.379 20.333C276.52 20.333 276.64 20.263 276.64 20.076Z" fill="#FFEC2D"/>
<path d="M281.596 16.766C281.77 16.835 281.88 16.754 281.934 16.624C282.006 16.451 282.109 15.528 282.109 15.528C282.109 15.528 281.529 16.254 281.457 16.427C281.403 16.557 281.422 16.694 281.596 16.766Z" fill="#FFEC2D"/>
<path d="M283.535 21.446C283.465 21.621 283.547 21.73 283.677 21.784C283.85 21.856 284.775 21.959 284.775 21.959C284.775 21.959 284.048 21.38 283.874 21.308C283.744 21.254 283.607 21.273 283.535 21.446Z" fill="#FFEC2D"/>
<path d="M278.848 23.385C278.674 23.315 278.564 23.397 278.51 23.527C278.439 23.7 278.335 24.623 278.335 24.623C278.335 24.623 278.915 23.897 278.987 23.724C279.041 23.594 279.022 23.457 278.848 23.385Z" fill="#FFEC2D"/>
<path d="M276.909 18.704C276.979 18.53 276.898 18.42 276.767 18.367C276.594 18.295 275.67 18.191 275.67 18.191C275.67 18.191 276.397 18.771 276.57 18.843C276.7 18.897 276.837 18.877 276.909 18.704Z" fill="#FFEC2D"/>
<path d="M282.763 17.543C282.897 17.674 283.03 17.641 283.129 17.541C283.262 17.409 283.712 16.596 283.712 16.596C283.712 16.596 282.897 17.045 282.765 17.177C282.665 17.276 282.63 17.411 282.763 17.543Z" fill="#FFEC2D"/>
<path d="M282.762 22.608C282.631 22.742 282.665 22.875 282.764 22.974C282.897 23.107 283.711 23.556 283.711 23.556C283.711 23.556 283.262 22.742 283.129 22.61C283.03 22.51 282.895 22.476 282.762 22.608Z" fill="#FFEC2D"/>
<path d="M277.69 22.608C277.555 22.477 277.423 22.511 277.323 22.61C277.19 22.742 276.741 23.556 276.741 23.556C276.741 23.556 277.555 23.107 277.688 22.974C277.787 22.875 277.822 22.741 277.69 22.608Z" fill="#FFEC2D"/>
<path d="M277.69 17.543C277.821 17.409 277.788 17.276 277.688 17.177C277.556 17.044 276.741 16.595 276.741 16.595C276.741 16.595 277.191 17.409 277.323 17.541C277.423 17.641 277.557 17.675 277.69 17.543Z" fill="#FFEC2D"/>
<path d="M283.537 18.706C283.611 18.878 283.746 18.898 283.876 18.844C284.049 18.772 284.776 18.193 284.776 18.193C284.776 18.193 283.852 18.296 283.679 18.368C283.549 18.422 283.465 18.532 283.537 18.706Z" fill="#FFEC2D"/>
<path d="M281.596 23.386C281.423 23.46 281.403 23.595 281.457 23.725C281.529 23.898 282.109 24.624 282.109 24.624C282.109 24.624 282.005 23.701 281.934 23.527C281.88 23.398 281.769 23.314 281.596 23.386Z" fill="#FFEC2D"/>
<path d="M276.912 21.447C276.838 21.275 276.703 21.254 276.572 21.308C276.399 21.38 275.672 21.96 275.672 21.96C275.672 21.96 276.597 21.856 276.77 21.784C276.9 21.731 276.984 21.62 276.912 21.447Z" fill="#FFEC2D"/>
<path d="M278.847 16.767C279.02 16.693 279.04 16.558 278.986 16.428C278.914 16.255 278.334 15.529 278.334 15.529C278.334 15.529 278.438 16.452 278.509 16.625C278.563 16.755 278.674 16.839 278.847 16.767Z" fill="#FFEC2D"/>
<path d="M280.921 16.562C281.106 16.597 281.198 16.495 281.225 16.358C281.262 16.174 281.183 15.248 281.183 15.248C281.183 15.248 280.755 16.073 280.719 16.257C280.691 16.395 280.737 16.526 280.921 16.562Z" fill="#FFEC2D"/>
<path d="M283.74 20.775C283.706 20.96 283.807 21.051 283.945 21.079C284.129 21.115 285.056 21.037 285.056 21.037C285.056 21.037 284.23 20.61 284.046 20.573C283.908 20.546 283.777 20.591 283.74 20.775Z" fill="#FFEC2D"/>
<path d="M279.522 23.589C279.338 23.554 279.246 23.656 279.219 23.794C279.182 23.977 279.261 24.903 279.261 24.903C279.261 24.903 279.688 24.078 279.725 23.894C279.752 23.756 279.706 23.625 279.522 23.589Z" fill="#FFEC2D"/>
<path d="M276.703 19.377C276.738 19.192 276.636 19.101 276.498 19.073C276.314 19.037 275.387 19.115 275.387 19.115C275.387 19.115 276.214 19.542 276.398 19.579C276.536 19.606 276.667 19.56 276.703 19.377Z" fill="#FFEC2D"/>
<path d="M282.214 17.097C282.371 17.199 282.495 17.14 282.573 17.024C282.677 16.868 282.959 15.982 282.959 15.982C282.959 15.982 282.248 16.581 282.144 16.737C282.066 16.854 282.058 16.993 282.214 17.097Z" fill="#FFEC2D"/>
<path d="M283.204 22.065C283.102 22.222 283.16 22.346 283.277 22.424C283.433 22.528 284.32 22.81 284.32 22.81C284.32 22.81 283.72 22.1 283.564 21.995C283.447 21.917 283.308 21.909 283.204 22.065Z" fill="#FFEC2D"/>
<path d="M278.229 23.052C278.071 22.95 277.948 23.008 277.87 23.125C277.765 23.281 277.483 24.166 277.483 24.166C277.483 24.166 278.194 23.567 278.299 23.412C278.377 23.295 278.385 23.156 278.229 23.052Z" fill="#FFEC2D"/>
<path d="M277.239 18.085C277.341 17.927 277.282 17.804 277.165 17.726C277.009 17.622 276.123 17.34 276.123 17.34C276.123 17.34 276.723 18.05 276.879 18.154C276.996 18.232 277.134 18.24 277.239 18.085Z" fill="#FFEC2D"/>
<path d="M283.199 18.085C283.305 18.239 283.442 18.232 283.559 18.154C283.715 18.05 284.315 17.34 284.315 17.34C284.315 17.34 283.428 17.622 283.272 17.726C283.155 17.804 283.095 17.929 283.199 18.085Z" fill="#FFEC2D"/>
<path d="M282.207 23.053C282.053 23.159 282.059 23.296 282.137 23.413C282.242 23.568 282.953 24.167 282.953 24.167C282.953 24.167 282.671 23.282 282.567 23.126C282.488 23.009 282.363 22.949 282.207 23.053Z" fill="#FFEC2D"/>
<path d="M277.232 22.064C277.125 21.91 276.989 21.916 276.872 21.994C276.716 22.099 276.116 22.809 276.116 22.809C276.116 22.809 277.002 22.527 277.158 22.423C277.275 22.345 277.336 22.22 277.232 22.064Z" fill="#FFEC2D"/>
<path d="M278.223 17.097C278.378 16.99 278.371 16.854 278.293 16.737C278.189 16.581 277.478 15.982 277.478 15.982C277.478 15.982 277.76 16.868 277.864 17.023C277.942 17.14 278.067 17.201 278.223 17.097Z" fill="#FFEC2D"/>
<path d="M283.744 19.377C283.783 19.56 283.911 19.606 284.049 19.579C284.233 19.542 285.06 19.115 285.06 19.115C285.06 19.115 284.133 19.037 283.949 19.073C283.811 19.101 283.707 19.193 283.744 19.377Z" fill="#FFEC2D"/>
<path d="M280.922 23.589C280.739 23.628 280.692 23.756 280.72 23.894C280.757 24.078 281.184 24.903 281.184 24.903C281.184 24.903 281.263 23.9769 281.226 23.7929C281.199 23.6559 281.106 23.552 280.922 23.589Z" fill="#FFEC2D"/>
<path d="M276.705 20.775C276.666 20.591 276.537 20.545 276.399 20.573C276.215 20.609 275.389 21.036 275.389 21.036C275.389 21.036 276.316 21.115 276.5 21.078C276.638 21.051 276.742 20.959 276.705 20.775Z" fill="#FFEC2D"/>
<path d="M279.523 16.563C279.706 16.524 279.753 16.395 279.725 16.257C279.688 16.074 279.261 15.249 279.261 15.249C279.261 15.249 279.182 16.174 279.219 16.358C279.246 16.496 279.339 16.599 279.523 16.563Z" fill="#FFEC2D"/>
<path d="M279.661 26.904C279.577 26.908 279.495 26.919 279.414 26.945C279.304 26.96 279.198 26.998 279.089 27.016L279.045 27.023L278.971 27.03C278.976 27.051 278.979 27.071 278.979 27.091C278.979 27.112 278.977 27.133 278.971 27.15C278.967 27.166 278.952 27.186 278.94 27.199C278.925 27.216 278.908 27.231 278.889 27.24C278.87 27.25 278.849 27.254 278.828 27.255C278.806 27.256 278.785 27.255 278.764 27.247C278.743 27.24 278.724 27.227 278.706 27.211C278.684 27.217 278.662 27.221 278.64 27.223C278.618 27.225 278.598 27.225 278.578 27.223C278.556 27.217 278.533 27.21 278.512 27.201C278.491 27.192 278.471 27.182 278.451 27.169C278.372 27.216 278.283 27.261 278.234 27.343C278.207 27.38 278.201 27.423 278.195 27.468C278.191 27.522 278.205 27.58 278.229 27.631C278.237 27.646 278.244 27.577 278.271 27.567C278.315 27.531 278.371 27.504 278.427 27.489C278.475 27.465 278.469 27.491 278.449 27.528C278.444 27.548 278.418 27.622 278.454 27.585C278.613 27.514 278.788 27.5 278.96 27.487C279.208 27.461 279.458 27.456 279.707 27.453L280.411 27.468C280.523 27.471 280.635 27.496 280.746 27.477C280.772 27.47 280.814 27.468 280.829 27.453C280.779 27.424 280.721 27.423 280.665 27.416H280.218C280.094 27.403 279.964 27.402 279.846 27.355C279.815 27.343 279.786 27.313 279.756 27.345C279.712 27.361 279.664 27.371 279.617 27.375C279.535 27.381 279.453 27.364 279.377 27.333C279.432 27.257 279.498 27.191 279.558 27.121C279.509 27.113 279.462 27.103 279.414 27.091C279.499 27.033 279.578 26.966 279.661 26.904Z" fill="#FFEC2D"/>
<path d="M283.314 27.713C283.144 27.815 283.015 27.634 282.873 27.58C282.771 27.635 282.762 27.819 282.667 27.906C282.553 28.035 282.414 27.87 282.425 27.743C282.289 27.857 282.221 28.116 282.001 28.082C281.897 27.997 281.82 27.819 281.741 28.022C281.676 28.12 281.504 28.261 281.414 28.112C281.387 27.98 281.32 27.825 281.249 28.034C281.199 28.182 281.041 28.291 280.888 28.227C280.804 28.158 280.955 27.905 280.848 27.923C280.689 28.028 280.596 28.29 280.373 28.269C280.287 28.172 280.426 28.008 280.331 27.9C280.219 28.044 280.095 28.254 279.901 28.269C279.808 28.193 279.905 27.976 279.845 27.944C279.647 28.063 279.437 28.275 279.187 28.209C279.285 27.837 279.691 27.706 280.034 27.677C280.622 27.605 281.241 27.738 281.808 27.526C281.899 27.47 282.121 27.391 282.042 27.262C281.972 27.16 282.224 27.2 282.248 27.081C282.233 26.931 282.363 26.951 282.491 26.938C283.063 26.914 283.628 27.034 284.198 27.054C284.241 27.332 283.933 27.526 283.685 27.441C283.566 27.46 283.388 27.169 283.423 27.381C283.399 27.492 283.416 27.639 283.314 27.713ZM278.449 27.145C278.581 27.266 278.674 27.122 278.798 27.07C279.213 26.927 279.575 26.678 279.932 26.429C280.148 26.25 280.336 26.018 280.626 25.96C281.193 25.789 281.795 25.81 282.364 25.652C282.797 25.06 283.533 24.849 284.149 24.508C284.288 24.465 284.341 24.352 284.385 24.226C284.621 23.855 284.941 23.527 285.32 23.302C285.499 23.204 285.713 23.148 285.916 23.193C285.902 23.434 285.763 23.648 285.596 23.815C285.733 23.812 285.85 23.726 285.989 23.731C286.036 23.978 285.768 24.108 285.626 24.262C285.705 24.281 286.01 24.304 285.844 24.383C285.632 24.53 285.391 24.63 285.196 24.8C285.376 24.832 285.397 24.871 285.214 24.936C285.115 25.003 284.924 25.026 284.906 25.157C285.042 25.24 284.843 25.323 284.767 25.35C284.62 25.384 284.466 25.448 284.661 25.559C284.587 25.67 284.429 25.693 284.301 25.682C284.34 25.808 284.396 25.949 284.233 26.005C283.866 26.281 283.436 26.482 282.975 26.528C283.551 26.573 284.144 26.466 284.636 26.153C284.701 26.077 285.041 25.994 284.851 25.93C284.761 25.893 284.569 25.851 284.556 25.783C284.822 25.619 285.158 25.677 285.444 25.58C285.452 25.487 285.226 25.513 285.142 25.492C284.942 25.475 284.954 25.424 285.147 25.405C285.391 25.341 285.668 25.328 285.874 25.169C285.707 25.091 285.496 25.159 285.317 25.096C285.62 24.964 285.977 24.951 286.249 24.752C286.373 24.614 286.091 24.657 286.008 24.661C285.841 24.69 285.763 24.61 285.954 24.54C286.279 24.3 286.691 24.145 286.92 23.797C286.974 23.72 287.047 23.485 286.874 23.57C286.647 23.645 286.447 23.9 286.189 23.821C286.698 23.427 287.184 22.977 287.532 22.431C287.55 22.274 287.303 22.257 287.238 22.38C286.911 22.695 286.614 23.068 286.195 23.265C286.596 22.878 286.928 22.42 287.218 21.945C287.28 21.803 287.447 21.633 287.357 21.476C287.211 21.356 287.028 21.466 286.952 21.611C286.697 21.943 286.504 22.33 286.177 22.6C286.463 22.054 286.76 21.472 286.767 20.842C286.766 20.713 286.74 20.521 286.564 20.546C286.424 20.571 286.457 20.78 286.4 20.886C286.273 21.316 286.213 21.782 285.953 22.159C286.011 21.809 286.114 21.445 286.035 21.091C285.998 20.934 285.743 21.001 285.776 21.158C285.471 22.701 284.434 24.05 283.078 24.831C282.458 25.181 281.764 25.408 281.059 25.51C280.869 25.552 280.664 25.527 280.482 25.592C280.043 25.928 279.777 26.492 279.22 26.668C278.971 26.792 278.645 26.817 278.467 27.048C278.452 27.078 278.448 27.112 278.449 27.145Z" fill="#FFEC2D"/>
<path d="M280.116 25.579C280.034 25.728 279.986 25.899 279.88 26.032C279.563 25.744 279.102 25.753 278.699 25.734C278.367 25.716 278.005 25.686 277.748 25.449C277.477 25.227 277.256 24.94 276.953 24.76C276.677 24.685 276.399 24.592 276.177 24.403C275.703 24.016 275.431 23.443 274.968 23.045C274.879 22.958 274.775 22.891 274.676 22.817C274.582 22.84 274.625 23.043 274.509 22.94C274.447 22.895 274.29 22.891 274.276 22.953C274.418 23.14 274.56 23.352 274.579 23.591C274.483 23.601 274.311 23.571 274.263 23.607C274.391 23.799 274.556 23.969 274.743 24.105C274.653 24.119 274.476 24.111 274.442 24.147C274.627 24.298 274.826 24.453 275.069 24.491C275.119 24.557 274.997 24.683 275.1 24.739C275.159 24.764 275.356 24.804 275.221 24.872C275.128 24.935 275.162 25.081 275.281 25.078C275.357 25.116 275.526 25.125 275.539 25.192C275.472 25.26 275.264 25.34 275.441 25.404C275.606 25.495 275.795 25.555 275.983 25.561C275.889 25.641 275.772 25.686 275.675 25.761C276.11 26.015 276.592 26.183 277.069 26.344C277.259 26.408 277.451 26.467 277.647 26.504C277.076 26.471 276.523 26.302 276.002 26.071C275.733 25.952 275.461 25.838 275.184 25.736C275.306 25.673 275.446 25.658 275.572 25.603C275.311 25.551 275.025 25.534 274.796 25.391C274.831 25.328 274.964 25.325 275.038 25.293C275.177 25.26 275.263 25.22 275.067 25.208C274.87 25.154 274.644 25.178 274.47 25.06C274.481 24.988 274.663 25.013 274.737 24.982C274.831 24.966 274.934 24.953 275.009 24.89C274.704 24.764 274.305 24.854 274.067 24.585C274.012 24.482 274.238 24.565 274.302 24.548C274.466 24.548 274.641 24.6 274.797 24.534C274.353 24.339 273.877 24.157 273.538 23.796C273.501 23.739 273.388 23.58 273.479 23.561C273.743 23.596 273.934 23.883 274.216 23.838C274.253 23.788 274.052 23.705 274.001 23.633C273.59 23.281 273.191 22.898 272.903 22.437C272.883 22.283 273.126 22.26 273.19 22.379C273.504 22.681 273.788 23.034 274.18 23.24C274.319 23.308 274.1 23.161 274.071 23.108C273.709 22.688 273.364 22.245 273.112 21.75C273.066 21.661 272.991 21.5 273.127 21.453C273.262 21.385 273.397 21.477 273.465 21.593C273.731 21.928 273.927 22.327 274.258 22.606C273.976 22.059 273.675 21.483 273.667 20.853C273.674 20.731 273.682 20.546 273.848 20.551C273.987 20.53 273.965 20.708 274.01 20.793C274.148 21.256 274.207 21.756 274.482 22.165C274.422 21.822 274.332 21.468 274.392 21.119C274.405 21.005 274.534 20.97 274.619 21.039C274.687 21.206 274.701 21.412 274.763 21.59C275.117 22.797 275.91 23.858 276.943 24.571C277.795 25.154 278.805 25.502 279.836 25.562C279.93 25.571 280.023 25.573 280.116 25.579Z" fill="#FFEC2D"/>
<path d="M278.805 27.179C278.835 27.179 278.86 27.154 278.86 27.124C278.86 27.093 278.835 27.068 278.805 27.068C278.774 27.068 278.749 27.093 278.749 27.124C278.749 27.154 278.774 27.179 278.805 27.179Z" fill="#FFEC2D"/>
<path d="M278.801 27.138C278.813 27.138 278.823 27.128 278.823 27.116C278.823 27.104 278.813 27.094 278.801 27.094C278.789 27.094 278.779 27.104 278.779 27.116C278.779 27.128 278.789 27.138 278.801 27.138Z" fill="#FFEC2D"/>
<path d="M278.846 27.116C278.846 27.141 278.826 27.161 278.801 27.161C278.776 27.161 278.756 27.141 278.756 27.116C278.756 27.091 278.776 27.071 278.801 27.071C278.826 27.071 278.846 27.091 278.846 27.116Z" fill="#FFEC2D"/>
<path d="M361.77 8.51196V17.457H361.61C361.29 16.978 360.874 16.563 360.394 16.179C359.53 15.54 358.315 14.901 356.651 14.901C352.94 14.901 349.613 18.288 349.613 23.048C349.613 27.84 352.94 31.195 356.651 31.195C358.315 31.195 359.53 30.556 360.394 29.917C360.874 29.533 361.29 29.118 361.61 28.639H361.77V30.875H366.088V8.51196H361.77ZM400.162 14.901C396.675 14.901 393.444 18.096 393.444 22.728C393.444 27.361 396.675 30.556 400.162 30.556C401.826 30.556 403.041 29.917 403.809 29.278C404.257 28.894 404.641 28.479 404.961 28H405.121V29.278C405.121 31.833 403.361 33.591 400.962 33.591C399.682 33.591 398.659 33.111 397.923 32.632C397.507 32.345 397.123 32.025 396.803 31.674L394.084 34.389C394.532 34.996 395.108 35.507 395.78 35.987C396.931 36.785 398.627 37.584 400.962 37.584C405.921 37.584 409.44 34.07 409.44 29.278V15.221H405.121V17.457H404.961C404.641 16.978 404.257 16.563 403.809 16.179C403.041 15.54 401.826 14.901 400.162 14.901ZM274.086 10.238C270.891 10.238 268.3 12.825 268.3 16.017V27.573C268.3 30.764 270.891 33.351 274.086 33.351H286.485C289.681 33.351 292.271 30.764 292.271 27.573V16.017C292.271 12.825 289.681 10.238 286.485 10.238H274.086ZM43.0545 14.901C40.9751 14.901 39.4076 15.668 38.2879 16.435C37.6481 16.882 37.1043 17.393 36.6564 17.936L39.2156 20.492C39.4716 20.173 39.7915 19.885 40.1434 19.63C40.7512 19.15 41.6149 18.735 42.7346 18.735C44.3661 18.735 45.2939 19.693 45.4538 20.812L40.4953 21.706C37.5841 22.217 35.8566 24.166 35.8566 26.722C35.8566 29.278 37.7761 31.195 40.6552 31.195C42.1588 31.195 43.3424 30.683 44.1102 30.076C44.5581 29.757 44.942 29.374 45.2939 28.958H45.4538V30.875H49.7726V21.131C49.7726 17.649 47.0534 14.901 43.0545 14.901ZM78.2507 14.901C73.7717 14.901 70.0927 18.575 70.0927 23.048C70.0927 27.521 73.7717 31.195 78.4107 31.195C80.5857 31.195 82.2497 30.556 83.4007 29.917C84.0727 29.533 84.6487 29.118 85.1287 28.639L82.8887 25.604C82.6017 25.955 82.2497 26.243 81.8337 26.498C81.0977 26.977 80.1057 27.361 78.7307 27.361C76.3307 27.361 75.0517 26.083 74.5717 24.645H85.9287L85.9927 24.102C86.0247 23.751 86.0887 23.335 86.0887 22.728C86.0887 18.416 82.5697 14.901 78.2507 14.901ZM123.759 14.901C121.679 14.901 120.112 15.668 118.992 16.435C118.352 16.882 117.808 17.393 117.36 17.936L119.92 20.492C120.176 20.173 120.495 19.885 120.847 19.63C121.455 19.15 122.319 18.735 123.439 18.735C125.07 18.735 125.998 19.693 126.158 20.812L121.199 21.706L120.93 21.758C118.182 22.34 116.561 24.246 116.561 26.722C116.561 29.278 118.48 31.195 121.359 31.195C122.863 31.195 124.046 30.683 124.814 30.076C125.262 29.757 125.646 29.374 125.998 28.958H126.158V30.875H130.477V21.131C130.477 17.649 127.757 14.901 123.759 14.901ZM157.03 14.901C154.951 14.901 153.383 15.668 152.263 16.435C151.624 16.882 151.08 17.393 150.632 17.936L153.191 20.492C153.447 20.173 153.767 19.885 154.119 19.63C154.727 19.15 155.59 18.735 156.71 18.735C158.342 18.735 159.269 19.693 159.429 20.812L154.471 21.706C151.56 22.217 149.832 24.166 149.832 26.722C149.832 29.278 151.752 31.195 154.631 31.195C156.134 31.195 157.318 30.683 158.086 30.076C158.534 29.757 158.917 29.374 159.269 28.958H159.429V30.875H163.748V21.131C163.748 17.649 161.029 14.901 157.03 14.901ZM209.801 14.901C205.802 14.901 203.563 17.138 203.563 19.693C203.563 24.805 211.56 24.486 211.56 26.243L211.555 26.36C211.497 26.94 210.99 27.361 209.641 27.361C208.361 27.361 207.338 26.977 206.602 26.498C206.186 26.243 205.802 25.955 205.482 25.604L202.923 28.319C203.403 28.862 203.979 29.342 204.65 29.757C205.802 30.492 207.466 31.195 209.641 31.195C213.96 31.195 216.199 28.926 216.199 26.243C216.199 21.131 208.201 21.451 208.201 19.693C208.201 19.214 208.681 18.735 209.801 18.735C210.921 18.735 211.784 19.023 212.392 19.374C212.744 19.566 213.064 19.789 213.32 20.013L215.879 17.297C215.463 16.882 214.951 16.467 214.344 16.115C213.32 15.508 211.816 14.901 209.801 14.901ZM237.975 14.901C235.896 14.901 234.328 15.668 233.209 16.435C232.569 16.882 232.025 17.393 231.577 17.936L234.136 20.492C234.392 20.173 234.712 19.885 235.064 19.63C235.672 19.15 236.536 18.735 237.655 18.735C239.287 18.735 240.215 19.693 240.374 20.812L235.416 21.706C232.505 22.217 230.777 24.166 230.777 26.722C230.777 29.278 232.697 31.195 235.576 31.195C237.079 31.195 238.263 30.683 239.031 30.076C239.479 29.757 239.863 29.374 240.215 28.958H240.374V30.875H244.693V21.131C244.693 17.649 241.974 14.901 237.975 14.901ZM322.25 14.901C317.771 14.901 314.092 18.575 314.092 23.048C314.092 27.521 317.771 31.195 322.41 31.195C324.585 31.195 326.249 30.556 327.4 29.917C328.072 29.533 328.648 29.118 329.128 28.639L326.889 25.604C326.601 25.955 326.249 26.243 325.833 26.498C325.097 26.977 324.105 27.361 322.73 27.361C320.331 27.361 319.051 26.083 318.571 24.645H329.928L329.992 24.102C330.024 23.751 330.088 23.335 330.088 22.728C330.088 18.416 326.569 14.901 322.25 14.901ZM339.695 14.901C337.615 14.901 336.048 15.668 334.928 16.435C334.288 16.882 333.745 17.393 333.297 17.936L335.856 20.492C336.112 20.173 336.432 19.885 336.784 19.63C337.392 19.15 338.255 18.735 339.375 18.735C341.006 18.735 341.934 19.693 342.094 20.812L337.136 21.706C334.224 22.217 332.497 24.166 332.497 26.722C332.497 29.278 334.416 31.195 337.296 31.195C338.799 31.195 339.983 30.683 340.751 30.076C341.198 29.757 341.582 29.374 341.934 28.958H342.094V30.875H346.413V21.131C346.413 17.649 343.694 14.901 339.695 14.901ZM383.526 14.901C381.446 14.901 379.879 15.668 378.759 16.435C378.119 16.882 377.576 17.393 377.128 17.936L379.687 20.492C379.943 20.173 380.263 19.885 380.615 19.63C381.223 19.15 382.086 18.735 383.206 18.735C384.837 18.735 385.765 19.693 385.925 20.812L380.967 21.706L380.697 21.758C377.949 22.34 376.328 24.246 376.328 26.722C376.328 29.278 378.247 31.195 381.127 31.195C382.63 31.195 383.814 30.683 384.582 30.076C385.029 29.757 385.413 29.374 385.765 28.958H385.925V30.875H390.244V21.131C390.244 17.649 387.525 14.901 383.526 14.901ZM419.984 14.901C417.905 14.901 416.337 15.668 415.217 16.435C414.578 16.882 414.034 17.393 413.586 17.936L416.145 20.492C416.401 20.173 416.721 19.885 417.073 19.63C417.681 19.15 418.544 18.735 419.664 18.735C421.296 18.735 422.223 19.693 422.383 20.812L417.425 21.706C414.514 22.217 412.786 24.166 412.786 26.722C412.786 29.278 414.706 31.195 417.585 31.195C419.088 31.195 420.272 30.683 421.04 30.076C421.488 29.757 421.871 29.374 422.223 28.958H422.383V30.875H426.702V21.131C426.702 17.649 423.983 14.901 419.984 14.901ZM461.393 26.083C459.954 26.083 458.834 27.201 458.834 28.639C458.834 30.076 459.954 31.195 461.393 31.195C462.788 31.195 463.882 30.145 463.949 28.772L463.952 28.639C463.952 27.201 462.833 26.083 461.393 26.083ZM312.329 14.901C310.794 14.901 309.642 15.54 308.874 16.179C308.426 16.563 308.042 16.978 307.69 17.457H307.531V15.221H303.212V30.875H307.531V23.527C307.531 20.971 309.13 19.374 311.209 19.374C311.689 19.374 312.041 19.438 312.297 19.47L312.649 19.534V14.901H312.329ZM448.446 14.901C446.91 14.901 445.758 15.54 444.991 16.179C444.543 16.563 444.159 16.978 443.807 17.457H443.647V15.221H439.328V30.875H443.647V22.569C443.647 20.492 445.087 19.054 447.006 19.054C448.798 19.054 449.885 20.173 449.885 22.089V30.875H454.204V21.451C454.204 17.457 451.645 14.901 448.446 14.901ZM430.862 15.221V30.875H435.181V15.221H430.862ZM257.971 14.901C256.435 14.901 255.283 15.54 254.516 16.179C254.068 16.563 253.684 16.978 253.332 17.457H253.172V15.221H248.853V30.875H253.172V22.569C253.172 20.492 254.612 19.054 256.531 19.054C258.323 19.054 259.41 20.173 259.41 22.089V30.875H263.729V21.451C263.729 17.457 261.17 14.901 257.971 14.901ZM168.068 30.875H172.387V27.201L174.466 24.805L178.465 30.875H183.424L177.345 21.77L183.104 15.221H177.985L172.387 21.61V8.51196H168.068V30.875ZM54.0926 30.875H58.4113V27.201L60.4907 24.805L64.4895 30.875H69.4477L63.3698 21.77L69.1277 15.221H64.0097L58.4113 21.61V8.51196H54.0926V30.875ZM133.997 15.221V19.214H141.355L133.677 26.882V30.875H147.433V26.882H139.435L147.113 19.214V15.221H133.997ZM185.5 8.51196V30.875H189.819V22.569C189.819 20.492 191.259 19.054 193.178 19.054C194.97 19.054 196.057 20.173 196.057 22.089V30.875H200.376V21.451C200.376 17.457 197.817 14.901 194.618 14.901C193.082 14.901 191.931 15.54 191.163 16.179C190.715 16.563 190.331 16.978 189.979 17.457H189.819V8.51196H185.5ZM45.4538 24.166C45.4538 26.243 44.0142 27.68 42.0948 27.68C40.8152 27.68 40.1754 27.073 40.1754 26.083C40.1754 25.284 40.8152 24.709 41.9349 24.486L45.4538 23.847V24.166ZM126.158 24.166C126.158 26.243 124.718 27.68 122.799 27.68C121.519 27.68 120.879 27.073 120.879 26.083C120.879 25.284 121.519 24.709 122.639 24.486L126.158 23.847V24.166ZM159.429 24.166C159.429 26.243 157.99 27.68 156.07 27.68C154.791 27.68 154.151 27.073 154.151 26.083C154.151 25.284 154.791 24.709 155.91 24.486L159.429 23.847V24.166ZM240.374 24.166C240.374 26.243 238.935 27.68 237.015 27.68C235.736 27.68 235.096 27.073 235.096 26.083C235.096 25.284 235.736 24.709 236.856 24.486L240.374 23.847V24.166ZM342.094 24.166C342.094 26.243 340.655 27.68 338.735 27.68C337.456 27.68 336.816 27.073 336.816 26.083C336.816 25.284 337.456 24.709 338.575 24.486L342.094 23.847V24.166ZM385.925 24.166C385.925 26.243 384.486 27.68 382.566 27.68C381.286 27.68 380.647 27.073 380.647 26.083C380.647 25.284 381.287 24.709 382.406 24.486L385.925 23.847V24.166ZM422.383 24.166C422.383 26.243 420.944 27.68 419.024 27.68C417.745 27.68 417.105 27.073 417.105 26.083C417.105 25.284 417.745 24.709 418.864 24.486L422.383 23.847V24.166ZM357.931 18.895C360.17 18.895 361.93 20.652 361.93 23.048C361.93 25.444 360.17 27.201 357.931 27.201C355.691 27.201 353.932 25.444 353.932 23.048C353.932 20.652 355.691 18.895 357.931 18.895ZM401.442 18.895C403.521 18.895 405.121 20.46 405.121 22.728C405.121 24.997 403.521 26.562 401.442 26.562C399.362 26.562 397.763 24.997 397.763 22.728C397.763 20.46 399.362 18.895 401.442 18.895ZM458.834 8.51196L459.634 24.006H463.153L463.952 8.51196H458.834ZM78.0907 18.735C79.8817 18.735 81.1297 20.013 81.6097 21.451H74.5717C75.0517 20.013 76.2987 18.735 78.0907 18.735ZM322.09 18.735C323.882 18.735 325.129 20.013 325.609 21.451H318.571C319.051 20.013 320.299 18.735 322.09 18.735ZM433.037 8.35199C431.662 8.35199 430.542 9.46999 430.542 10.748C430.542 12.026 431.63 13.144 433.005 13.144C434.381 13.144 435.501 12.026 435.501 10.748C435.501 9.46999 434.413 8.35199 433.037 8.35199ZM12.6709 30.875V22.249C12.6709 20.332 13.9185 19.054 15.71 19.054C17.3415 19.054 18.2693 19.981 18.2693 21.77V30.875H22.588V22.249C22.588 20.332 23.8356 19.054 25.6271 19.054C27.2586 19.054 28.1864 19.981 28.1864 21.77V30.875H32.5051V21.131C32.5051 17.297 30.1378 14.901 27.0667 14.901C25.3712 14.901 24.1235 15.604 23.2598 16.275C22.7479 16.658 22.3001 17.106 21.9482 17.617H21.7882C21.5003 17.106 21.1484 16.658 20.7325 16.275C19.9967 15.604 18.8131 14.901 17.1496 14.901C15.614 14.901 14.5903 15.54 13.8545 16.179C13.4387 16.563 13.1188 16.978 12.8308 17.457H12.6709V15.221H8.3521V30.875H12.6709ZM96.0727 30.875H100.871V24.326L103.751 21.291L110.309 30.875H115.907L106.95 17.777L115.267 8.51196H109.509L100.871 18.096V8.51196H96.0727V30.875ZM374.44 9.27698C376.464 7.96598 379.519 6.54901 383.526 6.54901L383.91 6.55402C386.916 6.62302 389.726 7.51202 392.068 9.03302C394.349 7.47502 397.095 6.54901 400.162 6.54901L400.529 6.55402C401.666 6.58202 402.726 6.74001 403.706 6.98901C404.166 6.91101 404.639 6.86902 405.121 6.86902H409.44C410.898 6.86902 412.269 7.24296 413.462 7.89996C415.229 7.13396 417.41 6.54901 419.984 6.54901L420.368 6.55402C421.243 6.57402 422.102 6.66497 422.938 6.81897C424.555 2.75597 428.594 0 433.038 0L433.313 0.00396729C437.748 0.115967 441.578 2.91802 443.124 6.86902H443.647C444.116 6.86902 444.576 6.90897 445.024 6.98297C446.063 6.71297 447.205 6.54901 448.446 6.54901L448.842 6.55499C449.471 6.57099 450.083 6.62702 450.677 6.71802C451.001 5.24502 451.721 3.87401 452.778 2.76001C454.355 1.10001 456.544 0.159973 458.834 0.159973H463.952C466.242 0.159973 468.432 1.10001 470.009 2.76001C471.585 4.42101 472.411 6.65602 472.293 8.94202L471.494 24.437C471.493 24.451 471.492 24.466 471.491 24.48C472.015 25.759 472.305 27.163 472.305 28.639C472.305 34.7 467.435 39.546 461.393 39.546C459.883 39.546 458.447 39.244 457.141 38.695C456.227 39.038 455.238 39.227 454.204 39.227H449.885C448.782 39.227 447.73 39.013 446.766 38.624C445.802 39.012 444.75 39.227 443.647 39.227H439.328C438.612 39.227 437.917 39.136 437.254 38.967C436.591 39.136 435.897 39.227 435.181 39.227H430.862C430.144 39.227 429.447 39.136 428.782 38.966C428.117 39.136 427.42 39.227 426.702 39.227H422.383C421.938 39.227 421.501 39.191 421.075 39.124C419.976 39.396 418.808 39.546 417.585 39.546C416.585 39.546 415.585 39.443 414.604 39.233C411.574 43.357 406.644 45.936 400.962 45.936C396.571 45.936 393.247 44.394 391.02 42.85C390.99 42.829 390.96 42.807 390.93 42.786C389.833 42.004 388.511 40.903 387.364 39.348C387.334 39.308 387.305 39.267 387.276 39.227H385.925C385.48 39.227 385.043 39.191 384.617 39.124C383.518 39.396 382.35 39.546 381.127 39.546C378 39.546 374.859 38.543 372.359 36.39C370.828 38.129 368.587 39.227 366.088 39.227H361.77C361.255 39.227 360.751 39.18 360.262 39.091C359.177 39.372 357.973 39.546 356.651 39.546C354.388 39.546 352.301 39.057 350.441 38.192C349.247 38.851 347.874 39.227 346.413 39.227H342.094C341.649 39.227 341.212 39.191 340.786 39.124C339.687 39.396 338.518 39.546 337.296 39.546C334.92 39.546 332.536 38.967 330.432 37.745C328.406 38.711 325.711 39.546 322.41 39.546C319.072 39.546 315.949 38.571 313.328 36.886C311.826 38.335 309.783 39.227 307.531 39.227H303.212C300.879 39.227 298.77 38.27 297.254 36.727C294.659 39.773 290.795 41.703 286.485 41.703H274.086C270.968 41.703 268.084 40.693 265.745 38.981C265.099 39.141 264.424 39.227 263.729 39.227H259.41C258.307 39.227 257.255 39.013 256.291 38.624C255.327 39.013 254.275 39.227 253.172 39.227H248.853C248.135 39.227 247.438 39.136 246.773 38.966C246.108 39.136 245.411 39.227 244.693 39.227H240.374C239.929 39.227 239.492 39.192 239.066 39.124C237.967 39.396 236.799 39.546 235.576 39.546C233.977 39.546 232.375 39.283 230.856 38.739C230.836 38.746 230.817 38.752 230.798 38.758C230.634 38.809 230.488 38.851 230.405 38.875C230.296 38.906 230.284 38.909 230.252 38.918C230.262 38.915 230.288 38.908 230.324 38.896C230.121 38.963 229.916 39.022 229.709 39.074C228.451 39.388 227.027 39.546 225.639 39.546C223.113 39.546 220.438 38.923 218.084 37.404C215.495 38.927 212.534 39.546 209.641 39.546C207.392 39.546 205.408 39.138 203.71 38.534C202.689 38.979 201.562 39.227 200.376 39.227H196.058C194.955 39.227 193.902 39.013 192.938 38.624C191.974 39.012 190.922 39.227 189.819 39.227H185.5C185.147 39.227 184.798 39.204 184.456 39.162C184.116 39.204 183.772 39.227 183.424 39.227H178.465C177.411 39.227 176.383 39.028 175.428 38.655C174.486 39.024 173.46 39.227 172.387 39.227H168.068C167.321 39.227 166.597 39.128 165.908 38.944C165.219 39.128 164.495 39.227 163.748 39.227H159.429C158.984 39.227 158.547 39.192 158.121 39.124C157.022 39.396 155.854 39.546 154.631 39.546C153.091 39.546 151.547 39.303 150.079 38.799C149.247 39.076 148.358 39.227 147.433 39.227H133.677C133.129 39.227 132.595 39.174 132.077 39.073C131.559 39.174 131.024 39.227 130.477 39.227H126.158C125.713 39.227 125.276 39.192 124.849 39.124C123.751 39.396 122.582 39.546 121.359 39.546C120.101 39.546 118.841 39.384 117.621 39.049C117.064 39.166 116.49 39.227 115.907 39.227H110.309C108.601 39.227 106.961 38.704 105.591 37.766C104.248 38.687 102.623 39.227 100.871 39.227H96.0727C93.3617 39.227 90.9537 37.936 89.4277 35.935C88.7907 36.414 88.1527 36.821 87.5407 37.171C87.5117 37.187 87.4817 37.203 87.4527 37.22C85.3497 38.387 82.2997 39.546 78.4107 39.546C76.4167 39.546 74.4987 39.198 72.7187 38.559C71.7017 38.992 70.5917 39.227 69.4477 39.227H64.4896C63.435 39.227 62.4069 39.028 61.4524 38.655C60.51 39.024 59.4845 39.227 58.4115 39.227H54.0927C53.3456 39.227 52.6215 39.128 51.9325 38.944C51.2435 39.128 50.5196 39.227 49.7727 39.227H45.4539C45.0087 39.227 44.5717 39.192 44.1453 39.124C43.0469 39.396 41.8781 39.546 40.6553 39.546C38.9472 39.546 37.2354 39.246 35.6257 38.623C34.6615 39.012 33.6084 39.227 32.505 39.227H28.1863C27.2043 39.227 26.2622 39.057 25.3871 38.746C24.512 39.057 23.5699 39.227 22.588 39.227H18.2692C17.2873 39.227 16.3452 39.057 15.4701 38.746C14.5949 39.057 13.6528 39.227 12.6709 39.227H8.3521C3.7395 39.227 0 35.488 0 30.875V15.221C0 10.608 3.7395 6.86902 8.3521 6.86902H12.6709C13.0768 6.86902 13.4757 6.89902 13.8661 6.95502C14.8551 6.70302 15.9489 6.54901 17.1496 6.54901L17.541 6.55499C19.2421 6.60099 20.7563 6.94602 22.0762 7.45502C23.4875 6.92202 25.1542 6.54901 27.0667 6.54901L27.4231 6.55402C30.0225 6.61902 32.5303 7.40099 34.6727 8.84399C36.6748 7.67199 39.4873 6.54901 43.0544 6.54901L43.4387 6.55402C44.2819 6.57302 45.1094 6.65898 45.9158 6.80298C46.7045 3.00998 50.0657 0.159973 54.0927 0.159973H58.4115C62.4617 0.159973 65.838 3.04302 66.6012 6.86902H69.1287C70.3147 6.86902 71.4617 7.12198 72.5057 7.58398C74.2967 6.91598 76.2327 6.54901 78.2507 6.54901L78.6677 6.55499C82.0397 6.63999 85.1607 7.761 87.7207 9.612V8.51196C87.7207 3.89896 91.4597 0.159973 96.0727 0.159973H100.871C102.452 0.159973 103.931 0.599976 105.191 1.36298C106.481 0.583976 107.971 0.159973 109.509 0.159973H115.267C118.563 0.159973 121.552 2.09901 122.895 5.10901C123.105 5.58001 123.268 6.06402 123.387 6.55402C123.51 6.55102 123.633 6.54901 123.758 6.54901L124.143 6.55402C126.249 6.60302 128.259 7.05502 130.08 7.84302C131.248 7.22202 132.581 6.86902 133.997 6.86902H147.113C148.459 6.86902 149.73 7.18799 150.856 7.75299C152.559 7.06099 154.623 6.54901 157.03 6.54901L157.414 6.55402C158.257 6.57302 159.085 6.65898 159.891 6.80298C160.68 3.00998 164.041 0.159973 168.068 0.159973H172.387C175.046 0.159973 177.414 1.40299 178.944 3.33899C180.473 1.40299 182.841 0.159973 185.5 0.159973H189.819C193.897 0.159973 197.292 3.083 198.024 6.948C199.427 7.288 200.719 7.83702 201.883 8.55402C204.284 7.22902 207.075 6.54901 209.801 6.54901C211.106 6.54901 212.312 6.68697 213.417 6.91797C214.805 4.23197 217.608 2.396 220.84 2.396H224.679V10.748H220.84V13.623C220.84 14.901 220.264 15.54 219.081 15.54H217.641V19.534H220.36V25.444C220.36 29.15 222.44 31.195 225.639 31.195C226.439 31.195 227.174 31.099 227.686 30.971C227.974 30.875 228.262 30.811 228.518 30.715V26.722C228.358 26.786 228.198 26.85 228.006 26.882C227.654 26.977 227.238 27.041 226.758 27.041C225.479 27.041 224.679 26.243 224.679 24.805V19.534H228.198V15.54H224.679V2.396C228.15 2.396 231.126 4.51402 232.387 7.52802C233.971 6.95302 235.838 6.54901 237.975 6.54901L238.359 6.55402C240.604 6.60602 242.739 7.11501 244.651 8.00201C245.886 7.28201 247.321 6.86902 248.853 6.86902H253.172C253.641 6.86902 254.101 6.90897 254.549 6.98297C255.588 6.71297 256.73 6.54901 257.971 6.54901L258.367 6.55499C259.986 6.59599 261.495 6.89601 262.876 7.40601C265.463 4.04801 269.525 1.88599 274.086 1.88599H286.485C291.481 1.88599 295.879 4.47901 298.394 8.39801C299.755 7.43501 301.418 6.86902 303.212 6.86902H307.531C308 6.86902 308.459 6.90897 308.907 6.98297C309.946 6.71297 311.088 6.54901 312.329 6.54901H312.649C314.082 6.54901 315.43 6.91002 316.608 7.54602C318.37 6.90202 320.271 6.54901 322.25 6.54901L322.667 6.55499C325.7 6.63199 328.528 7.54601 330.93 9.07501C332.949 7.82501 335.894 6.54901 339.695 6.54901L340.079 6.55402C343.132 6.62502 345.984 7.54 348.348 9.104C349.892 8.043 351.65 7.26801 353.58 6.86401C354.345 3.04101 357.721 0.159973 361.77 0.159973H366.088C370.701 0.159973 374.44 3.89896 374.44 8.51196V9.27698Z" fill="white"/>
<defs>
<linearGradient id="paint0_linear_41_1555" x1="84.7728" y1="6.88996" x2="407.628" y2="106.886" gradientUnits="userSpaceOnUse">
<stop stop-color="#00ABC2"/>
<stop offset="1" stop-color="#FFEC2D"/>
</linearGradient>
<linearGradient id="paint1_linear_41_1555" x1="84.7727" y1="6.88999" x2="407.628" y2="106.886" gradientUnits="userSpaceOnUse">
<stop stop-color="#00ABC2"/>
<stop offset="1" stop-color="#FFEC2D"/>
</linearGradient>
<linearGradient id="paint2_linear_41_1555" x1="84.7728" y1="6.89002" x2="407.628" y2="106.886" gradientUnits="userSpaceOnUse">
<stop stop-color="#00ABC2"/>
<stop offset="1" stop-color="#FFEC2D"/>
</linearGradient>
<linearGradient id="paint3_linear_41_1555" x1="84.7727" y1="6.89" x2="407.628" y2="106.886" gradientUnits="userSpaceOnUse">
<stop stop-color="#00ABC2"/>
<stop offset="1" stop-color="#FFEC2D"/>
</linearGradient>
<linearGradient id="paint4_linear_41_1555" x1="84.7727" y1="6.88996" x2="407.628" y2="106.886" gradientUnits="userSpaceOnUse">
<stop stop-color="#00ABC2"/>
<stop offset="1" stop-color="#FFEC2D"/>
</linearGradient>
<linearGradient id="paint5_linear_41_1555" x1="84.7728" y1="6.88996" x2="407.628" y2="106.886" gradientUnits="userSpaceOnUse">
<stop stop-color="#00ABC2"/>
<stop offset="1" stop-color="#FFEC2D"/>
</linearGradient>
<linearGradient id="paint6_linear_41_1555" x1="84.7729" y1="6.89" x2="407.628" y2="106.886" gradientUnits="userSpaceOnUse">
<stop stop-color="#00ABC2"/>
<stop offset="1" stop-color="#FFEC2D"/>
</linearGradient>
<linearGradient id="paint7_linear_41_1555" x1="84.7728" y1="6.88998" x2="407.628" y2="106.886" gradientUnits="userSpaceOnUse">
<stop stop-color="#00ABC2"/>
<stop offset="1" stop-color="#FFEC2D"/>
</linearGradient>
<linearGradient id="paint8_linear_41_1555" x1="84.7726" y1="6.89" x2="407.628" y2="106.886" gradientUnits="userSpaceOnUse">
<stop stop-color="#00ABC2"/>
<stop offset="1" stop-color="#FFEC2D"/>
</linearGradient>
<linearGradient id="paint9_linear_41_1555" x1="84.773" y1="6.89" x2="407.628" y2="106.886" gradientUnits="userSpaceOnUse">
<stop stop-color="#00ABC2"/>
<stop offset="1" stop-color="#FFEC2D"/>
</linearGradient>
</defs>
</svg>
