<svg width="163" height="45" viewBox="0 0 163 45" fill="none" xmlns="http://www.w3.org/2000/svg">
<path d="M10.203 40.224C11.082 40.415 11.923 40.626 12.725 40.855C13.528 41.046 14.311 41.294 15.076 41.6V43.262H0V41.6C0.841 41.218 1.64299 40.931 2.40799 40.74C3.17199 40.549 3.93599 40.377 4.70099 40.224V6.23303C3.70699 6.04203 2.828 5.83203 2.064 5.60303C1.299 5.33503 0.612 5.06799 0 4.79999V3.138H5.04398C6.57298 3.138 8.23498 3.06102 10.031 2.90802C11.866 2.75602 13.643 2.67902 15.362 2.67902C17.235 2.67902 18.973 2.889 20.578 3.31C22.222 3.73 23.635 4.39898 24.82 5.31598C26.005 6.23298 26.922 7.39899 27.572 8.81299C28.259 10.226 28.603 11.927 28.603 13.914C28.603 16.704 27.858 19.016 26.368 20.85C24.916 22.684 22.929 24.003 20.406 24.805C22.05 27.404 23.769 29.983 25.565 32.543C27.361 35.104 29.234 37.645 31.183 40.167L34.278 41.829V43.262H27.342L25.164 41.657C24.094 40.32 23.12 39.021 22.241 37.76C21.362 36.46 20.54 35.161 19.776 33.862C19.012 32.524 18.286 31.187 17.598 29.849C16.948 28.474 16.279 27.021 15.591 25.493H10.203V40.224ZM14.101 5.65997C13.184 5.65997 12.42 5.67898 11.808 5.71698C11.235 5.75498 10.7 5.83198 10.203 5.94598V23.085H14.33C16.967 23.085 19.05 22.245 20.578 20.563C22.145 18.882 22.929 16.665 22.929 13.914C22.929 11.086 22.107 9.00402 20.464 7.66602C18.821 6.32902 16.7 5.65997 14.101 5.65997Z" fill="white"/>
<path d="M60.4001 39.25C60.0951 39.9 59.617 40.511 58.967 41.084C58.318 41.657 57.5721 42.154 56.7321 42.574C55.8911 42.995 54.974 43.32 53.98 43.549C52.987 43.816 51.974 43.95 50.942 43.95C48.688 43.95 46.701 43.606 44.981 42.918C43.261 42.192 41.828 41.18 40.682 39.88C39.535 38.543 38.657 36.957 38.045 35.123C37.472 33.289 37.1851 31.225 37.1851 28.932C37.1851 24.041 38.313 20.315 40.567 17.755C42.822 15.194 46.013 13.914 50.14 13.914C51.477 13.914 52.7961 14.105 54.0951 14.487C55.3941 14.831 56.5411 15.424 57.5341 16.264C58.5661 17.105 59.3881 18.232 59.9991 19.646C60.6491 21.022 60.9731 22.741 60.9731 24.805C60.9731 25.455 60.935 26.123 60.859 26.811C60.821 27.461 60.7251 28.168 60.5721 28.932H42.688C42.688 30.537 42.879 32.047 43.261 33.46C43.682 34.836 44.293 36.04 45.096 37.072C45.898 38.103 46.9111 38.925 48.1341 39.536C49.3561 40.11 50.789 40.396 52.433 40.396C53.77 40.396 55.127 40.205 56.502 39.823C57.878 39.441 58.9101 38.944 59.5981 38.333L60.4001 39.25ZM49.911 16.436C47.732 16.436 46.07 17.181 44.924 18.672C43.777 20.124 43.089 22.703 42.86 26.41H55.471C55.509 26.066 55.528 25.741 55.528 25.436C55.566 25.092 55.5851 24.767 55.5851 24.461C55.5851 22.015 55.1271 20.067 54.2101 18.614C53.2921 17.162 51.859 16.436 49.911 16.436Z" fill="white"/>
<path d="M87.165 35.753C87.165 36.594 87.184 37.32 87.222 37.932C87.261 38.543 87.299 39.193 87.337 39.88L91.2921 40.454V41.657C90.3371 42.154 89.2671 42.594 88.0821 42.976C86.9361 43.358 85.8281 43.644 84.7581 43.836H83.325C82.942 42.957 82.7131 42.001 82.6371 40.97C82.5601 39.9 82.5031 38.734 82.4651 37.473H82.178C82.025 38.237 81.72 39.021 81.261 39.823C80.841 40.587 80.267 41.275 79.541 41.887C78.854 42.498 78.0321 42.995 77.0771 43.377C76.1211 43.759 75.0321 43.95 73.8091 43.95C71.4781 43.95 69.5681 43.243 68.0771 41.829C66.6251 40.415 65.899 38.562 65.899 36.269C65.899 34.511 66.2431 33.078 66.9311 31.97C67.6571 30.824 68.708 29.926 70.083 29.276C71.459 28.626 73.1601 28.168 75.1851 27.9C77.2101 27.595 79.56 27.365 82.235 27.213C82.388 25.569 82.427 24.098 82.35 22.799C82.312 21.461 82.1021 20.334 81.7201 19.417C81.3761 18.462 80.8411 17.735 80.1151 17.239C79.4271 16.704 78.51 16.436 77.363 16.436C76.828 16.436 76.2171 16.474 75.5291 16.551C74.8791 16.589 74.23 16.742 73.58 17.009L70.886 23.888H69.3961C69.0131 22.741 68.67 21.557 68.364 20.334C68.096 19.111 67.9241 17.907 67.8481 16.723C69.3001 15.844 70.9051 15.156 72.6631 14.659C74.4591 14.162 76.4461 13.914 78.6241 13.914C80.5731 13.914 82.1211 14.201 83.2671 14.774C84.4521 15.309 85.3501 16.016 85.9611 16.895C86.5731 17.774 86.974 18.748 87.165 19.818C87.356 20.888 87.4521 21.958 87.4521 23.028C87.4521 25.321 87.3941 27.537 87.2801 29.677C87.2031 31.779 87.165 33.804 87.165 35.753ZM76.1021 40.396C77.0571 40.396 77.8981 40.205 78.6241 39.823C79.3501 39.441 79.962 38.982 80.459 38.447C80.955 37.912 81.357 37.377 81.662 36.842C81.968 36.269 82.1781 35.792 82.2931 35.409V29.391C80.0761 29.391 78.261 29.505 76.847 29.735C75.433 29.964 74.325 30.327 73.523 30.824C72.72 31.321 72.166 31.951 71.86 32.715C71.555 33.441 71.402 34.282 71.402 35.237C71.402 36.881 71.8221 38.161 72.6631 39.078C73.5041 39.957 74.6501 40.396 76.1021 40.396Z" fill="white"/>
<path d="M113.984 37.588C113.793 38.428 113.469 39.231 113.01 39.995C112.551 40.759 111.978 41.447 111.29 42.059C110.641 42.632 109.877 43.09 108.998 43.434C108.157 43.778 107.24 43.95 106.246 43.95C102.463 43.95 99.6351 42.746 97.7631 40.339C95.8901 37.932 94.9541 34.187 94.9541 29.104C94.9541 24.213 96.1391 20.487 98.5081 17.927C100.915 15.366 104.144 14.086 108.195 14.086C109.609 14.086 110.717 14.162 111.52 14.315C112.322 14.43 113.201 14.659 114.156 15.003V4.16998L109.8 3.711V2.22101C110.908 1.76201 112.188 1.36103 113.641 1.01703C115.131 0.673029 116.545 0.385982 117.882 0.156982H119.315V39.995L123.099 40.454V41.657C121.99 42.192 120.844 42.651 119.659 43.033C118.475 43.415 117.309 43.683 116.163 43.836H114.73L114.214 37.588H113.984ZM107.393 40.396C109.265 40.396 110.755 39.804 111.864 38.619C112.972 37.435 113.736 35.83 114.156 33.804V17.64C113.507 17.258 112.743 16.99 111.864 16.837C110.985 16.685 109.857 16.608 108.482 16.608C105.883 16.608 103.896 17.755 102.52 20.047C101.145 22.302 100.457 25.321 100.457 29.104C100.457 30.671 100.591 32.142 100.858 33.518C101.126 34.855 101.546 36.04 102.119 37.072C102.692 38.103 103.399 38.925 104.24 39.536C105.119 40.11 106.17 40.396 107.393 40.396Z" fill="white"/>
<path d="M133.871 0L143.569 16.128H143.914L153.655 0H162.751L149.182 22.021L162.966 44.041H153.72L143.914 28.02H143.569L133.763 44.041H124.56L138.473 22.021L124.732 0H133.871Z" fill="#0077FF"/>
</svg>
