<svg width="228" height="55" viewBox="0 0 228 55" fill="none" xmlns="http://www.w3.org/2000/svg">
<path d="M18.474 24.478H10.5914V23.607C10.897 23.485 11.2407 23.362 11.6226 23.24C12.0198 23.103 12.4169 23.003 12.8141 22.942V9.927H10.1561L8.68945 13.845H7.74995C7.68885 13.54 7.62775 13.15 7.56665 12.676C7.50555 12.203 7.45205 11.714 7.40625 11.21C7.36035 10.706 7.32215 10.209 7.29165 9.72C7.26105 9.216 7.24585 8.78901 7.24585 8.43701H21.8196C21.8196 8.80401 21.8043 9.232 21.7738 9.72C21.7432 10.209 21.705 10.706 21.6592 11.21C21.6134 11.714 21.5599 12.203 21.4988 12.676C21.4377 13.135 21.3766 13.524 21.3155 13.845H20.376L18.9095 9.927H16.2514V22.942C16.6486 23.019 17.0381 23.11 17.4201 23.217C17.8173 23.324 18.1685 23.454 18.474 23.607V24.478Z" fill="#12162A"/>
<path d="M21.621 18.749C21.621 17.817 21.7585 16.984 22.0335 16.251C22.3237 15.503 22.7286 14.869 23.248 14.349C23.7826 13.83 24.4243 13.433 25.1728 13.158C25.9214 12.883 26.7692 12.745 27.7164 12.745C28.7857 12.745 29.7023 12.898 30.4661 13.204C31.2452 13.494 31.8792 13.906 32.3681 14.441C32.8722 14.96 33.2388 15.594 33.468 16.343C33.6971 17.076 33.8117 17.878 33.8117 18.749C33.8117 19.681 33.6742 20.521 33.3992 21.27C33.1243 22.003 32.7194 22.629 32.1847 23.149C31.6653 23.668 31.0237 24.065 30.2599 24.34C29.5114 24.615 28.6635 24.753 27.7164 24.753C26.6775 24.753 25.7762 24.607 25.0124 24.317C24.2486 24.012 23.6146 23.599 23.1105 23.08C22.6063 22.545 22.2321 21.911 21.9876 21.178C21.7432 20.429 21.621 19.62 21.621 18.749ZM25.1728 18.749C25.1728 19.436 25.211 20.07 25.2874 20.651C25.379 21.216 25.5318 21.697 25.7457 22.094C25.9595 22.492 26.2498 22.805 26.6164 23.034C26.9831 23.248 27.4566 23.355 28.0372 23.355C28.3732 23.355 28.6788 23.278 28.9538 23.126C29.2287 22.958 29.4655 22.698 29.6641 22.347C29.8627 21.98 30.0078 21.506 30.0995 20.926C30.2064 20.33 30.2599 19.604 30.2599 18.749C30.2599 18.046 30.2141 17.412 30.1224 16.847C30.046 16.282 29.9009 15.801 29.687 15.403C29.4884 15.006 29.2135 14.701 28.8621 14.487C28.5107 14.258 28.0677 14.143 27.533 14.143C27.1358 14.143 26.7921 14.227 26.5019 14.395C26.2116 14.548 25.9672 14.808 25.7686 15.174C25.57 15.526 25.4172 15.999 25.3103 16.595C25.2186 17.175 25.1728 17.893 25.1728 18.749Z" fill="#12162A"/>
<path d="M43.0407 22.209C42.9643 22.545 42.8268 22.866 42.6282 23.171C42.4296 23.477 42.1928 23.752 41.9178 23.996C41.6429 24.226 41.3297 24.409 40.9783 24.546C40.627 24.684 40.2527 24.753 39.8555 24.753C38.3431 24.753 37.1897 24.279 36.3954 23.332C35.6163 22.369 35.2267 20.903 35.2267 18.932C35.2267 17.924 35.3642 17.046 35.6392 16.297C35.9141 15.533 36.2961 14.892 36.7849 14.372C37.289 13.853 37.8925 13.463 38.5952 13.204C39.2979 12.944 40.077 12.814 40.9325 12.814C41.2075 12.814 41.4366 12.822 41.6199 12.837C41.8185 12.852 41.9942 12.875 42.147 12.906C42.315 12.921 42.4678 12.959 42.6053 13.02C42.758 13.066 42.9261 13.12 43.1094 13.181V9.14801L41.3679 8.96399V8.07101C41.5818 7.97901 41.872 7.895 42.2386 7.819C42.6206 7.742 43.0177 7.673 43.4302 7.612C43.8427 7.536 44.2475 7.46701 44.6447 7.40601C45.0419 7.34501 45.3703 7.291 45.63 7.246H46.4092V22.851L47.9215 23.034V23.836C47.7077 23.943 47.4327 24.042 47.0966 24.134C46.7605 24.226 46.4091 24.31 46.0425 24.386C45.6759 24.462 45.3169 24.523 44.9655 24.569C44.6294 24.63 44.3468 24.676 44.1177 24.707H43.3386L43.1323 22.209H43.0407ZM40.9554 22.919C41.4901 22.919 41.9408 22.751 42.3074 22.415C42.674 22.079 42.9414 21.506 43.1094 20.697V14.533C42.9108 14.41 42.6588 14.311 42.3532 14.235C42.063 14.158 41.6963 14.12 41.2533 14.12C40.3673 14.12 39.7333 14.525 39.3514 15.335C38.9695 16.129 38.7785 17.29 38.7785 18.818C38.7785 20.055 38.9465 21.048 39.2826 21.797C39.6187 22.545 40.1763 22.919 40.9554 22.919Z" fill="#12162A"/>
<path d="M59.004 21.155C59.004 21.491 59.004 21.781 59.004 22.026C59.0193 22.27 59.0422 22.53 59.0728 22.805L60.6539 23.034V23.836C60.4706 23.928 60.2185 24.019 59.8977 24.111C59.5922 24.203 59.2637 24.294 58.9123 24.386C58.5763 24.462 58.2402 24.523 57.9041 24.569C57.568 24.63 57.2701 24.676 57.0104 24.707H56.2313C56.0785 24.355 55.9869 24.004 55.9563 23.653C55.9258 23.301 55.9029 22.874 55.8876 22.369H55.773C55.6966 22.675 55.5668 22.973 55.3835 23.263C55.2001 23.538 54.9634 23.79 54.6731 24.019C54.3981 24.233 54.0697 24.409 53.6878 24.546C53.3058 24.684 52.8781 24.753 52.4045 24.753C51.9004 24.753 51.4345 24.676 51.0067 24.523C50.579 24.371 50.2047 24.157 49.8839 23.882C49.5631 23.607 49.311 23.278 49.1277 22.897C48.9444 22.499 48.8527 22.056 48.8527 21.567C48.8527 20.88 48.9826 20.315 49.2423 19.872C49.502 19.429 49.9068 19.07 50.4568 18.795C51.022 18.504 51.74 18.291 52.6108 18.153C53.4968 18.016 54.5662 17.916 55.8188 17.855C55.9411 16.541 55.8876 15.579 55.6584 14.968C55.4293 14.357 54.9328 14.051 54.169 14.051C53.6954 14.051 53.26 14.128 52.8628 14.281L51.7858 17.03H50.7776C50.6554 16.847 50.5331 16.641 50.4109 16.412C50.304 16.167 50.1971 15.915 50.0901 15.655C49.9985 15.38 49.9144 15.105 49.8381 14.83C49.777 14.555 49.7311 14.288 49.7006 14.028C50.2811 13.631 51.0296 13.318 51.9462 13.089C52.8628 12.86 53.8329 12.745 54.8564 12.745C55.7272 12.745 56.4375 12.845 56.9875 13.043C57.5375 13.226 57.9652 13.486 58.2707 13.822C58.5915 14.143 58.813 14.525 58.9353 14.968C59.0575 15.411 59.1186 15.885 59.1186 16.389C59.1186 17.305 59.0957 18.138 59.0498 18.886C59.0193 19.62 59.004 20.376 59.004 21.155ZM53.8482 22.919C54.169 22.919 54.444 22.858 54.6731 22.736C54.9022 22.614 55.0932 22.469 55.246 22.301C55.414 22.133 55.5362 21.949 55.6126 21.751C55.7043 21.552 55.773 21.376 55.8188 21.224V18.932C55.1008 18.948 54.5127 18.993 54.0544 19.07C53.5961 19.146 53.2371 19.276 52.9774 19.459C52.7177 19.627 52.5344 19.849 52.4274 20.124C52.3358 20.384 52.29 20.704 52.29 21.086C52.29 21.667 52.4274 22.117 52.7024 22.438C52.9774 22.759 53.3593 22.919 53.8482 22.919Z" fill="#12162A"/>
<path d="M61.86 14.464C61.6309 14.403 61.417 14.326 61.2184 14.235C61.0351 14.143 60.8441 14.036 60.6455 13.914V13.02H66.6722V13.891C66.3513 14.105 65.916 14.296 65.366 14.464L67.6804 20.215L68.07 21.682H68.1158L68.4824 20.193L70.2697 14.464C69.8117 14.372 69.3917 14.189 69.0097 13.914V13.02H73.4317V13.914C73.1117 14.128 72.6757 14.311 72.1257 14.464L68.3908 24.478C68.0241 25.455 67.6575 26.25 67.2909 26.861C66.9242 27.487 66.5576 27.984 66.1909 28.35C65.8243 28.717 65.4577 28.969 65.091 29.106C64.7244 29.259 64.3577 29.359 63.9911 29.404C63.8383 29.267 63.7009 29.091 63.5786 28.877C63.4564 28.679 63.3495 28.457 63.2578 28.213C63.1662 27.984 63.0898 27.747 63.0287 27.502C62.9676 27.258 62.9294 27.029 62.9141 26.815L63.212 26.265H66.0076C66.1451 26.051 66.2597 25.822 66.3513 25.578C66.4583 25.333 66.5805 24.966 66.718 24.478L61.86 14.464Z" fill="#12162A"/>
<path d="M90.0417 21.155C90.0417 21.491 90.0417 21.781 90.0417 22.026C90.0567 22.27 90.0797 22.53 90.1107 22.805L91.6917 23.034V23.836C91.5087 23.928 91.2567 24.019 90.9357 24.111C90.6297 24.203 90.3017 24.294 89.9507 24.386C89.6137 24.462 89.2777 24.523 88.9417 24.569C88.6057 24.63 88.3077 24.676 88.0487 24.707H87.2697C87.1167 24.355 87.0247 24.004 86.9947 23.653C86.9637 23.301 86.9407 22.874 86.9257 22.369H86.8107C86.7347 22.675 86.6047 22.973 86.4217 23.263C86.2377 23.538 86.0017 23.79 85.7107 24.019C85.4357 24.233 85.1077 24.409 84.7257 24.546C84.3437 24.684 83.9157 24.753 83.4427 24.753C82.9387 24.753 82.4727 24.676 82.0447 24.523C81.6167 24.371 81.2427 24.157 80.9217 23.882C80.6007 23.607 80.3487 23.278 80.1657 22.897C79.9827 22.499 79.8907 22.056 79.8907 21.567C79.8907 20.88 80.0207 20.315 80.2797 19.872C80.5397 19.429 80.9447 19.07 81.4947 18.795C82.0597 18.504 82.7777 18.291 83.6487 18.153C84.5347 18.016 85.6037 17.916 86.8567 17.855C86.9787 16.541 86.9257 15.579 86.6967 14.968C86.4667 14.357 85.9707 14.051 85.2067 14.051C84.7337 14.051 84.2977 14.128 83.9007 14.281L82.8237 17.03H81.8157C81.6937 16.847 81.5707 16.641 81.4487 16.412C81.3417 16.167 81.2347 15.915 81.1277 15.655C81.0367 15.38 80.9527 15.105 80.8757 14.83C80.8147 14.555 80.7687 14.288 80.7387 14.028C81.3187 13.631 82.0677 13.318 82.9837 13.089C83.9007 12.86 84.8707 12.745 85.8947 12.745C86.7647 12.745 87.4757 12.845 88.0257 13.043C88.5757 13.226 89.0027 13.486 89.3087 13.822C89.6297 14.143 89.8507 14.525 89.9727 14.968C90.0957 15.411 90.1567 15.885 90.1567 16.389C90.1567 17.305 90.1337 18.138 90.0877 18.886C90.0567 19.62 90.0417 20.376 90.0417 21.155ZM84.8857 22.919C85.2067 22.919 85.4817 22.858 85.7107 22.736C85.9397 22.614 86.1307 22.469 86.2837 22.301C86.4517 22.133 86.5737 21.949 86.6507 21.751C86.7417 21.552 86.8107 21.376 86.8567 21.224V18.932C86.1387 18.948 85.5507 18.993 85.0927 19.07C84.6337 19.146 84.2747 19.276 84.0157 19.459C83.7557 19.627 83.5727 19.849 83.4657 20.124C83.3737 20.384 83.3277 20.704 83.3277 21.086C83.3277 21.667 83.4657 22.117 83.7407 22.438C84.0157 22.759 84.3977 22.919 84.8857 22.919Z" fill="#12162A"/>
<path d="M103.978 22.942C104.33 23.019 104.643 23.118 104.918 23.24C105.193 23.362 105.46 23.485 105.72 23.607V24.478H98.6617V23.607C98.9977 23.424 99.3187 23.286 99.6247 23.194C99.9297 23.087 100.236 23.003 100.541 22.942V9.97299C99.7767 9.80399 99.1507 9.58301 98.6617 9.30801V8.43701H101.091C101.397 8.43701 101.74 8.43 102.122 8.414C102.519 8.399 102.932 8.38401 103.36 8.36801C103.787 8.33801 104.223 8.31499 104.666 8.29999C105.109 8.26899 105.537 8.254 105.949 8.254C106.789 8.254 107.561 8.353 108.263 8.552C108.981 8.735 109.593 9.01799 110.097 9.39999C110.616 9.78199 111.013 10.263 111.288 10.843C111.578 11.409 111.724 12.073 111.724 12.837C111.724 13.937 111.456 14.838 110.922 15.541C110.387 16.244 109.654 16.771 108.722 17.122C109.333 18.084 109.982 19.07 110.67 20.078C111.357 21.071 112.083 22.033 112.846 22.965L113.946 23.699V24.478H110.12L109.134 23.721C108.432 22.881 107.805 21.911 107.255 20.811C106.721 19.696 106.247 18.604 105.834 17.534H103.978V22.942ZM105.124 9.74301C104.651 9.74301 104.269 9.78901 103.978 9.88101V16.274H105.33C106.109 16.274 106.774 15.999 107.324 15.449C107.874 14.884 108.149 14.051 108.149 12.951C108.149 12.386 108.073 11.905 107.92 11.508C107.767 11.095 107.553 10.759 107.278 10.5C107.003 10.24 106.682 10.049 106.316 9.927C105.949 9.804 105.552 9.74301 105.124 9.74301Z" fill="#0077FF"/>
<path d="M125.318 22.553C125.196 22.812 124.997 23.08 124.722 23.355C124.463 23.615 124.134 23.851 123.737 24.065C123.355 24.264 122.905 24.424 122.385 24.546C121.881 24.684 121.331 24.753 120.735 24.753C119.788 24.753 118.948 24.615 118.215 24.34C117.481 24.05 116.87 23.645 116.381 23.126C115.893 22.591 115.518 21.957 115.259 21.224C115.014 20.49 114.892 19.666 114.892 18.749C114.892 16.794 115.404 15.304 116.427 14.281C117.451 13.257 118.871 12.745 120.689 12.745C121.469 12.745 122.194 12.852 122.866 13.066C123.554 13.28 124.119 13.631 124.562 14.12C125.02 14.609 125.333 15.251 125.502 16.045C125.685 16.839 125.677 17.809 125.479 18.955H118.444C118.459 20.162 118.765 21.124 119.36 21.842C119.971 22.56 120.865 22.919 122.041 22.919C122.546 22.919 123.065 22.843 123.6 22.69C124.15 22.538 124.577 22.339 124.883 22.094L125.318 22.553ZM120.598 14.051C120.292 14.051 120.017 14.105 119.773 14.212C119.544 14.319 119.337 14.517 119.154 14.808C118.986 15.083 118.849 15.464 118.742 15.953C118.635 16.427 118.558 17.03 118.512 17.764H122.202C122.309 16.572 122.24 15.655 121.996 15.014C121.751 14.372 121.285 14.051 120.598 14.051Z" fill="#0077FF"/>
<path d="M137.259 21.155C137.259 21.491 137.259 21.781 137.259 22.026C137.275 22.27 137.298 22.53 137.328 22.805L138.909 23.034V23.836C138.726 23.928 138.474 24.019 138.153 24.111C137.848 24.203 137.519 24.294 137.168 24.386C136.832 24.462 136.496 24.523 136.159 24.569C135.823 24.63 135.525 24.676 135.266 24.707H134.487C134.334 24.355 134.242 24.004 134.212 23.653C134.181 23.301 134.158 22.874 134.143 22.369H134.028C133.952 22.675 133.822 22.973 133.639 23.263C133.455 23.538 133.219 23.79 132.928 24.019C132.653 24.233 132.325 24.409 131.943 24.546C131.561 24.684 131.133 24.753 130.66 24.753C130.156 24.753 129.69 24.676 129.262 24.523C128.834 24.371 128.46 24.157 128.139 23.882C127.818 23.607 127.566 23.278 127.383 22.897C127.2 22.499 127.108 22.056 127.108 21.567C127.108 20.88 127.238 20.315 127.498 19.872C127.757 19.429 128.162 19.07 128.712 18.795C129.277 18.504 129.995 18.291 130.866 18.153C131.752 18.016 132.822 17.916 134.074 17.855C134.196 16.541 134.143 15.579 133.914 14.968C133.685 14.357 133.188 14.051 132.424 14.051C131.951 14.051 131.515 14.128 131.118 14.281L130.041 17.03H129.033C128.911 16.847 128.788 16.641 128.666 16.412C128.559 16.167 128.452 15.915 128.345 15.655C128.254 15.38 128.17 15.105 128.093 14.83C128.032 14.555 127.986 14.288 127.956 14.028C128.536 13.631 129.285 13.318 130.202 13.089C131.118 12.86 132.088 12.745 133.112 12.745C133.983 12.745 134.693 12.845 135.243 13.043C135.793 13.226 136.221 13.486 136.526 13.822C136.847 14.143 137.068 14.525 137.191 14.968C137.313 15.411 137.374 15.885 137.374 16.389C137.374 17.305 137.351 18.138 137.305 18.886C137.275 19.62 137.259 20.376 137.259 21.155ZM132.104 22.919C132.424 22.919 132.699 22.858 132.928 22.736C133.158 22.614 133.349 22.469 133.501 22.301C133.669 22.133 133.792 21.949 133.868 21.751C133.96 21.552 134.028 21.376 134.074 21.224V18.932C133.356 18.948 132.768 18.993 132.31 19.07C131.851 19.146 131.492 19.276 131.233 19.459C130.973 19.627 130.79 19.849 130.683 20.124C130.591 20.384 130.545 20.704 130.545 21.086C130.545 21.667 130.683 22.117 130.958 22.438C131.233 22.759 131.615 22.919 132.104 22.919Z" fill="#0077FF"/>
<path d="M147.769 22.209C147.693 22.545 147.555 22.866 147.357 23.171C147.158 23.477 146.921 23.752 146.646 23.996C146.371 24.226 146.058 24.409 145.707 24.546C145.355 24.684 144.981 24.753 144.584 24.753C143.071 24.753 141.918 24.279 141.124 23.332C140.345 22.369 139.955 20.903 139.955 18.932C139.955 17.924 140.093 17.046 140.368 16.297C140.643 15.533 141.024 14.892 141.513 14.372C142.017 13.853 142.621 13.463 143.324 13.204C144.026 12.944 144.805 12.814 145.661 12.814C145.936 12.814 146.165 12.822 146.348 12.837C146.547 12.852 146.723 12.875 146.875 12.906C147.043 12.921 147.196 12.959 147.334 13.02C147.486 13.066 147.654 13.12 147.838 13.181V9.14801L146.096 8.96399V8.07101C146.31 7.97901 146.6 7.895 146.967 7.819C147.349 7.742 147.746 7.673 148.159 7.612C148.571 7.536 148.976 7.46701 149.373 7.40601C149.77 7.34501 150.099 7.291 150.358 7.246H151.138V22.851L152.65 23.034V23.836C152.436 23.943 152.161 24.042 151.825 24.134C151.489 24.226 151.138 24.31 150.771 24.386C150.404 24.462 150.045 24.523 149.694 24.569C149.358 24.63 149.075 24.676 148.846 24.707H148.067L147.861 22.209H147.769ZM145.684 22.919C146.218 22.919 146.669 22.751 147.036 22.415C147.402 22.079 147.67 21.506 147.838 20.697V14.533C147.639 14.41 147.387 14.311 147.082 14.235C146.791 14.158 146.425 14.12 145.982 14.12C145.096 14.12 144.462 14.525 144.08 15.335C143.698 16.129 143.507 17.29 143.507 18.818C143.507 20.055 143.675 21.048 144.011 21.797C144.347 22.545 144.905 22.919 145.684 22.919Z" fill="#0077FF"/>
<path d="M164.099 22.553C163.977 22.812 163.778 23.08 163.503 23.355C163.243 23.615 162.915 23.851 162.518 24.065C162.136 24.264 161.685 24.424 161.166 24.546C160.662 24.684 160.112 24.753 159.516 24.753C158.569 24.753 157.729 24.615 156.995 24.34C156.262 24.05 155.651 23.645 155.162 23.126C154.673 22.591 154.299 21.957 154.039 21.224C153.795 20.49 153.673 19.666 153.673 18.749C153.673 16.794 154.184 15.304 155.208 14.281C156.231 13.257 157.652 12.745 159.47 12.745C160.249 12.745 160.975 12.852 161.647 13.066C162.334 13.28 162.9 13.631 163.343 14.12C163.801 14.609 164.114 15.251 164.282 16.045C164.466 16.839 164.458 17.809 164.259 18.955H157.224C157.24 20.162 157.545 21.124 158.141 21.842C158.752 22.56 159.646 22.919 160.822 22.919C161.326 22.919 161.846 22.843 162.38 22.69C162.93 22.538 163.358 22.339 163.664 22.094L164.099 22.553ZM159.378 14.051C159.073 14.051 158.798 14.105 158.554 14.212C158.324 14.319 158.118 14.517 157.935 14.808C157.767 15.083 157.629 15.464 157.522 15.953C157.415 16.427 157.339 17.03 157.293 17.764H160.982C161.089 16.572 161.021 15.655 160.776 15.014C160.532 14.372 160.066 14.051 159.378 14.051Z" fill="#0077FF"/>
<path d="M171.915 15.655C171.732 15.747 171.518 15.9 171.274 16.114C171.029 16.328 170.808 16.679 170.609 17.168V23.034C170.915 23.065 171.22 23.126 171.526 23.217C171.831 23.294 172.137 23.416 172.442 23.584V24.478H165.797V23.584C166.072 23.431 166.332 23.317 166.576 23.24C166.821 23.164 167.065 23.095 167.31 23.034V14.647L165.797 14.464V13.57C166.042 13.463 166.339 13.364 166.691 13.272C167.057 13.181 167.432 13.104 167.814 13.043C168.196 12.967 168.562 12.906 168.914 12.86C169.28 12.814 169.586 12.776 169.83 12.745H170.609V15.793H170.701C170.823 15.457 170.999 15.105 171.228 14.739C171.472 14.372 171.755 14.036 172.076 13.731C172.397 13.425 172.748 13.181 173.13 12.997C173.512 12.814 173.909 12.73 174.321 12.745C174.489 12.959 174.635 13.265 174.757 13.662C174.879 14.044 174.978 14.41 175.055 14.762V15.655H171.915Z" fill="#0077FF"/>
<path d="M175.369 27.479C175.674 27.388 175.949 27.25 176.193 27.067C176.438 26.884 176.644 26.677 176.812 26.448C176.996 26.219 177.133 25.975 177.225 25.715C177.316 25.455 177.355 25.203 177.339 24.959C177.125 24.684 176.866 24.462 176.56 24.294C176.27 24.126 175.957 23.989 175.621 23.882C175.544 23.561 175.529 23.24 175.575 22.919C175.636 22.599 175.743 22.301 175.896 22.026C176.048 21.751 176.224 21.522 176.423 21.338C176.637 21.14 176.858 21.017 177.087 20.972C177.408 20.987 177.721 21.063 178.027 21.201C178.332 21.323 178.607 21.506 178.852 21.751C179.096 21.98 179.287 22.278 179.424 22.644C179.577 23.011 179.654 23.439 179.654 23.928C179.654 24.401 179.554 24.882 179.356 25.371C179.172 25.86 178.913 26.311 178.577 26.723C178.256 27.151 177.866 27.518 177.408 27.823C176.95 28.144 176.446 28.366 175.896 28.488L175.369 27.479Z" fill="#12162A"/>
<path d="M18.474 46.733H10.5914V45.862C10.897 45.74 11.2407 45.618 11.6226 45.495C12.0198 45.358 12.4169 45.259 12.8141 45.197V32.182H10.1561L8.68945 36.1H7.74995C7.68885 35.795 7.62775 35.405 7.56665 34.932C7.50555 34.458 7.45205 33.969 7.40625 33.465C7.36035 32.961 7.32215 32.464 7.29165 31.976C7.26105 31.471 7.24585 31.044 7.24585 30.692H21.8196C21.8196 31.059 21.8043 31.487 21.7738 31.976C21.7432 32.464 21.705 32.961 21.6592 33.465C21.6134 33.969 21.5599 34.458 21.4988 34.932C21.4377 35.39 21.3766 35.779 21.3155 36.1H20.376L18.9095 32.182H16.2514V45.197C16.6486 45.274 17.0381 45.366 17.4201 45.472C17.8173 45.579 18.1685 45.709 18.474 45.862V46.733Z" fill="#12162A"/>
<path d="M21.621 41.004C21.621 40.072 21.7585 39.24 22.0335 38.506C22.3237 37.758 22.7286 37.124 23.248 36.604C23.7826 36.085 24.4243 35.688 25.1728 35.413C25.9214 35.138 26.7692 35 27.7164 35C28.7857 35 29.7023 35.153 30.4661 35.459C31.2452 35.749 31.8792 36.161 32.3681 36.696C32.8722 37.215 33.2388 37.849 33.468 38.598C33.6971 39.331 33.8117 40.133 33.8117 41.004C33.8117 41.936 33.6742 42.776 33.3992 43.525C33.1243 44.258 32.7194 44.884 32.1847 45.404C31.6653 45.923 31.0237 46.32 30.2599 46.595C29.5114 46.87 28.6635 47.008 27.7164 47.008C26.6775 47.008 25.7762 46.863 25.0124 46.572C24.2486 46.267 23.6146 45.854 23.1105 45.335C22.6063 44.8 22.2321 44.166 21.9876 43.433C21.7432 42.685 21.621 41.875 21.621 41.004ZM25.1728 41.004C25.1728 41.692 25.211 42.326 25.2874 42.906C25.379 43.471 25.5318 43.952 25.7457 44.35C25.9595 44.747 26.2498 45.06 26.6164 45.289C26.9831 45.503 27.4566 45.61 28.0372 45.61C28.3732 45.61 28.6788 45.534 28.9538 45.381C29.2287 45.213 29.4655 44.953 29.6641 44.602C29.8627 44.235 30.0078 43.761 30.0995 43.181C30.2064 42.585 30.2599 41.86 30.2599 41.004C30.2599 40.301 30.2141 39.667 30.1224 39.102C30.046 38.537 29.9009 38.056 29.687 37.659C29.4884 37.261 29.2135 36.956 28.8621 36.742C28.5107 36.513 28.0677 36.398 27.533 36.398C27.1358 36.398 26.7921 36.482 26.5019 36.65C26.2116 36.803 25.9672 37.063 25.7686 37.429C25.57 37.781 25.4172 38.254 25.3103 38.85C25.2186 39.431 25.1728 40.149 25.1728 41.004Z" fill="#12162A"/>
<path d="M48.1279 46.733H42.3992V45.839C42.5519 45.747 42.72 45.656 42.9033 45.564C43.1019 45.457 43.3157 45.366 43.5449 45.289V40.729C43.5449 40.026 43.522 39.431 43.4762 38.942C43.4456 38.453 43.3692 38.056 43.247 37.75C43.1248 37.429 42.9567 37.2 42.7429 37.063C42.529 36.91 42.254 36.834 41.9179 36.834C41.4291 36.834 41.0013 37.025 40.6347 37.406C40.2833 37.773 40.0236 38.262 39.8556 38.873V45.289C40.2681 45.411 40.65 45.595 41.0013 45.839V46.733H35.0435V45.839C35.2574 45.732 35.4941 45.633 35.7538 45.541C36.0135 45.45 36.2809 45.366 36.5559 45.289V36.902L35.0435 36.719V35.825C35.2879 35.718 35.5858 35.619 35.9372 35.527C36.3038 35.436 36.6781 35.359 37.06 35.298C37.4419 35.222 37.8085 35.161 38.1599 35.115C38.5265 35.069 38.8321 35.031 39.0765 35H39.8556V37.59H39.8785C40.1229 36.872 40.5507 36.261 41.1617 35.757C41.7881 35.252 42.5366 35 43.4074 35C43.774 35 44.133 35.039 44.4844 35.115C44.8358 35.191 45.1566 35.336 45.4468 35.55C45.7524 35.749 46.0121 36.032 46.2259 36.398C46.4398 36.765 46.5926 37.238 46.6842 37.819C46.9592 36.979 47.4175 36.299 48.0591 35.779C48.7007 35.26 49.4798 35 50.3964 35C50.9617 35 51.4582 35.077 51.8859 35.23C52.3289 35.367 52.6956 35.619 52.9858 35.986C53.2913 36.352 53.5205 36.849 53.6733 37.475C53.826 38.102 53.9024 38.896 53.9024 39.858V45.289C54.4218 45.381 54.9259 45.564 55.4148 45.839V46.733H49.4569V45.839C49.8083 45.61 50.1902 45.427 50.6027 45.289V40.317C50.6027 39.125 50.4881 38.247 50.2589 37.681C50.0451 37.116 49.5715 36.834 48.8382 36.834C48.2883 36.834 47.8529 37.04 47.5321 37.452C47.2265 37.865 46.9974 38.415 46.8446 39.102V45.289C47.1043 45.366 47.3335 45.45 47.5321 45.541C47.746 45.633 47.9445 45.732 48.1279 45.839V46.733Z" fill="#12162A"/>
<path d="M56.3961 41.004C56.3961 40.072 56.5336 39.24 56.8086 38.506C57.0988 37.758 57.5036 37.124 58.023 36.604C58.5577 36.085 59.1993 35.688 59.9479 35.413C60.6964 35.138 61.5443 35 62.4914 35C63.5608 35 64.4774 35.153 65.2412 35.459C66.0203 35.749 66.6543 36.161 67.1432 36.696C67.6473 37.215 68.0139 37.849 68.2431 38.598C68.4722 39.331 68.5867 40.133 68.5867 41.004C68.5867 41.936 68.4493 42.776 68.1743 43.525C67.8993 44.258 67.4945 44.884 66.9598 45.404C66.4404 45.923 65.7988 46.32 65.035 46.595C64.2864 46.87 63.4386 47.008 62.4914 47.008C61.4526 47.008 60.5513 46.863 59.7875 46.572C59.0237 46.267 58.3897 45.854 57.8856 45.335C57.3814 44.8 57.0072 44.166 56.7627 43.433C56.5183 42.685 56.3961 41.875 56.3961 41.004ZM59.9479 41.004C59.9479 41.692 59.9861 42.326 60.0625 42.906C60.1541 43.471 60.3069 43.952 60.5208 44.35C60.7346 44.747 61.0249 45.06 61.3915 45.289C61.7582 45.503 62.2317 45.61 62.8123 45.61C63.1483 45.61 63.4539 45.534 63.7288 45.381C64.0038 45.213 64.2406 44.953 64.4392 44.602C64.6378 44.235 64.7829 43.761 64.8746 43.181C64.9815 42.585 65.035 41.86 65.035 41.004C65.035 40.301 64.9892 39.667 64.8975 39.102C64.8211 38.537 64.676 38.056 64.4621 37.659C64.2635 37.261 63.9885 36.956 63.6372 36.742C63.2858 36.513 62.8428 36.398 62.3081 36.398C61.9109 36.398 61.5672 36.482 61.277 36.65C60.9867 36.803 60.7423 37.063 60.5437 37.429C60.3451 37.781 60.1923 38.254 60.0854 38.85C59.9937 39.431 59.9479 40.149 59.9479 41.004Z" fill="#12162A"/>
<path d="M75.9367 37.911C75.7537 38.002 75.5397 38.155 75.2947 38.369C75.0507 38.583 74.8287 38.934 74.6307 39.423V45.289C74.9357 45.32 75.2417 45.381 75.5467 45.472C75.8527 45.549 76.1587 45.671 76.4637 45.839V46.733H69.8187V45.839C70.0937 45.686 70.3527 45.572 70.5977 45.495C70.8417 45.419 71.0867 45.35 71.3307 45.289V36.902L69.8187 36.719V35.825C70.0627 35.718 70.3607 35.619 70.7117 35.527C71.0787 35.436 71.4527 35.359 71.8347 35.298C72.2167 35.222 72.5837 35.161 72.9347 35.115C73.3017 35.069 73.6067 35.031 73.8517 35H74.6307V38.048H74.7227C74.8447 37.712 75.0197 37.361 75.2497 36.994C75.4937 36.627 75.7767 36.291 76.0967 35.986C76.4177 35.68 76.7697 35.436 77.1517 35.252C77.5327 35.069 77.9307 34.985 78.3427 35C78.5107 35.214 78.6557 35.52 78.7777 35.917C78.9007 36.299 78.9997 36.666 79.0757 37.017V37.911H75.9367Z" fill="#12162A"/>
<path d="M85.8058 37.911C85.6218 38.002 85.4078 38.155 85.1638 38.369C84.9198 38.583 84.6978 38.934 84.4988 39.423V45.289C84.8048 45.32 85.1108 45.381 85.4158 45.472C85.7218 45.549 86.0268 45.671 86.3328 45.839V46.733H79.6868V45.839C79.9618 45.686 80.2218 45.572 80.4658 45.495C80.7108 45.419 80.9548 45.35 81.1998 45.289V36.902L79.6868 36.719V35.825C79.9318 35.718 80.2298 35.619 80.5808 35.527C80.9478 35.436 81.3218 35.359 81.7038 35.298C82.0858 35.222 82.4518 35.161 82.8038 35.115C83.1698 35.069 83.4758 35.031 83.7198 35H84.4988V38.048H84.5908C84.7128 37.712 84.8888 37.361 85.1178 36.994C85.3628 36.627 85.6448 36.291 85.9658 35.986C86.2868 35.68 86.6378 35.436 87.0198 35.252C87.4018 35.069 87.7988 34.985 88.2118 35C88.3798 35.214 88.5248 35.52 88.6468 35.917C88.7688 36.299 88.8688 36.666 88.9448 37.017V37.911H85.8058Z" fill="#12162A"/>
<path d="M89.7388 41.004C89.7388 40.072 89.8768 39.24 90.1518 38.506C90.4418 37.758 90.8468 37.124 91.3658 36.604C91.9008 36.085 92.5428 35.688 93.2908 35.413C94.0398 35.138 94.8878 35 95.8348 35C96.9038 35 97.8208 35.153 98.5838 35.459C99.3638 35.749 99.9978 36.161 100.486 36.696C100.99 37.215 101.357 37.849 101.586 38.598C101.815 39.331 101.93 40.133 101.93 41.004C101.93 41.936 101.793 42.776 101.518 43.525C101.243 44.258 100.838 44.884 100.303 45.404C99.7838 45.923 99.1418 46.32 98.3778 46.595C97.6298 46.87 96.7818 47.008 95.8348 47.008C94.7958 47.008 93.8948 46.863 93.1308 46.572C92.3668 46.267 91.7328 45.854 91.2288 45.335C90.7248 44.8 90.3498 44.166 90.1058 43.433C89.8618 42.685 89.7388 41.875 89.7388 41.004ZM93.2908 41.004C93.2908 41.692 93.3288 42.326 93.4058 42.906C93.4968 43.471 93.6498 43.952 93.8638 44.35C94.0778 44.747 94.3678 45.06 94.7348 45.289C95.1008 45.503 95.5748 45.61 96.1548 45.61C96.4918 45.61 96.7968 45.534 97.0718 45.381C97.3468 45.213 97.5838 44.953 97.7818 44.602C97.9808 44.235 98.1258 43.761 98.2178 43.181C98.3248 42.585 98.3778 41.86 98.3778 41.004C98.3778 40.301 98.3318 39.667 98.2408 39.102C98.1638 38.537 98.0188 38.056 97.8048 37.659C97.6068 37.261 97.3318 36.956 96.9798 36.742C96.6288 36.513 96.1858 36.398 95.6508 36.398C95.2538 36.398 94.9098 36.482 94.6198 36.65C94.3298 36.803 94.0848 37.063 93.8868 37.429C93.6878 37.781 93.5358 38.254 93.4288 38.85C93.3368 39.431 93.2908 40.149 93.2908 41.004Z" fill="#12162A"/>
<path d="M107.218 47.008L103.62 36.719C103.406 36.643 103.192 36.566 102.978 36.49C102.78 36.398 102.589 36.291 102.405 36.169V35.275H108.203V36.146C107.989 36.268 107.775 36.383 107.561 36.49C107.347 36.582 107.126 36.658 106.897 36.719L108.478 42.585L108.776 44.35H108.822L109.234 42.516L111.663 35.413L112.786 35.275L115.398 42.539L115.879 44.35H115.925L116.292 42.562L117.667 36.719C117.499 36.688 117.3 36.627 117.071 36.536C116.857 36.444 116.636 36.322 116.406 36.169V35.275H120.829V36.169C120.508 36.383 120.073 36.566 119.523 36.719L116.338 46.733L114.184 47.008L112.213 41.348L111.778 39.446H111.709L111.182 41.348L109.349 46.733L107.218 47.008Z" fill="#12162A"/>
<path d="M137.55 43.41C137.55 43.746 137.55 44.036 137.55 44.281C137.566 44.525 137.588 44.785 137.619 45.06L139.2 45.289V46.091C139.017 46.183 138.765 46.274 138.444 46.366C138.138 46.458 137.81 46.549 137.459 46.641C137.123 46.718 136.786 46.779 136.45 46.824C136.114 46.886 135.816 46.931 135.557 46.962H134.778C134.625 46.611 134.533 46.259 134.503 45.908C134.472 45.557 134.449 45.129 134.434 44.625H134.319C134.243 44.93 134.113 45.228 133.93 45.518C133.746 45.793 133.51 46.045 133.219 46.274C132.944 46.488 132.616 46.664 132.234 46.802C131.852 46.939 131.424 47.008 130.951 47.008C130.447 47.008 129.981 46.931 129.553 46.779C129.125 46.626 128.751 46.412 128.43 46.137C128.109 45.862 127.857 45.534 127.674 45.152C127.491 44.754 127.399 44.311 127.399 43.823C127.399 43.135 127.529 42.57 127.789 42.127C128.048 41.684 128.453 41.325 129.003 41.05C129.568 40.76 130.286 40.546 131.157 40.408C132.043 40.271 133.112 40.172 134.365 40.11C134.487 38.797 134.434 37.834 134.205 37.223C133.976 36.612 133.479 36.307 132.715 36.307C132.242 36.307 131.806 36.383 131.409 36.536L130.332 39.285H129.324C129.202 39.102 129.079 38.896 128.957 38.667C128.85 38.422 128.743 38.17 128.636 37.911C128.545 37.636 128.461 37.361 128.384 37.086C128.323 36.811 128.277 36.543 128.247 36.284C128.827 35.886 129.576 35.573 130.492 35.344C131.409 35.115 132.379 35 133.403 35C134.273 35 134.984 35.1 135.534 35.298C136.084 35.482 136.511 35.741 136.817 36.077C137.138 36.398 137.359 36.78 137.482 37.223C137.604 37.666 137.665 38.14 137.665 38.644C137.665 39.56 137.642 40.393 137.596 41.142C137.566 41.875 137.55 42.631 137.55 43.41ZM132.394 45.175C132.715 45.175 132.99 45.113 133.219 44.991C133.449 44.869 133.639 44.724 133.792 44.556C133.96 44.388 134.082 44.205 134.159 44.006C134.251 43.807 134.319 43.632 134.365 43.479V41.187C133.647 41.203 133.059 41.249 132.601 41.325C132.142 41.401 131.783 41.531 131.524 41.714C131.264 41.882 131.081 42.104 130.974 42.379C130.882 42.639 130.836 42.959 130.836 43.341C130.836 43.922 130.974 44.373 131.249 44.693C131.524 45.014 131.906 45.175 132.394 45.175Z" fill="#12162A"/>
<path d="M146.17 30.692H153.686V31.563C153.365 31.731 153.006 31.876 152.609 31.999C152.227 32.105 151.853 32.182 151.486 32.228V45.243H155.909L157.444 41.142H158.384C158.445 41.493 158.498 41.905 158.544 42.379C158.605 42.853 158.651 43.349 158.682 43.868C158.712 44.388 158.735 44.9 158.75 45.404C158.766 45.908 158.766 46.351 158.75 46.733H146.17V45.862C146.522 45.679 146.85 45.534 147.156 45.427C147.476 45.32 147.774 45.243 148.049 45.197V32.228C147.301 32.105 146.674 31.884 146.17 31.563V30.692Z" fill="#0077FF"/>
<path d="M170.208 44.808C170.086 45.068 169.887 45.335 169.612 45.61C169.353 45.87 169.024 46.106 168.627 46.32C168.245 46.519 167.794 46.679 167.275 46.802C166.771 46.939 166.221 47.008 165.625 47.008C164.678 47.008 163.838 46.87 163.104 46.595C162.371 46.305 161.76 45.9 161.271 45.381C160.782 44.846 160.408 44.212 160.148 43.479C159.904 42.746 159.782 41.921 159.782 41.004C159.782 39.049 160.294 37.559 161.317 36.536C162.341 35.512 163.761 35 165.579 35C166.358 35 167.084 35.107 167.756 35.321C168.444 35.535 169.009 35.886 169.452 36.375C169.91 36.864 170.223 37.506 170.391 38.3C170.575 39.095 170.567 40.065 170.368 41.21H163.334C163.349 42.417 163.654 43.38 164.25 44.098C164.861 44.816 165.755 45.175 166.931 45.175C167.435 45.175 167.955 45.098 168.489 44.945C169.039 44.793 169.467 44.594 169.773 44.35L170.208 44.808ZM165.488 36.307C165.182 36.307 164.907 36.36 164.663 36.467C164.434 36.574 164.227 36.772 164.044 37.063C163.876 37.338 163.738 37.72 163.632 38.208C163.525 38.682 163.448 39.285 163.402 40.019H167.092C167.199 38.827 167.13 37.911 166.885 37.269C166.641 36.627 166.175 36.307 165.488 36.307Z" fill="#0077FF"/>
<path d="M182.149 43.41C182.149 43.746 182.149 44.036 182.149 44.281C182.164 44.525 182.187 44.785 182.218 45.06L183.799 45.289V46.091C183.616 46.183 183.364 46.274 183.043 46.366C182.737 46.458 182.409 46.549 182.058 46.641C181.721 46.718 181.385 46.779 181.049 46.824C180.713 46.886 180.415 46.931 180.156 46.962H179.376C179.224 46.611 179.132 46.259 179.102 45.908C179.071 45.557 179.048 45.129 179.033 44.625H178.918C178.842 44.93 178.712 45.228 178.529 45.518C178.345 45.793 178.109 46.045 177.818 46.274C177.543 46.488 177.215 46.664 176.833 46.802C176.451 46.939 176.023 47.008 175.55 47.008C175.046 47.008 174.58 46.931 174.152 46.779C173.724 46.626 173.35 46.412 173.029 46.137C172.708 45.862 172.456 45.534 172.273 45.152C172.09 44.754 171.998 44.311 171.998 43.823C171.998 43.135 172.128 42.57 172.387 42.127C172.647 41.684 173.052 41.325 173.602 41.05C174.167 40.76 174.885 40.546 175.756 40.408C176.642 40.271 177.711 40.172 178.964 40.11C179.086 38.797 179.033 37.834 178.804 37.223C178.574 36.612 178.078 36.307 177.314 36.307C176.841 36.307 176.405 36.383 176.008 36.536L174.931 39.285H173.923C173.801 39.102 173.678 38.896 173.556 38.667C173.449 38.422 173.342 38.17 173.235 37.911C173.144 37.636 173.06 37.361 172.983 37.086C172.922 36.811 172.876 36.543 172.846 36.284C173.426 35.886 174.175 35.573 175.091 35.344C176.008 35.115 176.978 35 178.002 35C178.872 35 179.583 35.1 180.133 35.298C180.683 35.482 181.11 35.741 181.416 36.077C181.737 36.398 181.958 36.78 182.08 37.223C182.203 37.666 182.264 38.14 182.264 38.644C182.264 39.56 182.241 40.393 182.195 41.142C182.164 41.875 182.149 42.631 182.149 43.41ZM176.993 45.175C177.314 45.175 177.589 45.113 177.818 44.991C178.047 44.869 178.238 44.724 178.391 44.556C178.559 44.388 178.681 44.205 178.758 44.006C178.849 43.807 178.918 43.632 178.964 43.479V41.187C178.246 41.203 177.658 41.249 177.2 41.325C176.741 41.401 176.382 41.531 176.123 41.714C175.863 41.882 175.68 42.104 175.573 42.379C175.481 42.639 175.435 42.959 175.435 43.341C175.435 43.922 175.573 44.373 175.848 44.693C176.123 45.014 176.505 45.175 176.993 45.175Z" fill="#0077FF"/>
<path d="M192.659 44.464C192.583 44.8 192.445 45.121 192.246 45.427C192.048 45.732 191.811 46.007 191.536 46.252C191.261 46.481 190.948 46.664 190.597 46.802C190.245 46.939 189.871 47.008 189.474 47.008C187.961 47.008 186.808 46.534 186.014 45.587C185.234 44.625 184.845 43.158 184.845 41.187C184.845 40.179 184.982 39.301 185.257 38.552C185.532 37.788 185.914 37.147 186.403 36.627C186.907 36.108 187.511 35.718 188.213 35.459C188.916 35.199 189.695 35.069 190.551 35.069C190.826 35.069 191.055 35.077 191.238 35.092C191.437 35.107 191.612 35.13 191.765 35.161C191.933 35.176 192.086 35.214 192.224 35.275C192.376 35.321 192.544 35.375 192.728 35.436V31.403L190.986 31.219V30.326C191.2 30.234 191.49 30.15 191.857 30.074C192.239 29.997 192.636 29.929 193.048 29.867C193.461 29.791 193.866 29.722 194.263 29.661C194.66 29.6 194.989 29.547 195.248 29.501H196.027V45.106L197.54 45.289V46.091C197.326 46.198 197.051 46.297 196.715 46.389C196.379 46.481 196.027 46.565 195.661 46.641C195.294 46.718 194.935 46.779 194.584 46.824C194.248 46.886 193.965 46.931 193.736 46.962H192.957L192.751 44.464H192.659ZM190.574 45.175C191.108 45.175 191.559 45.007 191.926 44.67C192.292 44.334 192.56 43.761 192.728 42.952V36.788C192.529 36.666 192.277 36.566 191.971 36.49C191.681 36.413 191.315 36.375 190.872 36.375C189.986 36.375 189.352 36.78 188.97 37.59C188.588 38.384 188.397 39.545 188.397 41.073C188.397 42.31 188.565 43.303 188.901 44.052C189.237 44.8 189.795 45.175 190.574 45.175Z" fill="#0077FF"/>
<path d="M208.989 44.808C208.867 45.068 208.668 45.335 208.393 45.61C208.133 45.87 207.805 46.106 207.408 46.32C207.026 46.519 206.575 46.679 206.056 46.802C205.552 46.939 205.002 47.008 204.406 47.008C203.459 47.008 202.618 46.87 201.885 46.595C201.152 46.305 200.541 45.9 200.052 45.381C199.563 44.846 199.189 44.212 198.929 43.479C198.685 42.746 198.563 41.921 198.563 41.004C198.563 39.049 199.074 37.559 200.098 36.536C201.121 35.512 202.542 35 204.36 35C205.139 35 205.865 35.107 206.537 35.321C207.224 35.535 207.79 35.886 208.233 36.375C208.691 36.864 209.004 37.506 209.172 38.3C209.355 39.095 209.348 40.065 209.149 41.21H202.114C202.13 42.417 202.435 43.38 203.031 44.098C203.642 44.816 204.536 45.175 205.712 45.175C206.216 45.175 206.735 45.098 207.27 44.945C207.82 44.793 208.248 44.594 208.553 44.35L208.989 44.808ZM204.268 36.307C203.963 36.307 203.688 36.36 203.443 36.467C203.214 36.574 203.008 36.772 202.825 37.063C202.657 37.338 202.519 37.72 202.412 38.208C202.305 38.682 202.229 39.285 202.183 40.019H205.872C205.979 38.827 205.911 37.911 205.666 37.269C205.422 36.627 204.956 36.307 204.268 36.307Z" fill="#0077FF"/>
<path d="M216.805 37.911C216.622 38.002 216.408 38.155 216.164 38.369C215.919 38.583 215.698 38.934 215.499 39.423V45.289C215.805 45.32 216.11 45.381 216.416 45.472C216.721 45.549 217.027 45.671 217.332 45.839V46.733H210.687V45.839C210.962 45.686 211.222 45.572 211.466 45.495C211.71 45.419 211.955 45.35 212.199 45.289V36.902L210.687 36.719V35.825C210.931 35.718 211.229 35.619 211.581 35.527C211.947 35.436 212.322 35.359 212.703 35.298C213.085 35.222 213.452 35.161 213.803 35.115C214.17 35.069 214.476 35.031 214.72 35H215.499V38.048H215.591C215.713 37.712 215.889 37.361 216.118 36.994C216.362 36.627 216.645 36.291 216.966 35.986C217.286 35.68 217.638 35.436 218.02 35.252C218.402 35.069 218.799 34.985 219.211 35C219.379 35.214 219.524 35.52 219.647 35.917C219.769 36.299 219.868 36.666 219.945 37.017V37.911H216.805Z" fill="#0077FF"/>
<path d="M46.409 0C49.826 0 52.6899 2.365 53.4542 5.548C53.9208 5.516 54.3884 5.49899 54.8562 5.49899C56.0149 5.49899 57.3887 5.60601 58.7903 6.01401C59.3825 5.85801 60.0043 5.77399 60.6456 5.77399H66.6722C67.0701 5.77399 67.4604 5.80699 67.8408 5.86899C68.2213 5.80699 68.6117 5.77399 69.0097 5.77399H73.4317C75.1117 5.77399 76.6577 6.34599 77.8867 7.30499C79.0037 6.72099 80.1487 6.329 81.2267 6.06C82.7637 5.675 84.3277 5.49899 85.8947 5.49899C87.1877 5.49899 88.7477 5.63301 90.3167 6.17001V6.16901C90.3727 6.18801 90.4297 6.208 90.4867 6.228C90.8577 6.358 91.2397 6.51401 91.6257 6.69901C92.4047 3.53701 95.2587 1.19101 98.6617 1.19101H101.091C101.28 1.19101 101.524 1.18701 101.833 1.17401H101.844C102.213 1.16001 102.594 1.14599 102.987 1.13199C103.425 1.10199 103.866 1.07901 104.31 1.06201C104.858 1.02701 105.405 1.008 105.949 1.008C107.316 1.008 108.716 1.16601 110.106 1.54501C111.555 1.92101 113.033 2.55499 114.388 3.56299L114.389 3.56201C114.4 3.57101 114.412 3.57999 114.423 3.58899C114.439 3.60099 114.456 3.61199 114.472 3.62399L114.471 3.625C115.371 4.3 116.156 5.09599 116.807 5.99899C118.097 5.64899 119.412 5.49899 120.69 5.49899C122.122 5.49899 123.58 5.69601 125.018 6.14801L125.019 6.147C125.026 6.15 125.034 6.152 125.041 6.155C125.049 6.157 125.056 6.15901 125.063 6.16101C125.53 6.30801 125.99 6.48701 126.441 6.69601C127.119 6.42901 127.794 6.222 128.444 6.06C129.981 5.675 131.545 5.49899 133.112 5.49899C134.405 5.49899 135.965 5.63301 137.534 6.17001V6.16901C137.573 6.18201 137.612 6.19599 137.651 6.20999C137.668 6.21599 137.686 6.221 137.704 6.228H137.703C138.115 6.372 138.54 6.54799 138.97 6.76099C139.402 4.40299 140.986 2.37701 143.242 1.41101C144.083 1.05001 144.899 0.848006 145.489 0.725006L145.546 0.713013C146.015 0.620013 146.492 0.536989 146.974 0.463989C147.41 0.383989 147.843 0.309988 148.271 0.243988C148.64 0.187988 148.911 0.142985 149.099 0.109985L149.255 0.0839844C149.62 0.0279844 149.989 0 150.359 0H151.137C154.556 0 157.421 2.367 158.184 5.552C158.615 5.517 159.045 5.49899 159.47 5.49899C160.903 5.49899 162.361 5.69601 163.799 6.14801L163.8 6.147C163.807 6.15 163.815 6.152 163.822 6.155C163.829 6.157 163.837 6.15901 163.844 6.16101C164.049 6.22601 164.253 6.29699 164.456 6.37299C164.595 6.33299 164.73 6.29499 164.862 6.26099L164.933 6.24301C165.453 6.11301 165.978 6.00499 166.506 5.91599C166.995 5.82099 167.486 5.73899 167.976 5.67499L168.015 5.67001C168.381 5.62401 168.687 5.58599 168.931 5.55499L169.155 5.53101C169.38 5.51001 169.605 5.49899 169.83 5.49899H170.609C171.186 5.49899 171.746 5.567 172.284 5.694C172.936 5.561 173.606 5.49399 174.287 5.49799L174.59 5.504L174.789 5.51498C176.841 5.64698 178.745 6.64601 180.019 8.26801C180.92 9.41501 181.392 10.611 181.657 11.454C181.663 11.472 181.669 11.49 181.675 11.508C181.677 11.516 181.68 11.523 181.682 11.531C181.857 12.084 182.011 12.648 182.135 13.222C182.245 13.728 182.301 14.244 182.301 14.762V15.284C182.912 15.672 183.469 16.122 183.967 16.619C185.032 17.667 185.732 18.864 186.176 20.015C186.721 21.389 186.899 22.742 186.899 23.928C186.899 24.069 186.895 24.21 186.89 24.349C187.276 24.085 187.691 23.855 188.132 23.666C188.973 23.305 189.788 23.103 190.379 22.98L190.436 22.969C190.906 22.875 191.382 22.792 191.865 22.719C192.3 22.639 192.733 22.566 193.161 22.5C193.53 22.443 193.801 22.398 193.989 22.365L194.145 22.339C194.51 22.283 194.879 22.255 195.248 22.255H196.027C199.445 22.255 202.31 24.622 203.073 27.806C203.505 27.771 203.934 27.754 204.36 27.754C205.792 27.754 207.251 27.95 208.689 28.403C208.69 28.403 208.692 28.403 208.694 28.404C208.707 28.408 208.72 28.412 208.734 28.416L208.733 28.417C208.939 28.481 209.143 28.552 209.345 28.628C209.484 28.588 209.62 28.551 209.752 28.516L209.823 28.498C210.346 28.367 210.873 28.258 211.403 28.169C211.89 28.075 212.378 27.993 212.866 27.93C212.879 27.928 212.892 27.927 212.905 27.925C213.271 27.879 213.577 27.841 213.821 27.811L214.045 27.786C214.269 27.765 214.495 27.754 214.72 27.754H215.499C216.075 27.754 216.636 27.822 217.173 27.949C217.922 27.797 218.694 27.73 219.479 27.759C221.607 27.838 223.593 28.849 224.909 30.524C225.81 31.67 226.282 32.866 226.547 33.709H226.548C226.55 33.717 226.553 33.725 226.555 33.734C226.561 33.751 226.567 33.769 226.572 33.786H226.571C226.746 34.339 226.9 34.903 227.025 35.478C227.135 35.983 227.19 36.499 227.19 37.017V37.91C227.19 40.294 226.039 42.408 224.263 43.728C224.469 44.403 224.578 45.113 224.578 45.839V46.733C224.578 50.735 221.334 53.979 217.332 53.979H210.687C209.927 53.979 209.195 53.861 208.507 53.644C208.292 53.708 208.08 53.764 207.871 53.816C206.696 54.127 205.528 54.254 204.406 54.254C202.767 54.254 201.038 54.016 199.341 53.38C199.3 53.365 199.259 53.349 199.219 53.333C199.158 53.309 199.098 53.283 199.038 53.258C198.893 53.303 198.753 53.344 198.621 53.38C198.133 53.513 197.638 53.631 197.138 53.735C196.663 53.834 196.184 53.917 195.703 53.984C195.361 54.044 195.02 54.101 194.694 54.144C194.376 54.187 194.056 54.208 193.736 54.208H192.957C192.454 54.208 191.963 54.156 191.488 54.058C190.817 54.19 190.142 54.254 189.474 54.254C187.942 54.254 186.344 53.999 184.821 53.394C184.516 53.482 184.205 53.57 183.886 53.653C183.812 53.672 183.738 53.69 183.663 53.707C183.184 53.816 182.7 53.905 182.212 53.977C181.812 54.047 181.405 54.111 181.002 54.158C180.721 54.191 180.438 54.208 180.155 54.208H179.377C178.838 54.208 178.309 54.148 177.797 54.033C177.023 54.189 176.267 54.254 175.55 54.254C174.306 54.254 173.006 54.063 171.715 53.602C171.427 53.499 171.141 53.384 170.858 53.255C170.26 53.493 169.666 53.674 169.095 53.815C167.919 54.126 166.749 54.254 165.625 54.254C164.169 54.254 162.643 54.066 161.13 53.578C160.384 53.837 159.583 53.979 158.751 53.979H146.17C144.663 53.979 143.264 53.518 142.104 52.731C141.515 52.998 140.957 53.18 140.526 53.306C140.509 53.311 140.491 53.316 140.474 53.321C140.461 53.325 140.448 53.329 140.434 53.333C140.063 53.443 139.68 53.55 139.287 53.653C139.213 53.672 139.139 53.69 139.064 53.707C138.585 53.816 138.101 53.905 137.613 53.977C137.213 54.047 136.806 54.111 136.403 54.158C136.122 54.191 135.839 54.208 135.556 54.208H134.778C134.239 54.208 133.71 54.147 133.198 54.033C132.424 54.189 131.668 54.254 130.951 54.254C129.707 54.254 128.407 54.063 127.116 53.602C125.917 53.174 124.757 52.532 123.715 51.639C123.292 51.277 122.903 50.883 122.548 50.463C121.422 52.339 119.486 53.636 117.255 53.92L115.101 54.196C113.8 54.362 112.523 54.169 111.378 53.687C111.021 53.792 110.653 53.871 110.276 53.919L108.145 54.194C106.108 54.457 104.128 53.842 102.625 52.611C102.057 52.919 101.472 53.18 100.876 53.396L100.877 53.397C100.873 53.398 100.868 53.399 100.864 53.401C100.854 53.405 100.843 53.409 100.833 53.413L100.832 53.412C99.1627 54.018 97.4637 54.254 95.8347 54.254C94.1447 54.254 92.3317 54.02 90.5567 53.346C90.5177 53.331 90.4777 53.315 90.4387 53.3C90.2487 53.224 90.0587 53.142 89.8697 53.057C88.8237 53.643 87.6177 53.979 86.3327 53.979H79.6867C79.1327 53.979 78.5937 53.916 78.0757 53.798C77.5567 53.916 77.0177 53.979 76.4637 53.979H69.8187C68.9077 53.979 68.0355 53.81 67.2322 53.503C65.646 54.042 64.0369 54.254 62.4914 54.254C60.9984 54.254 59.4101 54.071 57.8361 53.564C57.0789 53.832 56.2638 53.979 55.4146 53.979H49.4569C49.2329 53.979 49.0111 53.968 48.7923 53.948C48.5734 53.968 48.3516 53.979 48.1276 53.979H42.3988C42.1631 53.979 41.9301 53.967 41.7001 53.945C41.4701 53.967 41.2371 53.979 41.0014 53.979H35.0433C34.1322 53.979 33.2605 53.81 32.4573 53.503C30.871 54.042 29.262 54.254 27.7164 54.254C26.0263 54.254 24.2137 54.02 22.4384 53.346C22.3993 53.331 22.3602 53.315 22.3213 53.3C22.179 53.243 22.0376 53.182 21.8963 53.12C20.877 53.668 19.7119 53.979 18.474 53.979H10.5913C6.5896 53.979 3.3454 50.735 3.3454 46.733V45.862C3.3454 44.635 3.656 43.459 4.2141 42.424C2.4144 41.417 1.0722 39.659 0.644699 37.522C0.538599 36.991 0.452999 36.421 0.380499 35.859C0.307099 35.29 0.2438 34.711 0.1903 34.121C0.1385 33.551 0.0947992 32.987 0.0597992 32.428C0.0594992 32.423 0.0593 32.418 0.059 32.414C0.0231 31.821 0 31.238 0 30.692C0 28.126 1.3344 25.871 3.3471 24.584C3.3466 24.549 3.3454 24.513 3.3454 24.478V23.607C3.3454 22.38 3.656 21.204 4.2141 20.169C2.4144 19.162 1.0722 17.403 0.644699 15.266C0.538599 14.736 0.452999 14.166 0.380499 13.604C0.307099 13.035 0.2438 12.455 0.1903 11.866C0.1385 11.296 0.0947992 10.731 0.0597992 10.172C0.0594992 10.168 0.0593 10.163 0.059 10.159C0.0231 9.566 0 8.98201 0 8.43701C0.0001 4.43501 3.2441 1.19101 7.2459 1.19101H21.8199C24.7817 1.19101 27.3277 2.96898 28.4513 5.51498C29.9185 5.57598 31.4699 5.829 32.9953 6.414C33.0493 6.434 33.1034 6.45501 33.1573 6.47601C33.5117 6.61401 33.8638 6.76699 34.2116 6.93799C34.5961 4.50499 36.2019 2.40101 38.5138 1.41101C39.355 1.05001 40.1702 0.848006 40.7608 0.725006C40.7797 0.721006 40.7988 0.717013 40.8177 0.713013C41.2872 0.620013 41.7638 0.536989 42.2464 0.463989C42.6822 0.383989 43.1143 0.309988 43.5429 0.243988L44.0248 0.167999C44.1622 0.145999 44.277 0.125985 44.3709 0.109985L44.5271 0.0839844C44.892 0.0279844 45.2607 0 45.63 0H46.409ZM27.7164 35C26.7692 35 25.9214 35.138 25.1728 35.413C24.4243 35.688 23.7826 36.085 23.248 36.604C22.7286 37.124 22.3237 37.758 22.0335 38.506C21.7585 39.24 21.621 40.072 21.621 41.004C21.621 41.875 21.7432 42.685 21.9876 43.433C22.2321 44.166 22.6063 44.8 23.1105 45.335C23.6146 45.854 24.2486 46.267 25.0124 46.572C25.7762 46.863 26.6775 47.008 27.7164 47.008C28.6635 47.008 29.5114 46.87 30.2599 46.595C31.0237 46.32 31.6653 45.923 32.1847 45.404C32.7194 44.884 33.1243 44.258 33.3992 43.525C33.6742 42.776 33.8117 41.936 33.8117 41.004C33.8117 40.133 33.6971 39.331 33.468 38.598C33.2532 37.896 32.9175 37.295 32.461 36.795L32.2749 36.597C31.7996 36.11 31.1966 35.731 30.4661 35.459C29.7023 35.153 28.7857 35 27.7164 35ZM62.4914 35C61.5443 35 60.6964 35.138 59.9479 35.413C59.1993 35.688 58.5577 36.085 58.023 36.604C57.5036 37.124 57.0988 37.758 56.8086 38.506C56.5336 39.24 56.3961 40.072 56.3961 41.004C56.3961 41.875 56.5183 42.685 56.7627 43.433C57.0072 44.166 57.3814 44.8 57.8856 45.335C58.3897 45.854 59.0237 46.267 59.7875 46.572C60.5513 46.863 61.4526 47.008 62.4914 47.008C63.4386 47.008 64.2864 46.87 65.035 46.595C65.7988 46.32 66.4404 45.923 66.9598 45.404C67.4945 44.884 67.8993 44.258 68.1743 43.525C68.4493 42.776 68.5867 41.936 68.5867 41.004C68.5867 40.133 68.4722 39.331 68.2431 38.598C68.0139 37.849 67.6473 37.215 67.1432 36.696C66.6543 36.161 66.0203 35.749 65.2412 35.459C64.4774 35.153 63.5608 35 62.4914 35ZM95.8347 35C94.8877 35 94.0397 35.138 93.2907 35.413C92.5427 35.688 91.9007 36.085 91.3657 36.604C90.8467 37.124 90.4417 37.758 90.1517 38.506C89.8767 39.24 89.7387 40.072 89.7387 41.004C89.7387 41.875 89.8617 42.685 90.1057 43.433C90.3497 44.166 90.7247 44.8 91.2287 45.335C91.7327 45.854 92.3667 46.267 93.1307 46.572C93.8947 46.863 94.7957 47.008 95.8347 47.008C96.7817 47.008 97.6297 46.87 98.3777 46.595C99.1417 46.32 99.7837 45.923 100.303 45.404C100.838 44.884 101.243 44.258 101.518 43.525C101.793 42.776 101.93 41.936 101.93 41.004C101.93 40.133 101.815 39.331 101.586 38.598C101.371 37.896 101.036 37.295 100.579 36.795L100.393 36.597C99.9177 36.11 99.3147 35.731 98.5837 35.459C97.8207 35.153 96.9037 35 95.8347 35ZM102.405 35.275V36.169C102.589 36.291 102.78 36.398 102.978 36.49C103.192 36.566 103.406 36.643 103.62 36.719L107.218 47.008L109.349 46.733L111.182 41.348L111.709 39.446H111.778L112.213 41.348L114.184 47.008L116.338 46.733L119.523 36.719C120.073 36.566 120.508 36.383 120.829 36.169V35.275H116.406V36.169C116.636 36.322 116.857 36.444 117.071 36.536C117.3 36.627 117.499 36.688 117.667 36.719L116.292 42.562L115.925 44.35H115.879L115.398 42.539L112.786 35.275L111.663 35.413L109.234 42.516L108.822 44.35H108.776L108.478 42.585L106.897 36.719C107.126 36.658 107.347 36.582 107.561 36.49C107.775 36.383 107.989 36.268 108.203 36.146V35.275H102.405ZM133.403 35C132.379 35 131.409 35.115 130.492 35.344C129.576 35.573 128.827 35.886 128.247 36.284C128.277 36.543 128.323 36.811 128.384 37.086C128.461 37.361 128.545 37.636 128.636 37.911C128.743 38.17 128.85 38.422 128.957 38.667C129.079 38.896 129.202 39.102 129.324 39.285H130.332L131.409 36.536C131.806 36.383 132.242 36.307 132.715 36.307C133.479 36.307 133.976 36.612 134.205 37.223C134.434 37.834 134.487 38.797 134.365 40.11C133.112 40.172 132.043 40.271 131.157 40.408C130.286 40.546 129.568 40.76 129.003 41.05L128.902 41.103C128.403 41.37 128.032 41.712 127.789 42.127C127.529 42.57 127.399 43.135 127.399 43.823C127.399 44.311 127.491 44.754 127.674 45.152C127.857 45.534 128.109 45.862 128.43 46.137C128.751 46.412 129.125 46.626 129.553 46.779C129.981 46.931 130.447 47.008 130.951 47.008C131.424 47.008 131.852 46.939 132.234 46.802C132.616 46.664 132.944 46.488 133.219 46.274C133.51 46.045 133.746 45.793 133.93 45.518C134.113 45.228 134.243 44.93 134.319 44.625H134.434C134.449 45.129 134.472 45.557 134.503 45.908C134.533 46.259 134.625 46.611 134.778 46.962H135.557C135.816 46.931 136.114 46.886 136.45 46.824C136.786 46.779 137.123 46.718 137.459 46.641C137.81 46.549 138.138 46.458 138.444 46.366C138.765 46.274 139.017 46.183 139.2 46.091V45.289L137.619 45.06C137.588 44.785 137.566 44.525 137.55 44.281V43.41C137.55 42.631 137.566 41.875 137.596 41.142C137.642 40.393 137.665 39.56 137.665 38.644C137.665 38.14 137.604 37.666 137.482 37.223C137.359 36.78 137.138 36.398 136.817 36.077C136.511 35.741 136.084 35.482 135.534 35.298C134.984 35.1 134.273 35 133.403 35ZM165.579 35C163.761 35 162.341 35.512 161.317 36.536C160.294 37.559 159.782 39.049 159.782 41.004C159.782 41.921 159.904 42.746 160.148 43.479C160.408 44.212 160.782 44.846 161.271 45.381C161.76 45.9 162.371 46.305 163.104 46.595C163.838 46.87 164.678 47.008 165.625 47.008C166.221 47.008 166.771 46.939 167.275 46.802C167.794 46.679 168.245 46.519 168.627 46.32C169.024 46.106 169.353 45.87 169.612 45.61C169.887 45.335 170.086 45.068 170.208 44.808L169.773 44.35C169.467 44.594 169.039 44.793 168.489 44.945C167.955 45.098 167.435 45.175 166.931 45.175C165.755 45.175 164.861 44.816 164.25 44.098C163.654 43.38 163.349 42.417 163.334 41.21H170.368C170.567 40.065 170.575 39.095 170.391 38.3C170.223 37.506 169.91 36.864 169.452 36.375C169.009 35.886 168.444 35.535 167.756 35.321C167.084 35.107 166.358 35 165.579 35ZM178.002 35C176.978 35 176.008 35.115 175.091 35.344C174.175 35.573 173.426 35.886 172.846 36.284C172.876 36.543 172.922 36.811 172.983 37.086C173.06 37.361 173.144 37.636 173.235 37.911C173.342 38.17 173.449 38.422 173.556 38.667C173.678 38.896 173.801 39.102 173.923 39.285H174.931L176.008 36.536C176.405 36.383 176.841 36.307 177.314 36.307C178.078 36.307 178.574 36.612 178.804 37.223C179.033 37.834 179.086 38.797 178.964 40.11C177.711 40.172 176.642 40.271 175.756 40.408C174.885 40.546 174.167 40.76 173.602 41.05C173.052 41.325 172.647 41.684 172.387 42.127C172.128 42.57 171.998 43.135 171.998 43.823C171.998 44.311 172.09 44.754 172.273 45.152C172.456 45.534 172.708 45.862 173.029 46.137C173.35 46.412 173.724 46.626 174.152 46.779C174.58 46.931 175.046 47.008 175.55 47.008C176.023 47.008 176.451 46.939 176.833 46.802C177.215 46.664 177.543 46.488 177.818 46.274C178.109 46.045 178.345 45.793 178.529 45.518C178.712 45.228 178.842 44.93 178.918 44.625H179.033C179.048 45.129 179.071 45.557 179.102 45.908C179.132 46.259 179.224 46.611 179.376 46.962H180.156C180.415 46.931 180.713 46.886 181.049 46.824C181.385 46.779 181.721 46.718 182.058 46.641C182.409 46.549 182.737 46.458 183.043 46.366C183.364 46.274 183.616 46.183 183.799 46.091V45.289L182.218 45.06C182.187 44.785 182.164 44.525 182.149 44.281V43.41C182.149 42.631 182.164 41.875 182.195 41.142C182.241 40.393 182.264 39.56 182.264 38.644C182.264 38.14 182.203 37.666 182.08 37.223C181.958 36.78 181.737 36.398 181.416 36.077C181.11 35.741 180.683 35.482 180.133 35.298C179.583 35.1 178.872 35 178.002 35ZM195.248 29.501C194.989 29.547 194.66 29.6 194.263 29.661C193.866 29.722 193.461 29.791 193.048 29.867C192.636 29.929 192.239 29.997 191.857 30.074C191.49 30.15 191.2 30.234 190.986 30.326V31.219L192.728 31.403V35.436C192.544 35.375 192.376 35.321 192.224 35.275C192.086 35.214 191.933 35.176 191.765 35.161C191.612 35.13 191.437 35.107 191.238 35.092C191.055 35.077 190.826 35.069 190.551 35.069C189.695 35.069 188.916 35.199 188.213 35.459C187.511 35.718 186.907 36.108 186.403 36.627C185.914 37.147 185.532 37.788 185.257 38.552C184.982 39.301 184.845 40.179 184.845 41.187C184.845 43.158 185.234 44.625 186.014 45.587C186.808 46.534 187.961 47.008 189.474 47.008C189.871 47.008 190.245 46.939 190.597 46.802C190.948 46.664 191.261 46.481 191.536 46.252C191.811 46.007 192.048 45.732 192.246 45.427C192.445 45.121 192.583 44.8 192.659 44.464H192.751L192.957 46.962H193.736C193.965 46.931 194.248 46.886 194.584 46.824C194.935 46.779 195.294 46.718 195.661 46.641C196.027 46.565 196.379 46.481 196.715 46.389C197.051 46.297 197.326 46.198 197.54 46.091V45.289L196.027 45.106V29.501H195.248ZM204.36 35C202.542 35 201.121 35.512 200.098 36.536C199.074 37.559 198.563 39.049 198.563 41.004C198.563 41.921 198.685 42.746 198.929 43.479C199.189 44.212 199.563 44.846 200.052 45.381C200.541 45.9 201.152 46.305 201.885 46.595C202.618 46.87 203.459 47.008 204.406 47.008C205.002 47.008 205.552 46.939 206.056 46.802C206.575 46.679 207.026 46.519 207.408 46.32C207.805 46.106 208.133 45.87 208.393 45.61C208.668 45.335 208.867 45.068 208.989 44.808L208.553 44.35C208.248 44.594 207.82 44.793 207.27 44.945C206.735 45.098 206.216 45.175 205.712 45.175C204.536 45.175 203.642 44.816 203.031 44.098C202.435 43.38 202.13 42.417 202.114 41.21H209.149C209.348 40.065 209.355 39.095 209.172 38.3C209.004 37.506 208.691 36.864 208.233 36.375C207.79 35.886 207.224 35.535 206.537 35.321C205.865 35.107 205.139 35 204.36 35ZM7.2459 30.692C7.2459 31.044 7.2611 31.471 7.2917 31.976C7.3222 32.464 7.3604 32.961 7.4063 33.465C7.4521 33.969 7.5056 34.458 7.5667 34.932C7.6278 35.405 7.6889 35.795 7.75 36.1H8.6895L10.1561 32.182H12.8142V45.197C12.417 45.259 12.0198 45.358 11.6226 45.495C11.2407 45.618 10.897 45.74 10.5914 45.862V46.733H18.4741V45.862C18.1686 45.709 17.8173 45.579 17.4201 45.472C17.0381 45.366 16.6486 45.274 16.2514 45.197V32.182H18.9095L20.3761 36.1H21.3156C21.3767 35.779 21.4378 35.39 21.4989 34.932C21.56 34.458 21.6135 33.969 21.6593 33.465C21.7051 32.961 21.7433 32.464 21.7739 31.976C21.8044 31.487 21.8197 31.059 21.8197 30.692H7.2459ZM39.0764 35C38.832 35.031 38.5264 35.069 38.1598 35.115C37.8084 35.161 37.4418 35.222 37.0599 35.298C36.678 35.359 36.3037 35.436 35.9371 35.527C35.5857 35.619 35.2878 35.718 35.0434 35.825V36.719L36.5558 36.902V45.289C36.2808 45.366 36.0134 45.45 35.7537 45.541C35.494 45.633 35.2573 45.732 35.0434 45.839V46.733H41.0012V45.839C40.6499 45.595 40.268 45.411 39.8555 45.289V38.873C40.0235 38.262 40.2832 37.773 40.6346 37.406C41.0012 37.025 41.429 36.834 41.9178 36.834C42.2539 36.834 42.5289 36.91 42.7428 37.063C42.9566 37.2 43.1247 37.429 43.2469 37.75C43.3691 38.056 43.4455 38.453 43.4761 38.942C43.5219 39.431 43.5448 40.026 43.5448 40.729V45.289C43.3156 45.366 43.1018 45.457 42.9032 45.564C42.7199 45.656 42.5518 45.747 42.3991 45.839V46.733H48.1278V45.839C47.9444 45.732 47.7459 45.633 47.532 45.541C47.3334 45.45 47.1042 45.366 46.8445 45.289V39.102C46.9973 38.415 47.2264 37.865 47.532 37.452C47.8528 37.04 48.2882 36.834 48.8381 36.834C49.5714 36.834 50.045 37.116 50.2588 37.681C50.488 38.247 50.6026 39.125 50.6026 40.317V45.289C50.1901 45.427 49.8082 45.61 49.4568 45.839V46.733H55.4147V45.839C54.9258 45.564 54.4217 45.381 53.9023 45.289V39.858C53.9023 38.896 53.8259 38.102 53.6732 37.475C53.5204 36.849 53.2912 36.352 52.9857 35.986C52.6955 35.619 52.3288 35.367 51.8858 35.23C51.4581 35.077 50.9616 35 50.3963 35C49.4797 35 48.7006 35.26 48.059 35.779C47.4174 36.299 46.9591 36.979 46.6841 37.819C46.5925 37.238 46.4397 36.765 46.2258 36.398C46.012 36.032 45.7523 35.749 45.4467 35.55C45.1565 35.336 44.8357 35.191 44.4843 35.115C44.1329 35.039 43.7739 35 43.4073 35C42.5365 35 41.788 35.252 41.1616 35.757C40.5506 36.261 40.1228 36.872 39.8784 37.59H39.8555V35H39.0764ZM78.3427 35C77.9307 34.985 77.5327 35.069 77.1517 35.252C76.7697 35.436 76.4177 35.68 76.0967 35.986C75.7767 36.291 75.4937 36.627 75.2497 36.994C75.0197 37.361 74.8447 37.712 74.7227 38.048H74.6307V35H73.8517C73.6067 35.031 73.3017 35.069 72.9347 35.115C72.5837 35.161 72.2167 35.222 71.8347 35.298C71.4527 35.359 71.0787 35.436 70.7117 35.527C70.3607 35.619 70.0627 35.718 69.8187 35.825V36.719L71.3307 36.902V45.289C71.0867 45.35 70.8417 45.419 70.5977 45.495C70.3527 45.572 70.0937 45.686 69.8187 45.839V46.733H76.4637V45.839C76.1587 45.671 75.8527 45.549 75.5467 45.472C75.2417 45.381 74.9357 45.32 74.6307 45.289V39.423C74.8287 38.934 75.0507 38.583 75.2947 38.369C75.5397 38.155 75.7537 38.002 75.9367 37.911H79.0757V37.017C78.9997 36.666 78.9007 36.299 78.7777 35.917C78.6557 35.52 78.5107 35.214 78.3427 35ZM88.2117 35C87.7987 34.985 87.4017 35.069 87.0197 35.252C86.6377 35.436 86.2867 35.68 85.9657 35.986C85.6447 36.291 85.3627 36.627 85.1177 36.994C84.8887 37.361 84.7127 37.712 84.5907 38.048H84.4987V35H83.7197C83.4757 35.031 83.1697 35.069 82.8037 35.115C82.4517 35.161 82.0857 35.222 81.7037 35.298C81.3217 35.359 80.9477 35.436 80.5807 35.527C80.2297 35.619 79.9317 35.718 79.6867 35.825V36.719L81.1997 36.902V45.289C80.9547 45.35 80.7107 45.419 80.4657 45.495C80.2217 45.572 79.9617 45.686 79.6867 45.839V46.733H86.3327V45.839C86.0267 45.671 85.7217 45.549 85.4157 45.472C85.1107 45.381 84.8047 45.32 84.4987 45.289V39.423C84.6977 38.934 84.9197 38.583 85.1637 38.369C85.4077 38.155 85.6217 38.002 85.8057 37.911H88.9447V37.017C88.8687 36.666 88.7687 36.299 88.6467 35.917C88.5247 35.52 88.3797 35.214 88.2117 35ZM146.17 30.692V31.563C146.674 31.884 147.301 32.105 148.049 32.228V45.197C147.774 45.243 147.476 45.32 147.156 45.427C146.85 45.534 146.522 45.679 146.17 45.862V46.733H158.75C158.766 46.351 158.766 45.908 158.75 45.404C158.735 44.9 158.712 44.388 158.682 43.868C158.651 43.349 158.605 42.853 158.544 42.379C158.498 41.905 158.445 41.493 158.384 41.142H157.444L155.909 45.243H151.486V32.228C151.853 32.182 152.227 32.105 152.609 31.999C153.006 31.876 153.365 31.731 153.686 31.563V30.692H146.17ZM219.211 35C218.799 34.985 218.402 35.069 218.02 35.252C217.638 35.436 217.286 35.68 216.966 35.986C216.645 36.291 216.362 36.627 216.118 36.994C215.889 37.361 215.713 37.712 215.591 38.048H215.499V35H214.72C214.476 35.031 214.17 35.069 213.803 35.115C213.452 35.161 213.085 35.222 212.703 35.298C212.322 35.359 211.947 35.436 211.581 35.527C211.229 35.619 210.931 35.718 210.687 35.825V36.719L212.199 36.902V45.289C211.955 45.35 211.71 45.419 211.466 45.495C211.222 45.572 210.962 45.686 210.687 45.839V46.733H217.332V45.839C217.027 45.671 216.721 45.549 216.416 45.472C216.11 45.381 215.805 45.32 215.499 45.289V39.423C215.698 38.934 215.919 38.583 216.164 38.369C216.408 38.155 216.622 38.002 216.805 37.911H219.945V37.017C219.868 36.666 219.769 36.299 219.647 35.917C219.524 35.52 219.379 35.214 219.211 35ZM27.533 36.398C28.0677 36.398 28.5107 36.513 28.8621 36.742C29.2135 36.956 29.4884 37.261 29.687 37.659C29.9009 38.056 30.046 38.537 30.1224 39.102C30.2141 39.667 30.2599 40.301 30.2599 41.004C30.2599 41.86 30.2064 42.585 30.0995 43.181C30.0078 43.761 29.8627 44.235 29.6641 44.602C29.4655 44.953 29.2287 45.213 28.9538 45.381C28.6788 45.534 28.3732 45.61 28.0372 45.61C27.4566 45.61 26.9831 45.503 26.6164 45.289C26.2498 45.06 25.9595 44.747 25.7457 44.35C25.5318 43.952 25.379 43.471 25.2874 42.906C25.211 42.326 25.1728 41.692 25.1728 41.004C25.1728 40.149 25.2186 39.431 25.3103 38.85C25.4172 38.254 25.57 37.781 25.7686 37.429C25.9672 37.063 26.2116 36.803 26.5019 36.65C26.7921 36.482 27.1358 36.398 27.533 36.398ZM62.3081 36.398C62.8428 36.398 63.2858 36.513 63.6372 36.742C63.9885 36.956 64.2635 37.261 64.4621 37.659C64.676 38.056 64.8211 38.537 64.8975 39.102C64.9892 39.667 65.035 40.301 65.035 41.004C65.035 41.86 64.9815 42.585 64.8746 43.181C64.7829 43.761 64.6378 44.235 64.4392 44.602C64.2406 44.953 64.0038 45.213 63.7288 45.381C63.4539 45.534 63.1483 45.61 62.8123 45.61C62.2317 45.61 61.7582 45.503 61.3915 45.289C61.0249 45.06 60.7346 44.747 60.5208 44.35C60.3069 43.952 60.1541 43.471 60.0625 42.906C59.9861 42.326 59.9479 41.692 59.9479 41.004C59.9479 40.149 59.9937 39.431 60.0854 38.85C60.1923 38.254 60.3451 37.781 60.5437 37.429C60.7423 37.063 60.9867 36.803 61.277 36.65C61.5672 36.482 61.9109 36.398 62.3081 36.398ZM134.365 43.479C134.319 43.632 134.251 43.807 134.159 44.006C134.082 44.205 133.96 44.388 133.792 44.556C133.639 44.724 133.449 44.869 133.219 44.991C132.99 45.113 132.715 45.175 132.394 45.175C131.906 45.175 131.524 45.014 131.249 44.693C130.974 44.373 130.836 43.922 130.836 43.341C130.836 42.959 130.882 42.639 130.974 42.379C131.081 42.104 131.264 41.882 131.524 41.714C131.783 41.531 132.142 41.401 132.601 41.325C133.059 41.249 133.647 41.203 134.365 41.187V43.479ZM178.964 43.479C178.918 43.632 178.849 43.807 178.758 44.006C178.681 44.205 178.559 44.388 178.391 44.556C178.238 44.724 178.047 44.869 177.818 44.991C177.589 45.113 177.314 45.175 176.993 45.175C176.505 45.175 176.123 45.014 175.848 44.693C175.573 44.373 175.435 43.922 175.435 43.341C175.435 42.959 175.481 42.639 175.573 42.379C175.68 42.104 175.863 41.882 176.123 41.714C176.382 41.531 176.741 41.401 177.2 41.325C177.658 41.249 178.246 41.203 178.964 41.187V43.479ZM190.872 36.375C191.315 36.375 191.681 36.413 191.971 36.49C192.277 36.566 192.529 36.666 192.728 36.788V42.952C192.56 43.761 192.292 44.334 191.926 44.67C191.559 45.007 191.108 45.175 190.574 45.175C189.795 45.175 189.237 44.8 188.901 44.052C188.565 43.303 188.397 42.31 188.397 41.073C188.397 39.545 188.588 38.384 188.97 37.59C189.352 36.78 189.986 36.375 190.872 36.375ZM98.3757 41.319C98.3637 42.039 98.3107 42.66 98.2177 43.181C98.1257 43.761 97.9807 44.235 97.7817 44.602C97.5837 44.953 97.3467 45.213 97.0717 45.381C96.7967 45.534 96.4917 45.61 96.1547 45.61C95.5747 45.61 95.1007 45.503 94.7347 45.289C94.3677 45.06 94.0777 44.747 93.8637 44.35C93.6497 43.952 93.4967 43.471 93.4057 42.906C93.3287 42.326 93.2907 41.692 93.2907 41.004C93.2907 40.149 93.3367 39.431 93.4287 38.85C93.5357 38.254 93.6877 37.781 93.8867 37.429C94.0847 37.063 94.3297 36.803 94.6197 36.65C94.9097 36.482 95.2537 36.398 95.6507 36.398C96.1857 36.398 96.6287 36.513 96.9797 36.742C97.3317 36.956 97.6067 37.261 97.8047 37.659C98.0187 38.056 98.1637 38.537 98.2407 39.102C98.3317 39.667 98.3777 40.301 98.3777 41.004L98.3757 41.319ZM165.488 36.307C166.175 36.307 166.641 36.627 166.885 37.269C167.13 37.911 167.199 38.827 167.092 40.019H163.402C163.448 39.285 163.525 38.682 163.632 38.208C163.738 37.72 163.876 37.338 164.044 37.063C164.227 36.772 164.434 36.574 164.663 36.467C164.907 36.36 165.182 36.307 165.488 36.307ZM204.268 36.307C204.956 36.307 205.422 36.627 205.666 37.269C205.911 37.911 205.979 38.827 205.872 40.019H202.183C202.229 39.285 202.305 38.682 202.412 38.208C202.519 37.72 202.657 37.338 202.825 37.063C203.008 36.772 203.214 36.574 203.443 36.467C203.688 36.36 203.963 36.307 204.268 36.307ZM60.6455 13.02V13.914C60.8441 14.036 61.0351 14.143 61.2184 14.235C61.417 14.326 61.6309 14.403 61.86 14.464L66.718 24.478C66.5805 24.966 66.4583 25.333 66.3513 25.578C66.2597 25.822 66.1451 26.051 66.0076 26.265H63.212L62.9141 26.815C62.9294 27.029 62.9676 27.258 63.0287 27.502C63.0898 27.747 63.1662 27.984 63.2578 28.213C63.3495 28.457 63.4564 28.679 63.5786 28.877C63.7009 29.091 63.8383 29.267 63.9911 29.404C64.3577 29.359 64.7244 29.259 65.091 29.106C65.4577 28.969 65.8243 28.717 66.1909 28.35C66.5576 27.984 66.9242 27.487 67.2909 26.861C67.6575 26.25 68.0241 25.455 68.3908 24.478L72.1257 14.464C72.6757 14.311 73.1117 14.128 73.4317 13.914V13.02H69.0097V13.914C69.3917 14.189 69.8117 14.372 70.2697 14.464L68.4824 20.193L68.1158 21.682H68.07L67.6804 20.215L65.366 14.464C65.916 14.296 66.3513 14.105 66.6722 13.891V13.02H60.6455ZM177.087 20.972C176.858 21.017 176.637 21.14 176.423 21.338C176.224 21.522 176.048 21.751 175.896 22.026C175.743 22.301 175.636 22.599 175.575 22.919C175.529 23.24 175.544 23.561 175.621 23.882C175.957 23.989 176.27 24.126 176.56 24.294C176.866 24.462 177.125 24.684 177.339 24.959C177.355 25.203 177.316 25.455 177.225 25.715C177.133 25.975 176.996 26.219 176.812 26.448C176.644 26.677 176.438 26.884 176.193 27.067C175.949 27.25 175.674 27.388 175.369 27.479L175.896 28.488C176.446 28.366 176.95 28.144 177.408 27.823C177.866 27.518 178.256 27.151 178.577 26.723C178.913 26.311 179.172 25.86 179.356 25.371C179.554 24.882 179.654 24.401 179.654 23.928C179.654 23.439 179.577 23.011 179.424 22.644C179.287 22.278 179.096 21.98 178.852 21.751C178.607 21.506 178.332 21.323 178.027 21.201C177.721 21.063 177.408 20.987 177.087 20.972ZM27.7164 12.745C26.7692 12.745 25.9214 12.883 25.1728 13.158C24.4243 13.433 23.7826 13.83 23.248 14.349C22.7286 14.869 22.3237 15.503 22.0335 16.251C21.7585 16.984 21.621 17.817 21.621 18.749C21.621 19.62 21.7432 20.429 21.9876 21.178C22.2321 21.911 22.6063 22.545 23.1105 23.08C23.6146 23.599 24.2486 24.012 25.0124 24.317C25.7762 24.607 26.6775 24.753 27.7164 24.753C28.6635 24.753 29.5114 24.615 30.2599 24.34C31.0237 24.065 31.6653 23.668 32.1847 23.149C32.7194 22.629 33.1243 22.003 33.3992 21.27C33.6742 20.521 33.8117 19.681 33.8117 18.749C33.8117 17.878 33.6971 17.076 33.468 16.343C33.2532 15.641 32.9175 15.04 32.461 14.54L32.2749 14.342C31.7996 13.855 31.1965 13.476 30.4661 13.204C29.7023 12.898 28.7857 12.745 27.7164 12.745ZM45.63 7.246C45.3703 7.291 45.0419 7.34501 44.6447 7.40601C44.2475 7.46701 43.8427 7.536 43.4302 7.612C43.0177 7.673 42.6206 7.742 42.2386 7.819C41.872 7.895 41.5818 7.97901 41.3679 8.07101V8.96399L43.1094 9.14801V13.181C42.9261 13.12 42.758 13.066 42.6053 13.02C42.4678 12.959 42.315 12.921 42.147 12.906C41.9942 12.875 41.8185 12.852 41.6199 12.837C41.4366 12.822 41.2075 12.814 40.9325 12.814C40.077 12.814 39.2979 12.944 38.5952 13.204C37.8925 13.463 37.289 13.853 36.7849 14.372C36.2961 14.892 35.9141 15.533 35.6392 16.297C35.3642 17.046 35.2267 17.924 35.2267 18.932C35.2267 20.903 35.6163 22.369 36.3954 23.332C37.1897 24.279 38.3431 24.753 39.8555 24.753C40.2527 24.753 40.627 24.684 40.9783 24.546C41.3297 24.409 41.6429 24.226 41.9178 23.996C42.1928 23.752 42.4296 23.477 42.6282 23.171C42.8268 22.866 42.9643 22.545 43.0407 22.209H43.1323L43.3386 24.707H44.1177C44.3468 24.676 44.6294 24.63 44.9655 24.569C45.3169 24.523 45.6759 24.462 46.0425 24.386C46.4091 24.31 46.7605 24.226 47.0966 24.134C47.4327 24.042 47.7077 23.943 47.9215 23.836V23.034L46.4092 22.851V7.246H45.63ZM54.8563 12.745C53.8328 12.745 52.8627 12.86 51.9461 13.089C51.0295 13.318 50.281 13.631 49.7005 14.028C49.731 14.288 49.7769 14.555 49.838 14.83C49.9143 15.105 49.9984 15.38 50.09 15.655C50.197 15.915 50.3039 16.167 50.4108 16.412C50.533 16.641 50.6553 16.847 50.7775 17.03H51.7857L52.8627 14.281C53.2599 14.128 53.6953 14.051 54.1689 14.051C54.9327 14.051 55.4292 14.357 55.6583 14.968C55.8875 15.579 55.941 16.541 55.8187 17.855C54.5661 17.916 53.4967 18.016 52.6107 18.153C51.7399 18.291 51.0219 18.504 50.4567 18.795C49.9067 19.07 49.5019 19.429 49.2422 19.872C48.9825 20.315 48.8526 20.88 48.8526 21.567C48.8526 22.056 48.9443 22.499 49.1276 22.897C49.3109 23.278 49.563 23.607 49.8838 23.882C50.2046 24.157 50.5789 24.371 51.0066 24.523C51.4344 24.676 51.9003 24.753 52.4044 24.753C52.878 24.753 53.3057 24.684 53.6877 24.546C54.0696 24.409 54.398 24.233 54.673 24.019C54.9633 23.79 55.2 23.538 55.3834 23.263C55.5667 22.973 55.6965 22.675 55.7729 22.369H55.8875C55.9028 22.874 55.9257 23.301 55.9562 23.653C55.9868 24.004 56.0784 24.355 56.2312 24.707H57.0103C57.27 24.676 57.5679 24.63 57.904 24.569C58.2401 24.523 58.5762 24.462 58.9122 24.386C59.2636 24.294 59.5921 24.203 59.8976 24.111C60.2184 24.019 60.4705 23.928 60.6538 23.836V23.034L59.0727 22.805C59.0421 22.53 59.0192 22.27 59.0039 22.026V21.155C59.0039 20.376 59.0192 19.62 59.0497 18.886C59.0956 18.138 59.1185 17.305 59.1185 16.389C59.1185 15.885 59.0574 15.411 58.9352 14.968C58.8129 14.525 58.5914 14.143 58.2706 13.822C57.9651 13.486 57.5374 13.226 56.9874 13.043C56.4374 12.845 55.7271 12.745 54.8563 12.745ZM85.8947 12.745C84.8707 12.745 83.9007 12.86 82.9837 13.089C82.0677 13.318 81.3187 13.631 80.7387 14.028C80.7687 14.288 80.8147 14.555 80.8757 14.83C80.9527 15.105 81.0367 15.38 81.1277 15.655C81.2347 15.915 81.3417 16.167 81.4487 16.412C81.5707 16.641 81.6937 16.847 81.8157 17.03H82.8237L83.9007 14.281C84.2977 14.128 84.7337 14.051 85.2067 14.051C85.9707 14.051 86.4667 14.357 86.6967 14.968C86.9257 15.579 86.9787 16.541 86.8567 17.855C85.6037 17.916 84.5347 18.016 83.6487 18.153C82.7777 18.291 82.0597 18.504 81.4947 18.795C80.9447 19.07 80.5397 19.429 80.2797 19.872C80.0207 20.315 79.8907 20.88 79.8907 21.567C79.8907 22.056 79.9827 22.499 80.1657 22.897C80.3487 23.278 80.6007 23.607 80.9217 23.882C81.2427 24.157 81.6167 24.371 82.0447 24.523C82.4727 24.676 82.9387 24.753 83.4427 24.753C83.9157 24.753 84.3437 24.684 84.7257 24.546C85.1077 24.409 85.4357 24.233 85.7107 24.019C86.0017 23.79 86.2377 23.538 86.4217 23.263C86.6047 22.973 86.7347 22.675 86.8107 22.369H86.9257C86.9407 22.874 86.9637 23.301 86.9947 23.653C87.0247 24.004 87.1167 24.355 87.2697 24.707H88.0487C88.3077 24.676 88.6057 24.63 88.9417 24.569C89.2777 24.523 89.6137 24.462 89.9507 24.386C90.3017 24.294 90.6297 24.203 90.9357 24.111C91.2567 24.019 91.5087 23.928 91.6917 23.836V23.034L90.1107 22.805C90.0797 22.53 90.0567 22.27 90.0417 22.026V21.155C90.0417 20.376 90.0567 19.62 90.0877 18.886C90.1337 18.138 90.1567 17.305 90.1567 16.389C90.1567 15.885 90.0957 15.411 89.9727 14.968C89.8507 14.525 89.6297 14.143 89.3087 13.822C89.0027 13.486 88.5757 13.226 88.0257 13.043C87.4757 12.845 86.7647 12.745 85.8947 12.745ZM120.689 12.745C118.871 12.745 117.451 13.257 116.427 14.281C115.404 15.304 114.892 16.794 114.892 18.749C114.892 19.666 115.014 20.49 115.259 21.224C115.518 21.957 115.893 22.591 116.381 23.126C116.87 23.645 117.481 24.05 118.215 24.34C118.948 24.615 119.788 24.753 120.735 24.753C121.331 24.753 121.881 24.684 122.385 24.546C122.905 24.424 123.355 24.264 123.737 24.065C124.134 23.851 124.463 23.615 124.722 23.355C124.997 23.08 125.196 22.812 125.318 22.553L124.883 22.094C124.577 22.339 124.15 22.538 123.6 22.69C123.065 22.843 122.546 22.919 122.041 22.919C120.865 22.919 119.971 22.56 119.36 21.842C118.765 21.124 118.459 20.162 118.444 18.955H125.479C125.677 17.809 125.685 16.839 125.502 16.045C125.333 15.251 125.02 14.609 124.562 14.12C124.119 13.631 123.554 13.28 122.866 13.066C122.194 12.852 121.469 12.745 120.689 12.745ZM133.112 12.745C132.088 12.745 131.118 12.86 130.202 13.089C129.285 13.318 128.536 13.631 127.956 14.028C127.986 14.288 128.032 14.555 128.093 14.83C128.17 15.105 128.254 15.38 128.345 15.655C128.452 15.915 128.559 16.167 128.666 16.412C128.788 16.641 128.911 16.847 129.033 17.03H130.041L131.118 14.281C131.515 14.128 131.951 14.051 132.424 14.051C133.188 14.051 133.685 14.357 133.914 14.968C134.143 15.579 134.196 16.541 134.074 17.855C132.822 17.916 131.752 18.016 130.866 18.153C129.995 18.291 129.277 18.504 128.712 18.795C128.162 19.07 127.757 19.429 127.498 19.872C127.238 20.315 127.108 20.88 127.108 21.567C127.108 22.056 127.2 22.499 127.383 22.897C127.566 23.278 127.818 23.607 128.139 23.882C128.46 24.157 128.834 24.371 129.262 24.523C129.69 24.676 130.156 24.753 130.66 24.753C131.133 24.753 131.561 24.684 131.943 24.546C132.325 24.409 132.653 24.233 132.928 24.019C133.219 23.79 133.455 23.538 133.639 23.263C133.822 22.973 133.952 22.675 134.028 22.369H134.143C134.158 22.874 134.181 23.301 134.212 23.653C134.242 24.004 134.334 24.355 134.487 24.707H135.266C135.525 24.676 135.823 24.63 136.159 24.569C136.496 24.523 136.832 24.462 137.168 24.386C137.519 24.294 137.848 24.203 138.153 24.111C138.474 24.019 138.726 23.928 138.909 23.836V23.034L137.328 22.805C137.298 22.53 137.275 22.27 137.259 22.026V21.155C137.259 20.376 137.275 19.62 137.305 18.886C137.351 18.138 137.374 17.305 137.374 16.389C137.374 15.885 137.313 15.411 137.191 14.968C137.068 14.525 136.847 14.143 136.526 13.822C136.221 13.486 135.793 13.226 135.243 13.043C134.693 12.845 133.983 12.745 133.112 12.745ZM150.358 7.246C150.099 7.291 149.77 7.34501 149.373 7.40601C148.976 7.46701 148.571 7.536 148.159 7.612C147.746 7.673 147.349 7.742 146.967 7.819C146.6 7.895 146.31 7.97901 146.096 8.07101V8.96399L147.838 9.14801V13.181C147.654 13.12 147.486 13.066 147.334 13.02C147.196 12.959 147.043 12.921 146.875 12.906C146.723 12.875 146.547 12.852 146.348 12.837C146.165 12.822 145.936 12.814 145.661 12.814C144.805 12.814 144.026 12.944 143.324 13.204C142.621 13.463 142.017 13.853 141.513 14.372C141.024 14.892 140.643 15.533 140.368 16.297C140.093 17.046 139.955 17.924 139.955 18.932C139.955 20.903 140.345 22.369 141.124 23.332C141.918 24.279 143.071 24.753 144.584 24.753C144.981 24.753 145.355 24.684 145.707 24.546C146.058 24.409 146.371 24.226 146.646 23.996C146.921 23.752 147.158 23.477 147.357 23.171C147.555 22.866 147.693 22.545 147.769 22.209H147.861L148.067 24.707H148.846C149.075 24.676 149.358 24.63 149.694 24.569C150.045 24.523 150.404 24.462 150.771 24.386C151.138 24.31 151.489 24.226 151.825 24.134C152.161 24.042 152.436 23.943 152.65 23.836V23.034L151.138 22.851V7.246H150.358ZM159.47 12.745C157.652 12.745 156.231 13.257 155.208 14.281C154.184 15.304 153.673 16.794 153.673 18.749C153.673 19.666 153.795 20.49 154.039 21.224C154.299 21.957 154.673 22.591 155.162 23.126C155.651 23.645 156.262 24.05 156.995 24.34C157.729 24.615 158.569 24.753 159.516 24.753C160.112 24.753 160.662 24.684 161.166 24.546C161.685 24.424 162.136 24.264 162.518 24.065C162.915 23.851 163.243 23.615 163.503 23.355C163.778 23.08 163.977 22.812 164.099 22.553L163.664 22.094C163.358 22.339 162.93 22.538 162.38 22.69C161.846 22.843 161.326 22.919 160.822 22.919C159.646 22.919 158.752 22.56 158.141 21.842C157.545 21.124 157.24 20.162 157.224 18.955H164.259C164.458 17.809 164.466 16.839 164.282 16.045C164.114 15.251 163.801 14.609 163.343 14.12C162.9 13.631 162.334 13.28 161.647 13.066C160.975 12.852 160.249 12.745 159.47 12.745ZM7.2459 8.43701C7.2459 8.78901 7.2611 9.216 7.2917 9.72C7.3222 10.209 7.3604 10.706 7.4063 11.21C7.4521 11.714 7.5056 12.203 7.5667 12.676C7.6278 13.15 7.6889 13.54 7.75 13.845H8.6895L10.1561 9.927H12.8142V22.942C12.417 23.003 12.0198 23.103 11.6226 23.24C11.2407 23.362 10.897 23.485 10.5914 23.607V24.478H18.4741V23.607C18.1686 23.454 17.8173 23.324 17.4201 23.217C17.0381 23.11 16.6486 23.019 16.2514 22.942V9.927H18.9095L20.3761 13.845H21.3156C21.3767 13.524 21.4378 13.135 21.4989 12.676C21.56 12.203 21.6135 11.714 21.6593 11.21C21.7051 10.706 21.7433 10.209 21.7739 9.72C21.8044 9.232 21.8197 8.80401 21.8197 8.43701H7.2459ZM105.949 8.254C105.537 8.254 105.109 8.26899 104.666 8.29999C104.223 8.31499 103.787 8.33801 103.36 8.36801C102.932 8.38401 102.519 8.399 102.122 8.414C101.74 8.43 101.397 8.43701 101.091 8.43701H98.6617V9.30801C99.1507 9.58301 99.7767 9.80399 100.541 9.97299V22.942C100.236 23.003 99.9297 23.087 99.6247 23.194C99.3187 23.286 98.9977 23.424 98.6617 23.607V24.478H105.72V23.607C105.46 23.485 105.193 23.362 104.918 23.24C104.643 23.118 104.33 23.019 103.978 22.942V17.534H105.834C106.247 18.604 106.721 19.696 107.255 20.811C107.805 21.911 108.432 22.881 109.134 23.721L110.12 24.478H113.946V23.699L112.846 22.965C112.083 22.033 111.357 21.071 110.67 20.078C109.982 19.07 109.333 18.084 108.722 17.122C109.654 16.771 110.387 16.244 110.922 15.541C111.456 14.838 111.724 13.937 111.724 12.837C111.724 12.073 111.578 11.409 111.288 10.843C111.013 10.263 110.616 9.78199 110.097 9.39999C109.593 9.01799 108.981 8.735 108.263 8.552C107.561 8.353 106.789 8.254 105.949 8.254ZM174.321 12.745C173.909 12.73 173.512 12.814 173.13 12.997C172.748 13.181 172.397 13.425 172.076 13.731C171.755 14.036 171.472 14.372 171.228 14.739C170.999 15.105 170.823 15.457 170.701 15.793H170.609V12.745H169.83C169.586 12.776 169.28 12.814 168.914 12.86C168.562 12.906 168.196 12.967 167.814 13.043C167.432 13.104 167.057 13.181 166.691 13.272C166.339 13.364 166.042 13.463 165.797 13.57V14.464L167.31 14.647V23.034C167.065 23.095 166.821 23.164 166.576 23.24C166.332 23.317 166.072 23.431 165.797 23.584V24.478H172.442V23.584C172.137 23.416 171.831 23.294 171.526 23.217C171.22 23.126 170.915 23.065 170.609 23.034V17.168C170.808 16.679 171.029 16.328 171.274 16.114C171.518 15.9 171.732 15.747 171.915 15.655H175.055V14.762C174.978 14.41 174.879 14.044 174.757 13.662C174.635 13.265 174.489 12.959 174.321 12.745ZM41.2533 14.12C41.6963 14.12 42.063 14.158 42.3532 14.235C42.6588 14.311 42.9108 14.41 43.1094 14.533V20.697C42.9414 21.506 42.674 22.079 42.3074 22.415C41.9408 22.751 41.4901 22.919 40.9554 22.919C40.1763 22.919 39.6187 22.545 39.2826 21.797C38.9465 21.048 38.7785 20.055 38.7785 18.818C38.7785 17.29 38.9695 16.129 39.3514 15.335C39.7333 14.525 40.3673 14.12 41.2533 14.12ZM55.8187 21.224C55.7729 21.376 55.7042 21.552 55.6125 21.751C55.5361 21.949 55.4139 22.133 55.2459 22.301C55.0931 22.469 54.9021 22.614 54.673 22.736C54.4439 22.858 54.1689 22.919 53.8481 22.919C53.3592 22.919 52.9773 22.759 52.7023 22.438C52.4273 22.117 52.2899 21.667 52.2899 21.086C52.2899 20.704 52.3357 20.384 52.4273 20.124C52.5343 19.849 52.7176 19.627 52.9773 19.459C53.237 19.276 53.596 19.146 54.0543 19.07C54.5126 18.993 55.1007 18.948 55.8187 18.932V21.224ZM86.8567 21.224C86.8107 21.376 86.7417 21.552 86.6507 21.751C86.5737 21.949 86.4517 22.133 86.2837 22.301C86.1307 22.469 85.9397 22.614 85.7107 22.736C85.4817 22.858 85.2067 22.919 84.8857 22.919C84.3977 22.919 84.0157 22.759 83.7407 22.438C83.4657 22.117 83.3277 21.667 83.3277 21.086C83.3277 20.704 83.3737 20.384 83.4657 20.124C83.5727 19.849 83.7557 19.627 84.0157 19.459C84.2747 19.276 84.6337 19.146 85.0927 19.07C85.5507 18.993 86.1387 18.948 86.8567 18.932V21.224ZM134.074 21.224C134.028 21.376 133.96 21.552 133.868 21.751C133.792 21.949 133.669 22.133 133.501 22.301C133.349 22.469 133.158 22.614 132.928 22.736C132.699 22.858 132.424 22.919 132.104 22.919C131.615 22.919 131.233 22.759 130.958 22.438C130.683 22.117 130.545 21.667 130.545 21.086C130.545 20.704 130.591 20.384 130.683 20.124C130.79 19.849 130.973 19.627 131.233 19.459C131.492 19.276 131.851 19.146 132.31 19.07C132.768 18.993 133.356 18.948 134.074 18.932V21.224ZM145.982 14.12C146.425 14.12 146.791 14.158 147.082 14.235C147.387 14.311 147.639 14.41 147.838 14.533V20.697C147.67 21.506 147.402 22.079 147.036 22.415C146.669 22.751 146.218 22.919 145.684 22.919C144.905 22.919 144.347 22.545 144.011 21.797C143.675 21.048 143.507 20.055 143.507 18.818C143.507 17.29 143.698 16.129 144.08 15.335C144.462 14.525 145.096 14.12 145.982 14.12ZM30.2576 19.064C30.2459 19.784 30.1931 20.405 30.0995 20.926C30.0078 21.506 29.8627 21.98 29.6641 22.347C29.4655 22.698 29.2287 22.958 28.9538 23.126C28.6788 23.278 28.3732 23.355 28.0372 23.355C27.4566 23.355 26.9831 23.248 26.6164 23.034C26.2498 22.805 25.9595 22.492 25.7457 22.094C25.5318 21.697 25.379 21.216 25.2874 20.651C25.211 20.07 25.1728 19.436 25.1728 18.749C25.1728 17.893 25.2186 17.175 25.3103 16.595C25.4172 15.999 25.57 15.526 25.7686 15.174C25.9672 14.808 26.2116 14.548 26.5019 14.395C26.7921 14.227 27.1358 14.143 27.533 14.143C28.0677 14.143 28.5107 14.258 28.8621 14.487C29.2135 14.701 29.4884 15.006 29.687 15.403C29.9009 15.801 30.046 16.282 30.1224 16.847C30.2141 17.412 30.2599 18.046 30.2599 18.749L30.2576 19.064ZM120.598 14.051C121.285 14.051 121.751 14.372 121.996 15.014C122.24 15.655 122.309 16.572 122.202 17.764H118.512C118.558 17.03 118.635 16.427 118.742 15.953C118.849 15.464 118.986 15.083 119.154 14.808C119.337 14.517 119.544 14.319 119.773 14.212C120.017 14.105 120.292 14.051 120.598 14.051ZM159.378 14.051C160.066 14.051 160.532 14.372 160.776 15.014C161.021 15.655 161.089 16.572 160.982 17.764H157.293C157.339 17.03 157.415 16.427 157.522 15.953C157.629 15.464 157.767 15.083 157.935 14.808C158.118 14.517 158.324 14.319 158.554 14.212C158.798 14.105 159.073 14.051 159.378 14.051ZM105.124 9.74301C105.552 9.74301 105.949 9.804 106.316 9.927C106.682 10.049 107.003 10.24 107.278 10.5C107.553 10.759 107.767 11.095 107.92 11.508C108.073 11.905 108.149 12.386 108.149 12.951C108.149 14.051 107.874 14.884 107.324 15.449C106.774 15.999 106.109 16.274 105.33 16.274H103.978V9.88101C104.269 9.78901 104.651 9.74301 105.124 9.74301Z" fill="white"/>
</svg>
