<svg width="285" height="55" viewBox="0 0 285 55" fill="none" xmlns="http://www.w3.org/2000/svg">
<path d="M10.101 22.995L14.1115 10.517H19.9939L19.3404 16.429H19.7563L22.9499 10.532H29.3223L25.3414 22.995H20.6623L22.014 18.806H21.5834L19.5335 22.995H16.0427L16.5329 18.806H16.1021L14.7504 22.995H10.101Z" fill="white"/>
<path d="M33.8752 23.41C30.0725 23.41 27.9335 21.435 27.9335 18.197C27.9335 13.874 31.7213 10.101 36.8312 10.101C40.6339 10.101 42.7729 12.062 42.7729 15.315C42.7729 19.637 38.985 23.41 33.8752 23.41ZM34.6773 19.207C36.6529 19.207 37.8561 17.513 37.8858 16.102C37.8858 14.869 36.9797 14.305 36.029 14.305C34.0534 14.305 32.8502 15.998 32.8057 17.394C32.8057 18.642 33.7266 19.207 34.6773 19.207Z" fill="white"/>
<path d="M57.0778 14.334C57.0778 16.548 55.8745 18.167 54.2999 19.118L55.1319 22.995H50.4528L49.8735 20.113H47.155L46.2341 22.995H41.347L45.3577 10.517H52.1164C55.4586 10.517 57.0778 11.75 57.0778 14.334ZM48.9376 14.557L48.284 16.577L50.7349 16.563C51.1508 16.563 52.0867 16.266 52.0867 15.404C52.0867 14.75 51.7302 14.557 50.9726 14.557H48.9376Z" fill="white"/>
<path d="M70.1116 14.379H63.1892L62.9218 15.226H69.8436L68.8487 18.241H61.9563L61.674 19.118H68.5516L67.289 22.995H55.5392L59.5647 10.517H71.3736L70.1116 14.379Z" fill="white"/>
<path d="M82.7026 10.517C85.9106 10.517 87.7376 11.586 87.7376 14.483C87.7376 18.657 84.7376 20.841 80.9646 20.841H77.7106L76.9976 22.995H72.1106L76.1956 10.517H82.7026ZM81.0826 16.845C82.0486 16.845 82.7026 16.34 82.7026 15.404C82.7026 14.869 82.4346 14.557 81.6326 14.557H79.7756L79.0186 16.86L81.0826 16.845Z" fill="#0077FF"/>
<path d="M99.8676 22.995H95.0107L95.0257 21.643H90.3167L89.4697 22.995H84.2856L92.5896 10.517H99.4666L99.8676 22.995ZM92.5746 18.063H95.0846L95.1296 15.077H94.4456L92.5746 18.063Z" fill="#0077FF"/>
<path d="M108.427 14.305C106.451 14.305 105.218 15.864 105.218 17.409C105.218 18.642 106.169 19.207 107.209 19.207C107.476 19.207 108.813 19.266 109.526 18.152H107.149L107.892 15.879H115.081L112.794 22.995H110.477L110.833 21.583C109.793 22.668 108.115 23.41 106.095 23.41C102.455 23.41 100.346 21.569 100.346 18.211C100.346 13.889 104.045 10.101 109.362 10.101C113.269 10.101 115.601 12.552 115.141 15.211H110.224C109.942 14.736 109.318 14.305 108.427 14.305Z" fill="#0077FF"/>
<path d="M128.13 14.379H121.208L120.941 15.226H127.863L126.868 18.241H119.975L119.693 19.118H126.571L125.308 22.995H113.558L117.584 10.517H129.393L128.13 14.379Z" fill="#0077FF"/>
<path d="M132.873 23.41C128.759 23.41 126.174 22.282 127.496 18.657H131.64C131.477 19.415 132.502 19.712 133.557 19.712C134.73 19.712 135.785 19.519 135.785 18.969C135.785 18.85 135.859 18.39 134.7 18.286L133.705 18.167C132.576 18.078 128.982 17.766 128.982 14.958C128.982 11.854 131.893 10.101 136.171 10.101C140.241 10.101 142.811 11.78 141.311 14.825H137.315C137.389 14.528 137.077 13.8 135.488 13.8C134.344 13.8 133.646 14.127 133.646 14.602C133.646 14.706 133.646 15.077 134.507 15.181L135.161 15.27C137.003 15.582 140.568 15.671 140.568 18.509C140.568 22.282 136.973 23.41 132.873 23.41Z" fill="#0077FF"/>
<path d="M140.767 26.634C141.362 25.312 141.778 24.153 142.089 22.995H140.262L141.57 18.924H147.155L147.214 18.776C145.848 22.846 144.436 25.416 143.382 26.634H140.767Z" fill="white"/>
<path d="M78.4307 44.385L82.4417 31.907H88.3237L87.6697 37.819H88.0857L91.2797 31.922H97.6517L93.6707 44.385H88.9917L90.3437 40.196H89.9127L87.8627 44.385H84.3727L84.8627 40.196H84.4317L83.0797 44.385H78.4307Z" fill="white"/>
<path d="M102.205 44.801C98.4026 44.801 96.2635 42.825 96.2635 39.587C96.2635 35.264 100.051 31.491 105.161 31.491C108.964 31.491 111.103 33.452 111.103 36.705C111.103 41.028 107.315 44.801 102.205 44.801ZM103.007 40.597C104.983 40.597 106.186 38.903 106.216 37.492C106.216 36.259 105.31 35.695 104.359 35.695C102.384 35.695 101.18 37.388 101.136 38.785C101.136 40.032 102.057 40.597 103.007 40.597Z" fill="white"/>
<path d="M125.408 35.725C125.408 37.938 124.205 39.557 122.63 40.508L123.462 44.385H118.783L118.204 41.503H115.485L114.564 44.385H109.677L113.688 31.907H120.447C123.789 31.907 125.408 33.14 125.408 35.725ZM117.268 35.947L116.614 37.968L119.065 37.953C119.481 37.953 120.417 37.656 120.417 36.794C120.417 36.141 120.06 35.947 119.303 35.947H117.268Z" fill="white"/>
<path d="M138.441 35.769H131.519L131.252 36.616H138.174L137.179 39.631H130.286L130.004 40.508H136.882L135.619 44.385H123.869L127.895 31.907H139.704L138.441 35.769Z" fill="white"/>
<path d="M158.459 31.907L151.864 37.567L155.949 44.385H151.092L148.462 40.018H148.032L146.279 41.414L145.313 44.385H140.441L144.526 31.907H149.383L148.24 35.398H148.849L152.934 31.907H158.459Z" fill="#0077FF"/>
<path d="M155.881 44.385L159.966 31.907H165.358L166.651 37.7H167.156L169.072 31.907H173.825L169.77 44.385H164.497L163.041 38.696H162.536L160.635 44.385H155.881Z" fill="#0077FF"/>
<path d="M178.328 44.801C174.525 44.801 172.386 42.825 172.386 39.587C172.386 35.264 176.174 31.491 181.284 31.491C185.086 31.491 187.225 33.452 187.225 36.705C187.225 41.028 183.438 44.801 178.328 44.801ZM179.13 40.597C181.105 40.597 182.309 38.903 182.338 37.492C182.338 36.259 181.432 35.695 180.482 35.695C178.506 35.695 177.303 37.388 177.258 38.785C177.258 40.032 178.179 40.597 179.13 40.597Z" fill="#0077FF"/>
<path d="M186.642 44.385L188.513 31.907H193.4L191.96 39.156H192.39L196.074 31.907H199.847L198.926 39.156H199.372L202.565 31.907H207.631L201.422 44.385H194.856L195.762 39.631H195.346L193.207 44.385H186.642Z" fill="#0077FF"/>
<path d="M204.309 44.385L208.364 31.907H213.251L210.488 40.315H217.069L215.776 44.385H204.309Z" fill="#0077FF"/>
<path d="M231.292 35.769H224.37L224.103 36.616H231.025L230.03 39.631H223.137L222.855 40.508H229.733L228.47 44.385H216.72L220.746 31.907H232.555L231.292 35.769Z" fill="#0077FF"/>
<path d="M229.388 44.385L233.398 31.907H239.429C243.573 31.907 245.326 33.779 245.326 36.705C245.326 41.741 241.42 44.385 236.473 44.385H229.388ZM235.567 40.3H237.335C239.013 40.3 240.38 39.067 240.38 37.388C240.38 36.23 239.503 35.977 238.092 35.977H236.978L235.567 40.3Z" fill="#0077FF"/>
<path d="M253.732 35.695C251.756 35.695 250.523 37.255 250.523 38.799C250.523 40.032 251.474 40.597 252.514 40.597C252.781 40.597 254.118 40.656 254.831 39.542H252.454L253.197 37.27H260.386L258.099 44.385H255.782L256.138 42.974C255.098 44.058 253.42 44.801 251.4 44.801C247.76 44.801 245.651 42.959 245.651 39.602C245.651 35.279 249.35 31.491 254.668 31.491C258.574 31.491 260.906 33.942 260.446 36.601H255.529C255.247 36.126 254.623 35.695 253.732 35.695Z" fill="#0077FF"/>
<path d="M273.436 35.769H266.513L266.246 36.616H273.168L272.173 39.631H265.28L264.998 40.508H271.876L270.613 44.385H258.863L262.889 31.907H274.698L273.436 35.769Z" fill="#0077FF"/>
<path d="M136.171 0C139.068 0 143.618 0.506049 147.283 3.55005C149.009 4.98405 150.525 7 151.301 9.539C155.98 11.604 158.4 16.882 156.85 21.806H158.459C158.712 21.806 158.964 21.816 159.213 21.834C159.462 21.816 159.714 21.806 159.966 21.806H165.359L165.58 21.809C166.135 21.821 166.682 21.878 167.215 21.978C167.82 21.865 168.441 21.806 169.072 21.806H173.826C174.612 21.806 175.386 21.898 176.136 22.074C177.79 21.627 179.52 21.39 181.284 21.39C182.871 21.39 184.584 21.575 186.298 22.051C187.013 21.891 187.754 21.806 188.513 21.806H193.4C193.85 21.806 194.297 21.837 194.737 21.895C195.177 21.837 195.623 21.806 196.074 21.806H199.847C200.304 21.806 200.758 21.837 201.206 21.898C201.652 21.837 202.107 21.806 202.566 21.806H207.631C207.752 21.806 207.873 21.809 207.994 21.813C208.117 21.809 208.24 21.806 208.364 21.806H213.251C214.552 21.806 215.821 22.057 216.997 22.527C218.165 22.06 219.433 21.806 220.746 21.806H232.555C232.692 21.806 232.829 21.81 232.965 21.815C233.109 21.809 233.254 21.806 233.399 21.806H239.429C241.587 21.806 244.087 22.108 246.517 23.104C249.013 21.997 251.786 21.39 254.668 21.39C256.473 21.39 258.312 21.648 260.081 22.204C260.978 21.944 261.921 21.806 262.889 21.806H274.698C277.935 21.806 280.975 23.357 282.875 25.977C284.775 28.597 285.305 31.969 284.299 35.046L283.037 38.908C283.001 39.017 282.963 39.124 282.924 39.231C282.875 39.415 282.821 39.599 282.76 39.782L281.765 42.797C281.708 42.97 281.646 43.14 281.581 43.307C281.549 43.417 281.516 43.527 281.48 43.635L280.218 47.513C278.863 51.671 274.987 54.486 270.613 54.486H258.863C258.738 54.486 258.614 54.482 258.489 54.478C258.36 54.483 258.23 54.486 258.099 54.486H255.782C255.617 54.486 255.453 54.481 255.29 54.473C254.015 54.758 252.708 54.901 251.4 54.901C249.06 54.901 246.365 54.495 243.802 53.251C241.36 54.128 238.836 54.486 236.473 54.486H229.388C229.237 54.486 229.086 54.481 228.936 54.474C228.782 54.482 228.626 54.486 228.47 54.486H216.72C216.565 54.486 216.41 54.481 216.255 54.474C216.096 54.481 215.936 54.486 215.776 54.486H204.309C203.822 54.486 203.341 54.45 202.866 54.381C202.392 54.45 201.91 54.486 201.422 54.486H194.856C194.579 54.486 194.303 54.474 194.029 54.452C193.757 54.474 193.483 54.486 193.207 54.486H186.642C185.7 54.486 184.773 54.353 183.885 54.101C182.108 54.623 180.238 54.901 178.328 54.901C176.544 54.901 174.608 54.667 172.693 54.054C171.761 54.335 170.779 54.486 169.77 54.486H164.497C163.839 54.486 163.193 54.422 162.565 54.299C161.937 54.422 161.292 54.486 160.635 54.486H151.092C150.1 54.486 149.128 54.34 148.203 54.064C147.281 54.339 146.311 54.486 145.314 54.486H140.441C139.62 54.486 138.812 54.385 138.032 54.194C137.254 54.385 136.446 54.486 135.619 54.486H123.869C123.803 54.486 123.736 54.484 123.669 54.482C123.6 54.484 123.531 54.486 123.462 54.486H118.783C118.062 54.486 117.355 54.408 116.673 54.263C115.989 54.409 115.284 54.486 114.564 54.486H109.677C108.888 54.486 108.11 54.393 107.358 54.215C105.703 54.663 103.971 54.901 102.205 54.901C100.425 54.901 98.4926 54.668 96.5806 54.057C95.6536 54.336 94.6756 54.486 93.6706 54.486H88.9916C88.7996 54.486 88.6086 54.48 88.4176 54.469C88.2336 54.479 88.0486 54.486 87.8626 54.486H84.3726C84.1586 54.486 83.9456 54.477 83.7336 54.464C83.5166 54.478 83.2996 54.486 83.0806 54.486H78.4306C75.2026 54.486 72.1696 52.943 70.2686 50.335C68.3671 47.726 67.8267 44.367 68.8144 41.294L71.4556 33.073C70.8606 33.035 70.2736 32.944 69.7016 32.803C68.9246 32.994 68.1156 33.095 67.289 33.095H55.5394C55.4731 33.095 55.4066 33.094 55.3405 33.092C55.271 33.094 55.2015 33.095 55.1319 33.095H50.453C49.7317 33.095 49.0254 33.019 48.3426 32.873C47.6593 33.019 46.9536 33.095 46.2343 33.095H41.3472C40.5582 33.095 39.7809 33.002 39.0287 32.825C37.373 33.273 35.6412 33.512 33.8754 33.512C32.095 33.512 30.1629 33.278 28.2517 32.667C27.3243 32.947 26.3459 33.095 25.3413 33.095H20.6623C20.4699 33.095 20.2782 33.09 20.0874 33.079C19.9036 33.089 19.719 33.095 19.5336 33.095H16.0428C15.828 33.095 15.6139 33.088 15.4009 33.074C15.1855 33.088 14.9686 33.095 14.7504 33.095H10.1009C6.87331 33.095 3.84001 31.553 1.93861 28.945C0.0373054 26.336 -0.503095 22.976 0.484605 19.903L4.4951 7.42603L4.56 7.23102C5.9594 3.16102 9.7923 0.416016 14.1114 0.416016H19.9939C20.5091 0.416016 21.0198 0.45602 21.5222 0.53302C21.9911 0.46602 22.4681 0.43103 22.9501 0.43103H29.3223C30.1081 0.43103 30.8824 0.523036 31.6316 0.699036C33.3013 0.243036 35.0489 0 36.8311 0C38.6064 0 40.5394 0.231041 42.4543 0.842041C43.3798 0.564041 44.3556 0.416016 45.3578 0.416016H52.1163C53.3504 0.416016 54.8763 0.511991 56.5024 0.890991C57.4748 0.581991 58.5052 0.416016 59.5649 0.416016H71.3736C72.1946 0.416016 73.0026 0.517008 73.7826 0.708008C74.5606 0.517008 75.3696 0.416016 76.1966 0.416016H82.7026C84.1936 0.416016 86.2936 0.545992 88.5076 1.27899C89.7756 0.717992 91.1616 0.416016 92.5896 0.416016H99.4666C100.694 0.416016 101.87 0.636048 102.96 1.03705C104.977 0.363048 107.137 0 109.363 0L109.74 0.00402832C111.424 0.0370283 113.129 0.297026 114.776 0.814026C115.673 0.554026 116.616 0.416016 117.584 0.416016H129.393C129.961 0.416016 130.522 0.465044 131.073 0.558044C132.834 0.151044 134.574 0 136.171 0ZM105.161 31.491C100.051 31.491 96.2636 35.264 96.2636 39.587C96.2636 42.825 98.4026 44.801 102.205 44.801C107.315 44.801 111.103 41.028 111.103 36.705C111.103 33.452 108.964 31.491 105.161 31.491ZM181.284 31.491C176.174 31.491 172.386 35.264 172.386 39.587C172.386 42.825 174.525 44.801 178.328 44.801C183.438 44.801 187.225 41.028 187.225 36.705C187.225 33.452 185.086 31.491 181.284 31.491ZM254.668 31.491C249.35 31.491 245.651 35.279 245.651 39.602C245.651 42.959 247.76 44.801 251.4 44.801C253.42 44.801 255.098 44.058 256.138 42.974L255.782 44.385H258.099L260.386 37.27H253.197L252.454 39.542H254.831C254.118 40.656 252.781 40.597 252.514 40.597C251.474 40.597 250.523 40.032 250.523 38.799C250.523 37.255 251.756 35.695 253.732 35.695C254.623 35.695 255.247 36.126 255.529 36.601H260.446C260.906 33.942 258.574 31.491 254.668 31.491ZM82.4416 31.907L78.4306 44.385H83.0796L84.4316 40.196H84.8626L84.3726 44.385H87.8626L89.9126 40.196H90.3436L88.9916 44.385H93.6706L97.6516 31.922H91.2796L88.0856 37.819H87.6696L88.3236 31.907H82.4416ZM113.688 31.907L109.677 44.385H114.564L115.485 41.503H118.204L118.783 44.385H123.462L122.63 40.508C124.205 39.557 125.408 37.938 125.408 35.725C125.408 33.14 123.789 31.907 120.447 31.907H113.688ZM127.895 31.907L123.869 44.385H135.619L136.882 40.508H130.004L130.286 39.631H137.179L138.174 36.616H131.252L131.519 35.769H138.441L139.704 31.907H127.895ZM144.526 31.907L140.441 44.385H145.313L146.279 41.414L148.032 40.018H148.462L151.092 44.385H160.635L162.536 38.696H163.041L164.497 44.385H169.77L173.825 31.907H169.072L167.156 37.7H166.651L165.358 31.907H159.966L155.905 44.312L151.864 37.567L158.459 31.907H152.934L148.849 35.398H148.24L149.383 31.907H144.526ZM188.513 31.907L186.642 44.385H193.207L195.346 39.631H195.762L194.856 44.385H201.422L207.631 31.907H202.565L199.372 39.156H198.926L199.847 31.907H196.074L192.39 39.156H191.96L193.4 31.907H188.513ZM208.364 31.907L204.309 44.385H215.776L217.069 40.315H210.488L213.251 31.907H208.364ZM220.746 31.907L216.72 44.385H228.47L229.733 40.508H222.855L223.137 39.631H230.03L231.025 36.616H224.103L224.37 35.769H231.292L232.555 31.907H220.746ZM233.398 31.907L229.388 44.385H236.473C241.42 44.385 245.326 41.741 245.326 36.705C245.326 33.779 243.573 31.907 239.429 31.907H233.398ZM262.889 31.907L258.863 44.385H270.613L271.876 40.508H264.998L265.28 39.631H272.173L273.168 36.616H266.246L266.513 35.769H273.436L274.698 31.907H262.889ZM104.359 35.695C105.31 35.695 106.216 36.259 106.216 37.492C106.186 38.903 104.983 40.597 103.007 40.597C102.057 40.597 101.136 40.032 101.136 38.785C101.18 37.388 102.384 35.695 104.359 35.695ZM180.482 35.695C181.432 35.695 182.338 36.259 182.338 37.492C182.309 38.903 181.105 40.597 179.13 40.597C178.179 40.597 177.258 40.032 177.258 38.785C177.303 37.388 178.506 35.695 180.482 35.695ZM238.092 35.977C239.503 35.977 240.38 36.23 240.38 37.388C240.38 39.067 239.013 40.3 237.335 40.3H235.567L236.978 35.977H238.092ZM119.303 35.947C120.06 35.947 120.417 36.141 120.417 36.794C120.417 37.656 119.481 37.953 119.065 37.953L116.614 37.968L117.268 35.947H119.303ZM147.155 18.924H141.57L140.262 22.995H142.089C141.778 24.153 141.362 25.312 140.767 26.634H143.382C144.436 25.416 145.848 22.846 147.214 18.776L147.155 18.924ZM36.8312 10.101C31.7213 10.101 27.9335 13.874 27.9335 18.197C27.9335 21.435 30.0725 23.41 33.8752 23.41C38.985 23.41 42.7729 19.637 42.7729 15.315C42.7729 12.062 40.6339 10.101 36.8312 10.101ZM109.362 10.101C104.045 10.101 100.346 13.889 100.346 18.211C100.346 21.569 102.455 23.41 106.095 23.41C108.115 23.41 109.793 22.668 110.833 21.583L110.477 22.995H112.794L115.081 15.879H107.892L107.149 18.152H109.526C108.813 19.266 107.476 19.207 107.209 19.207C106.169 19.207 105.218 18.642 105.218 17.409C105.218 15.864 106.451 14.305 108.427 14.305C109.318 14.305 109.942 14.736 110.224 15.211H115.141C115.601 12.552 113.269 10.101 109.362 10.101ZM136.171 10.101C131.893 10.101 128.982 11.854 128.982 14.958C128.982 17.766 132.576 18.078 133.705 18.167L134.7 18.286C135.859 18.39 135.785 18.85 135.785 18.969C135.785 19.519 134.73 19.712 133.557 19.712C132.502 19.712 131.477 19.415 131.64 18.657H127.496C126.174 22.282 128.759 23.41 132.873 23.41C136.973 23.41 140.568 22.282 140.568 18.509C140.568 15.671 137.003 15.582 135.161 15.27L134.507 15.181C133.646 15.077 133.646 14.706 133.646 14.602C133.646 14.127 134.344 13.8 135.488 13.8C137.077 13.8 137.389 14.528 137.315 14.825H141.311C142.811 11.78 140.241 10.101 136.171 10.101ZM14.1115 10.517L10.1009 22.995H14.7503L16.102 18.806H16.5328L16.0426 22.995H19.5334L21.5833 18.806H22.014L20.6623 22.995H25.3414L29.3223 10.532H22.9498L19.7562 16.429H19.3403L19.9938 10.517H14.1115ZM45.3578 10.517L41.3471 22.995H46.2342L47.1551 20.113H49.8735L50.4528 22.995H55.1319L54.3 19.118C55.8746 18.167 57.0778 16.548 57.0778 14.334C57.0778 11.75 55.4587 10.517 52.1165 10.517H45.3578ZM59.5647 10.517L55.5392 22.995H67.289L68.5516 19.118H61.674L61.9563 18.241H68.8487L69.8436 15.226H62.9218L63.1892 14.379H70.1116L71.3736 10.517H59.5647ZM76.1956 10.517L72.1106 22.995H76.9976L77.7106 20.841H80.9646C84.7376 20.841 87.7376 18.657 87.7376 14.483C87.7376 11.586 85.9106 10.517 82.7026 10.517H76.1956ZM92.5896 10.517L84.2856 22.995H89.4696L90.3166 21.643H95.0256L95.0106 22.995H99.8676L99.4666 10.517H92.5896ZM117.584 10.517L113.558 22.995H125.308L126.571 19.118H119.693L119.975 18.241H126.868L127.863 15.226H120.941L121.208 14.379H128.13L129.393 10.517H117.584ZM36.029 14.305C36.9797 14.305 37.8858 14.869 37.8858 16.102C37.8561 17.513 36.6529 19.207 34.6773 19.207C33.7266 19.207 32.8057 18.642 32.8057 17.394C32.8502 15.998 34.0534 14.305 36.029 14.305ZM95.1296 15.077L95.0846 18.063H92.5746L94.4456 15.077H95.1296ZM81.6326 14.557C82.4346 14.557 82.7026 14.869 82.7026 15.404C82.7026 16.34 82.0486 16.845 81.0826 16.845L79.0186 16.86L79.7756 14.557H81.6326ZM50.9727 14.557C51.7303 14.557 52.0868 14.75 52.0868 15.404C52.0868 16.266 51.1509 16.563 50.735 16.563L48.2841 16.577L48.9377 14.557H50.9727Z" fill="black"/>
</svg>
