<svg width="77" height="76" viewBox="0 0 77 76" fill="none" xmlns="http://www.w3.org/2000/svg">
<path d="M5.53494 27.847C6.15494 27.957 6.70995 28.295 7.09195 28.795C7.24795 29.052 7.34496 29.341 7.37796 29.64C7.40996 29.939 7.37697 30.242 7.27997 30.527C7.22597 30.833 7.11197 31.125 6.94397 31.386C6.77497 31.647 6.55494 31.872 6.29794 32.047C6.03594 32.195 5.74697 32.288 5.44797 32.321C5.14897 32.354 4.84595 32.327 4.55795 32.239H4.47696L4.82297 30.836C4.93997 30.862 5.05896 30.877 5.17896 30.882C5.29396 30.888 5.40996 30.872 5.51996 30.836C5.62996 30.795 5.72897 30.729 5.80997 30.644C5.89897 30.539 5.95995 30.413 5.98795 30.279C6.02495 30.173 6.03495 30.059 6.01495 29.948C5.99595 29.837 5.94795 29.733 5.87595 29.646C5.72895 29.475 5.53094 29.354 5.31094 29.301L1.24194 28.288L1.58795 26.885L5.53494 27.847Z" fill="white"/>
<path d="M7.89005 25.081L8.66806 25.871L7.99704 27.275L3.36304 22.351L4.03903 20.957L10.795 21.4641L10.118 22.883L9.01404 22.776L7.89005 25.081ZM6.90805 24.124L7.63104 22.604L6.37906 22.472L5.12305 22.346L6.90805 24.124Z" fill="white"/>
<path d="M7.64099 15.071L10.952 15.578L9.81799 12.452L10.881 11.165L15.739 15.117L14.818 16.236L11.604 13.597L12.687 16.637L12.306 17.103L9.12598 16.637L12.356 19.281L11.431 20.395L6.55798 16.409L7.64099 15.071Z" fill="white"/>
<path d="M17.179 13.942L13.39 8.91604L15.765 7.14304C15.961 6.99304 16.175 6.86704 16.401 6.76804C16.609 6.67504 16.834 6.62403 17.062 6.61603C17.286 6.61303 17.508 6.66304 17.708 6.76304C17.941 6.88504 18.143 7.05804 18.298 7.27004C18.45 7.46704 18.554 7.69504 18.604 7.93804C18.648 8.17904 18.622 8.42704 18.527 8.65304C18.823 8.56504 19.14 8.57704 19.428 8.68804C19.729 8.82704 19.99 9.03804 20.188 9.30404C20.385 9.57004 20.512 9.88104 20.557 10.208C20.579 10.501 20.529 10.795 20.409 11.064C20.284 11.339 20.112 11.591 19.901 11.809C19.686 12.037 19.453 12.247 19.204 12.437L17.179 13.942ZM16.874 9.42804C17.084 9.28904 17.258 9.10304 17.383 8.88604C17.439 8.74604 17.439 8.58905 17.382 8.45005C17.325 8.31005 17.216 8.19704 17.077 8.13604C16.993 8.11104 16.903 8.11104 16.818 8.13604C16.725 8.15404 16.635 8.18804 16.554 8.23704C16.462 8.29104 16.37 8.35203 16.279 8.42003L15.353 9.11403L16.055 10.051L16.874 9.42804ZM17.556 12.027L18.431 11.373C18.556 11.276 18.677 11.173 18.792 11.064C18.885 10.973 18.967 10.871 19.036 10.76C19.091 10.663 19.117 10.552 19.112 10.441C19.099 10.316 19.049 10.199 18.97 10.102C18.912 10.014 18.828 9.94604 18.729 9.90804C18.631 9.87004 18.523 9.86304 18.42 9.88904C18.311 9.91604 18.206 9.96105 18.11 10.021C18.003 10.086 17.891 10.162 17.785 10.243L16.767 10.993L17.556 12.027Z" fill="white"/>
<path d="M23.37 5.70905L23.477 4.22005C23.512 3.71405 23.548 3.20705 23.589 2.73105L25.079 2.04205L24.57 6.60104L25.588 8.72404L24.27 9.33205L23.283 7.21405L19.423 4.64606L20.949 3.94106L23.37 5.70905Z" fill="white"/>
<path d="M30.063 5.83104L33.034 5.12703L33.339 6.39804L28.949 7.41203L27.494 1.31703L28.908 0.983032L30.063 5.83104Z" fill="white"/>
<path d="M42.8371 6.414L41.3921 6.242L42.1301 0L43.5741 0.173004L42.8371 6.414Z" fill="white"/>
<path d="M47.9269 0.998016L49.5139 5.55801L50.633 1.82903L52.0269 2.24503L50.2209 8.26802L48.9139 7.87802L47.2759 3.33902L46.167 7.04202L44.7729 6.62701L46.5949 0.603027L47.9269 0.998016Z" fill="white"/>
<path d="M56.32 4.25002L56.829 9.02202L58.7881 5.66402L60.044 6.38802L56.8491 11.824L55.669 11.14L55.161 6.37302L53.213 9.71101L51.9611 8.98701L55.13 3.55103L56.32 4.25002Z" fill="white"/>
<path d="M64.811 10.284C65.134 10.586 65.3981 10.945 65.5891 11.343C65.7591 11.705 65.853 12.098 65.864 12.498C65.866 12.899 65.7851 13.295 65.6251 13.663C65.4491 14.073 65.197 14.446 64.882 14.762C64.578 15.089 64.2181 15.358 63.8191 15.558C63.4521 15.736 63.052 15.84 62.644 15.862C62.238 15.881 61.832 15.814 61.454 15.664C61.034 15.496 60.6531 15.244 60.3351 14.924C60.0021 14.62 59.732 14.253 59.541 13.845C59.372 13.481 59.2841 13.084 59.2841 12.683C59.2841 12.281 59.372 11.885 59.541 11.52C59.721 11.114 59.9731 10.744 60.2841 10.426C60.5871 10.099 60.9501 9.83103 61.3521 9.63603C61.7171 9.45703 62.115 9.35604 62.522 9.33704C62.926 9.32304 63.3291 9.39504 63.7021 9.54904C64.1161 9.72004 64.493 9.96904 64.811 10.284ZM61.367 11.439C61.202 11.612 61.063 11.808 60.955 12.022C60.851 12.224 60.7871 12.444 60.7671 12.67C60.7471 12.897 60.778 13.126 60.859 13.339C60.955 13.585 61.1061 13.807 61.3011 13.987C61.4821 14.166 61.7041 14.3 61.9471 14.377C62.1631 14.442 62.391 14.458 62.613 14.423C62.839 14.387 63.0571 14.309 63.2541 14.195C63.4561 14.079 63.64 13.934 63.799 13.764C63.958 13.598 64.094 13.411 64.2 13.207C64.309 13.008 64.3791 12.789 64.4041 12.564C64.4331 12.32 64.401 12.072 64.313 11.843C64.224 11.613 64.0811 11.409 63.8961 11.247C63.7101 11.064 63.486 10.925 63.239 10.841C63.02 10.776 62.79 10.757 62.563 10.786C62.339 10.821 62.123 10.896 61.927 11.008C61.721 11.125 61.533 11.27 61.367 11.439Z" fill="white"/>
<path d="M71.006 17.963L71.892 19.265L65.279 20.755L64.46 19.549L68.31 14.007L69.206 15.324L66.403 19.169L71.006 17.963Z" fill="white"/>
<path d="M68.457 24.337L67.343 24.378L66.754 22.929L73.534 22.843L74.119 24.271L69.205 28.912L68.61 27.458L69.434 26.718L68.457 24.337ZM69.831 24.256L70.472 25.816L71.413 24.986L72.354 24.15L69.831 24.256Z" fill="white"/>
<path d="M74.11 28.192L75.412 27.933L76.429 33.116L75.127 33.374L74.756 31.49L69.867 32.457L69.583 31.039L74.471 30.071L74.11 28.192Z" fill="white"/>
<path d="M70.35 37.164L70.2841 35.72L76.5861 35.416L76.652 36.865L70.35 37.164Z" fill="white"/>
<path d="M76.454 42.7C76.409 43.141 76.279 43.569 76.072 43.961C75.885 44.315 75.623 44.624 75.304 44.868C74.983 45.111 74.614 45.284 74.221 45.375C73.786 45.477 73.336 45.499 72.893 45.441C72.45 45.389 72.02 45.26 71.621 45.061C71.261 44.872 70.939 44.616 70.675 44.306C70.418 43.991 70.231 43.625 70.126 43.232C70.013 42.797 69.991 42.344 70.059 41.9C70.104 41.451 70.238 41.015 70.451 40.618C70.646 40.266 70.913 39.959 71.235 39.716C71.558 39.474 71.929 39.302 72.324 39.21C72.757 39.111 73.206 39.093 73.646 39.154C74.092 39.199 74.525 39.328 74.922 39.534C75.283 39.722 75.601 39.98 75.859 40.294C76.103 40.612 76.277 40.978 76.367 41.368C76.481 41.802 76.51 42.254 76.454 42.7ZM73.468 40.633C73.232 40.6 72.992 40.6 72.756 40.633C72.531 40.673 72.315 40.753 72.12 40.871C71.918 40.989 71.744 41.15 71.611 41.342C71.47 41.566 71.381 41.819 71.352 42.082C71.312 42.334 71.335 42.591 71.418 42.832C71.496 43.043 71.619 43.235 71.779 43.394C71.943 43.552 72.134 43.679 72.344 43.769C72.774 43.948 73.246 44.006 73.707 43.936C73.931 43.907 74.147 43.833 74.343 43.718C74.557 43.595 74.738 43.422 74.87 43.214C75.002 43.005 75.081 42.768 75.101 42.523C75.14 42.264 75.118 42.001 75.035 41.753C74.962 41.537 74.84 41.341 74.679 41.18C74.517 41.021 74.328 40.894 74.119 40.805C73.911 40.718 73.692 40.66 73.468 40.633Z" fill="white"/>
<path d="M74.745 50.031L70.101 51.302L73.758 52.665L73.249 54.018L67.344 51.814L67.822 50.542L72.451 49.236L68.819 47.883L69.328 46.53L75.253 48.734L74.745 50.031Z" fill="white"/>
<path d="M64.373 62.473L62.567 64.256L64.353 66.054L63.335 67.067L58.905 62.594L59.922 61.581L61.651 63.324L63.462 61.551L61.733 59.808L62.75 58.795L67.18 63.268L66.164 64.281L64.373 62.473Z" fill="white"/>
<path d="M56.082 64.544L57.273 63.719L60.889 68.866L59.699 69.696L56.082 64.544Z" fill="white"/>
<path d="M54.77 69.013C54.666 68.798 54.5359 68.598 54.3839 68.415C54.2439 68.242 54.071 68.099 53.875 67.994C53.675 67.892 53.4539 67.838 53.2289 67.837C52.9669 67.841 52.709 67.905 52.476 68.024C52.332 68.09 52.1969 68.173 52.0739 68.273C51.9579 68.363 51.858 68.472 51.779 68.597C51.7 68.723 51.65 68.866 51.633 69.014C51.615 69.162 51.63 69.312 51.678 69.453L53.071 68.795L53.58 69.873L50.838 71.165C50.737 70.953 50.64 70.74 50.553 70.527C50.471 70.317 50.4009 70.102 50.3449 69.884C50.2939 69.67 50.265 69.45 50.258 69.23C50.254 69.007 50.28 68.784 50.335 68.566C50.434 68.19 50.6219 67.843 50.8839 67.553C51.1689 67.236 51.5149 66.979 51.9009 66.799C52.3059 66.601 52.744 66.481 53.193 66.444C53.59 66.415 53.9879 66.474 54.3579 66.616C54.7419 66.756 55.0899 66.979 55.3759 67.27C55.6859 67.588 55.941 67.956 56.129 68.359C56.328 68.765 56.457 69.202 56.51 69.651C56.559 70.048 56.521 70.451 56.398 70.831C56.276 71.21 56.069 71.556 55.793 71.844C55.482 72.169 55.1099 72.431 54.6989 72.614C54.3979 72.759 54.078 72.86 53.748 72.913C53.44 72.969 53.125 72.969 52.817 72.913C52.512 72.851 52.222 72.728 51.968 72.549C51.686 72.347 51.449 72.09 51.271 71.794L52.558 71.186C52.636 71.298 52.738 71.392 52.855 71.462C52.972 71.533 53.103 71.578 53.239 71.596C53.542 71.628 53.848 71.572 54.119 71.434C54.358 71.325 54.567 71.163 54.73 70.958C54.866 70.781 54.958 70.574 54.999 70.355C55.04 70.135 55.04 69.91 54.999 69.691C54.95 69.457 54.873 69.229 54.77 69.013Z" fill="white"/>
<path d="M47.277 72.529L44.795 73.071L45.339 75.543L43.92 75.852L42.567 69.718L43.986 69.403L44.495 71.799L46.977 71.257L46.468 68.861L47.887 68.552L49.241 74.687L47.821 75.001L47.277 72.529Z" fill="white"/>
<path d="M32.429 72.569C32.475 72.341 32.494 72.108 32.485 71.875C32.474 71.651 32.422 71.4321 32.332 71.2261C32.241 71.0291 32.105 70.856 31.935 70.72C31.708 70.549 31.443 70.435 31.162 70.389C30.881 70.344 30.593 70.366 30.323 70.457C30.063 70.569 29.857 70.778 29.748 71.039L28.38 70.75C28.468 70.41 28.633 70.095 28.863 69.828C29.069 69.591 29.324 69.399 29.611 69.266C29.901 69.128 30.215 69.045 30.536 69.023C30.877 68.995 31.22 69.0171 31.554 69.0891C31.995 69.1761 32.414 69.349 32.79 69.595C33.12 69.813 33.398 70.1001 33.604 70.4381C33.81 70.7751 33.938 71.1531 33.98 71.5451C34.034 71.9901 34.01 72.441 33.909 72.878C33.825 73.313 33.663 73.73 33.431 74.109C33.224 74.45 32.949 74.745 32.622 74.975C32.288 75.2 31.907 75.345 31.508 75.401C31.071 75.474 30.623 75.463 30.19 75.365C29.858 75.296 29.536 75.182 29.234 75.026C28.961 74.878 28.716 74.682 28.512 74.448C28.312 74.209 28.163 73.932 28.074 73.633C27.981 73.291 27.959 72.9351 28.008 72.5841L29.356 72.8681C29.359 73.1501 29.459 73.422 29.641 73.638C29.86 73.861 30.145 74.009 30.455 74.059C30.704 74.12 30.964 74.12 31.213 74.059C31.423 74.002 31.618 73.898 31.783 73.754C31.946 73.603 32.081 73.422 32.179 73.223C32.291 73.016 32.375 72.797 32.429 72.569Z" fill="white"/>
<path d="M22.072 72.65C21.664 72.467 21.2949 72.209 20.9829 71.89C20.7029 71.602 20.4889 71.257 20.3579 70.877C20.2239 70.499 20.173 70.096 20.21 69.697C20.248 69.254 20.3669 68.821 20.5609 68.42C20.7519 68.017 21.013 67.651 21.334 67.341C21.622 67.051 21.969 66.824 22.352 66.678C22.732 66.529 23.139 66.4641 23.547 66.4851C23.998 66.5151 24.439 66.634 24.844 66.835C25.244 67.024 25.606 67.285 25.912 67.605C26.193 67.898 26.407 68.249 26.538 68.633C26.67 69.017 26.717 69.425 26.675 69.828C26.635 70.27 26.514 70.701 26.319 71.1C26.136 71.508 25.877 71.877 25.556 72.189C25.266 72.474 24.9189 72.6961 24.5389 72.8431C24.1589 72.9821 23.753 73.041 23.349 73.015C22.904 72.972 22.472 72.848 22.072 72.65ZM24.9659 70.461C25.0689 70.247 25.14 70.018 25.175 69.783C25.211 69.559 25.2009 69.329 25.1439 69.109C25.0909 68.887 24.988 68.679 24.844 68.501C24.675 68.298 24.463 68.136 24.224 68.025C24.009 67.916 23.771 67.859 23.529 67.859C23.288 67.859 23.05 67.916 22.835 68.025C22.641 68.133 22.469 68.276 22.326 68.446C22.171 68.618 22.0429 68.813 21.9449 69.023C21.8469 69.232 21.778 69.454 21.741 69.682C21.698 69.904 21.698 70.133 21.741 70.355C21.795 70.578 21.8929 70.786 22.0309 70.969C22.1929 71.176 22.4049 71.34 22.6469 71.445C22.8829 71.559 23.142 71.618 23.405 71.616C23.631 71.613 23.853 71.559 24.056 71.46C24.258 71.356 24.44 71.215 24.59 71.044C24.745 70.871 24.8719 70.674 24.9659 70.461Z" fill="white"/>
<path d="M18.689 64.808L16.247 62.969L17.041 61.956L20.632 64.666L16.822 69.676L15.662 68.8L18.689 64.808Z" fill="white"/>
<path d="M13.999 60.674L11.965 58.415L12.941 57.538L15.963 60.872L11.278 65.081L10.306 64.007L13.999 60.674Z" fill="white"/>
<path d="M4.24402 55.644L5.38303 54.955L7.03101 57.665L8.04901 57.042L6.65002 54.742L7.75302 54.073L9.15201 56.373L10.17 55.776L8.522 53.06L9.63602 52.361L12.031 56.308L6.634 59.565L4.24402 55.644Z" fill="white"/>
<path d="M5.597 50.9071C5.822 50.8301 6.03599 50.7241 6.23299 50.5931C6.42199 50.4691 6.58502 50.309 6.71102 50.122C6.83502 49.935 6.91299 49.721 6.93999 49.499C6.96399 49.237 6.928 48.974 6.833 48.729C6.784 48.58 6.71599 48.4391 6.62999 48.3081C6.55199 48.1821 6.45201 48.07 6.33501 47.979C6.22301 47.889 6.09299 47.8251 5.95299 47.7911C5.80299 47.7571 5.64601 47.7571 5.49501 47.7911L6.00402 49.24L4.87001 49.635L3.87801 46.793C4.10201 46.712 4.325 46.647 4.549 46.581C4.768 46.521 4.99099 46.475 5.21599 46.444C5.43399 46.421 5.654 46.421 5.872 46.444C6.097 46.46 6.318 46.51 6.528 46.591C6.89 46.732 7.21402 46.9561 7.47402 47.2441C7.75702 47.5581 7.97301 47.925 8.11001 48.323C8.26601 48.745 8.33799 49.1921 8.32399 49.6401C8.30899 50.0371 8.20801 50.426 8.02901 50.78C7.84201 51.132 7.58402 51.441 7.27102 51.687C6.54802 52.233 5.66999 52.536 4.76299 52.553C4.36199 52.557 3.96501 52.476 3.59801 52.315C3.23701 52.145 2.91701 51.898 2.66201 51.591C2.37301 51.25 2.151 50.858 2.006 50.436C1.893 50.125 1.82801 49.7991 1.81301 49.4681C1.79901 49.1571 1.84199 48.847 1.93999 48.551C2.03499 48.257 2.18902 47.985 2.39202 47.751C2.62402 47.494 2.907 47.287 3.222 47.143L3.68999 48.4851C3.56599 48.5501 3.45702 48.639 3.37002 48.747C3.28202 48.855 3.21802 48.9801 3.18102 49.1141C3.11602 49.4091 3.139 49.717 3.247 50C3.327 50.249 3.46701 50.475 3.65401 50.659C3.81501 50.815 4.01299 50.93 4.22899 50.993C4.44399 51.053 4.667 51.076 4.89 51.059C5.131 51.039 5.369 50.9881 5.597 50.9071Z" fill="white"/>
<path d="M0 40.325L1.31799 40.157L1.715 43.303L2.91998 43.151L2.58499 40.482L3.866 40.325L4.202 42.979L5.362 42.832L4.965 39.686L6.26199 39.524L6.84198 44.083L0.579987 44.904L0 40.325Z" fill="white"/>
<path d="M44.9321 18.394C46.1801 18.394 47.1911 17.3871 47.1911 16.1451C47.1911 14.9031 46.1801 13.8961 44.9321 13.8961C43.6851 13.8961 42.6741 14.9031 42.6741 16.1451C42.6741 17.3871 43.6851 18.394 44.9321 18.394Z" fill="#0077FF"/>
<path d="M39.113 42.042C41.22 42.042 42.928 40.341 42.928 38.242C42.928 36.144 41.22 34.443 39.113 34.443C37.006 34.443 35.298 36.144 35.298 38.242C35.298 40.341 37.006 42.042 39.113 42.042Z" fill="#0077FF"/>
<path d="M39.3621 16.085C39.3601 16.42 39.236 16.743 39.012 16.993C38.788 17.243 38.48 17.403 38.146 17.442C35.943 17.716 33.801 18.353 31.808 19.327C26.88 21.606 23.009 25.669 20.983 30.689C20.038 33.149 19.616 35.776 19.744 38.406C19.872 41.036 20.547 43.611 21.726 45.968C23.491 49.625 26.435 52.588 30.089 54.383C30.393 54.518 30.64 54.756 30.787 55.053C30.935 55.351 30.974 55.691 30.897 56.014C30.846 56.209 30.751 56.391 30.619 56.546C30.488 56.7 30.324 56.823 30.138 56.906C29.953 56.989 29.752 57.03 29.548 57.025C29.345 57.021 29.146 56.971 28.964 56.88C24.72 54.824 21.2981 51.4 19.2541 47.164C17.9081 44.47 17.139 41.528 16.995 38.522C16.852 35.517 17.337 32.515 18.42 29.707C20.703 24.037 25.068 19.445 30.628 16.865C32.897 15.759 35.334 15.035 37.841 14.722C38.033 14.701 38.227 14.721 38.41 14.78C38.594 14.839 38.763 14.936 38.907 15.065C39.05 15.194 39.165 15.351 39.243 15.526C39.322 15.702 39.3621 15.892 39.3621 16.085Z" fill="#0077FF"/>
<path d="M43.127 58.4401C42.791 58.4411 42.467 58.3201 42.215 58.0991C41.963 57.8781 41.801 57.5731 41.76 57.2411C41.718 56.9091 41.8 56.5741 41.99 56.2981C42.18 56.0231 42.465 55.8261 42.791 55.7451C44.01 55.4391 45.194 55.0091 46.326 54.4631C50.202 52.5911 53.173 49.2621 54.585 45.2081C55.996 41.1541 55.734 36.7081 53.854 32.8471C52.193 29.4571 49.25 26.8601 45.67 25.6251C42.09 24.3911 38.165 24.6201 34.754 26.2621C33.426 26.8901 32.221 27.7481 31.193 28.7951C31.07 28.9321 30.92 29.0431 30.753 29.1211C30.586 29.1991 30.404 29.2431 30.219 29.2501C30.035 29.2561 29.851 29.2261 29.678 29.1601C29.506 29.0941 29.348 28.9941 29.215 28.8661C29.082 28.7381 28.977 28.5851 28.905 28.4151C28.833 28.2461 28.796 28.0641 28.796 27.8801C28.797 27.6961 28.834 27.5141 28.907 27.3441C28.98 27.1751 29.086 27.0221 29.219 26.8951C30.467 25.6191 31.931 24.5711 33.543 23.8001C37.612 21.8431 42.295 21.5731 46.563 23.0491C50.832 24.5241 54.34 27.6251 56.316 31.6721C58.505 36.1841 58.808 41.3771 57.158 46.1111C55.509 50.8451 52.041 54.7341 47.516 56.9251C46.213 57.5511 44.849 58.0451 43.447 58.4001C43.342 58.4241 43.234 58.4381 43.127 58.4401Z" fill="#0077FF"/>
<path d="M38.884 51.926C36.291 51.928 33.751 51.204 31.553 49.836C29.354 48.468 27.5871 46.511 26.4521 44.19C26.0091 43.262 25.658 42.293 25.404 41.298C25.315 40.946 25.37 40.573 25.557 40.261C25.744 39.95 26.047 39.725 26.401 39.636C26.754 39.547 27.129 39.602 27.442 39.788C27.754 39.975 27.9801 40.277 28.0691 40.629C28.2771 41.439 28.565 42.226 28.929 42.98C30.216 45.595 32.49 47.596 35.255 48.545C38.019 49.495 41.049 49.315 43.68 48.045C44.824 47.494 45.846 46.724 46.69 45.779C47.534 44.833 48.1831 43.732 48.5991 42.537C49.0151 41.342 49.1911 40.077 49.1161 38.814C49.0411 37.551 48.717 36.316 48.162 35.178L48.126 35.112C48.034 34.955 47.973 34.781 47.949 34.6C47.925 34.419 47.937 34.235 47.986 34.059C48.034 33.883 48.117 33.719 48.23 33.575C48.343 33.432 48.484 33.312 48.644 33.224C48.804 33.135 48.98 33.079 49.163 33.06C49.345 33.04 49.529 33.057 49.704 33.109C49.88 33.162 50.043 33.248 50.184 33.364C50.326 33.48 50.442 33.623 50.527 33.785C50.572 33.862 50.613 33.942 50.649 34.023C51.366 35.487 51.7861 37.078 51.8831 38.704C51.9811 40.33 51.755 41.959 51.218 43.498C50.681 45.036 49.8431 46.454 48.7541 47.669C47.6651 48.884 46.345 49.873 44.871 50.578C43.003 51.473 40.956 51.934 38.884 51.926Z" fill="#0077FF"/>
<path d="M26.96 36.287C28.208 36.287 29.219 35.28 29.219 34.038C29.219 32.795 28.208 31.788 26.96 31.788C25.713 31.788 24.702 32.795 24.702 34.038C24.702 35.28 25.713 36.287 26.96 36.287Z" fill="#0077FF"/>
<path d="M36.167 59.925C37.414 59.925 38.425 58.918 38.425 57.676C38.425 56.433 37.414 55.426 36.167 55.426C34.92 55.426 33.908 56.433 33.908 57.676C33.908 58.918 34.92 59.925 36.167 59.925Z" fill="#0077FF"/>
</svg>
