<svg width="36" height="145" viewBox="0 0 36 145" fill="none" xmlns="http://www.w3.org/2000/svg">
<path d="M14.271 17.144L11.333 21.742C7.92698 19.656 5.75598 16.378 5.75598 11.566C5.75598 4.79701 10.822 0.0280151 17.124 0.0280151C23.468 0.0280151 28.534 4.79701 28.534 11.566C28.534 16.378 26.235 19.741 22.829 21.785L19.934 17.144C21.764 15.994 23.127 14.504 23.127 11.779C23.127 8.33099 20.7 5.98901 17.124 5.98901C13.547 5.98901 11.078 8.33099 11.078 11.779C11.078 14.504 12.44 15.994 14.271 17.144Z" fill="white"/>
<path d="M28.108 41.251H22.871V34.865H6.26697V28.946H22.871V22.56H28.108V41.251Z" fill="white"/>
<path d="M13.675 58.813L10.95 63.241C7.71398 61.07 5.75598 57.791 5.75598 52.895C5.75598 45.912 10.652 41.399 17.124 41.399C23.425 41.399 28.534 46.083 28.534 52.937C28.534 59.835 23.723 64.007 17.422 64.007C16.57 64.007 15.463 63.922 15.335 63.922V47.232C12.568 47.871 10.78 49.957 10.78 53.023C10.78 55.705 11.929 57.578 13.675 58.813ZM23.68 52.895C23.68 50.127 22.233 48.254 19.721 47.445V58.047C22.403 57.408 23.68 55.279 23.68 52.895Z" fill="white"/>
<path d="M6.26697 86.288V80.37H22.871V71.982H6.26697V66.064H28.108V86.288H6.26697Z" fill="white"/>
<path d="M0.262939 106.778H6.26694V88.683H28.1079V94.601H11.5029V102.989H28.1079V108.907H11.5029V112.271H0.688934L0.262939 106.778Z" fill="white"/>
<path d="M22.957 124.204C22.957 120.968 20.317 118.456 17.081 118.456C13.803 118.456 11.205 120.968 11.205 124.204C11.205 127.61 13.803 130.164 17.081 130.164C20.317 130.164 22.957 127.482 22.957 124.204ZM6.26703 130.079H7.88403C6.69203 128.546 5.96802 126.205 5.96802 123.693C5.96802 117.732 10.78 112.665 17.081 112.665C23.382 112.665 28.321 117.732 28.321 123.693C28.321 126.205 27.555 128.546 26.363 130.079H28.108V135.997H6.26703V130.079Z" fill="white"/>
<path d="M35.432 144.671H13.973V138.753H35.432V144.671ZM6.26697 144.671V138.753H12.185V144.671H6.26697Z" fill="white"/>
</svg>
