<svg width="162" height="48" viewBox="0 0 162 48" fill="none" xmlns="http://www.w3.org/2000/svg">
<path d="M139.003 0H7.1898C1.8214 0 0.1597 6.05397 0 9.08197V35.42C0 42.928 4.7932 45.006 7.1898 45.107H139.105C142.364 47.287 157.184 47.857 161.225 47.431C156.12 44.666 147.391 38.711 147.391 37.236V9.68695C147.391 2.42095 143.077 0 139.003 0Z" fill="white"/>
<path d="M131.022 6.80597H14.0382C9.2736 6.80597 7.7989 11.06 7.6571 13.187V31.692C7.6571 36.967 11.9111 38.427 14.0382 38.498H132.298C135.191 40.029 141.019 41.121 143.571 41.476C140.168 38.923 138.75 34.74 138.466 32.968V13.612C138.466 8.507 134.638 6.80597 131.022 6.80597Z" fill="#0077FF"/>
<path d="M17.1773 26.948C16.5763 26.948 16.0563 26.851 15.6173 26.659C15.1783 26.467 14.8303 26.198 14.5743 25.853C14.3233 25.508 14.1703 25.106 14.1153 24.647L14.1083 24.581H15.3953L15.4103 24.655C15.4893 25.039 15.6743 25.34 15.9643 25.557C16.2553 25.769 16.6623 25.875 17.1853 25.875C17.5353 25.875 17.8333 25.831 18.0803 25.742C18.3263 25.648 18.5163 25.518 18.6493 25.35C18.7833 25.177 18.8493 24.975 18.8493 24.743V24.736C18.8493 24.46 18.7653 24.238 18.5983 24.07C18.4303 23.903 18.1273 23.765 17.6883 23.656L16.4673 23.36C15.9843 23.242 15.5823 23.089 15.2623 22.902C14.9463 22.709 14.7103 22.475 14.5523 22.199C14.3943 21.923 14.3153 21.6 14.3153 21.23V21.223C14.3153 20.779 14.4333 20.387 14.6703 20.047C14.9123 19.706 15.2453 19.44 15.6693 19.248C16.0983 19.056 16.5883 18.959 17.1413 18.959C17.7033 18.959 18.1913 19.061 18.6053 19.263C19.0243 19.46 19.3523 19.731 19.5893 20.076C19.8303 20.417 19.9663 20.801 19.9963 21.23L20.0033 21.326H18.7753L18.7683 21.275C18.7183 20.9 18.5533 20.599 18.2723 20.372C17.9963 20.145 17.6193 20.032 17.1413 20.032C16.8303 20.032 16.5613 20.079 16.3343 20.172C16.1073 20.266 15.9323 20.399 15.8093 20.572C15.6913 20.74 15.6323 20.937 15.6323 21.164V21.171C15.6323 21.344 15.6713 21.501 15.7503 21.644C15.8343 21.782 15.9643 21.903 16.1423 22.007C16.3203 22.11 16.5493 22.197 16.8303 22.266L18.0503 22.561C18.8293 22.749 19.3773 23.008 19.6923 23.338C20.0083 23.664 20.1663 24.1 20.1663 24.647V24.655C20.1663 25.103 20.0353 25.5 19.7743 25.845C19.5173 26.191 19.1623 26.462 18.7093 26.659C18.2603 26.851 17.7493 26.948 17.1773 26.948Z" fill="white"/>
<path d="M24.6922 26.948C23.9822 26.948 23.3582 26.785 22.8212 26.459C22.2882 26.134 21.8722 25.673 21.5712 25.076C21.2752 24.475 21.1272 23.767 21.1272 22.953V22.939C21.1272 22.12 21.2752 21.415 21.5712 20.823C21.8722 20.227 22.2882 19.768 22.8212 19.448C23.3582 19.122 23.9802 18.959 24.6852 18.959C25.3952 18.959 26.0162 19.122 26.5492 19.448C27.0862 19.768 27.5032 20.227 27.7992 20.823C28.0992 21.415 28.2502 22.12 28.2502 22.939V22.953C28.2502 23.772 28.0992 24.48 27.7992 25.076C27.5032 25.673 27.0892 26.134 26.5562 26.459C26.0242 26.785 25.4022 26.948 24.6922 26.948ZM24.7002 25.808C25.1532 25.808 25.5452 25.698 25.8762 25.476C26.2112 25.249 26.4702 24.923 26.6522 24.499C26.8402 24.07 26.9332 23.555 26.9332 22.953V22.939C26.9332 22.337 26.8402 21.824 26.6522 21.4C26.4702 20.976 26.2082 20.653 25.8682 20.431C25.5332 20.209 25.1382 20.098 24.6852 20.098C24.2412 20.098 23.8492 20.212 23.5092 20.439C23.1732 20.661 22.9122 20.984 22.7252 21.408C22.5372 21.827 22.4442 22.337 22.4442 22.939V22.953C22.4442 23.555 22.5372 24.07 22.7252 24.499C22.9122 24.923 23.1732 25.249 23.5092 25.476C23.8492 25.698 24.2462 25.808 24.7002 25.808Z" fill="white"/>
<path d="M29.5522 26.8V19.107H30.8392V20.409H30.8682C30.9962 19.965 31.2182 19.613 31.5342 19.351C31.8492 19.09 32.2242 18.959 32.6582 18.959C32.7712 18.959 32.8733 18.967 32.9613 18.982C33.0553 18.992 33.1272 19.001 33.1762 19.011V20.261C33.1272 20.241 33.0382 20.224 32.9102 20.209C32.7862 20.195 32.6463 20.187 32.4883 20.187C32.1583 20.187 31.8672 20.261 31.6152 20.409C31.3692 20.557 31.1762 20.772 31.0382 21.053C30.9052 21.329 30.8392 21.662 30.8392 22.051V26.8H29.5522Z" fill="white"/>
<path d="M34.2262 26.8V19.107H35.5132V20.409H35.5432C35.6712 19.965 35.8932 19.613 36.2082 19.351C36.5242 19.09 36.8992 18.959 37.3332 18.959C37.4462 18.959 37.5472 18.967 37.6362 18.982C37.7292 18.992 37.8012 19.001 37.8502 19.011V20.261C37.8012 20.241 37.7122 20.224 37.5842 20.209C37.4612 20.195 37.3202 20.187 37.1622 20.187C36.8322 20.187 36.5412 20.261 36.2902 20.409C36.0432 20.557 35.8512 20.772 35.7132 21.053C35.5802 21.329 35.5132 21.662 35.5132 22.051V26.8H34.2262Z" fill="white"/>
<path d="M39.8622 29.388C39.7392 29.388 39.6132 29.381 39.4852 29.366C39.3622 29.356 39.2582 29.344 39.1742 29.329V28.279C39.2282 28.289 39.2902 28.299 39.3592 28.308C39.4332 28.318 39.5102 28.323 39.5882 28.323C39.9982 28.323 40.3232 28.252 40.5652 28.109C40.8112 27.966 41.0112 27.677 41.1642 27.243L41.3192 26.807L38.4642 19.107H39.8402L42.0592 25.808L41.7852 25.513H42.1702L41.8962 25.808L44.1222 19.107H45.4762L42.4732 27.28C42.2912 27.769 42.0862 28.168 41.8592 28.479C41.6322 28.789 41.3592 29.018 41.0382 29.166C40.7182 29.314 40.3262 29.388 39.8622 29.388Z" fill="white"/>
<path d="M44.8623 28.893L45.5133 25.276H46.8593L45.7793 28.893H44.8623Z" fill="white"/>
<path d="M51.2013 26.8V16.127H52.5323V26.8H51.2013Z" fill="white"/>
<path d="M59.0332 26.8L56.8812 19.107H58.1612L59.6992 25.365H59.7292L61.4672 19.107H62.7092L64.4552 25.365H64.4852L66.0232 19.107H67.2952L65.1502 26.8H63.8412L62.1032 20.846H62.0732L60.3432 26.8H59.0332Z" fill="white"/>
<path d="M70.4533 26.948C69.9463 26.948 69.4993 26.851 69.1153 26.659C68.7303 26.467 68.4293 26.196 68.2123 25.845C68.0003 25.495 67.8943 25.089 67.8943 24.625V24.61C67.8943 24.171 68.0033 23.792 68.2203 23.471C68.4423 23.151 68.7603 22.897 69.1743 22.709C69.5933 22.522 70.0963 22.411 70.6833 22.377L73.5303 22.214V23.212L70.8313 23.375C70.3183 23.405 69.9183 23.528 69.6323 23.745C69.3513 23.962 69.2113 24.25 69.2113 24.61V24.625C69.2113 24.995 69.3493 25.288 69.6253 25.505C69.9063 25.722 70.2783 25.831 70.7423 25.831C71.1463 25.831 71.5093 25.747 71.8293 25.579C72.1553 25.407 72.4113 25.172 72.5983 24.877C72.7913 24.581 72.8873 24.248 72.8873 23.878V21.607C72.8873 21.139 72.7393 20.772 72.4433 20.505C72.1523 20.234 71.7383 20.098 71.2003 20.098C70.7073 20.098 70.3083 20.207 70.0023 20.424C69.7013 20.636 69.5143 20.9149 69.4403 21.2599L69.4253 21.326H68.1833L68.1903 21.245C68.2303 20.821 68.3733 20.436 68.6193 20.091C68.8713 19.746 69.2163 19.472 69.6553 19.27C70.0933 19.063 70.6143 18.959 71.2153 18.959C71.8223 18.959 72.3443 19.063 72.7833 19.27C73.2273 19.477 73.5703 19.771 73.8113 20.15C74.0533 20.525 74.1743 20.969 74.1743 21.482V26.8H72.8873V25.55H72.8573C72.7093 25.831 72.5123 26.077 72.2663 26.289C72.0193 26.496 71.7403 26.659 71.4303 26.777C71.1243 26.891 70.7993 26.948 70.4533 26.948Z" fill="white"/>
<path d="M78.5383 26.948C77.9363 26.948 77.4163 26.851 76.9773 26.659C76.5383 26.467 76.1912 26.198 75.9342 25.853C75.6832 25.508 75.5303 25.106 75.4763 24.647L75.4683 24.581H76.7553L76.7703 24.655C76.8493 25.039 77.0343 25.34 77.3253 25.557C77.6163 25.769 78.0223 25.875 78.5453 25.875C78.8953 25.875 79.1933 25.831 79.4403 25.742C79.6873 25.648 79.8763 25.518 80.0103 25.35C80.1433 25.177 80.2093 24.975 80.2093 24.743V24.736C80.2093 24.46 80.1253 24.238 79.9583 24.07C79.7903 23.903 79.4873 23.765 79.0483 23.656L77.8283 23.36C77.3443 23.242 76.9423 23.089 76.6223 22.902C76.3063 22.709 76.0703 22.475 75.9123 22.199C75.7543 21.923 75.6753 21.6 75.6753 21.23V21.223C75.6753 20.779 75.7943 20.387 76.0303 20.047C76.2723 19.706 76.6053 19.44 77.0293 19.248C77.4583 19.056 77.9483 18.959 78.5013 18.959C79.0633 18.959 79.5513 19.061 79.9653 19.263C80.3843 19.46 80.7123 19.731 80.9493 20.076C81.1903 20.417 81.3263 20.801 81.3563 21.23L81.3633 21.326H80.1353L80.1283 21.275C80.0793 20.9 79.9133 20.599 79.6323 20.372C79.3563 20.145 78.9793 20.032 78.5013 20.032C78.1903 20.032 77.9213 20.079 77.6943 20.172C77.4683 20.266 77.2933 20.399 77.1693 20.572C77.0513 20.74 76.9923 20.937 76.9923 21.164V21.171C76.9923 21.344 77.0313 21.501 77.1103 21.644C77.1943 21.782 77.3253 21.903 77.5023 22.007C77.6803 22.11 77.9093 22.197 78.1903 22.266L79.4103 22.561C80.1893 22.749 80.7373 23.008 81.0523 23.338C81.3683 23.664 81.5263 24.1 81.5263 24.647V24.655C81.5263 25.103 81.3953 25.5 81.1343 25.845C80.8773 26.191 80.5223 26.462 80.0693 26.659C79.6203 26.851 79.1103 26.948 78.5383 26.948Z" fill="white"/>
<path d="M85.9712 26.8V19.107H87.2582V20.409H87.2882C87.4162 19.965 87.6382 19.613 87.9532 19.351C88.2692 19.09 88.6442 18.959 89.0772 18.959C89.1912 18.959 89.2922 18.967 89.3812 18.982C89.4742 18.992 89.5462 19.001 89.5952 19.011V20.261C89.5462 20.241 89.4572 20.224 89.3292 20.209C89.2062 20.195 89.0652 20.187 88.9072 20.187C88.5772 20.187 88.2862 20.261 88.0352 20.409C87.7882 20.557 87.5962 20.772 87.4582 21.053C87.3252 21.329 87.2582 21.662 87.2582 22.051V26.8H85.9712Z" fill="white"/>
<path d="M93.4412 26.948C92.7072 26.948 92.0732 26.785 91.5402 26.459C91.0132 26.134 90.6062 25.675 90.3202 25.084C90.0392 24.487 89.8982 23.787 89.8982 22.983V22.976C89.8982 22.182 90.0412 21.484 90.3272 20.883C90.6132 20.276 91.0152 19.805 91.5332 19.47C92.0512 19.13 92.6602 18.959 93.3602 18.959C94.0602 18.959 94.6622 19.122 95.1652 19.448C95.6732 19.768 96.0622 20.219 96.3332 20.801C96.6042 21.383 96.7402 22.059 96.7402 22.828V23.301H90.5422V22.295H96.1042L95.4532 23.227V22.732C95.4532 22.135 95.3622 21.642 95.1792 21.252C95.0022 20.863 94.7552 20.574 94.4402 20.387C94.1242 20.195 93.7622 20.098 93.3532 20.098C92.9432 20.098 92.5762 20.2 92.2502 20.402C91.9252 20.599 91.6692 20.895 91.4812 21.289C91.2942 21.679 91.2002 22.16 91.2002 22.732V23.227C91.2002 23.77 91.2912 24.233 91.4742 24.618C91.6612 25.002 91.9252 25.298 92.2652 25.505C92.6062 25.707 93.0072 25.808 93.4712 25.808C93.7962 25.808 94.0872 25.7589 94.3442 25.6609C94.6002 25.5619 94.8152 25.426 94.9872 25.254C95.1602 25.081 95.2832 24.884 95.3572 24.662L95.3792 24.595H96.6442L96.6292 24.669C96.5652 24.985 96.4422 25.281 96.2592 25.557C96.0822 25.833 95.8532 26.077 95.5712 26.289C95.2902 26.496 94.9702 26.659 94.6102 26.777C94.2502 26.891 93.8602 26.948 93.4412 26.948Z" fill="white"/>
<path d="M100.29 26.948C99.7822 26.948 99.3362 26.851 98.9522 26.659C98.5672 26.467 98.2662 26.196 98.0492 25.845C97.8372 25.495 97.7312 25.089 97.7312 24.625V24.61C97.7312 24.171 97.8402 23.792 98.0572 23.471C98.2792 23.151 98.5972 22.897 99.0112 22.709C99.4302 22.522 99.9332 22.411 100.52 22.377L103.367 22.214V23.212L100.668 23.375C100.155 23.405 99.7552 23.528 99.4692 23.745C99.1882 23.962 99.0482 24.25 99.0482 24.61V24.625C99.0482 24.995 99.1862 25.288 99.4622 25.505C99.7432 25.722 100.115 25.831 100.579 25.831C100.983 25.831 101.346 25.747 101.666 25.579C101.991 25.407 102.248 25.172 102.435 24.877C102.628 24.581 102.724 24.248 102.724 23.878V21.607C102.724 21.139 102.576 20.772 102.28 20.505C101.989 20.234 101.575 20.098 101.037 20.098C100.544 20.098 100.145 20.207 99.8392 20.424C99.5382 20.636 99.3512 20.9149 99.2772 21.2599L99.2622 21.326H98.0202L98.0272 21.245C98.0662 20.821 98.2092 20.436 98.4562 20.091C98.7072 19.746 99.0532 19.472 99.4922 19.27C99.9302 19.063 100.451 18.959 101.052 18.959C101.659 18.959 102.181 19.063 102.62 19.27C103.064 19.477 103.407 19.771 103.648 20.15C103.89 20.525 104.011 20.969 104.011 21.482V26.8H102.724V25.55H102.694C102.546 25.831 102.349 26.077 102.102 26.289C101.856 26.496 101.577 26.659 101.267 26.777C100.961 26.891 100.635 26.948 100.29 26.948Z" fill="white"/>
<path d="M108.537 26.948C107.881 26.948 107.307 26.785 106.814 26.459C106.326 26.129 105.946 25.665 105.675 25.069C105.404 24.467 105.268 23.762 105.268 22.953V22.946C105.268 22.137 105.404 21.435 105.675 20.838C105.951 20.241 106.333 19.78 106.821 19.455C107.309 19.125 107.874 18.959 108.515 18.959C108.88 18.959 109.218 19.019 109.528 19.137C109.844 19.25 110.125 19.416 110.372 19.633C110.618 19.845 110.82 20.098 110.978 20.394H111.008V16.127H112.295V26.8H111.008V25.498H110.978C110.82 25.799 110.621 26.057 110.379 26.274C110.137 26.486 109.861 26.652 109.551 26.77C109.245 26.888 108.907 26.948 108.537 26.948ZM108.789 25.808C109.223 25.808 109.607 25.69 109.943 25.453C110.278 25.217 110.539 24.884 110.727 24.455C110.919 24.026 111.015 23.525 111.015 22.953V22.946C111.015 22.374 110.919 21.876 110.727 21.452C110.534 21.023 110.27 20.69 109.935 20.454C109.605 20.217 109.223 20.098 108.789 20.098C108.335 20.098 107.943 20.214 107.613 20.446C107.282 20.678 107.028 21.006 106.851 21.43C106.673 21.854 106.585 22.359 106.585 22.946V22.953C106.585 23.54 106.673 24.048 106.851 24.477C107.028 24.906 107.282 25.236 107.613 25.468C107.943 25.695 108.335 25.808 108.789 25.808Z" fill="white"/>
<path d="M114.114 26.8V19.107H115.401V26.8H114.114ZM114.758 17.806C114.536 17.806 114.346 17.727 114.188 17.569C114.03 17.411 113.951 17.221 113.951 16.999C113.951 16.773 114.03 16.583 114.188 16.43C114.346 16.272 114.536 16.193 114.758 16.193C114.984 16.193 115.174 16.272 115.327 16.43C115.485 16.583 115.564 16.773 115.564 16.999C115.564 17.221 115.485 17.411 115.327 17.569C115.174 17.727 114.984 17.806 114.758 17.806Z" fill="white"/>
<path d="M117.154 26.8V19.107H118.441V20.202H118.471C118.678 19.842 118.978 19.546 119.373 19.314C119.767 19.078 120.256 18.959 120.837 18.959C121.681 18.959 122.334 19.216 122.797 19.729C123.266 20.237 123.5 20.929 123.5 21.807V26.8H122.213V22.0359C122.213 21.4099 122.065 20.932 121.769 20.601C121.478 20.266 121.037 20.098 120.445 20.098C120.041 20.098 119.688 20.19 119.388 20.372C119.087 20.55 118.853 20.801 118.685 21.127C118.522 21.452 118.441 21.8339 118.441 22.2729V26.8H117.154Z" fill="white"/>
<path d="M128.396 29.5359C127.765 29.5359 127.213 29.445 126.74 29.263C126.271 29.085 125.892 28.841 125.601 28.53C125.315 28.225 125.13 27.882 125.046 27.502L125.031 27.436H126.325L126.355 27.502C126.478 27.778 126.715 27.995 127.065 28.153C127.42 28.316 127.859 28.397 128.382 28.397C129.057 28.397 129.58 28.222 129.95 27.872C130.32 27.527 130.504 27.056 130.504 26.459V25.476H130.475C130.322 25.762 130.125 26.008 129.883 26.215C129.642 26.422 129.363 26.585 129.047 26.703C128.737 26.817 128.396 26.874 128.027 26.874C127.381 26.874 126.811 26.7109 126.318 26.3849C125.83 26.0549 125.448 25.594 125.172 25.002C124.9 24.406 124.765 23.708 124.765 22.909V22.902C124.765 22.103 124.903 21.41 125.179 20.823C125.46 20.232 125.847 19.773 126.34 19.448C126.833 19.122 127.405 18.959 128.056 18.959C128.421 18.959 128.756 19.021 129.062 19.144C129.368 19.268 129.639 19.438 129.876 19.655C130.117 19.872 130.317 20.123 130.475 20.409H130.504V19.107H131.791V26.585C131.791 27.182 131.653 27.699 131.377 28.138C131.101 28.582 130.709 28.925 130.201 29.166C129.693 29.413 129.092 29.5359 128.396 29.5359ZM128.308 25.735C128.747 25.735 129.129 25.619 129.454 25.387C129.785 25.15 130.041 24.82 130.223 24.396C130.411 23.972 130.504 23.476 130.504 22.909V22.902C130.504 22.335 130.411 21.842 130.223 21.422C130.041 21.003 129.785 20.678 129.454 20.446C129.124 20.214 128.742 20.098 128.308 20.098C127.854 20.098 127.46 20.214 127.124 20.446C126.789 20.673 126.53 20.996 126.348 21.415C126.17 21.834 126.081 22.33 126.081 22.902V22.909C126.081 23.491 126.17 23.994 126.348 24.418C126.53 24.837 126.789 25.163 127.124 25.394C127.46 25.621 127.854 25.735 128.308 25.735Z" fill="white"/>
</svg>
