<svg width="263" height="80" viewBox="0 0 263 80" fill="none" xmlns="http://www.w3.org/2000/svg">
<path d="M11.2804 44.8618C12.2508 45.0755 13.1827 45.2962 14.069 45.5275C14.9553 45.7587 15.8206 46.0459 16.6684 46.3823V48.2215H0V46.3823C0.928358 45.9584 1.81468 45.6431 2.66246 45.4329C3.50674 45.2227 4.35102 45.0335 5.19881 44.8618V7.2826C4.09879 7.07241 3.12839 6.83068 2.28411 6.55393C1.43983 6.28067 0.679628 5.99341 0.00350324 5.69914V3.85994H5.58066C7.27272 3.85994 9.12594 3.77586 11.1368 3.6077C13.1477 3.43955 15.106 3.35547 17.0117 3.35547C19.0856 3.35547 21.0229 3.58668 22.8236 4.05261C24.6243 4.51854 26.1797 5.25773 27.4934 6.27016C28.8071 7.2826 29.8336 8.57179 30.5728 10.1342C31.312 11.6967 31.6833 13.5779 31.6833 15.7745C31.6833 18.8573 30.867 21.4147 29.2345 23.443C27.602 25.4714 25.388 26.9288 22.5924 27.8151C24.4071 30.6877 26.3093 33.5394 28.2957 36.37C30.282 39.2006 32.3524 42.0102 34.5069 44.7988L37.9576 46.638V48.2215H30.247L27.8402 46.4453C26.6561 44.9669 25.5807 43.5201 24.6103 42.1048C23.6364 40.6895 22.729 39.2532 21.8847 37.7958C21.0405 36.3385 20.2487 34.8601 19.5095 33.3607C18.7704 31.8613 18.0207 30.2674 17.2605 28.5753H11.2839V44.8618H11.2804ZM15.5894 6.65202C14.577 6.65202 13.7397 6.67304 13.0846 6.71507C12.4295 6.75711 11.8269 6.84119 11.2804 6.96731V25.7902H15.8416C18.7563 25.7902 21.0685 24.8689 22.7816 23.0191C24.4911 21.1729 25.3494 18.7382 25.3494 15.7149C25.3494 12.6916 24.4421 10.3234 22.6239 8.85555C20.8057 7.3877 18.4621 6.65202 15.5894 6.65202Z" fill="white"/>
<path d="M66.7901 43.7828C66.4503 44.501 65.9248 45.1771 65.2067 45.8112C64.4885 46.4453 63.6652 46.9953 62.7369 47.4577C61.8085 47.9236 60.7926 48.2915 59.6961 48.5682C58.5961 48.8415 57.4785 48.9816 56.3365 48.9816C53.8422 48.9816 51.6491 48.5893 49.7469 47.808C47.8446 47.0268 46.2611 45.9058 44.993 44.4484C43.7248 42.9911 42.7649 41.25 42.1098 39.2216C41.4547 37.1932 41.1289 34.9126 41.1289 32.3763C41.1289 26.9708 42.3761 22.851 44.8669 20.0203C47.3577 17.1897 50.8854 15.7744 55.4501 15.7744C56.9285 15.7744 58.3859 15.9741 59.8222 16.377C61.2585 16.7798 62.5372 17.4455 63.6547 18.3738C64.7723 19.3022 65.6831 20.5388 66.3803 22.0802C67.0774 23.6217 67.4277 25.5344 67.4277 27.815C67.4277 28.5332 67.3962 29.2619 67.3331 30.0011C67.2701 30.7403 67.1545 31.532 66.9828 32.3763H47.2105C47.2105 34.1489 47.4312 35.8094 47.8761 37.3509C48.3211 38.8923 48.9867 40.234 49.873 41.3761C50.7593 42.5181 51.8803 43.415 53.2326 44.0701C54.5848 44.7252 56.1683 45.051 57.9865 45.051C59.4649 45.051 60.9642 44.8408 62.4847 44.4169C64.0051 43.993 65.1471 43.4465 65.9073 42.7704L66.7936 43.7828H66.7901ZM55.1944 18.563C52.7877 18.563 50.9485 19.3757 49.6803 21.0012C48.4121 22.6268 47.6519 25.4889 47.3997 29.5877H61.3391C61.3811 29.2093 61.4127 28.838 61.4337 28.4772C61.4547 28.1198 61.4652 27.7695 61.4652 27.4332C61.4652 24.7287 60.9572 22.5742 59.9448 20.9697C58.9324 19.3652 57.3454 18.563 55.1909 18.563H55.1944Z" fill="white"/>
<path d="M96.3817 39.918C96.3817 40.8464 96.4027 41.6521 96.4448 42.3247C96.4868 43.0008 96.5289 43.719 96.5709 44.4792L100.943 45.1133V46.4445C99.885 46.9945 98.7149 47.4815 97.4257 47.9019C96.1365 48.3223 94.8999 48.6411 93.7193 48.8513H92.1358C91.7119 47.8809 91.4597 46.8124 91.3756 45.6528C91.2915 44.4897 91.2285 43.2145 91.1864 41.8203H90.8711C90.703 42.6645 90.3737 43.5228 89.8902 44.3881C89.4033 45.2534 88.7692 46.0241 87.988 46.7003C87.2068 47.3764 86.2854 47.9264 85.2309 48.3468C84.1729 48.7672 82.9713 48.9809 81.6191 48.9809C79.0407 48.9809 76.9388 48.1996 75.3133 46.6372C73.6877 45.0748 72.875 43.0254 72.875 40.4925C72.875 38.5517 73.2639 36.9543 74.0486 35.7071C74.8298 34.4599 75.9824 33.479 77.5028 32.7609C79.0232 32.0427 80.9044 31.5242 83.143 31.2089C85.3816 30.8937 87.981 30.6484 90.9377 30.4803C91.1059 28.6656 91.1584 27.0261 91.0953 25.5687C91.0323 24.1114 90.8011 22.8642 90.3982 21.8308C89.9953 20.7973 89.4068 19.9916 88.6256 19.424C87.8443 18.853 86.8179 18.5693 85.5532 18.5693C84.9612 18.5693 84.2956 18.6008 83.5564 18.6638C82.8172 18.7269 82.0885 18.9091 81.3704 19.2033L78.3926 26.8089H76.7461C76.3222 25.5407 75.9543 24.234 75.6355 22.8817C75.3203 21.5295 75.1171 20.1983 75.033 18.888C76.6375 17.9177 78.4241 17.1575 80.3894 16.6074C82.3548 16.0574 84.5408 15.7842 86.9475 15.7842C89.102 15.7842 90.8221 16.0925 92.1113 16.702C93.4005 17.3151 94.3814 18.1068 95.0575 19.0772C95.7336 20.0511 96.175 21.1266 96.3887 22.3072C96.5989 23.4913 96.704 24.6719 96.704 25.856C96.704 28.3923 96.6515 30.8306 96.5464 33.1743C96.4413 35.5179 96.3887 37.767 96.3887 39.9215L96.3817 39.918ZM84.1519 45.0502C85.2064 45.0502 86.1383 44.84 86.9405 44.4162C87.7427 43.9923 88.4189 43.4878 88.9689 42.8957C89.5189 42.3037 89.9603 41.7011 90.3001 41.0881C90.6364 40.475 90.8711 39.96 90.9973 39.5361V32.8835C88.545 32.8835 86.5411 33.0096 84.9787 33.2653C83.4162 33.5176 82.1901 33.9204 81.3038 34.4705C80.4175 35.0205 79.8044 35.7071 79.4646 36.5304C79.1248 37.3536 78.9566 38.296 78.9566 39.3505C78.9566 41.1687 79.4226 42.5735 80.3509 43.5649C81.2793 44.5563 82.5474 45.0537 84.1519 45.0537V45.0502Z" fill="white"/>
<path d="M126.037 41.9467C125.826 42.875 125.466 43.7648 124.958 44.6091C124.45 45.4534 123.826 46.2031 123.087 46.8582C122.348 47.5133 121.503 48.0318 120.55 48.4101C119.601 48.792 118.575 48.9812 117.478 48.9812C113.295 48.9812 110.17 47.6499 108.1 44.9875C106.03 42.325 104.996 38.1877 104.996 32.5685C104.996 26.9493 106.317 23.0432 108.958 20.2126C111.6 17.382 115.159 15.9666 119.636 15.9666C121.199 15.9666 122.425 16.0402 123.311 16.1873C124.197 16.3345 125.168 16.6007 126.226 16.9791V5.00151L121.409 4.49354V2.84701C122.635 2.33905 124.061 1.89764 125.686 1.51578C127.312 1.13743 128.864 0.818639 130.342 0.566406H131.925V44.6056L136.108 45.1136V46.4448C134.882 47.0369 133.614 47.5448 132.307 47.9652C130.997 48.3856 129.708 48.6834 128.443 48.8516H126.86L126.289 41.9432H126.037V41.9467ZM118.75 45.0505C120.82 45.0505 122.467 44.3954 123.693 43.0852C124.919 41.775 125.763 40.0024 126.229 37.7638V19.8938C125.511 19.4699 124.667 19.1756 123.693 19.0075C122.719 18.8393 121.475 18.7552 119.955 18.7552C117.082 18.7552 114.886 20.0129 113.365 22.5247C111.845 25.04 111.085 28.3856 111.085 32.5685C111.085 34.3026 111.232 35.9176 111.53 37.417C111.824 38.9164 112.29 40.2371 112.924 41.3756C113.558 42.5177 114.35 43.4145 115.299 44.0696C116.248 44.7247 117.401 45.0505 118.753 45.0505H118.75Z" fill="white"/>
<path d="M149.458 48.9782H138.434L153.452 25.2788L139.446 2.15039H150.282L159.407 18.1812L168.975 2.15039H180L165.233 25.2788L179.933 48.9782H169.097L159.337 32.5655L149.451 48.9782H149.458Z" fill="#0077FF"/>
<path d="M176.609 36.3203C176.263 36.6767 175.925 37.1546 175.596 37.7541C175.301 38.3462 175.027 39.0394 174.775 39.8337C174.557 40.6206 174.387 41.4677 174.265 42.3749C174.136 43.2484 174.099 44.1375 174.153 45.0421C174.175 45.6363 174.179 46.1464 174.165 46.5723C174.151 46.9982 173.908 47.2619 173.437 47.3634C172.999 47.4576 172.7 47.1343 172.541 46.3934C172.446 45.9556 172.405 45.436 172.416 44.8345C172.421 44.1993 172.445 43.5773 172.49 42.9686C172.536 42.3598 172.595 41.8184 172.669 41.3443C172.736 40.8366 172.802 40.4877 172.867 40.2975C173.308 38.5816 173.786 37.1219 174.302 35.9184C174.852 34.7076 175.669 33.5098 176.753 32.325C176.986 32.0986 177.283 31.8408 177.644 31.5517C178.031 31.2217 178.392 31.0205 178.729 30.948C178.898 30.9117 179.06 30.9296 179.216 31.0016C179.407 31.0664 179.527 31.2166 179.578 31.4524C179.636 31.7218 179.607 32.0803 179.492 32.5279C179.411 32.9683 179.303 33.4496 179.169 33.9719C179.027 34.4604 178.914 34.9959 178.828 35.5782C178.768 36.1196 178.793 36.6429 178.901 37.1481C178.988 37.5522 179.116 37.7361 179.285 37.6998C179.823 37.5838 180.297 37.1647 180.705 36.4425C181.147 35.713 181.506 34.8429 181.782 33.8321C182.057 32.8213 182.234 31.7613 182.313 30.6521C182.391 29.5428 182.336 28.5504 182.147 27.6748C181.98 26.9002 181.652 26.3544 181.16 26.0373C180.696 25.6793 180.042 25.5909 179.2 25.7722C178.594 25.9027 178 26.1716 177.418 26.5788C176.863 26.945 176.335 27.3582 175.835 27.8182C175.362 28.2373 174.946 28.6793 174.588 29.144C174.223 29.575 173.944 29.9169 173.752 30.1698C172.452 31.824 171.317 33.6717 170.347 35.713C169.403 37.7133 168.636 39.7989 168.047 41.9697C167.483 44.0996 167.137 46.2533 167.007 48.4308C166.903 50.5675 167.054 52.5787 167.46 54.4646C167.649 55.3402 167.897 56.1677 168.206 56.9469C168.541 57.6852 168.926 58.3248 169.359 58.8657C169.819 59.3657 170.338 59.7297 170.916 59.9577C171.493 60.1857 172.119 60.2272 172.793 60.0821C173.769 59.8718 174.719 59.4559 175.642 58.8342C176.599 58.2053 177.488 57.503 178.307 56.7275C179.127 55.9519 179.846 55.1981 180.463 54.4661C181.107 53.6931 181.625 53.0707 182.017 52.5987C182.243 52.3386 182.498 51.9666 182.781 51.4828C183.091 50.9579 183.427 50.6388 183.791 50.5254C184.026 50.4746 184.257 50.5658 184.484 50.799C184.737 50.9912 184.885 51.1883 184.928 51.3904C184.986 51.6598 184.725 52.2447 184.143 53.1451C183.555 54.0119 182.825 54.9618 181.955 55.9948C181.085 57.0279 180.158 58.0381 179.172 59.0256C178.213 59.9721 177.366 60.7007 176.63 61.2115C176.202 61.5151 175.636 61.8309 174.931 62.1588C174.219 62.453 173.493 62.6799 172.752 62.8395C171.742 63.057 170.802 63.0303 169.933 62.7593C169.091 62.4473 168.334 61.9585 167.662 61.2927C167.024 60.6196 166.474 59.7865 166.014 58.7933C165.519 57.8073 165.145 56.725 164.892 55.5463C164.623 54.3003 164.462 52.9783 164.408 51.5805C164.32 50.1899 164.327 48.8317 164.429 47.5059C164.524 46.1464 164.67 44.8639 164.869 43.6583C165.101 42.4454 165.386 41.3973 165.725 40.514C166.341 38.7955 167.055 37.0384 167.867 35.2427C168.705 33.4061 169.676 31.6992 170.781 30.1222C171.887 28.5452 173.144 27.1821 174.552 26.0331C175.995 24.8767 177.659 24.0955 179.545 23.6894C180.993 23.3776 182.114 23.5942 182.909 24.3393C183.704 25.0844 184.239 26.0968 184.514 27.3765C184.761 28.5215 184.803 29.781 184.641 31.155C184.505 32.4881 184.217 33.7659 183.775 34.9886C183.334 36.2113 182.734 37.2742 181.977 38.1772C181.254 39.0729 180.421 39.6223 179.478 39.8254C179.006 39.9269 178.594 39.8924 178.24 39.7219C177.886 39.5515 177.585 39.2991 177.337 38.9649C177.122 38.6235 176.948 38.2207 176.812 37.7564C176.677 37.2922 176.609 36.8135 176.609 36.3203ZM200.829 21.2735C201.334 21.1647 201.645 21.3797 201.761 21.9185C201.819 22.188 201.817 22.5056 201.755 22.8713C201.692 23.2371 201.536 23.6583 201.287 24.1349C200.571 25.5576 199.824 27.1632 199.047 28.9516C198.262 30.7063 197.491 32.5285 196.735 34.4179C195.979 36.3074 195.264 38.2233 194.59 40.1656C193.942 42.067 193.401 43.8925 192.968 45.6421C192.534 47.3917 192.23 49.0076 192.056 50.4899C191.874 51.9385 191.889 53.1511 192.099 54.1277C192.215 54.6665 192.394 55.0862 192.635 55.3867C192.902 55.6463 193.288 55.7217 193.793 55.6129C194.366 55.4897 195.032 55.0643 195.791 54.337C196.585 53.6023 197.343 52.7871 198.066 51.8914C198.816 50.9547 199.485 50.053 200.074 49.1862C200.696 48.3122 201.139 47.6706 201.404 47.2613C201.649 46.9266 201.906 46.7303 202.175 46.6723C202.478 46.607 202.736 46.6573 202.948 46.8231C203.152 46.9552 203.284 47.156 203.342 47.4254C203.4 47.6948 203.323 47.9932 203.112 48.3207C202.602 49.0646 201.971 49.9759 201.216 51.0546C200.462 52.1332 199.65 53.1891 198.78 54.2221C197.943 55.2479 197.082 56.1558 196.195 56.9459C195.3 57.7022 194.449 58.1674 193.641 58.3415C192.53 58.5808 191.625 58.388 190.926 57.7631C190.254 57.0974 189.792 56.1751 189.538 54.9964C189.291 53.8514 189.335 52.0096 189.669 49.4709C190.004 46.9322 190.876 43.7843 192.287 40.0271C192.417 39.6469 192.467 39.3894 192.438 39.2547C192.424 39.1873 192.383 39.1609 192.315 39.1754C192.147 39.2117 191.981 39.4235 191.818 39.8111C191.352 40.7571 190.764 41.8705 190.053 43.1512C189.342 44.4319 188.627 45.6957 187.909 46.9428C187.191 48.1898 186.532 49.3008 185.931 50.2758C185.364 51.2436 184.972 51.8744 184.753 52.1681C184.534 52.4619 184.303 52.6173 184.06 52.6344C183.784 52.6587 183.556 52.5844 183.378 52.4113C183.166 52.2455 183.031 52.0279 182.973 51.7585C182.882 51.4963 182.941 51.2015 183.153 50.8741C184.493 48.7531 185.876 46.4997 187.3 44.1139C188.717 41.6945 190.118 39.2786 191.501 36.8664C192.877 34.4206 194.184 32.0602 195.42 29.7853C196.691 27.5031 197.792 25.416 198.724 23.524C199.065 22.8163 199.425 22.2806 199.805 21.9169C200.185 21.5532 200.526 21.3387 200.829 21.2735ZM207.333 43.8173C207.422 43.4106 207.507 42.9871 207.588 42.5467C207.703 42.0991 207.753 41.8416 207.739 41.7742C207.724 41.7069 207.684 41.6805 207.616 41.695C207.481 41.724 207.252 41.9672 206.928 42.4247C206.603 42.8821 206.243 43.4178 205.847 44.0318C205.45 44.6457 205.071 45.256 204.708 45.8627C204.345 46.4693 204.075 46.9328 203.897 47.2529C203.844 47.3348 203.682 47.5635 203.411 47.9391C203.173 48.3075 202.886 48.5279 202.549 48.6004C202.313 48.6512 202.089 48.5937 201.877 48.4279C201.658 48.2284 201.52 47.994 201.462 47.7245C201.375 47.3204 201.484 46.9269 201.789 46.5441C202.06 46.1685 202.266 45.8952 202.405 45.7242C202.722 45.2331 203.132 44.5987 203.634 43.821C204.136 43.0434 204.648 42.2285 205.169 41.3762C205.69 40.524 206.195 39.6753 206.682 38.8304C207.17 37.9854 207.578 37.2632 207.907 36.6637C208.006 36.4663 208.123 36.1943 208.26 35.8477C208.43 35.4939 208.621 35.1533 208.833 34.8258C209.071 34.4575 209.302 34.1433 209.528 33.8832C209.781 33.5822 210.058 33.399 210.362 33.3338C210.732 33.254 211.034 33.3475 211.268 33.6144C211.535 33.874 211.709 34.189 211.788 34.5594C211.912 35.1319 211.928 35.7803 211.837 36.5046C211.746 37.2289 211.663 37.7403 211.586 38.0387C211.198 39.6728 210.798 41.1685 210.385 42.5259C209.973 43.8833 209.613 45.4054 209.307 47.0924C209.175 47.7902 209.047 48.5049 208.923 49.2365C208.832 49.9608 208.888 50.7944 209.091 51.7374C209.171 52.1078 209.38 52.2568 209.716 52.1842C209.986 52.1262 210.297 51.9359 210.65 51.6131C211.037 51.2831 211.417 50.9194 211.79 50.522C212.189 50.0837 212.554 49.6527 212.886 49.2289C213.244 48.7642 213.528 48.3681 213.74 48.0407C214.905 46.4155 216.019 44.7133 217.08 42.9342C218.135 41.1215 219.178 39.2582 220.211 37.3444C220.369 37.0988 220.544 36.7618 220.733 36.3333C220.956 35.8976 221.2 35.4751 221.465 35.0659C221.729 34.6566 222.021 34.2942 222.34 33.9787C222.687 33.6222 223.062 33.4005 223.466 33.3135C224.308 33.1322 224.83 33.513 225.033 34.456C225.12 34.8601 225.144 35.2956 225.103 35.7624C225.055 36.1955 224.984 36.5986 224.888 36.9716C224.612 37.9824 224.338 39.081 224.065 40.2674C223.818 41.4129 223.584 42.538 223.364 43.6426C223.213 44.415 223.041 45.3331 222.847 46.3967C222.653 47.4604 222.633 48.3458 222.785 49.053C222.857 49.3898 223.062 49.5219 223.399 49.4494C223.769 49.3696 224.191 49.1202 224.665 48.7011C225.138 48.282 225.488 47.9424 225.714 47.6823C226.053 47.2922 226.411 46.8275 226.788 46.2882C227.158 45.7152 227.541 45.1217 227.938 44.5078C228.334 43.8938 228.73 43.2799 229.127 42.666C229.523 42.0521 229.897 41.4959 230.248 40.9975C230.512 40.5882 230.779 40.3546 231.048 40.2966C231.284 40.2458 231.508 40.3033 231.72 40.4691C231.958 40.594 232.106 40.7911 232.164 41.0606C232.215 41.2963 232.195 41.5297 232.103 41.7608C232.039 41.9509 231.98 42.0869 231.927 42.1688C231.523 42.749 231.084 43.4075 230.608 44.1442C230.125 44.8472 229.642 45.5503 229.159 46.2533C228.676 46.9563 228.173 47.6462 227.649 48.3228C227.159 48.9921 226.688 49.5869 226.236 50.107C225.845 50.579 225.369 51.0691 224.809 51.5773C224.241 52.0519 223.722 52.3399 223.25 52.4414C222.274 52.6517 221.549 52.561 221.077 52.1693C220.639 51.7703 220.347 51.2341 220.202 50.5606C220.043 49.8197 220.011 49.0161 220.106 48.1498C220.194 47.2499 220.304 46.451 220.436 45.7531C220.591 44.8387 220.794 43.8966 221.043 42.9267C221.285 41.9231 221.386 41.0027 221.347 40.1655C221.073 40.3655 220.8 40.6533 220.529 41.0289C220.283 41.3635 220.046 41.7319 219.815 42.1339C219.577 42.5023 219.343 42.8875 219.112 43.2895C218.916 43.6843 218.728 44.0418 218.551 44.3619C217.799 45.6162 217.049 46.7995 216.302 47.9118C215.548 48.9905 214.69 50.1619 213.729 51.426C213.212 52.1363 212.645 52.8574 212.027 53.5895C211.443 54.3142 210.663 54.7818 209.687 54.9921C208.845 55.1734 208.14 55.0081 207.571 54.4962C207.003 53.9842 206.603 53.1895 206.371 52.1118C206.117 50.9331 206.108 49.6664 206.345 48.3115C206.582 46.9567 206.863 45.6452 207.189 44.3769L207.333 43.8173ZM247.629 34.5061C247.654 34.7828 247.689 35.1099 247.735 35.4876C247.808 35.8244 247.884 36.178 247.963 36.5485C248.043 36.9189 248.13 37.323 248.225 37.7608C248.352 38.1914 248.49 38.5846 248.637 38.9406C248.784 39.2965 248.971 39.591 249.197 39.8242C249.417 40.0237 249.678 40.0908 249.981 40.0255C250.318 39.953 250.683 39.7686 251.077 39.4723C251.498 39.135 251.912 38.7641 252.318 38.3594C252.717 37.9212 253.112 37.466 253.504 36.9941C253.888 36.4884 254.226 36.0105 254.516 35.5603C254.649 35.3556 254.849 35.2243 255.119 35.1663C255.321 35.1228 255.541 35.1635 255.779 35.2883C256.01 35.3795 256.155 35.5598 256.213 35.8293C256.307 36.2671 256.228 36.6365 255.976 36.9375C255.022 38.2352 253.989 39.4092 252.876 40.4593C251.789 41.4685 250.774 42.0746 249.831 42.2777C249.293 42.3937 248.826 42.3533 248.431 42.1564C248.063 41.9186 247.73 41.6025 247.434 41.2082C247.171 40.8067 246.935 40.3642 246.725 39.8808C246.549 39.3902 246.397 38.9296 246.269 38.499C246.158 38.3115 246.069 38.2249 246.002 38.2394C245.901 38.2612 245.775 38.4117 245.623 38.6909C245.499 38.9293 245.368 39.2217 245.231 39.5683C245.121 39.874 244.997 40.2001 244.86 40.5467C244.723 40.8933 244.606 41.1653 244.507 41.3627C244.185 41.9958 243.781 42.7349 243.293 43.5798C242.798 44.3912 242.229 45.1833 241.585 45.9563C240.975 46.722 240.296 47.4144 239.548 48.0335C238.827 48.6116 238.062 48.9877 237.254 49.1618C236.715 49.2778 236.252 49.2542 235.864 49.091C235.469 48.8941 235.127 48.6153 234.838 48.2547C234.542 47.8604 234.285 47.4048 234.068 46.8877C233.878 46.3297 233.717 45.7476 233.587 45.1414C233.449 44.5015 233.348 43.8713 233.285 43.2506C233.222 42.6299 233.166 42.0429 233.117 41.4896C233.071 41.1119 233.015 40.9303 232.947 40.9448C232.88 40.9593 232.767 41.0893 232.608 41.3349C232.476 41.5395 232.314 41.7683 232.122 42.0211C231.896 42.2812 231.645 42.4234 231.368 42.4477C231.084 42.4384 230.853 42.3472 230.675 42.1741C230.463 42.0083 230.332 41.8075 230.281 41.5718C230.189 41.3096 230.243 41.069 230.442 40.8498C230.721 40.5079 231.01 40.1287 231.307 39.7121C231.605 39.2956 231.87 38.8863 232.1 38.4843C232.364 38.075 232.565 37.697 232.702 37.3504C232.872 36.9966 232.973 36.7282 233.004 36.5453C233.412 33.0394 234.305 29.6581 235.683 26.4014C237.053 23.111 238.751 20.032 240.777 17.1645C241.399 16.2905 242.185 15.2755 243.134 14.1197C244.11 12.923 245.15 11.7827 246.256 10.6989C247.395 9.60782 248.53 8.65872 249.66 7.85158C250.816 7.00352 251.9 6.47071 252.91 6.25316C253.584 6.10813 254.075 6.17862 254.383 6.46462C254.684 6.71695 254.885 7.07885 254.987 7.55033C255.132 8.22386 255.123 9.00101 254.96 9.88177C254.797 10.7625 254.626 11.5218 254.446 12.1596C253.911 13.9309 253.089 15.6761 251.979 17.3951C250.869 19.1141 249.58 20.8188 248.112 22.5093C246.677 24.1925 245.131 25.847 243.472 27.4727C241.806 29.0647 240.167 30.6158 238.554 32.126C237.674 32.9497 237.045 33.79 236.665 34.647C236.286 35.5039 236.038 36.3149 235.921 37.0802C235.796 37.8117 235.737 38.8464 235.743 40.1841C235.742 41.4881 235.883 42.7969 236.166 44.1103C236.318 44.8175 236.51 45.4633 236.742 46.0477C236.812 46.2089 236.925 46.3254 237.081 46.3975C237.264 46.4286 237.457 46.4223 237.659 46.3788C238.467 46.2048 239.246 45.6494 239.996 44.7128C240.779 43.7688 241.483 42.7011 242.107 41.5095C242.732 40.3179 243.285 39.1239 243.768 37.9277C244.243 36.6977 244.61 35.7025 244.869 34.9419C244.834 33.4695 244.966 32.3662 245.266 31.6321C245.593 30.857 246.11 30.3933 246.817 30.2411C247.187 30.1613 247.448 30.2284 247.6 30.4424C247.778 30.6154 247.9 30.8535 247.965 31.1566C248.074 31.6618 248.063 32.2633 247.931 32.9611C247.833 33.6518 247.733 34.1667 247.629 34.5061ZM252.678 9.1045C252.642 8.93612 252.506 8.87731 252.27 8.92807C251.9 9.00784 251.397 9.29225 250.763 9.7813C250.154 10.2294 249.514 10.7726 248.841 11.4109C248.194 12.0082 247.555 12.6392 246.923 13.3039C246.283 13.9349 245.781 14.4659 245.416 14.897C244.459 16.0191 243.538 17.2218 242.651 18.5051C241.791 19.7475 240.985 20.9958 240.233 22.2501C239.515 23.4971 238.881 24.726 238.331 25.9368C237.815 27.1403 237.402 28.2511 237.093 29.2691C236.959 29.7914 236.917 30.1703 236.968 30.4061C237.011 30.6081 237.117 30.691 237.286 30.6548C237.42 30.6258 237.565 30.5595 237.719 30.4559C237.865 30.3186 238.012 30.1813 238.159 30.044C239.038 29.2203 239.958 28.3351 240.917 27.3886C241.902 26.4012 242.877 25.3632 243.841 24.2747C244.838 23.179 245.791 22.04 246.699 20.8578C247.641 19.6683 248.495 18.4801 249.262 17.2931C249.473 16.9657 249.783 16.4409 250.191 15.7187C250.599 14.9965 250.997 14.2237 251.383 13.4005C251.804 12.57 252.14 11.7577 252.391 10.9634C252.677 10.1619 252.773 9.5423 252.678 9.1045Z" fill="#FF9100"/>
</svg>
