<svg width="312" height="96" viewBox="0 0 312 96" fill="none" xmlns="http://www.w3.org/2000/svg">
<path d="M11.2804 49.7417C12.2508 49.9554 13.1827 50.1761 14.069 50.4073C14.9553 50.6386 15.8206 50.9258 16.6684 51.2621V53.1013H0V51.2621C0.928358 50.8382 1.81468 50.523 2.66246 50.3128C3.50674 50.1026 4.35102 49.9134 5.19881 49.7417V12.1625C4.09879 11.9523 3.12839 11.7106 2.28411 11.4338C1.43983 11.1606 0.679628 10.8733 0.00350324 10.579V8.73982H5.58066C7.27272 8.73982 9.12594 8.65574 11.1368 8.48758C13.1477 8.31943 15.106 8.23535 17.0117 8.23535C19.0856 8.23535 21.0229 8.46657 22.8236 8.9325C24.6243 9.39843 26.1797 10.1376 27.4934 11.15C28.8071 12.1625 29.8336 13.4517 30.5728 15.0141C31.312 16.5766 31.6833 18.4578 31.6833 20.6543C31.6833 23.7372 30.867 26.2945 29.2345 28.3229C27.602 30.3513 25.388 31.8086 22.5924 32.695C24.4071 35.5676 26.3093 38.4193 28.2957 41.2499C30.282 44.0805 32.3524 46.8901 34.5069 49.6787L37.9576 51.5179V53.1013H30.247L27.8402 51.3252C26.6561 49.8468 25.5807 48.4 24.6103 46.9847C23.6364 45.5694 22.729 44.133 21.8847 42.6757C21.0405 41.2183 20.2487 39.74 19.5095 38.2406C18.7704 36.7412 18.0207 35.1472 17.2605 33.4552H11.2839V49.7417H11.2804ZM15.5894 11.5319C14.577 11.5319 13.7397 11.5529 13.0846 11.595C12.4295 11.637 11.8269 11.7211 11.2804 11.8472V30.6701H15.8416C18.7563 30.6701 21.0685 29.7487 22.7816 27.899C24.4911 26.0528 25.3494 23.6181 25.3494 20.5948C25.3494 17.5715 24.4421 15.2033 22.6239 13.7354C20.8057 12.2676 18.4621 11.5319 15.5894 11.5319Z" fill="white"/>
<path d="M66.7901 48.6627C66.4503 49.3809 65.9248 50.057 65.2067 50.6911C64.4885 51.3252 63.6652 51.8752 62.7369 52.3376C61.8085 52.8035 60.7926 53.1714 59.6961 53.4481C58.5961 53.7214 57.4785 53.8615 56.3365 53.8615C53.8422 53.8615 51.6491 53.4691 49.7469 52.6879C47.8446 51.9067 46.2611 50.7857 44.993 49.3283C43.7248 47.871 42.7649 46.1298 42.1098 44.1015C41.4547 42.0731 41.1289 39.7925 41.1289 37.2561C41.1289 31.8506 42.3761 27.7308 44.8669 24.9002C47.3577 22.0696 50.8854 20.6543 55.4501 20.6543C56.9285 20.6543 58.3859 20.854 59.8222 21.2569C61.2585 21.6597 62.5372 22.3253 63.6547 23.2537C64.7723 24.1821 65.6831 25.4187 66.3803 26.9601C67.0774 28.5016 67.4277 30.4143 67.4277 32.6949C67.4277 33.4131 67.3962 34.1418 67.3331 34.8809C67.2701 35.6201 67.1545 36.4119 66.9828 37.2561H47.2105C47.2105 39.0288 47.4312 40.6893 47.8761 42.2307C48.3211 43.7722 48.9867 45.1139 49.873 46.256C50.7593 47.398 51.8803 48.2949 53.2326 48.95C54.5848 49.6051 56.1683 49.9309 57.9865 49.9309C59.4649 49.9309 60.9642 49.7207 62.4847 49.2968C64.0051 48.8729 65.1471 48.3264 65.9073 47.6503L66.7936 48.6627H66.7901ZM55.1944 23.4429C52.7877 23.4429 50.9485 24.2556 49.6803 25.8811C48.4121 27.5066 47.6519 30.3688 47.3997 34.4676H61.3391C61.3811 34.0892 61.4127 33.7179 61.4337 33.357C61.4547 32.9997 61.4652 32.6494 61.4652 32.3131C61.4652 29.6086 60.9572 27.4541 59.9448 25.8496C58.9324 24.2451 57.3454 23.4429 55.1909 23.4429H55.1944Z" fill="white"/>
<path d="M96.3817 44.7979C96.3817 45.7262 96.4027 46.532 96.4448 47.2046C96.4868 47.8807 96.5289 48.5989 96.5709 49.3591L100.943 49.9932V51.3244C99.885 51.8744 98.7149 52.3614 97.4257 52.7818C96.1365 53.2021 94.8999 53.5209 93.7193 53.7311H92.1358C91.7119 52.7607 91.4597 51.6922 91.3756 50.5327C91.2915 49.3696 91.2285 48.0944 91.1864 46.7001H90.8711C90.703 47.5444 90.3737 48.4027 89.8902 49.268C89.4033 50.1333 88.7692 50.904 87.988 51.5801C87.2068 52.2563 86.2854 52.8063 85.2309 53.2267C84.1729 53.6471 82.9713 53.8608 81.6191 53.8608C79.0407 53.8608 76.9388 53.0795 75.3133 51.5171C73.6877 49.9546 72.875 47.9053 72.875 45.3724C72.875 43.4316 73.2639 41.8341 74.0486 40.587C74.8298 39.3398 75.9824 38.3589 77.5028 37.6408C79.0232 36.9226 80.9044 36.4041 83.143 36.0888C85.3816 35.7735 87.981 35.5283 90.9377 35.3602C91.1059 33.5455 91.1584 31.906 91.0953 30.4486C91.0323 28.9913 90.8011 27.7441 90.3982 26.7107C89.9953 25.6772 89.4068 24.8715 88.6256 24.3039C87.8443 23.7329 86.8179 23.4491 85.5532 23.4491C84.9612 23.4491 84.2956 23.4807 83.5564 23.5437C82.8172 23.6068 82.0885 23.789 81.3704 24.0832L78.3926 31.6888H76.7461C76.3222 30.4206 75.9543 29.1139 75.6355 27.7616C75.3203 26.4094 75.1171 25.0781 75.033 23.7679C76.6375 22.7975 78.4241 22.0373 80.3894 21.4873C82.3548 20.9373 84.5408 20.6641 86.9475 20.6641C89.102 20.6641 90.8221 20.9723 92.1113 21.5819C93.4005 22.195 94.3814 22.9867 95.0575 23.9571C95.7336 24.931 96.175 26.0065 96.3887 27.1871C96.5989 28.3712 96.704 29.5518 96.704 30.7359C96.704 33.2722 96.6515 35.7105 96.5464 38.0541C96.4413 40.3978 96.3887 42.6469 96.3887 44.8014L96.3817 44.7979ZM84.1519 49.9301C85.2064 49.9301 86.1383 49.7199 86.9405 49.296C87.7427 48.8721 88.4189 48.3677 88.9689 47.7756C89.5189 47.1836 89.9603 46.581 90.3001 45.968C90.6364 45.3549 90.8711 44.8399 90.9973 44.416V37.7634C88.545 37.7634 86.5411 37.8895 84.9787 38.1452C83.4162 38.3975 82.1901 38.8003 81.3038 39.3503C80.4175 39.9003 79.8044 40.587 79.4646 41.4102C79.1248 42.2335 78.9566 43.1759 78.9566 44.2304C78.9566 46.0485 79.4226 47.4533 80.3509 48.4447C81.2793 49.4362 82.5474 49.9336 84.1519 49.9336V49.9301Z" fill="white"/>
<path d="M126.037 46.8265C125.826 47.7549 125.466 48.6447 124.958 49.489C124.45 50.3333 123.826 51.083 123.087 51.7381C122.348 52.3932 121.503 52.9117 120.55 53.29C119.601 53.6719 118.575 53.8611 117.478 53.8611C113.295 53.8611 110.17 52.5298 108.1 49.8674C106.03 47.2049 104.996 43.0676 104.996 37.4484C104.996 31.8292 106.317 27.9231 108.958 25.0925C111.6 22.2618 115.159 20.8465 119.636 20.8465C121.199 20.8465 122.425 20.9201 123.311 21.0672C124.197 21.2144 125.168 21.4806 126.226 21.859V9.88139L121.409 9.37342V7.7269C122.635 7.21893 124.061 6.77752 125.686 6.39567C127.312 6.01732 128.864 5.69852 130.342 5.44629H131.925V49.4855L136.108 49.9935V51.3247C134.882 51.9168 133.614 52.4247 132.307 52.8451C130.997 53.2655 129.708 53.5633 128.443 53.7314H126.86L126.289 46.823H126.037V46.8265ZM118.75 49.9304C120.82 49.9304 122.467 49.2753 123.693 47.9651C124.919 46.6549 125.763 44.8823 126.229 42.6437V24.7737C125.511 24.3498 124.667 24.0555 123.693 23.8873C122.719 23.7192 121.475 23.6351 119.955 23.6351C117.082 23.6351 114.886 24.8928 113.365 27.4046C111.845 29.9199 111.085 33.2655 111.085 37.4484C111.085 39.1825 111.232 40.7975 111.53 42.2969C111.824 43.7962 112.29 45.117 112.924 46.2555C113.558 47.3976 114.35 48.2944 115.299 48.9495C116.248 49.6046 117.401 49.9304 118.753 49.9304H118.75Z" fill="white"/>
<path d="M149.458 53.8581H138.434L153.452 30.1587L139.446 7.03027H150.282L159.407 23.0611L168.975 7.03027H180L165.233 30.1587L179.933 53.8581H169.097L159.337 37.4454L149.451 53.8581H149.458Z" fill="#0077FF"/>
<path d="M174.044 64.687C173.616 64.9906 173.19 65.4698 172.767 66.1247C172.378 66.7723 171.892 67.4585 171.308 68.1833C170.717 68.8744 169.997 69.5404 169.148 70.1812C168.333 70.8148 167.302 71.2658 166.056 71.5341C165.181 71.7226 164.37 71.721 163.624 71.5293C162.912 71.3303 162.275 70.9917 161.714 70.5134C161.186 70.028 160.746 69.4534 160.391 68.7897C159.996 68.0995 159.715 67.3672 159.548 66.5926C159.367 65.7507 159.345 64.751 159.484 63.5936C159.615 62.4025 159.882 61.2702 160.285 60.1967C160.715 59.0823 161.244 58.1049 161.874 57.2646C162.537 56.4171 163.29 55.9026 164.132 55.7213C164.637 55.6126 165.027 55.7048 165.301 55.9981C165.609 56.2841 165.868 56.6688 166.078 57.1522C166.288 57.6356 166.471 58.1599 166.628 58.7251C166.778 59.2567 166.984 59.7233 167.247 60.1248C167.358 60.3124 167.537 60.5732 167.785 60.9074C168.026 61.2079 168.284 61.5048 168.559 61.7981C168.867 62.0841 169.202 62.3292 169.563 62.5333C169.95 62.6965 170.329 62.7383 170.7 62.6585C171.205 62.5497 171.494 62.2583 171.568 61.7843C171.635 61.2765 171.6 60.7027 171.462 60.0629C171.237 59.0189 170.848 58.028 170.293 57.0902C169.773 56.1452 169.198 55.1942 168.569 54.2372C167.933 53.2466 167.323 52.215 166.74 51.1425C166.19 50.0628 165.778 48.883 165.502 47.6033C165.118 45.8184 165.055 44.0525 165.313 42.3055C165.564 40.5248 166.094 38.8954 166.903 37.4173C167.746 35.932 168.829 34.6593 170.151 33.5994C171.473 32.5394 173.027 31.8172 174.812 31.4329C175.755 31.2299 176.599 31.2242 177.345 31.4159C178.118 31.5668 178.777 31.8476 179.324 32.2585C179.863 32.6357 180.299 33.1056 180.632 33.6683C180.998 34.2237 181.246 34.8045 181.377 35.4107C181.638 36.6231 181.646 37.8898 181.402 39.211C181.151 40.4984 180.739 41.697 180.168 42.8068C179.623 43.8756 178.957 44.7941 178.171 45.5624C177.385 46.3307 176.588 46.8019 175.78 46.9759C174.938 47.1572 174.193 47.0533 173.546 46.6642C172.924 46.2341 172.509 45.5308 172.298 44.5541C172.219 44.1837 172.249 43.7542 172.391 43.2656C172.525 42.7434 172.862 42.4243 173.4 42.3082C173.838 42.214 174.123 42.3111 174.256 42.5997C174.415 42.8474 174.531 43.1396 174.603 43.4764C174.676 43.8131 174.762 44.1294 174.861 44.4253C174.986 44.6802 175.251 44.7641 175.655 44.6771C176.261 44.5466 176.813 44.1635 177.31 43.5278C177.841 42.8849 178.283 42.1554 178.636 41.3394C178.982 40.4898 179.232 39.6077 179.388 38.6933C179.536 37.7452 179.534 36.9175 179.382 36.2103C179.157 35.1663 178.697 34.4197 178.001 33.9705C177.298 33.4876 176.357 33.373 175.178 33.6268C173.865 33.9096 172.684 34.481 171.636 35.341C170.614 36.1601 169.774 37.169 169.116 38.3679C168.492 39.5595 168.072 40.8832 167.857 42.339C167.635 43.7612 167.687 45.23 168.013 46.7455C168.383 48.463 168.911 49.9349 169.598 51.1613C170.319 52.3804 171.036 53.5827 171.749 54.7682C172.089 55.3645 172.453 55.9909 172.841 56.6474C173.222 57.2701 173.496 57.9688 173.662 58.7434C173.873 59.72 173.958 60.4417 173.917 60.9085C173.903 61.3344 173.932 61.7157 174.005 62.0525C174.056 62.2882 174.233 62.3735 174.536 62.3082C174.771 62.2574 175.144 62.1067 175.654 61.856C176.164 61.6052 176.713 61.2931 177.302 60.9196C177.884 60.5124 178.455 60.0547 179.015 59.5465C179.602 58.9973 180.11 58.4121 180.54 57.791C180.593 57.7091 180.72 57.6464 180.922 57.6029C181.192 57.5449 181.476 57.5542 181.774 57.6309C182.073 57.7076 182.251 57.8807 182.309 58.1501C182.367 58.4195 182.23 58.7661 181.898 59.1899C180.757 60.5986 179.558 61.7378 178.3 62.6076C177.043 63.4774 175.624 64.1706 174.044 64.687ZM163.774 58.9698C163.269 59.0786 162.852 59.4327 162.523 60.0321C162.22 60.5906 161.993 61.2561 161.842 62.0285C161.684 62.7673 161.601 63.5253 161.592 64.3025C161.576 65.0459 161.615 65.6366 161.709 66.0744C161.934 67.1183 162.352 67.9973 162.964 68.7113C163.603 69.3843 164.477 69.6012 165.589 69.3619C166.464 69.1734 167.213 68.8887 167.836 68.5079C168.493 68.1199 169.03 67.6695 169.448 67.1566C169.58 66.9519 169.786 66.6786 170.064 66.3367C170.336 65.9611 170.443 65.6386 170.385 65.3692C170.341 65.1671 170.12 65.0386 169.72 64.9837C169.314 64.8951 168.927 64.8197 168.562 64.7575C167.931 64.6113 167.297 64.2017 166.658 63.5287C166.02 62.8556 165.523 62.0995 165.166 61.2601C165.096 61.099 164.998 60.891 164.873 60.6361C164.774 60.3402 164.645 60.0685 164.486 59.8208C164.36 59.5659 164.229 59.3651 164.092 59.2185C163.981 59.0309 163.875 58.948 163.774 58.9698ZM197.361 59.8247C196.99 59.9045 196.567 60.0661 196.091 60.3096C195.608 60.5194 195.152 60.7761 194.724 61.0796C194.322 61.3423 193.999 61.641 193.754 61.9756C193.502 62.2766 193.401 62.545 193.452 62.7808C193.502 63.0165 193.679 63.1017 193.982 63.0365C194.252 62.9784 194.587 62.8181 194.989 62.5555C195.39 62.2928 195.768 62.0001 196.121 61.6773C196.501 61.3137 196.83 60.9608 197.109 60.6189C197.388 60.277 197.556 59.9941 197.614 59.7703L197.361 59.8247ZM188.314 49.7213C187.857 49.8902 187.49 50.2334 187.214 50.7509C186.964 51.2276 186.711 51.6874 186.454 52.1303C185.902 53.1655 185.216 54.3174 184.397 55.5862C183.57 56.8213 182.81 57.9541 182.116 58.9846C181.931 59.2711 181.703 59.4433 181.434 59.5013C181.165 59.5593 180.928 59.5223 180.723 59.3902C180.477 59.2316 180.326 59.0176 180.268 58.7482C180.21 58.4788 180.273 58.2008 180.458 57.9143C180.888 57.2932 181.354 56.5938 181.856 55.8161C182.351 55.0048 182.842 54.1766 183.33 53.3317C183.817 52.4867 184.279 51.6826 184.713 50.9195C185.141 50.1226 185.485 49.4318 185.747 48.8469C185.963 48.3775 186.166 47.9286 186.356 47.5001C186.538 47.038 186.731 46.6263 186.935 46.2652C187.166 45.8632 187.415 45.5454 187.682 45.3117C187.975 45.0371 188.34 44.8527 188.778 44.7584C189.351 44.6352 189.778 44.737 190.06 45.0639C190.368 45.3499 190.58 45.7624 190.696 46.3012C190.783 46.7053 190.81 47.1576 190.777 47.6581C190.744 48.1586 190.677 48.6663 190.576 49.1813C190.509 49.689 190.456 50.1763 190.415 50.6431C190.368 51.0762 190.369 51.4107 190.42 51.6464C190.456 51.8148 190.542 51.8845 190.676 51.8555C190.777 51.8337 190.997 51.6278 191.336 51.2377C191.709 50.8403 192.104 50.3852 192.522 49.8723C192.94 49.3594 193.345 48.8669 193.737 48.395C194.121 47.8893 194.396 47.5306 194.562 47.3187C194.856 47.0441 195.192 46.725 195.572 46.3613C195.944 45.9639 196.358 45.593 196.812 45.2485C197.293 44.863 197.802 44.5245 198.338 44.2328C198.867 43.9075 199.418 43.6832 199.99 43.5599C200.731 43.4004 201.359 43.3709 201.874 43.4714C202.389 43.5719 202.817 43.7616 203.159 44.0403C203.535 44.3118 203.82 44.6556 204.016 45.0717C204.245 45.4805 204.406 45.9037 204.501 46.3415C204.733 47.4192 204.764 48.6282 204.594 49.9685C204.418 51.2751 204.089 52.6144 203.61 53.9863C203.156 55.3173 202.578 56.64 201.874 57.9543C201.163 59.235 200.376 60.4087 199.514 61.4755C198.651 62.5422 197.731 63.4273 196.755 64.1308C195.786 64.868 194.831 65.3382 193.888 65.5412C192.978 65.737 192.201 65.7281 191.556 65.5147C190.918 65.3348 190.523 64.8913 190.371 64.1841C190.168 63.2412 190.422 62.376 191.134 61.5885C191.838 60.7673 192.702 60.035 193.726 59.3916C194.784 58.7409 195.864 58.1913 196.965 57.7427C198.06 57.2604 198.909 56.8662 199.512 56.56C200.37 55.142 201.02 53.6629 201.464 52.1226C201.9 50.5486 202.013 49.2733 201.803 48.2967C201.643 47.5558 201.329 47.0773 200.86 46.8613C200.424 46.6379 199.97 46.577 199.499 46.6786C199.061 46.7728 198.608 46.9585 198.139 47.2357C197.67 47.5129 197.195 47.8442 196.714 48.2296C196.267 48.6078 195.827 49.0197 195.395 49.4652C194.988 49.8698 194.633 50.2636 194.327 50.6464C193.099 52.1442 192.046 53.5515 191.167 54.8685C190.28 56.1518 189.519 57.4434 188.882 58.7432C188.239 60.0094 187.67 61.2948 187.175 62.5993C186.708 63.863 186.254 65.1939 185.815 66.5923C184.758 70.0267 183.839 73.2901 183.061 76.3826C182.255 79.516 181.641 82.5554 181.218 85.5008C181.151 86.0085 181.14 86.6101 181.184 87.3053C181.194 88.0079 181.18 88.6804 181.143 89.3228C181.112 89.9989 181.026 90.5813 180.885 91.0698C180.717 91.5993 180.414 91.9112 179.976 92.0055C179.505 92.107 179.152 92.0243 178.918 91.7575C178.685 91.4907 178.517 91.1215 178.416 90.65C178.292 90.0775 178.242 89.4364 178.266 88.7266C178.289 88.0168 178.328 87.4622 178.383 87.0627C178.633 84.7888 179.005 82.5063 179.499 80.2153C179.992 77.9243 180.56 75.6525 181.203 73.3998C181.845 71.1472 182.532 68.9378 183.264 66.7716C183.988 64.5718 184.703 62.4093 185.408 60.2841C185.687 59.449 185.982 58.6102 186.294 57.7678C186.639 56.9181 186.948 56.0589 187.219 55.19C187.523 54.3139 187.774 53.4319 187.97 52.5439C188.159 51.6222 188.274 50.6813 188.314 49.7213ZM220.458 41.6897C220.676 42.7 220.578 43.6372 220.165 44.5014C219.786 45.3583 219.224 46.1841 218.479 46.9788C217.767 47.7663 216.947 48.5419 216.02 49.3055C215.084 50.0354 214.203 50.7713 213.376 51.5132C212.869 51.9396 212.287 52.3468 211.631 52.7348C210.974 53.1228 210.641 53.4588 210.632 53.7427C210.642 53.952 210.652 54.1613 210.662 54.3706C210.698 54.539 210.734 54.7074 210.77 54.8758C210.93 55.6167 211.182 56.2143 211.526 56.6687C211.864 57.0894 212.25 57.4115 212.686 57.6348C213.155 57.8508 213.623 57.9791 214.09 58.0195C214.591 58.0527 215.06 58.0222 215.498 57.9279C216.306 57.7539 217.148 57.326 218.023 56.6442C218.89 55.9287 219.72 55.1159 220.51 54.2056C221.335 53.2881 222.098 52.331 222.799 51.3342C223.527 50.2965 224.155 49.3683 224.684 48.5498C224.869 48.2633 225.1 48.1079 225.376 48.0835C225.646 48.0255 225.887 48.0794 226.098 48.2452C226.303 48.3773 226.434 48.5781 226.492 48.8475C226.55 49.1169 226.491 49.4117 226.313 49.7319C225.501 51.0344 224.691 52.2658 223.884 53.4263C223.11 54.5796 222.281 55.639 221.397 56.6047C220.505 57.5367 219.534 58.3449 218.483 59.0293C217.459 59.6727 216.307 60.1322 215.027 60.4078C214.051 60.6181 213.169 60.6141 212.382 60.396C211.595 60.1778 210.904 59.8332 210.309 59.3623C209.741 58.8503 209.259 58.2493 208.864 57.5592C208.461 56.8354 208.177 56.0862 208.01 55.3116C207.749 54.0993 207.805 52.6424 208.179 50.941C208.519 49.2468 209.099 47.6065 209.921 46.0202C210.735 44.4001 211.731 42.9699 212.908 41.7297C214.086 40.4894 215.365 39.7206 216.746 39.4233C217.554 39.2493 218.316 39.3496 219.031 39.7242C219.779 40.0916 220.255 40.7467 220.458 41.6897ZM216.68 41.8161C216.107 41.9394 215.522 42.3298 214.923 42.9872C214.318 43.611 213.751 44.3321 213.222 45.1507C212.72 45.9283 212.292 46.7252 211.94 47.5411C211.587 48.3571 211.373 49.0021 211.299 49.4762C211.275 49.6928 211.267 49.8179 211.274 49.8516C211.325 50.0873 211.502 50.1725 211.805 50.1073C212.209 50.0203 212.755 49.6913 213.443 49.1204C214.164 48.5422 214.846 47.8667 215.49 47.0937C216.134 46.3207 216.67 45.5358 217.098 44.739C217.559 43.935 217.731 43.2635 217.615 42.7247C217.572 42.5226 217.474 42.3146 217.322 42.1006C217.163 41.853 216.949 41.7581 216.68 41.8161ZM238.222 38.4988C238.346 39.0713 238.372 39.6824 238.3 40.3321C238.221 40.9481 238.064 41.5281 237.829 42.0721C237.594 42.6161 237.294 43.1036 236.928 43.5346C236.556 43.932 236.134 44.1814 235.662 44.283C235.393 44.341 235.105 44.3148 234.8 44.2044C234.52 44.0531 234.355 43.8596 234.305 43.6239C234.21 43.1861 234.228 42.777 234.358 42.3968C234.48 41.9828 234.63 41.6157 234.808 41.2956C235.012 40.9345 235.189 40.6143 235.341 40.335C235.518 40.0149 235.575 39.7032 235.509 39.4001C235.444 39.097 235.3 38.9167 235.076 38.8592C234.886 38.7944 234.74 38.7729 234.639 38.7947C233.494 39.0412 232.438 39.6209 231.472 40.5338C230.499 41.4129 229.666 42.4556 228.974 43.6617C228.316 44.8605 227.852 46.141 227.581 47.503C227.311 48.8651 227.302 50.1355 227.556 51.3142C227.752 52.2234 228.171 52.9436 228.814 53.4747C229.45 53.9721 230.357 54.0939 231.536 53.8401C234.365 53.231 237.547 50.2552 241.084 44.9127C241.216 44.7081 241.403 44.5972 241.646 44.5801C241.923 44.5558 242.164 44.6097 242.368 44.7418C242.566 44.8403 242.707 45.0037 242.791 45.2322C242.875 45.4607 242.832 45.7519 242.662 46.1057C242.314 46.7798 241.746 47.6597 240.958 48.7456C240.162 49.7978 239.259 50.8381 238.247 51.8665C237.84 52.2711 237.374 52.7239 236.848 53.2249C236.355 53.7186 235.808 54.2064 235.207 54.6882C234.599 55.1363 233.946 55.5412 233.249 55.9027C232.585 56.2571 231.899 56.5104 231.192 56.6627C229.475 57.0325 228.051 56.7224 226.922 55.7322C225.785 54.7084 225.032 53.3377 224.662 51.6202C224.372 50.2731 224.442 48.7958 224.871 47.1881C225.266 45.5878 225.906 44.0581 226.79 42.5992C227.707 41.133 228.824 39.8531 230.139 38.7595C231.446 37.6322 232.841 36.909 234.323 36.5899C235.266 36.3869 236.101 36.4185 236.828 36.6848C237.547 36.9175 238.012 37.5222 238.222 38.4988ZM249.409 22.3999C249.813 22.3129 250.145 22.3823 250.405 22.6083C250.665 22.8342 250.839 23.1492 250.926 23.5533C250.984 23.8227 251 24.2245 250.974 24.7587C250.975 25.2519 250.908 25.7596 250.773 26.2819C250.673 26.7968 250.511 27.2722 250.288 27.7079C250.098 28.1363 249.835 28.3868 249.498 28.4594C249.363 28.4884 249.221 28.4837 249.072 28.4453C248.957 28.3997 248.877 28.2759 248.834 28.0739C248.783 27.8381 248.751 27.5278 248.739 27.1428C248.726 26.7579 248.669 26.3297 248.568 25.8582C248.517 25.6225 248.436 25.4108 248.326 25.2232C248.241 24.9948 248.17 24.7458 248.112 24.4764C248.01 24.0049 248.092 23.5645 248.356 23.1553C248.654 22.7387 249.005 22.4869 249.409 22.3999ZM242.644 46.2153C242.404 46.408 242.158 46.4961 241.908 46.4795C241.617 46.4364 241.403 46.3416 241.266 46.195C241.087 46.0219 240.99 45.8139 240.973 45.5709C240.922 45.3352 240.993 45.0909 241.185 44.8381C241.682 44.2024 242.146 43.574 242.576 42.9528C243.006 42.3316 243.396 41.7718 243.747 41.2734C244.091 40.7414 244.378 40.2743 244.608 39.8723C244.873 39.463 245.074 39.1729 245.214 39.0019C245.545 38.5781 245.879 38.0834 246.216 37.5176C246.586 36.9446 246.976 36.3848 247.387 35.8383C247.798 35.2917 248.257 34.8052 248.764 34.3788C249.271 33.9525 249.828 33.674 250.434 33.5435C250.872 33.4492 251.184 33.5055 251.369 33.7122C251.581 33.878 251.723 34.1293 251.796 34.4661C251.905 34.9712 251.88 35.5932 251.722 36.332C251.597 37.0635 251.442 37.7313 251.255 38.3354C250.854 39.5846 250.493 40.7723 250.172 41.8986C249.877 42.984 249.538 44.2728 249.154 45.7649C249.066 46.1716 248.922 46.7311 248.723 47.4435C248.55 48.1149 248.511 48.6696 248.606 49.1074C248.627 49.2084 248.686 49.319 248.783 49.4392C248.879 49.5594 249.011 49.6014 249.18 49.5651C249.517 49.4926 249.871 49.2577 250.244 48.8603C250.609 48.4293 250.858 48.1114 250.99 47.9068C251.269 47.5649 251.583 47.1447 251.934 46.6463C252.319 46.1407 252.7 45.6182 253.077 45.0789C253.447 44.5059 253.803 43.9533 254.147 43.4213C254.49 42.8892 254.808 42.398 255.098 41.9478C255.283 41.6613 255.514 41.5059 255.791 41.4816C256.067 41.4572 256.308 41.5111 256.513 41.6433C256.717 41.7754 256.852 41.993 256.918 42.2961C257.009 42.5582 256.933 42.8567 256.687 43.1913C256.284 43.7716 255.854 44.3928 255.397 45.0549C254.967 45.6761 254.524 46.3177 254.067 46.9798C253.645 47.6347 253.201 48.2763 252.738 48.9047C252.3 49.4922 251.873 50.0424 251.455 50.5553C251.116 50.9454 250.694 51.4415 250.189 52.0435C249.677 52.6118 249.068 52.9721 248.361 53.1244C247.822 53.2404 247.351 53.1832 246.949 52.9526C246.574 52.6811 246.321 52.2422 246.19 51.6361C246.089 51.1646 246.038 50.6822 246.037 50.189C246.029 49.6621 246.091 49.0497 246.223 48.3518C246.381 47.613 246.565 46.8333 246.776 46.0127C246.987 45.192 247.215 44.3677 247.46 43.5398C247.697 42.6782 247.908 41.8576 248.092 41.0778C248.195 40.7385 248.301 40.3282 248.409 39.8468C248.509 39.3319 248.538 38.9733 248.494 38.7713C248.451 38.5692 248.362 38.4827 248.227 38.5117C248.059 38.548 247.842 38.7707 247.578 39.18C247.22 39.6447 246.809 40.1913 246.345 40.8197C245.915 41.4409 245.472 42.0825 245.015 42.7447C244.593 43.3995 244.166 44.0375 243.736 44.6587C243.34 45.2726 242.976 45.7915 242.644 46.2153ZM256.747 43.3899C256.507 43.5826 256.183 43.6347 255.776 43.5461C255.363 43.4238 255.116 43.1774 255.036 42.807C254.971 42.5039 255.074 42.1645 255.345 41.7889C255.941 40.9559 256.571 40.1155 257.234 39.268C257.897 38.4204 258.425 37.7606 258.816 37.2886C259.487 36.4747 260.157 35.6609 260.828 34.847C261.491 33.9994 262.169 33.2192 262.861 32.5063C263.587 31.7862 264.334 31.1671 265.104 30.649C265.873 30.131 266.696 29.7777 267.571 29.5891C267.908 29.5166 268.186 29.5801 268.405 29.7796C268.651 29.9381 268.802 30.1521 268.86 30.4215C268.955 30.8593 268.823 31.3106 268.465 31.7753C268.14 32.2328 267.822 32.6361 267.51 32.9853C266.998 33.5536 266.402 34.14 265.721 34.7446C265.067 35.3083 264.41 35.8551 263.749 36.3851C263.121 36.9078 262.541 37.4028 262.007 37.8701C261.466 38.3037 261.09 38.6843 260.879 39.0117C260.607 39.3873 260.344 39.8844 260.09 40.503C259.862 41.0807 259.665 41.7221 259.5 42.4272C259.327 43.0986 259.212 43.7929 259.155 44.5099C259.125 45.186 259.168 45.7935 259.284 46.3323C259.414 46.9385 259.658 47.4147 260.014 47.7608C260.404 48.0996 260.97 48.1893 261.711 48.0298C262.552 47.8485 263.41 47.3291 264.282 46.4717C265.181 45.5734 265.987 44.5717 266.701 43.4666C267.448 42.3543 268.07 41.2337 268.567 40.1048C269.09 38.9349 269.431 37.9806 269.589 37.2418C269.69 36.7268 269.868 36.0012 270.125 35.065C270.381 34.1289 270.692 33.1986 271.057 32.2744C271.455 31.3428 271.892 30.5087 272.368 29.772C272.877 29.028 273.418 28.5944 273.991 28.4711C274.698 28.3189 275.135 28.63 275.302 29.4046C275.41 29.9097 275.324 30.4921 275.043 31.1516C274.755 31.7774 274.398 32.4888 273.97 33.2856C273.569 34.0415 273.132 34.8756 272.659 35.7879C272.219 36.693 271.882 37.6642 271.648 38.7014C271.375 39.8878 271.204 40.8937 271.135 41.719C271.099 42.5371 271.143 43.2324 271.267 43.8049C271.412 44.4784 271.668 44.9341 272.037 45.172C272.405 45.4098 272.825 45.4779 273.296 45.3764C273.97 45.2314 274.737 44.7843 275.598 44.0352C276.037 43.6233 276.585 42.9768 277.241 42.0955C277.897 41.2142 278.533 40.3198 279.148 39.4121C279.756 38.4708 280.301 37.6486 280.784 36.9455C281.3 36.2352 281.643 35.862 281.811 35.8257C282.047 35.775 282.288 35.8288 282.533 35.9874C282.779 36.1459 282.927 36.3431 282.978 36.5788C283.007 36.7135 282.883 37.0397 282.607 37.5572C282.365 38.0676 282.019 38.6706 281.569 39.3664C281.12 40.0622 280.598 40.8266 280.002 41.6597C279.432 42.4518 278.839 43.2139 278.221 43.9459C277.604 44.678 277.009 45.3523 276.437 45.9688C275.858 46.5516 275.35 46.978 274.915 47.2479C274.165 47.6913 273.537 47.9674 273.032 48.0762C272.123 48.272 271.423 48.2113 270.931 47.8942C270.433 47.5435 270.042 47.1168 269.757 46.6142C269.466 46.078 269.248 45.5609 269.106 45.063C268.956 44.5314 268.809 44.1755 268.665 43.9952C268.657 43.9615 268.624 43.9687 268.564 44.0169C268.537 44.0579 268.514 44.1156 268.495 44.1902C268.166 44.7897 267.743 45.4445 267.227 46.1548C266.71 46.8651 266.136 47.5526 265.504 48.2173C264.864 48.8483 264.19 49.3987 263.481 49.8686C262.779 50.3721 262.108 50.6928 261.468 50.8306C260.054 51.1352 258.953 50.9317 258.165 50.2204C257.411 49.5017 256.911 48.5699 256.665 47.4249C256.534 46.8187 256.484 46.1775 256.515 45.5014C256.512 44.8326 256.583 44.1829 256.729 43.5523L256.747 43.3899ZM298.918 6.61201C299.423 6.50323 299.734 6.71826 299.85 7.25709C299.908 7.5265 299.906 7.8441 299.844 8.20987C299.781 8.57565 299.625 8.99685 299.376 9.47349C298.66 10.8961 297.913 12.5017 297.136 14.2901C296.351 16.0449 295.58 17.867 294.824 19.7565C294.068 21.6459 293.353 23.5618 292.679 25.5041C292.031 27.4055 291.49 29.231 291.057 30.9806C290.623 32.7302 290.319 34.3462 290.145 35.8284C289.963 37.277 289.978 38.4896 290.188 39.4663C290.304 40.0051 290.483 40.4248 290.724 40.7253C290.991 40.9848 291.377 41.0602 291.882 40.9515C292.455 40.8282 293.121 40.4029 293.88 39.6755C294.674 38.9409 295.432 38.1257 296.155 37.2299C296.905 36.2933 297.574 35.3915 298.163 34.5248C298.785 33.6508 299.228 33.0091 299.493 32.5999C299.738 32.2652 299.995 32.0688 300.264 32.0108C300.567 31.9456 300.825 31.9958 301.037 32.1616C301.241 32.2938 301.373 32.4945 301.431 32.7639C301.489 33.0334 301.412 33.3318 301.201 33.6592C300.691 34.4032 300.059 35.3145 299.305 36.3931C298.551 37.4718 297.738 38.5276 296.869 39.5606C296.032 40.5864 295.171 41.4944 294.284 42.2844C293.389 43.0408 292.538 43.506 291.73 43.68C290.618 43.9193 289.714 43.7266 289.015 43.1017C288.343 42.4359 287.88 41.5137 287.627 40.335C287.38 39.19 287.424 37.3481 287.758 34.8095C288.093 32.2708 288.965 29.1229 290.376 25.3657C290.506 24.9854 290.556 24.7279 290.527 24.5932C290.512 24.5259 290.472 24.4994 290.404 24.5139C290.236 24.5502 290.07 24.7621 289.907 25.1496C289.441 26.0956 288.853 27.209 288.142 28.4897C287.431 29.7704 286.716 31.0343 285.998 32.2813C285.28 33.5283 284.621 34.6394 284.02 35.6144C283.453 36.5822 283.061 37.2129 282.842 37.5067C282.623 37.8004 282.392 37.9558 282.149 37.9729C281.873 37.9973 281.645 37.9229 281.467 37.7499C281.255 37.584 281.12 37.3664 281.062 37.097C280.971 36.8349 281.03 36.5401 281.242 36.2126C282.582 34.0916 283.965 31.8382 285.389 29.4524C286.806 27.033 288.206 24.6172 289.59 22.205C290.966 19.7591 292.273 17.3987 293.509 15.1238C294.78 12.8417 295.881 10.7546 296.813 8.86252C297.154 8.15481 297.514 7.61912 297.894 7.25543C298.273 6.89175 298.615 6.67727 298.918 6.61201Z" fill="#F71735"/>
</svg>
