<svg width="358" height="103" viewBox="0 0 358 103" fill="none" xmlns="http://www.w3.org/2000/svg">
<path d="M11.2804 62.6001C12.2508 62.8138 13.1827 63.0345 14.069 63.2657C14.9553 63.497 15.8206 63.7842 16.6684 64.1205V65.9597H0V64.1205C0.928358 63.6966 1.81468 63.3814 2.66246 63.1712C3.50674 62.961 4.35102 62.7718 5.19881 62.6001V25.0209C4.09879 24.8107 3.12839 24.569 2.28411 24.2922C1.43983 24.019 0.679628 23.7317 0.00350324 23.4374V21.5982H5.58066C7.27272 21.5982 9.12594 21.5141 11.1368 21.346C13.1477 21.1778 15.106 21.0938 17.0117 21.0938C19.0856 21.0938 21.0229 21.325 22.8236 21.7909C24.6243 22.2568 26.1797 22.996 27.4934 24.0084C28.8071 25.0209 29.8336 26.3101 30.5728 27.8725C31.312 29.435 31.6833 31.3162 31.6833 33.5127C31.6833 36.5956 30.867 39.1529 29.2345 41.1813C27.602 43.2097 25.388 44.667 22.5924 45.5534C24.4071 48.426 26.3093 51.2777 28.2957 54.1083C30.282 56.9389 32.3524 59.7485 34.5069 62.5371L37.9576 64.3763V65.9597H30.247L27.8402 64.1836C26.6561 62.7052 25.5807 61.2584 24.6103 59.8431C23.6364 58.4278 22.729 56.9914 21.8847 55.5341C21.0405 54.0767 20.2487 52.5984 19.5095 51.099C18.7704 49.5996 18.0207 48.0056 17.2605 46.3136H11.2839V62.6001H11.2804ZM15.5894 24.3903C14.577 24.3903 13.7397 24.4113 13.0846 24.4534C12.4295 24.4954 11.8269 24.5795 11.2804 24.7056V43.5285H15.8416C18.7563 43.5285 21.0685 42.6071 22.7816 40.7574C24.4911 38.9112 25.3494 36.4765 25.3494 33.4532C25.3494 30.4299 24.4421 28.0617 22.6239 26.5938C20.8057 25.126 18.4621 24.3903 15.5894 24.3903Z" fill="white"/>
<path d="M66.7901 61.5211C66.4503 62.2393 65.9248 62.9154 65.2067 63.5495C64.4885 64.1835 63.6652 64.7336 62.7369 65.196C61.8085 65.6619 60.7926 66.0298 59.6961 66.3065C58.5961 66.5798 57.4785 66.7199 56.3365 66.7199C53.8422 66.7199 51.6491 66.3275 49.7469 65.5463C47.8446 64.7651 46.2611 63.6441 44.993 62.1867C43.7248 60.7294 42.7649 58.9882 42.1098 56.9599C41.4547 54.9315 41.1289 52.6509 41.1289 50.1145C41.1289 44.709 42.3761 40.5892 44.8669 37.7586C47.3577 34.928 50.8854 33.5127 55.4501 33.5127C56.9285 33.5127 58.3859 33.7124 59.8222 34.1153C61.2585 34.5181 62.5372 35.1837 63.6547 36.1121C64.7723 37.0405 65.6831 38.2771 66.3803 39.8185C67.0774 41.36 67.4277 43.2727 67.4277 45.5533C67.4277 46.2715 67.3962 47.0002 67.3331 47.7393C67.2701 48.4785 67.1545 49.2703 66.9828 50.1145H47.2105C47.2105 51.8872 47.4312 53.5477 47.8761 55.0891C48.3211 56.6306 48.9867 57.9723 49.873 59.1144C50.7593 60.2564 51.8803 61.1533 53.2326 61.8084C54.5848 62.4635 56.1683 62.7893 57.9865 62.7893C59.4649 62.7893 60.9642 62.5791 62.4847 62.1552C64.0051 61.7313 65.1471 61.1848 65.9073 60.5087L66.7936 61.5211H66.7901ZM55.1944 36.3013C52.7877 36.3013 50.9485 37.114 49.6803 38.7395C48.4121 40.365 47.6519 43.2272 47.3997 47.326H61.3391C61.3811 46.9476 61.4127 46.5763 61.4337 46.2154C61.4547 45.8581 61.4652 45.5078 61.4652 45.1715C61.4652 42.467 60.9572 40.3125 59.9448 38.708C58.9324 37.1035 57.3454 36.3013 55.1909 36.3013H55.1944Z" fill="white"/>
<path d="M96.3817 57.6563C96.3817 58.5846 96.4027 59.3904 96.4448 60.063C96.4868 60.7391 96.5289 61.4573 96.5709 62.2175L100.943 62.8516V64.1828C99.885 64.7328 98.7149 65.2198 97.4257 65.6402C96.1365 66.0605 94.8999 66.3793 93.7193 66.5895H92.1358C91.7119 65.6191 91.4597 64.5506 91.3756 63.3911C91.2915 62.228 91.2285 60.9528 91.1864 59.5585H90.8711C90.703 60.4028 90.3737 61.2611 89.8902 62.1264C89.4033 62.9917 88.7692 63.7624 87.988 64.4385C87.2068 65.1147 86.2854 65.6647 85.2309 66.0851C84.1729 66.5055 82.9713 66.7192 81.6191 66.7192C79.0407 66.7192 76.9388 65.9379 75.3133 64.3755C73.6877 62.813 72.875 60.7636 72.875 58.2308C72.875 56.29 73.2639 54.6925 74.0486 53.4454C74.8298 52.1982 75.9824 51.2173 77.5028 50.4992C79.0232 49.781 80.9044 49.2625 83.143 48.9472C85.3816 48.6319 87.981 48.3867 90.9377 48.2185C91.1059 46.4039 91.1584 44.7644 91.0953 43.307C91.0323 41.8497 90.8011 40.6025 90.3982 39.5691C89.9953 38.5356 89.4068 37.7299 88.6256 37.1623C87.8443 36.5913 86.8179 36.3075 85.5532 36.3075C84.9612 36.3075 84.2956 36.3391 83.5564 36.4021C82.8172 36.4652 82.0885 36.6474 81.3704 36.9416L78.3926 44.5472H76.7461C76.3222 43.279 75.9543 41.9723 75.6355 40.62C75.3203 39.2678 75.1171 37.9365 75.033 36.6263C76.6375 35.6559 78.4241 34.8957 80.3894 34.3457C82.3548 33.7957 84.5408 33.5225 86.9475 33.5225C89.102 33.5225 90.8221 33.8307 92.1113 34.4403C93.4005 35.0534 94.3814 35.8451 95.0575 36.8155C95.7336 37.7894 96.175 38.8649 96.3887 40.0455C96.5989 41.2296 96.704 42.4102 96.704 43.5943C96.704 46.1306 96.6515 48.5689 96.5464 50.9125C96.4413 53.2562 96.3887 55.5053 96.3887 57.6598L96.3817 57.6563ZM84.1519 62.7885C85.2064 62.7885 86.1383 62.5783 86.9405 62.1544C87.7427 61.7305 88.4189 61.2261 88.9689 60.634C89.5189 60.042 89.9603 59.4394 90.3001 58.8264C90.6364 58.2133 90.8711 57.6983 90.9973 57.2744V50.6218C88.545 50.6218 86.5411 50.7479 84.9787 51.0036C83.4162 51.2559 82.1901 51.6587 81.3038 52.2087C80.4175 52.7587 79.8044 53.4454 79.4646 54.2686C79.1248 55.0919 78.9566 56.0343 78.9566 57.0888C78.9566 58.9069 79.4226 60.3117 80.3509 61.3031C81.2793 62.2946 82.5474 62.792 84.1519 62.792V62.7885Z" fill="white"/>
<path d="M126.037 59.6849C125.826 60.6133 125.466 61.5031 124.958 62.3474C124.45 63.1917 123.826 63.9414 123.087 64.5965C122.348 65.2516 121.503 65.7701 120.55 66.1484C119.601 66.5303 118.575 66.7195 117.478 66.7195C113.295 66.7195 110.17 65.3882 108.1 62.7258C106.03 60.0633 104.996 55.926 104.996 50.3068C104.996 44.6876 106.317 40.7815 108.958 37.9509C111.6 35.1202 115.159 33.7049 119.636 33.7049C121.199 33.7049 122.425 33.7785 123.311 33.9256C124.197 34.0728 125.168 34.339 126.226 34.7174V22.7398L121.409 22.2318V20.5853C122.635 20.0773 124.061 19.6359 125.686 19.2541C127.312 18.8757 128.864 18.5569 130.342 18.3047H131.925V62.3439L136.108 62.8519V64.1831C134.882 64.7752 133.614 65.2831 132.307 65.7035C130.997 66.1239 129.708 66.4217 128.443 66.5898H126.86L126.289 59.6814H126.037V59.6849ZM118.75 62.7888C120.82 62.7888 122.467 62.1337 123.693 60.8235C124.919 59.5133 125.763 57.7407 126.229 55.5021V37.6321C125.511 37.2082 124.667 36.9139 123.693 36.7457C122.719 36.5776 121.475 36.4935 119.955 36.4935C117.082 36.4935 114.886 37.7512 113.365 40.263C111.845 42.7783 111.085 46.1239 111.085 50.3068C111.085 52.0409 111.232 53.6559 111.53 55.1553C111.824 56.6546 112.29 57.9754 112.924 59.1139C113.558 60.256 114.35 61.1528 115.299 61.8079C116.248 62.463 117.401 62.7888 118.753 62.7888H118.75Z" fill="white"/>
<path d="M149.458 66.7165H138.434L153.452 43.0171L139.446 19.8887H150.282L159.407 35.9195L168.975 19.8887H180L165.233 43.0171L179.933 66.7165H169.097L159.337 50.3038L149.451 66.7165H149.458Z" fill="#0077FF"/>
<path d="M184.552 57.3168C183.618 59.5264 182.83 61.7576 182.187 64.0102C181.571 66.222 180.806 68.3953 179.891 70.5304C179.774 70.8024 179.587 71.1598 179.33 71.6028C179.073 72.0458 178.816 72.4887 178.559 72.9317C178.302 73.3747 178.075 73.7935 177.878 74.1883C177.707 74.5422 177.636 74.7864 177.665 74.9211C177.694 75.0559 177.802 75.2266 177.987 75.4333C178.165 75.6064 178.377 75.7722 178.623 75.9307C178.902 76.082 179.178 76.2165 179.45 76.3341C179.748 76.4108 179.998 76.4274 180.2 76.3839C180.941 76.2243 181.742 75.77 182.603 75.0209C183.497 74.2645 184.336 73.4143 185.119 72.4704C185.936 71.5192 186.656 70.6066 187.278 69.7326C187.927 68.8177 188.393 68.1183 188.676 67.6344C188.914 67.2661 189.185 67.0492 189.488 66.984C189.757 66.926 190.002 66.9967 190.221 67.1962C190.466 67.3547 190.618 67.5687 190.676 67.8381C190.741 68.1412 190.681 68.436 190.497 68.7225C190.127 69.2955 189.544 70.1081 188.749 71.1603C187.98 72.1716 187.11 73.2047 186.139 74.2595C185.194 75.2733 184.198 76.2103 183.15 77.0702C182.094 77.8966 181.112 78.4076 180.203 78.6034C179.799 78.6904 179.39 78.6728 178.976 78.5505C178.588 78.3873 178.214 78.2036 177.853 77.9994C177.491 77.7953 177.171 77.6176 176.892 77.4663C176.639 77.274 176.462 77.1888 176.361 77.2106C175.957 77.2976 175.533 77.618 175.088 78.1718C174.636 78.692 174.234 79.1134 173.881 79.4362C173.388 79.9299 172.733 80.4057 171.915 80.8637C171.131 81.3144 170.318 81.6304 169.476 81.8117C168.702 81.9785 167.958 81.9624 167.246 81.7634C166.5 81.5716 165.892 81.1211 165.422 80.4118C165 79.7626 164.699 79.0171 164.518 78.1751C164.38 77.5353 164.306 76.8641 164.295 76.1615C164.278 75.4253 164.342 74.742 164.488 74.1114C164.593 73.4545 164.784 72.8672 165.06 72.3497C165.303 71.8394 165.608 71.4565 165.976 71.2011C166.625 70.7794 167.219 70.5105 167.758 70.3945C168.532 70.2277 169.28 70.2607 169.999 70.4933C170.752 70.7187 171.453 71.026 172.1 71.4151C172.775 71.7633 173.385 72.1429 173.931 72.5538C174.504 72.9237 175.018 73.183 175.473 73.3318C175.819 72.9753 176.183 72.4565 176.565 71.7752C176.947 71.0939 177.314 70.3453 177.667 69.5293C178.054 68.7061 178.416 67.8528 178.755 66.9694C179.086 66.0524 179.377 65.1968 179.629 64.4025C179.881 63.6083 180.067 62.9164 180.186 62.3268C180.333 61.6963 180.407 61.2222 180.409 60.9046C179.361 61.7646 178.119 62.543 176.683 63.2398C175.281 63.9293 173.856 64.43 172.408 64.7418C171.667 64.9013 170.857 64.9875 169.979 65.0004C169.135 65.0061 168.319 64.8998 167.532 64.6817C166.738 64.4298 166.036 64.0348 165.427 63.4964C164.818 62.9581 164.411 62.2174 164.208 61.2745C164.071 60.6346 164.058 60.0031 164.17 59.3798C164.316 58.7493 164.541 58.1548 164.843 57.5963C165.139 57.0041 165.482 56.472 165.874 56.0001C166.266 55.5281 166.672 55.1235 167.093 54.7862C168.174 53.919 169.433 53.137 170.869 52.4402C172.297 51.7098 173.808 51.0322 175.4 50.4074C177.018 49.7418 178.665 49.123 180.339 48.5511C182.005 47.9455 183.639 47.3472 185.238 46.7561C186.998 46.0951 188.607 45.4668 190.065 44.871C191.522 44.2753 192.934 43.5485 194.3 42.6906C194.769 42.4134 195.388 42.0158 196.157 41.4978C196.927 40.9797 197.675 40.4484 198.404 39.9039C199.125 39.3258 199.732 38.7898 200.225 38.2961C200.744 37.7615 200.971 37.3426 200.906 37.0395C200.819 36.6354 200.585 36.3686 200.205 36.239C199.817 36.0758 199.591 35.8426 199.526 35.5395C199.453 35.2028 199.526 34.8875 199.745 34.5938C199.956 34.2663 200.247 34.0627 200.618 33.983C201.19 33.8597 201.83 33.9685 202.538 34.3095C203.272 34.6095 203.719 35.13 203.878 35.8708C204.147 37.1169 203.776 38.3419 202.767 39.5459C201.791 40.7427 200.453 41.8941 198.754 43.0001C197.046 44.0725 195.132 45.0837 193.011 46.0338C190.89 46.9839 188.822 47.8521 186.806 48.6385C184.791 49.4248 182.963 50.1004 181.322 50.665C179.716 51.2224 178.573 51.6446 177.895 51.9316C177.479 52.1269 176.881 52.3789 176.102 52.6876C175.349 52.9555 174.54 53.2883 173.674 53.6861C172.809 54.084 171.933 54.5192 171.048 54.9916C170.197 55.4568 169.428 55.9749 168.74 56.5458C168.079 57.0758 167.567 57.6441 167.204 58.2508C166.842 58.8574 166.733 59.4975 166.878 60.1711C167.008 60.7773 167.323 61.2557 167.821 61.6065C168.312 61.9236 168.89 62.1516 169.554 62.2905C170.211 62.3957 170.904 62.4227 171.633 62.3714C172.396 62.3129 173.097 62.2148 173.737 62.077C174.276 61.961 174.817 61.774 175.36 61.516C175.904 61.258 176.427 60.9868 176.929 60.7024C177.425 60.3843 177.894 60.1072 178.336 59.8709C178.779 59.6347 179.168 59.4803 179.505 59.4078C180.078 59.2845 180.435 59.4718 180.577 59.9697C180.863 59.1683 181.092 58.4318 181.265 57.7604C181.471 57.0817 181.671 56.4571 181.865 55.8867C182.06 55.3163 182.282 54.7927 182.532 54.3161C182.808 53.7985 183.166 53.3338 183.606 52.922C184.158 52.3801 184.738 52.0438 185.344 51.9133C185.849 51.8045 186.286 51.8691 186.654 52.1069C187.049 52.3038 187.301 52.6548 187.41 53.16C187.475 53.4631 187.471 53.8516 187.396 54.3257C187.349 54.7588 187.23 55.1896 187.04 55.6181C186.884 56.0393 186.667 56.4208 186.388 56.7628C186.102 57.071 185.774 57.265 185.404 57.3448C185.235 57.3811 185.131 57.386 185.09 57.3595C185.049 57.3331 184.87 57.3189 184.552 57.3168ZM173.805 75.6468C173.53 75.3535 173.143 75.0315 172.645 74.6807C172.173 74.289 171.658 73.9419 171.099 73.6393C170.567 73.2958 170.02 73.0437 169.457 72.883C168.92 72.6815 168.466 72.6206 168.096 72.7003C167.793 72.7656 167.522 72.9824 167.284 73.3508C167.08 73.7119 166.911 74.1535 166.777 74.6758C166.669 75.1571 166.609 75.6985 166.598 76.3C166.579 76.8678 166.624 77.4043 166.733 77.9095C166.856 78.482 167.124 78.9882 167.536 79.4281C167.948 79.868 168.507 80.0118 169.215 79.8595C169.686 79.758 170.156 79.5686 170.625 79.2915C171.12 78.9734 171.558 78.6325 171.938 78.2688C172.084 78.1315 172.257 77.9533 172.457 77.7341C172.69 77.5077 172.903 77.2681 173.095 77.0153C173.314 76.7216 173.485 76.4555 173.61 76.2172C173.769 75.9716 173.834 75.7815 173.805 75.6468ZM190.582 68.4398C190.364 68.7335 190.123 68.9262 189.861 69.0179C189.592 69.0759 189.358 69.0557 189.161 68.9573C188.922 68.8324 188.778 68.6521 188.727 68.4164C188.635 68.1542 188.662 67.8666 188.806 67.5537C189.051 67.219 189.347 66.7147 189.696 66.0407C190.07 65.3257 190.434 64.5602 190.787 63.7443C191.14 62.9283 191.455 62.1027 191.734 61.2675C192.012 60.4324 192.22 59.6827 192.359 59.0185C192.479 58.4289 192.561 57.8297 192.607 57.221C192.685 56.605 192.779 56.0563 192.886 55.575C192.994 55.0937 193.137 54.6929 193.315 54.3728C193.519 54.0117 193.823 53.7876 194.227 53.7006C195.002 53.5338 195.727 53.7123 196.404 54.2361C197.114 54.7527 197.772 55.3512 198.376 56.0315C199.007 56.6708 199.61 57.2633 200.186 57.8089C200.788 58.3135 201.392 58.5006 201.998 58.3701C202.099 58.3483 202.253 58.2447 202.46 58.0593C202.667 57.8738 202.887 57.6678 203.12 57.4415C203.387 57.2078 203.657 56.991 203.931 56.791C204.205 56.5911 204.494 56.4584 204.797 56.3932C205.066 56.3352 205.341 56.3818 205.62 56.5331C205.933 56.6771 206.129 56.9344 206.209 57.3048C206.274 57.6079 206.218 57.9196 206.04 58.2397C205.896 58.5527 205.685 58.8801 205.406 59.222C205.127 59.564 204.794 59.8999 204.407 60.2299C204.054 60.5527 203.68 60.8622 203.286 61.1586C203.139 61.2958 202.849 61.7461 202.414 62.5092C201.979 63.2723 201.553 64.157 201.135 65.1631C200.718 66.1692 200.358 67.1981 200.056 68.2499C199.787 69.2943 199.729 70.1702 199.881 70.8774C199.99 71.3825 200.249 71.7672 200.659 72.0315C201.061 72.2621 201.531 72.3194 202.07 72.2033C202.878 72.0293 203.709 71.5509 204.562 70.7681C205.449 69.978 206.281 69.0942 207.057 68.1166C207.86 67.098 208.578 66.0976 209.212 65.1153C209.873 64.0921 210.401 63.2736 210.798 62.6596C211.057 62.3923 211.312 62.2669 211.562 62.2835C211.846 62.2929 212.077 62.3841 212.256 62.5571C212.427 62.6965 212.524 62.9045 212.549 63.1812C212.573 63.4579 212.476 63.7431 212.257 64.0368C211.68 64.7953 211.019 65.7307 210.271 66.843C209.558 67.9481 208.736 69.0412 207.806 70.1224C206.91 71.1964 205.904 72.1706 204.788 73.0451C203.706 73.9124 202.542 74.4801 201.296 74.7484C200.118 75.0022 199.194 74.8841 198.524 74.3939C197.848 73.8701 197.401 73.103 197.183 72.0927C196.879 70.6783 196.998 68.9434 197.542 66.8882C198.087 64.8329 199.029 62.7448 200.369 60.6237C200.34 60.489 200.21 60.3761 199.979 60.2849C199.775 60.1527 199.495 60.0014 199.141 59.831C198.78 59.6268 198.378 59.3962 197.935 59.1392C197.519 58.8413 197.101 58.4556 196.682 57.982C196.174 57.4219 195.768 57.1745 195.465 57.2398C195.128 57.3123 194.9 57.6433 194.78 58.2329C194.653 58.7888 194.553 59.3038 194.479 59.7779C194.347 60.4758 194.138 61.2254 193.853 62.0269C193.567 62.8284 193.231 63.6408 192.845 64.464C192.451 65.2536 192.05 66.0094 191.642 66.7317C191.26 67.4129 190.907 67.9823 190.582 68.4398ZM212.281 64.243C212.041 64.4358 211.717 64.4878 211.311 64.3992C210.897 64.2769 210.65 64.0305 210.57 63.6601C210.505 63.357 210.608 63.0176 210.879 62.642C211.475 61.809 212.105 60.9686 212.768 60.1211C213.431 59.2735 213.959 58.6137 214.35 58.1418C215.021 57.3279 215.691 56.514 216.362 55.7001C217.025 54.8525 217.703 54.0723 218.395 53.3594C219.121 52.6393 219.868 52.0202 220.638 51.5021C221.407 50.9841 222.23 50.6308 223.105 50.4422C223.442 50.3697 223.72 50.4332 223.939 50.6327C224.185 50.7912 224.337 51.0052 224.395 51.2746C224.489 51.7124 224.357 52.1637 223.999 52.6284C223.675 53.0859 223.356 53.4892 223.044 53.8384C222.532 54.4067 221.936 54.9932 221.255 55.5977C220.602 56.1614 219.944 56.7082 219.283 57.2382C218.656 57.7609 218.075 58.2559 217.541 58.7232C217 59.1569 216.624 59.5374 216.413 59.8648C216.141 60.2404 215.878 60.7375 215.624 61.3561C215.396 61.9338 215.199 62.5752 215.034 63.2803C214.861 63.9517 214.747 64.646 214.69 65.363C214.659 66.0392 214.702 66.6466 214.818 67.1855C214.948 67.7916 215.192 68.2678 215.548 68.6139C215.938 68.9527 216.504 69.0424 217.245 68.8829C218.087 68.7016 218.944 68.1822 219.816 67.3248C220.715 66.4265 221.522 65.4248 222.235 64.3197C222.982 63.2074 223.604 62.0868 224.101 60.9579C224.624 59.788 224.965 58.8337 225.123 58.0949C225.224 57.5799 225.402 56.8543 225.659 55.9182C225.915 54.982 226.226 54.0517 226.591 53.1275C226.989 52.1959 227.426 51.3618 227.902 50.6251C228.411 49.8812 228.952 49.4475 229.525 49.3243C230.232 49.172 230.669 49.4831 230.836 50.2577C230.944 50.7628 230.858 51.3452 230.578 52.0047C230.289 52.6305 229.932 53.3419 229.504 54.1387C229.103 54.8946 228.666 55.7287 228.193 56.641C227.754 57.5461 227.417 58.5173 227.182 59.5545C226.909 60.7409 226.738 61.7468 226.669 62.5722C226.633 63.3902 226.677 64.0855 226.801 64.658C226.946 65.3316 227.202 65.7872 227.571 66.0251C227.939 66.2629 228.359 66.331 228.831 66.2295C229.504 66.0845 230.271 65.6374 231.132 64.8883C231.572 64.4764 232.12 63.8299 232.776 62.9486C233.431 62.0674 234.067 61.1729 234.682 60.2652C235.29 59.3239 235.835 58.5017 236.318 57.7986C236.835 57.0884 237.177 56.7151 237.345 56.6788C237.581 56.6281 237.822 56.682 238.067 56.8405C238.313 56.9991 238.461 57.1962 238.512 57.4319C238.541 57.5666 238.417 57.8928 238.141 58.4104C237.899 58.9207 237.553 59.5237 237.104 60.2195C236.654 60.9153 236.132 61.6797 235.536 62.5128C234.967 63.3049 234.373 64.067 233.755 64.7991C233.138 65.5311 232.543 66.2054 231.971 66.8219C231.392 67.4047 230.884 67.8311 230.449 68.101C229.699 68.5444 229.071 68.8205 228.566 68.9293C227.657 69.1251 226.957 69.0645 226.466 68.7474C225.967 68.3966 225.576 67.9699 225.291 67.4673C225 66.9311 224.783 66.414 224.64 65.9161C224.49 65.3845 224.343 65.0286 224.199 64.8483C224.192 64.8146 224.158 64.8219 224.098 64.87C224.071 64.911 224.049 64.9687 224.029 65.0433C223.7 65.6428 223.278 66.2976 222.761 67.0079C222.244 67.7182 221.67 68.4057 221.038 69.0704C220.399 69.7014 219.724 70.2518 219.015 70.7217C218.313 71.2253 217.642 71.5459 217.002 71.6837C215.588 71.9883 214.487 71.7849 213.699 71.0735C212.945 70.3548 212.445 69.423 212.199 68.278C212.068 67.6718 212.018 67.0307 212.049 66.3545C212.046 65.6857 212.117 65.036 212.263 64.4055L212.281 64.243ZM245 34.6276C245.404 34.5406 245.736 34.61 245.996 34.8359C246.256 35.0618 246.43 35.3768 246.517 35.781C246.575 36.0504 246.591 36.4522 246.565 36.9863C246.566 37.4796 246.499 37.9873 246.365 38.5095C246.264 39.0245 246.102 39.4999 245.879 39.9356C245.689 40.364 245.426 40.6145 245.089 40.687C244.954 40.716 244.812 40.7114 244.663 40.673C244.548 40.6274 244.468 40.5036 244.425 40.3015C244.374 40.0658 244.342 39.7554 244.33 39.3705C244.318 38.9855 244.261 38.5573 244.159 38.0859C244.108 37.8501 244.027 37.6385 243.917 37.4509C243.832 37.2224 243.761 36.9735 243.703 36.7041C243.601 36.2326 243.683 35.7922 243.947 35.3829C244.245 34.9664 244.596 34.7146 245 34.6276ZM238.235 58.4429C237.995 58.6357 237.75 58.7237 237.499 58.7071C237.208 58.6641 236.994 58.5693 236.857 58.4227C236.678 58.2496 236.581 58.0416 236.564 57.7986C236.513 57.5629 236.584 57.3186 236.776 57.0658C237.273 56.4301 237.737 55.8016 238.167 55.1805C238.597 54.5593 238.988 53.9995 239.338 53.5011C239.682 52.969 239.969 52.502 240.2 52.1C240.464 51.6907 240.666 51.4006 240.805 51.2296C241.137 50.8058 241.471 50.311 241.807 49.7453C242.177 49.1723 242.567 48.6125 242.978 48.0659C243.389 47.5194 243.848 47.0329 244.355 46.6065C244.862 46.1801 245.419 45.9017 246.025 45.7712C246.463 45.6769 246.775 45.7331 246.96 45.9399C247.172 46.1057 247.314 46.357 247.387 46.6937C247.496 47.1989 247.471 47.8208 247.313 48.5596C247.189 49.2912 247.033 49.959 246.846 50.5631C246.445 51.8122 246.084 52.9999 245.763 54.1263C245.468 55.2117 245.129 56.5004 244.746 57.9925C244.657 58.3992 244.513 58.9588 244.314 59.6712C244.142 60.3426 244.102 60.8972 244.197 61.335C244.218 61.436 244.277 61.5467 244.374 61.6669C244.47 61.7871 244.603 61.829 244.771 61.7928C245.108 61.7203 245.462 61.4853 245.835 61.088C246.2 60.6569 246.449 60.3391 246.581 60.1345C246.86 59.7925 247.175 59.3724 247.525 58.874C247.91 58.3683 248.291 57.8458 248.668 57.3065C249.038 56.7335 249.395 56.181 249.738 55.6489C250.082 55.1169 250.399 54.6257 250.689 54.1755C250.874 53.889 251.105 53.7336 251.382 53.7092C251.658 53.6849 251.899 53.7388 252.104 53.8709C252.308 54.0031 252.443 54.2207 252.509 54.5238C252.6 54.7859 252.524 55.0843 252.279 55.419C251.875 55.9993 251.445 56.6204 250.988 57.2826C250.558 57.9037 250.115 58.5454 249.659 59.2075C249.236 59.8623 248.793 60.504 248.329 61.1324C247.891 61.7199 247.464 62.2701 247.046 62.783C246.707 63.1731 246.285 63.6692 245.78 64.2712C245.268 64.8395 244.659 65.1998 243.952 65.3521C243.413 65.4681 242.942 65.4108 242.54 65.1803C242.165 64.9088 241.912 64.4699 241.781 63.8637C241.68 63.3923 241.629 62.9099 241.628 62.4167C241.62 61.8898 241.682 61.2774 241.814 60.5795C241.972 59.8407 242.157 59.061 242.367 58.2403C242.578 57.4197 242.806 56.5954 243.051 55.7675C243.288 54.9059 243.499 54.0852 243.683 53.3055C243.787 52.9661 243.892 52.5558 244 52.0745C244.1 51.5595 244.129 51.201 244.085 50.9989C244.042 50.7969 243.953 50.7104 243.818 50.7394C243.65 50.7756 243.433 50.9984 243.169 51.4077C242.811 51.8724 242.4 52.419 241.936 53.0474C241.506 53.6686 241.063 54.3102 240.607 54.9723C240.184 55.6272 239.757 56.2652 239.327 56.8864C238.931 57.5003 238.567 58.0191 238.235 58.4429ZM283.762 48.3755C283.392 48.9485 282.922 49.631 282.353 50.4232C281.817 51.2081 281.234 52.0207 280.605 52.861C280.009 53.6941 279.389 54.4971 278.745 55.27C278.101 56.043 277.512 56.6632 276.978 57.1304C276.505 57.5496 275.913 57.9941 275.204 58.4639C274.521 58.8929 273.826 59.1835 273.119 59.3358C272.412 59.4881 271.738 59.3865 271.098 59.031C270.491 58.6683 270.101 58.0829 269.927 57.2746C269.803 56.7021 269.761 56.0946 269.798 55.4522C269.87 54.8025 269.943 54.2406 270.017 53.7666C270.098 53.3262 270.267 52.6379 270.524 51.7017C270.814 50.7583 271.093 49.7643 271.362 48.7199C271.656 47.6345 271.895 46.6141 272.077 45.6587C272.259 44.7033 272.299 43.9899 272.197 43.5184C272.081 42.9796 271.788 42.761 271.316 42.8625C270.912 42.9495 270.426 43.2303 269.859 43.7048C269.318 44.1385 268.758 44.6467 268.179 45.2295C267.599 45.8123 267.041 46.4084 266.502 47.0176C265.99 47.586 265.582 48.0616 265.277 48.4444C263.703 50.2986 262.317 52.1298 261.121 53.9379C259.951 55.705 258.713 57.6455 257.406 59.7593C257.281 59.9976 257.116 60.2973 256.912 60.6584C256.735 60.9786 256.544 61.3192 256.339 61.6803C256.128 62.0078 255.876 62.3088 255.582 62.5833C255.323 62.8507 255.042 63.017 254.738 63.0822C254.536 63.1257 254.337 63.0983 254.139 62.9998C253.942 62.9014 253.814 62.7174 253.756 62.448C253.705 62.2123 253.732 61.9247 253.835 61.5854C253.938 61.246 254.058 60.9031 254.195 60.5565C254.365 60.2026 254.526 59.8861 254.677 59.6068C254.862 59.3203 254.987 59.082 255.052 58.8919C255.962 56.8988 256.775 54.7855 257.492 52.552C258.236 50.2776 258.655 47.9674 258.749 45.6215C258.299 45.824 257.919 46.1877 257.609 46.7125C257.333 47.2301 257.05 47.714 256.759 48.1642C256.207 49.1993 255.545 50.3813 254.774 51.7102C254.037 53.0319 253.223 54.2465 252.334 55.3541C252.108 55.6142 251.874 55.7528 251.631 55.7699C251.381 55.7533 251.167 55.6585 250.988 55.4854C250.776 55.3196 250.642 55.102 250.583 54.8326C250.525 54.5632 250.593 54.3021 250.785 54.0492C251.316 53.4063 251.842 52.6587 252.363 51.8065C252.877 50.9205 253.374 50.0382 253.855 49.1596C254.369 48.2737 254.823 47.4359 255.216 46.6464C255.637 45.8159 255.998 45.1214 256.301 44.5629C256.399 44.3655 256.547 44.0694 256.744 43.6746C256.974 43.2726 257.225 42.8838 257.497 42.5082C257.795 42.0916 258.12 41.722 258.474 41.3992C258.82 41.0428 259.178 40.8247 259.549 40.7449C260.02 40.6434 260.43 40.7488 260.78 41.0613C261.129 41.3737 261.358 41.7825 261.467 42.2877C261.561 42.7255 261.595 43.2114 261.569 43.7456C261.57 44.2388 261.536 44.7393 261.47 45.247C261.429 45.7138 261.368 46.1674 261.287 46.6078C261.198 47.0145 261.125 47.3298 261.068 47.5536C260.967 48.0686 260.797 48.669 260.557 49.355C260.31 50.0073 260.295 50.5919 260.512 51.109C260.82 50.9018 261.156 50.5827 261.521 50.1516C261.913 49.6797 262.301 49.1908 262.686 48.6852C263.063 48.1459 263.436 47.5897 263.806 47.0167C264.21 46.4365 264.591 45.914 264.949 45.4493C265.307 44.9846 265.695 44.4958 266.113 43.9829C266.531 43.47 266.994 43.0003 267.501 42.574C268.035 42.1067 268.583 41.7067 269.146 41.3741C269.735 41.0006 270.366 40.7413 271.04 40.5963C271.949 40.4005 272.825 40.4586 273.667 40.7705C274.536 41.0415 275.086 41.7159 275.318 42.7935C275.55 43.8712 275.52 45.0405 275.228 46.3016C274.962 47.5217 274.622 48.7226 274.207 49.9044C273.825 51.0789 273.463 52.1788 273.12 53.2041C272.77 54.1957 272.66 54.9946 272.79 55.6008C272.943 56.308 273.322 56.5964 273.928 56.4658C274.299 56.3861 274.681 56.198 275.075 55.9017C275.47 55.6053 275.783 55.344 276.016 55.1176C276.456 54.7057 276.945 54.1952 277.484 53.5859C278.015 52.943 278.539 52.2664 279.055 51.5561C279.606 50.8385 280.122 50.1283 280.605 49.4252C281.122 48.7149 281.578 48.0528 281.974 47.4389C282.133 47.1933 282.33 47.0452 282.566 46.9944C282.802 46.9436 283.022 46.9843 283.226 47.1164C283.458 47.2076 283.615 47.3675 283.7 47.596C283.818 47.8172 283.839 48.077 283.762 48.3755ZM290.286 24.8762C290.69 24.7892 291.022 24.8586 291.282 25.0845C291.543 25.3104 291.716 25.6254 291.803 26.0295C291.861 26.2989 291.877 26.7007 291.851 27.2349C291.852 27.7281 291.785 28.2359 291.651 28.7581C291.55 29.2731 291.388 29.7484 291.165 30.1841C290.975 30.6126 290.712 30.8631 290.375 30.9356C290.241 30.9646 290.099 30.9599 289.949 30.9216C289.834 30.876 289.754 30.7522 289.711 30.5501C289.66 30.3144 289.628 30.004 289.616 29.6191C289.604 29.2341 289.547 28.8059 289.445 28.3344C289.394 28.0987 289.314 27.887 289.203 27.6995C289.118 27.471 289.047 27.2221 288.989 26.9526C288.887 26.4812 288.969 26.0408 289.233 25.6315C289.531 25.215 289.882 24.9632 290.286 24.8762ZM283.521 48.6915C283.281 48.8842 283.036 48.9723 282.785 48.9557C282.494 48.9127 282.28 48.8179 282.143 48.6712C281.965 48.4982 281.867 48.2902 281.85 48.0472C281.799 47.8114 281.87 47.5672 282.062 47.3143C282.559 46.6786 283.023 46.0502 283.453 45.429C283.883 44.8079 284.274 44.2481 284.624 43.7497C284.968 43.2176 285.255 42.7506 285.486 42.3485C285.75 41.9392 285.952 41.6491 286.091 41.4782C286.423 41.0544 286.757 40.5596 287.093 39.9939C287.463 39.4209 287.853 38.8611 288.264 38.3145C288.675 37.7679 289.134 37.2815 289.641 36.8551C290.149 36.4287 290.705 36.1503 291.311 36.0197C291.749 35.9255 292.061 35.9817 292.246 36.1884C292.458 36.3542 292.6 36.6055 292.673 36.9423C292.782 37.4474 292.757 38.0694 292.599 38.8082C292.475 39.5398 292.319 40.2076 292.132 40.8117C291.731 42.0608 291.37 43.2485 291.049 44.3749C290.754 45.4603 290.415 46.749 290.032 48.2411C289.943 48.6478 289.799 49.2074 289.6 49.9197C289.428 50.5912 289.388 51.1458 289.483 51.5836C289.505 51.6846 289.564 51.7952 289.66 51.9154C289.756 52.0356 289.889 52.0776 290.057 52.0414C290.394 51.9688 290.748 51.7339 291.121 51.3365C291.486 50.9055 291.735 50.5877 291.867 50.383C292.146 50.0411 292.461 49.6209 292.811 49.1225C293.196 48.6169 293.577 48.0944 293.954 47.5551C294.324 46.9821 294.681 46.4296 295.024 45.8975C295.368 45.3654 295.685 44.8743 295.975 44.4241C296.16 44.1376 296.391 43.9822 296.668 43.9578C296.945 43.9335 297.185 43.9874 297.39 44.1195C297.595 44.2516 297.729 44.4692 297.795 44.7723C297.886 45.0345 297.81 45.3329 297.565 45.6676C297.161 46.2478 296.731 46.869 296.274 47.5311C295.844 48.1523 295.401 48.7939 294.945 49.4561C294.522 50.1109 294.079 50.7525 293.615 51.381C293.178 51.9685 292.75 52.5187 292.332 53.0316C291.993 53.4217 291.571 53.9177 291.066 54.5197C290.555 55.0881 289.945 55.4484 289.238 55.6007C288.699 55.7167 288.228 55.6594 287.826 55.4288C287.451 55.1573 287.198 54.7185 287.067 54.1123C286.966 53.6408 286.915 53.1585 286.914 52.6652C286.906 52.1383 286.968 51.526 287.1 50.8281C287.258 50.0893 287.443 49.3096 287.654 48.4889C287.864 47.6682 288.092 46.844 288.337 46.016C288.574 45.1545 288.785 44.3338 288.969 43.5541C289.073 43.2147 289.178 42.8044 289.286 42.3231C289.386 41.8081 289.415 41.4496 289.371 41.2475C289.328 41.0455 289.239 40.9589 289.104 40.9879C288.936 41.0242 288.719 41.247 288.455 41.6563C288.097 42.121 287.686 42.6675 287.222 43.296C286.792 43.9171 286.349 44.5588 285.893 45.2209C285.47 45.8757 285.043 46.5138 284.613 47.1349C284.217 47.7489 283.853 48.2677 283.521 48.6915ZM329.048 38.624C328.678 39.197 328.208 39.8796 327.639 40.6717C327.103 41.4566 326.52 42.2692 325.891 43.1096C325.295 43.9426 324.675 44.7457 324.031 45.5186C323.387 46.2916 322.798 46.9117 322.265 47.379C321.791 47.7981 321.2 48.2426 320.49 48.7125C319.807 49.1415 319.112 49.4321 318.405 49.5844C317.698 49.7366 317.024 49.6351 316.384 49.2796C315.777 48.9169 315.387 48.3314 315.213 47.5232C315.089 46.9507 315.047 46.3432 315.085 45.7008C315.156 45.0511 315.229 44.4892 315.303 44.0152C315.384 43.5748 315.553 42.8865 315.81 41.9503C316.1 41.0069 316.379 40.0129 316.648 38.9684C316.943 37.883 317.181 36.8626 317.363 35.9073C317.545 34.9519 317.585 34.2385 317.483 33.767C317.367 33.2282 317.074 33.0095 316.602 33.1111C316.198 33.1981 315.712 33.4789 315.145 33.9534C314.604 34.387 314.044 34.8953 313.465 35.4781C312.885 36.0609 312.327 36.657 311.788 37.2662C311.276 37.8345 310.868 38.3101 310.563 38.693C308.989 40.5472 307.603 42.3783 306.407 44.1864C305.237 45.9536 303.999 47.8941 302.692 50.0079C302.567 50.2462 302.403 50.5459 302.198 50.907C302.021 51.2272 301.83 51.5678 301.626 51.9289C301.414 52.2563 301.162 52.5573 300.869 52.8319C300.609 53.0992 300.328 53.2655 300.025 53.3308C299.822 53.3743 299.623 53.3468 299.425 53.2484C299.228 53.1499 299.1 52.966 299.042 52.6966C298.992 52.4609 299.018 52.1733 299.121 51.834C299.224 51.4946 299.344 51.1516 299.481 50.805C299.651 50.4512 299.812 50.1346 299.963 49.8554C300.148 49.5689 300.273 49.3306 300.338 49.1404C301.248 47.1474 302.061 45.0341 302.779 42.8006C303.522 40.5262 303.941 38.216 304.035 35.8701C303.585 36.0726 303.205 36.4363 302.895 36.9611C302.619 37.4787 302.336 37.9626 302.045 38.4128C301.493 39.4479 300.831 40.6299 300.06 41.9588C299.323 43.2804 298.51 44.4951 297.62 45.6027C297.395 45.8628 297.16 46.0014 296.917 46.0185C296.667 46.0019 296.453 45.907 296.274 45.734C296.063 45.5682 295.928 45.3506 295.87 45.0812C295.812 44.8117 295.879 44.5506 296.071 44.2978C296.602 43.6549 297.128 42.9073 297.649 42.055C298.163 41.1691 298.661 40.2868 299.141 39.4081C299.655 38.5222 300.109 37.6845 300.503 36.8949C300.923 36.0644 301.284 35.3699 301.587 34.8114C301.685 34.6141 301.833 34.318 302.03 33.9232C302.26 33.5212 302.511 33.1323 302.783 32.7567C303.081 32.3402 303.407 31.9705 303.76 31.6478C304.106 31.2914 304.464 31.0733 304.835 30.9935C305.306 30.892 305.717 30.9974 306.066 31.3099C306.415 31.6223 306.644 32.0311 306.753 32.5362C306.847 32.974 306.881 33.46 306.855 33.9942C306.856 34.4874 306.822 34.9879 306.756 35.4956C306.715 35.9624 306.654 36.416 306.573 36.8564C306.484 37.2631 306.411 37.5783 306.354 37.8022C306.253 38.3171 306.083 38.9176 305.843 39.6036C305.596 40.2558 305.581 40.8405 305.798 41.3576C306.106 41.1504 306.442 40.8312 306.807 40.4002C307.199 39.9282 307.587 39.4394 307.972 38.9338C308.349 38.3945 308.722 37.8383 309.092 37.2653C309.496 36.685 309.877 36.1626 310.235 35.6979C310.593 35.2331 310.981 34.7443 311.399 34.2314C311.817 33.7185 312.28 33.2489 312.787 32.8225C313.321 32.3552 313.869 31.9553 314.432 31.6227C315.021 31.2492 315.652 30.9899 316.326 30.8449C317.235 30.6491 318.111 30.7072 318.953 31.0191C319.822 31.2901 320.372 31.9644 320.604 33.0421C320.837 34.1198 320.806 35.2891 320.514 36.5501C320.248 37.7703 319.908 38.9712 319.493 40.153C319.111 41.3275 318.749 42.4274 318.406 43.4527C318.056 44.4443 317.946 45.2432 318.077 45.8494C318.229 46.5566 318.608 46.8449 319.214 46.7144C319.585 46.6346 319.967 46.4466 320.361 46.1502C320.756 45.8539 321.069 45.5926 321.303 45.3662C321.742 44.9543 322.232 44.4437 322.77 43.8345C323.301 43.1915 323.825 42.5149 324.341 41.8046C324.892 41.0871 325.408 40.3768 325.891 39.6738C326.408 38.9635 326.864 38.3014 327.261 37.6875C327.419 37.4419 327.616 37.2937 327.852 37.243C328.088 37.1922 328.308 37.2329 328.513 37.365C328.744 37.4562 328.901 37.6161 328.986 37.8445C329.104 38.0658 329.125 38.3256 329.048 38.624ZM345.184 22.9395C345.487 22.8742 345.727 22.9281 345.906 23.1012C346.077 23.2405 346.191 23.4449 346.249 23.7143C346.372 24.2868 346.334 24.9293 346.135 25.6417C345.929 26.3204 345.761 26.8499 345.632 27.2301C345.133 28.6766 344.576 30.347 343.962 32.2411C343.348 34.1352 342.7 36.0366 342.019 37.9453C341.993 37.9862 341.917 38.1258 341.792 38.3641C341.694 38.5615 341.589 38.813 341.479 39.1187C341.369 39.4244 341.275 39.7264 341.198 40.0249C341.122 40.3233 341.101 40.5567 341.138 40.7251C341.181 40.9271 341.321 41.0028 341.557 40.952C341.927 40.8722 342.473 40.5433 343.194 39.9651C343.949 39.3797 344.733 38.6824 345.545 37.8732C346.357 37.0639 347.146 36.2247 347.91 35.3553C348.674 34.486 349.264 33.7071 349.68 33.0185C349.918 32.6502 350.175 32.4538 350.451 32.4295C350.721 32.3715 350.941 32.4122 351.112 32.5516C351.317 32.6837 351.452 32.9013 351.517 33.2044C351.582 33.5075 351.522 33.8023 351.337 34.0888C350.624 35.1938 349.701 36.3087 348.569 37.4335C347.47 38.5509 346.327 39.6252 345.14 40.6561C343.986 41.6798 342.902 42.618 341.887 43.4708C340.866 44.2898 340.108 44.9462 339.616 45.4399C338.943 46.0782 338.444 46.8727 338.12 47.8234C337.804 48.8077 337.465 49.6911 337.105 50.4734C336.4 52.1054 335.683 53.6868 334.955 55.2178C334.228 56.7487 333.368 58.2377 332.376 59.6847C331.391 61.1654 330.206 62.6186 328.822 64.0443C327.437 65.47 325.735 66.8937 323.716 68.3152C323.381 68.5634 322.899 68.861 322.269 69.2081C321.639 69.5552 321.038 69.7904 320.466 69.9137C319.59 70.1022 319.072 69.826 318.913 69.0851C318.797 68.5463 318.818 67.9075 318.976 67.1687C319.1 66.4371 319.224 65.8644 319.346 65.4504C319.854 63.72 320.6 62.0266 321.582 60.3703C322.564 58.714 323.713 57.0924 325.027 55.5056C326.349 53.9524 327.786 52.4448 329.339 50.9828C330.892 49.5208 332.473 48.1057 334.081 46.7375C334.622 46.3039 335.089 45.9389 335.484 45.6426C335.878 45.3462 336.248 45.0198 336.594 44.6634C336.967 44.2661 337.304 43.7881 337.607 43.2296C337.943 42.6639 338.294 41.9189 338.659 40.9946C338.997 40.1113 339.266 39.3134 339.465 38.601C339.697 37.8814 339.792 37.4206 339.748 37.2185C339.734 37.1511 339.693 37.1247 339.625 37.1392C339.423 37.1827 339.176 37.3418 338.883 37.6164C338.623 37.8837 338.341 38.2088 338.035 38.5916C337.757 38.9336 337.481 39.2923 337.21 39.6679C336.938 40.0435 336.72 40.3373 336.554 40.5492C336.256 40.9657 335.898 41.4304 335.48 41.9433C335.055 42.4226 334.592 42.8922 334.092 43.3522C333.626 43.805 333.132 44.2109 332.61 44.5699C332.081 44.8953 331.547 45.116 331.008 45.232C330.335 45.377 329.64 45.2622 328.925 44.8876C328.177 44.5202 327.672 43.7304 327.411 42.518C327.019 40.6995 327.1 38.8672 327.654 37.0212C328.201 35.1416 328.926 33.435 329.829 31.9015C330.192 31.2948 330.641 30.5991 331.177 29.8142C331.739 28.9883 332.362 28.2022 333.047 27.4556C333.732 26.7091 334.473 26.0563 335.269 25.4973C336.091 24.8974 336.957 24.4996 337.866 24.3038C338.809 24.1007 339.349 24.3191 339.487 24.959C339.603 25.4978 339.5 26.0838 339.178 26.7169C338.849 27.3163 338.586 27.8134 338.39 28.2082C337.705 29.448 336.822 30.7481 335.741 32.1085C334.693 33.4618 333.641 34.7103 332.583 35.8542C332.244 36.2443 331.885 36.6212 331.505 36.9849C331.118 37.3149 330.792 37.6846 330.528 38.0939C330.264 38.5031 330.068 38.9857 329.941 39.5417C329.848 40.0903 329.881 40.7351 330.041 41.476C330.149 41.9811 330.273 42.307 330.41 42.4537C330.547 42.6003 330.75 42.6446 331.02 42.5866C331.222 42.5431 331.48 42.4345 331.795 42.261C332.103 42.0538 332.407 41.8297 332.708 41.5888C333.001 41.3142 333.281 41.0601 333.548 40.8265C333.815 40.5928 334.005 40.411 334.118 40.2809C335.235 39.0889 336.231 37.9053 337.106 36.7303C338.014 35.5481 338.831 34.3503 339.557 33.1369C340.316 31.9163 341.027 30.6356 341.689 29.2948C342.352 27.954 343.013 26.5254 343.674 25.0089C343.863 24.5805 344.053 24.152 344.242 23.7236C344.432 23.2951 344.746 23.0337 345.184 22.9395ZM336.17 28.2104C336.141 28.0757 336.042 28.0265 335.874 28.0627C335.604 28.1207 335.267 28.352 334.86 28.7567C334.488 29.154 334.13 29.6187 333.786 30.1508C333.469 30.6419 333.189 31.1427 332.947 31.653C332.697 32.1296 332.577 32.4726 332.587 32.6819C332.609 32.7829 332.67 32.8226 332.771 32.8008C332.973 32.7573 333.261 32.5369 333.633 32.1395C334.032 31.7012 334.424 31.2293 334.808 30.7236C335.193 30.218 335.527 29.7232 335.81 29.2393C336.094 28.7554 336.213 28.4125 336.17 28.2104ZM335.252 48.4939C334.881 48.5737 334.319 48.9063 333.564 49.4917C332.809 50.0771 331.978 50.8021 331.072 51.6668C330.173 52.5651 329.238 53.5417 328.267 54.5965C327.27 55.6922 326.344 56.7903 325.488 57.8907C324.633 58.9911 323.905 60.0288 323.304 61.0038C322.677 62.0198 322.264 62.8839 322.065 63.5963C321.955 63.902 321.799 64.3232 321.597 64.8599C321.369 65.4376 321.288 65.878 321.353 66.1811C321.418 66.4842 321.619 66.5994 321.956 66.5269C322.327 66.4472 322.773 66.2278 323.295 65.8688C323.783 65.517 324.143 65.2279 324.376 65.0015C325.492 64.127 326.535 63.1624 327.506 62.1076C328.477 61.0528 329.383 59.9415 330.224 58.7738C331.031 57.6133 331.777 56.4131 332.462 55.1733C333.187 53.96 333.841 52.7443 334.425 51.5263C334.451 51.4854 334.523 51.3289 334.641 51.0569C334.766 50.8186 334.9 50.543 335.044 50.23C335.188 49.9171 335.299 49.6114 335.375 49.313C335.493 49.041 335.534 48.8208 335.497 48.6525C335.468 48.5177 335.387 48.4649 335.252 48.4939Z" fill="#09E85E"/>
</svg>
